<?xml version="1.0" encoding="utf-8"?>
<!-- Generator: Fusion 360, Shaper Origin Export Add-In, Version 1.8.0  -->
<svg xmlns="http://www.w3.org/2000/svg" xmlns:xlink="http://www.w3.org/1999/xlink" xmlns:shaper="http://www.shapertools.com/namespaces/shaper" shaper:fusionaddin="version:1.8.0" width="10cm" height="5cm" version="1.1" x="0cm" y="0cm" viewBox="0 0 10 5" enable-background="new 0 0 10 5" xml:space="preserve"><path d="M2.17264,3.19511 A0.1,0.1 90 0,1 2.07264,3.09511 L2.07264,1.7275 A0.1,0.1 0 0,0 1.97264,1.6275 L-3.97336,1.6275 A0.1,0.1 270 0,0 -4.07336,1.7275 L-4.07336,3.09511 A0.1,0.1 0 0,1 -4.17336,3.19511 L-4.5,3.19511 A0.5,0.5 89.9999963 0,1 -5,2.69511 L-5,-1.30489 A0.5,0.5 179.9999964 0,1 -4.5,-1.80489 L4.5,-1.80489 A0.5,0.5 269.9999963 0,1 5,-1.30489 L5,2.69511 A0.5,0.5 0 0,1 4.5,3.19511 L2.17264,3.19511z" transform="matrix(1,0,0,-1,5,3.19511)" fill="rgb(0,0,0)" stroke-linecap="round" stroke-linejoin="round" /><path d="M-4.56036,-1.205 a0.16,0.16 0 1,1 0.32,0 a0.16,0.16 0 1,1 -0.32,0z" transform="matrix(1,0,0,-1,5,3.19511)" fill="rgb(255,255,255)" stroke="rgb(0,0,0)" stroke-width="0.0010cm" stroke-linecap="round" stroke-linejoin="round" /><path d="M-4.56036,2.595 a0.16,0.16 0 1,1 0.32,0 a0.16,0.16 0 1,1 -0.32,0z" transform="matrix(1,0,0,-1,5,3.19511)" fill="rgb(255,255,255)" stroke="rgb(0,0,0)" stroke-width="0.0010cm" stroke-linecap="round" stroke-linejoin="round" /><path d="M4.23964,-1.205 a0.16,0.16 0 1,1 0.32,0 a0.16,0.16 0 1,1 -0.32,0z" transform="matrix(1,0,0,-1,5,3.19511)" fill="rgb(255,255,255)" stroke="rgb(0,0,0)" stroke-width="0.0010cm" stroke-linecap="round" stroke-linejoin="round" /><path d="M-3.97056,0.30764 L-3.97056,1.34236 A0.1,0.1 180 0,0 -3.87056,1.44236 L1.96984,1.44236 A0.1,0.1 90 0,0 2.06984,1.34236 L2.06984,0.30764 A0.1,0.1 0 0,0 1.96984,0.20764 L-3.87056,0.20764 A0.1,0.1 270 0,0 -3.97056,0.30764z" transform="matrix(1,0,0,-1,5,3.19511)" fill="rgb(255,255,255)" stroke="rgb(0,0,0)" stroke-width="0.0010cm" stroke-linecap="round" stroke-linejoin="round" /><path d="M4.23964,2.595 a0.16,0.16 0 1,1 0.32,0 a0.16,0.16 0 1,1 -0.32,0z" transform="matrix(1,0,0,-1,5,3.19511)" fill="rgb(255,255,255)" stroke="rgb(0,0,0)" stroke-width="0.0010cm" stroke-linecap="round" stroke-linejoin="round" /><path d="M-3.97056,-1.34236 L-3.97056,-0.30764 A0.1,0.1 180 0,0 -3.87056,-0.20764 L1.96984,-0.20764 A0.1,0.1 90 0,0 2.06984,-0.30764 L2.06984,-1.34236 A0.1,0.1 0 0,0 1.96984,-1.44236 L-3.87056,-1.44236 A0.1,0.1 270 0,0 -3.97056,-1.34236z" transform="matrix(1,0,0,-1,5,3.19511)" fill="rgb(255,255,255)" stroke="rgb(0,0,0)" stroke-width="0.0010cm" stroke-linecap="round" stroke-linejoin="round" /></svg>