<?xml version="1.0" encoding="utf-8"?>
<!-- Generator: Fusion 360, Shaper Origin Export Add-In, Version 1.8.0  -->
<svg xmlns="http://www.w3.org/2000/svg" xmlns:xlink="http://www.w3.org/1999/xlink" xmlns:shaper="http://www.shapertools.com/namespaces/shaper" shaper:fusionaddin="version:1.8.0" width="10cm" height="10cm" version="1.1" x="0cm" y="0cm" viewBox="0 0 10 10" enable-background="new 0 0 10 10" xml:space="preserve"><path d="M2.17264,5 A0.1,0.1 90 0,1 2.07264,4.9 L2.07264,3.53239 A0.1,0.1 0 0,0 1.97264,3.43239 L-3.97336,3.43239 A0.1,0.1 270 0,0 -4.07336,3.53239 L-4.07336,4.9 A0.1,0.1 0 0,1 -4.17336,5 L-4.5,5 A0.5,0.5 89.9999963 0,1 -5,4.5 L-5,-4.5 A0.5,0.5 179.9999964 0,1 -4.5,-5 L4.5,-5 A0.5,0.5 269.9999963 0,1 5,-4.5 L5,4.5 A0.5,0.5 0 0,1 4.5,5 L2.17264,5z" transform="matrix(1,0,0,-1,5,5)" fill="rgb(0,0,0)" stroke-linecap="round" stroke-linejoin="round" /><path d="M4.23964,-4.40011 a0.16,0.16 0 1,1 0.32,0 a0.16,0.16 0 1,1 -0.32,0z" transform="matrix(1,0,0,-1,5,5)" fill="rgb(255,255,255)" stroke="rgb(0,0,0)" stroke-width="0.0010cm" stroke-linecap="round" stroke-linejoin="round" /><path d="M-3.97056,-1.18747 L-3.97056,-0.15275 A0.1,0.1 180 0,0 -3.87056,-0.05275 L1.96984,-0.05275 A0.1,0.1 90 0,0 2.06984,-0.15275 L2.06984,-1.18747 A0.1,0.1 0 0,0 1.96984,-1.28747 L-3.87056,-1.28747 A0.1,0.1 270 0,0 -3.97056,-1.18747z" transform="matrix(1,0,0,-1,5,5)" fill="rgb(255,255,255)" stroke="rgb(0,0,0)" stroke-width="0.0010cm" stroke-linecap="round" stroke-linejoin="round" /><path d="M-4.56036,4.39989 a0.16,0.16 0 1,1 0.32,0 a0.16,0.16 0 1,1 -0.32,0z" transform="matrix(1,0,0,-1,5,5)" fill="rgb(255,255,255)" stroke="rgb(0,0,0)" stroke-width="0.0010cm" stroke-linecap="round" stroke-linejoin="round" /><path d="M-4.56036,-4.40011 a0.16,0.16 0 1,1 0.32,0 a0.16,0.16 0 1,1 -0.32,0z" transform="matrix(1,0,0,-1,5,5)" fill="rgb(255,255,255)" stroke="rgb(0,0,0)" stroke-width="0.0010cm" stroke-linecap="round" stroke-linejoin="round" /><path d="M2.71714,-3.04811 L2.71714,2.89789 A0.1,0.1 180 0,0 2.81714,2.99789 L3.80214,2.99789 A0.1,0.1 90 0,0 3.90214,2.89789 L3.90214,-3.04811 A0.1,0.1 0 0,0 3.80214,-3.14811 L2.81714,-3.14811 A0.1,0.1 270 0,0 2.71714,-3.04811z" transform="matrix(1,0,0,-1,5,5)" fill="rgb(255,255,255)" stroke="rgb(0,0,0)" stroke-width="0.0010cm" stroke-linecap="round" stroke-linejoin="round" /><path d="M-3.97056,2.11253 L-3.97056,3.14725 A0.1,0.1 180 0,0 -3.87056,3.24725 L1.96984,3.24725 A0.1,0.1 90 0,0 2.06984,3.14725 L2.06984,2.11253 A0.1,0.1 0 0,0 1.96984,2.01253 L-3.87056,2.01253 A0.1,0.1 270 0,0 -3.97056,2.11253z" transform="matrix(1,0,0,-1,5,5)" fill="rgb(255,255,255)" stroke="rgb(0,0,0)" stroke-width="0.0010cm" stroke-linecap="round" stroke-linejoin="round" /><path d="M4.23964,4.39989 a0.16,0.16 0 1,1 0.32,0 a0.16,0.16 0 1,1 -0.32,0z" transform="matrix(1,0,0,-1,5,5)" fill="rgb(255,255,255)" stroke="rgb(0,0,0)" stroke-width="0.0010cm" stroke-linecap="round" stroke-linejoin="round" /><path d="M-3.97056,-2.83747 L-3.97056,-1.80275 A0.1,0.1 180 0,0 -3.87056,-1.70275 L1.96984,-1.70275 A0.1,0.1 90 0,0 2.06984,-1.80275 L2.06984,-2.83747 A0.1,0.1 0 0,0 1.96984,-2.93747 L-3.87056,-2.93747 A0.1,0.1 270 0,0 -3.97056,-2.83747z" transform="matrix(1,0,0,-1,5,5)" fill="rgb(255,255,255)" stroke="rgb(0,0,0)" stroke-width="0.0010cm" stroke-linecap="round" stroke-linejoin="round" /><path d="M-3.97056,0.46253 L-3.97056,1.49725 A0.1,0.1 180 0,0 -3.87056,1.59725 L1.96984,1.59725 A0.1,0.1 90 0,0 2.06984,1.49725 L2.06984,0.46253 A0.1,0.1 0 0,0 1.96984,0.36253 L-3.87056,0.36253 A0.1,0.1 270 0,0 -3.97056,0.46253z" transform="matrix(1,0,0,-1,5,5)" fill="rgb(255,255,255)" stroke="rgb(0,0,0)" stroke-width="0.0010cm" stroke-linecap="round" stroke-linejoin="round" /><path d="M-3.97056,-4.48747 L-3.97056,-3.45275 A0.1,0.1 180 0,0 -3.87056,-3.35275 L1.96984,-3.35275 A0.1,0.1 90 0,0 2.06984,-3.45275 L2.06984,-4.48747 A0.1,0.1 0 0,0 1.96984,-4.58747 L-3.87056,-4.58747 A0.1,0.1 270 0,0 -3.97056,-4.48747z" transform="matrix(1,0,0,-1,5,5)" fill="rgb(255,255,255)" stroke="rgb(0,0,0)" stroke-width="0.0010cm" stroke-linecap="round" stroke-linejoin="round" /></svg>