<?xml version="1.0" encoding="utf-8"?>
<!-- Generator: Fusion 360, Shaper Origin Export Add-In, Version 1.8.0  -->
<svg xmlns="http://www.w3.org/2000/svg" xmlns:xlink="http://www.w3.org/1999/xlink" xmlns:shaper="http://www.shapertools.com/namespaces/shaper" shaper:fusionaddin="version:1.8.0" width="10cm" height="10cm" version="1.1" x="0cm" y="0cm" viewBox="0 0 10 10" enable-background="new 0 0 10 10" xml:space="preserve"><path d="M-0.27675,5 A0.1,0.1 90 0,1 -0.37675,4.9 L-0.37675,3.4245204 A0.1,0.1 0 0,0 -0.47675,3.3245204 L-6.42275,3.3245204 A0.1,0.1 270 0,0 -6.52275,3.4245204 L-6.52275,4.9 A0.1,0.1 0 0,1 -6.62275,5 L-6.94939,5 A0.5,0.5 89.9999963 0,1 -7.44939,4.5 L-7.44939,-4.5 A0.5,0.5 179.9999964 0,1 -6.94939,-5 L2.05061,-5 A0.5,0.5 269.9999963 0,1 2.55061,-4.5 L2.55061,4.5 A0.5,0.5 0 0,1 2.05061,5 L-0.27675,5z" transform="matrix(1,0,0,-1,7.44939,5)" fill="rgb(0,0,0)" stroke-linecap="round" stroke-linejoin="round" /><path d="M-0.76075,-4.67111 L-5.58675,-4.67111 A0.15,0.15 270 0,0 -5.58675,-4.37111 L-0.76075,-4.37111 A0.15,0.15 90 1,0 -0.76075,-4.67111z" transform="matrix(1,0,0,-1,7.44939,5)" fill="rgb(255,255,255)" stroke="rgb(0,0,0)" stroke-width="0.0010cm" stroke-linecap="round" stroke-linejoin="round" /><path d="M-0.76075,2.94889 L-5.58675,2.94889 A0.15,0.15 270 1,0 -5.58675,3.24889 L-0.76075,3.24889 A0.15,0.15 90 0,0 -0.76075,2.94889z" transform="matrix(1,0,0,-1,7.44939,5)" fill="rgb(255,255,255)" stroke="rgb(0,0,0)" stroke-width="0.0010cm" stroke-linecap="round" stroke-linejoin="round" /><path d="M1.79025,-4.40011 a0.16,0.16 0 1,1 0.32,0 a0.16,0.16 0 1,1 -0.32,0z" transform="matrix(1,0,0,-1,7.44939,5)" fill="rgb(255,255,255)" stroke="rgb(0,0,0)" stroke-width="0.0010cm" stroke-linecap="round" stroke-linejoin="round" /><path d="M-6.18125,-4.52111 a0.15,0.15 0 1,1 0.3,0 a0.15,0.15 0 1,1 -0.3,0z" transform="matrix(1,0,0,-1,7.44939,5)" fill="rgb(255,255,255)" stroke="rgb(0,0,0)" stroke-width="0.0010cm" stroke-linecap="round" stroke-linejoin="round" /><path d="M0.54875,-2.15861 L0.54875,-0.02661 A0.05,0.05 180 0,0 0.59875,0.02339 L1.20675,0.02339 A0.05,0.05 90 0,0 1.25675,-0.02661 L1.25675,-2.15861 A0.05,0.05 0 0,0 1.20675,-2.20861 L0.59875,-2.20861 A0.05,0.05 270 0,0 0.54875,-2.15861z" transform="matrix(1,0,0,-1,7.44939,5)" fill="rgb(255,255,255)" stroke="rgb(0,0,0)" stroke-width="0.0010cm" stroke-linecap="round" stroke-linejoin="round" /><path d="M-6.18125,3.09889 a0.15,0.15 0 1,1 0.3,0 a0.15,0.15 0 1,1 -0.3,0z" transform="matrix(1,0,0,-1,7.44939,5)" fill="rgb(255,255,255)" stroke="rgb(0,0,0)" stroke-width="0.0010cm" stroke-linecap="round" stroke-linejoin="round" /><path d="M-0.46625,3.09889 a0.15,0.15 0 1,1 0.3,0 a0.15,0.15 0 1,1 -0.3,0z" transform="matrix(1,0,0,-1,7.44939,5)" fill="rgb(255,255,255)" stroke="rgb(0,0,0)" stroke-width="0.0010cm" stroke-linecap="round" stroke-linejoin="round" /><path d="M-7.00975,-4.40011 a0.16,0.16 0 1,1 0.32,0 a0.16,0.16 0 1,1 -0.32,0z" transform="matrix(1,0,0,-1,7.44939,5)" fill="rgb(255,255,255)" stroke="rgb(0,0,0)" stroke-width="0.0010cm" stroke-linecap="round" stroke-linejoin="round" /><path d="M1.79025,4.39989 a0.16,0.16 0 1,1 0.32,0 a0.16,0.16 0 1,1 -0.32,0z" transform="matrix(1,0,0,-1,7.44939,5)" fill="rgb(255,255,255)" stroke="rgb(0,0,0)" stroke-width="0.0010cm" stroke-linecap="round" stroke-linejoin="round" /><path d="M-0.46625,-4.52111 a0.15,0.15 0 1,1 0.3,0 a0.15,0.15 0 1,1 -0.3,0z" transform="matrix(1,0,0,-1,7.44939,5)" fill="rgb(255,255,255)" stroke="rgb(0,0,0)" stroke-width="0.0010cm" stroke-linecap="round" stroke-linejoin="round" /><path d="M-7.00975,4.39989 a0.16,0.16 0 1,1 0.32,0 a0.16,0.16 0 1,1 -0.32,0z" transform="matrix(1,0,0,-1,7.44939,5)" fill="rgb(255,255,255)" stroke="rgb(0,0,0)" stroke-width="0.0010cm" stroke-linecap="round" stroke-linejoin="round" /><path d="M-0.54875,-3.35511 A0.05,0.05 180 0,1 -0.49875,-3.40511 L-0.13375,-3.40511 A0.05,0.05 90 0,0 -0.08375,-3.45511 L-0.08375,-3.80911 A0.05,0.05 0 0,0 -0.13375,-3.85911 L-0.49875,-3.85911 A0.05,0.05 90 0,1 -0.54875,-3.90911 L-0.54875,-4.20111 A0.1,0.1 0 0,0 -0.64875,-4.30111 L-5.69875,-4.30111 A0.1,0.1 270 0,0 -5.79875,-4.20111 L-5.79875,2.77889 A0.1,0.1 180 0,0 -5.69875,2.87889 L-0.64875,2.87889 A0.1,0.1 90 0,0 -0.54875,2.77889 L-0.54875,-3.35511z" transform="matrix(1,0,0,-1,7.44939,5)" fill="rgb(255,255,255)" stroke="rgb(0,0,0)" stroke-width="0.0010cm" stroke-linecap="round" stroke-linejoin="round" /></svg>