<?xml version="1.0" encoding="utf-8"?>
<!-- Generator: Fusion 360, Shaper Origin Export Add-In, Version 1.8.0  -->
<svg xmlns="http://www.w3.org/2000/svg" xmlns:xlink="http://www.w3.org/1999/xlink" xmlns:shaper="http://www.shapertools.com/namespaces/shaper" shaper:fusionaddin="version:1.8.0" width="22.06794cm" height="10.426034cm" version="1.1" x="0cm" y="0cm" viewBox="0 0 22.06794 10.426034" enable-background="new 0 0 22.06794 10.426034" xml:space="preserve"><path d="M8.65219,3.4905228 A0.1,0.1 270 0,1 8.75219,3.5905228 L8.75219,4.5129128 A0.7,0.7 0 0,1 8.0516867,5.2129126 L2.5837467,5.1875226 1.38425,5.1875228 -12.61575,5.1875228 A0.7,0.7 89.9999974 0,1 -13.31575,4.4875228 L-13.31575,-4.5124772 A0.7,0.7 179.9999973 0,1 -12.61575,-5.2124772 L1.38425,-5.2124772 2.584766,-5.2131212 8.0527061,-5.187087 A0.7,0.7 270.0422385 0,1 8.75219,-4.4870872 L8.75219,-3.4614772 A0.1,0.1 0 0,1 8.65219,-3.3614772 L7.54475,-3.3614772 A0.1,0.1 270 0,0 7.44475,-3.2614772 L7.44475,-0.9754772 A0.1,0.1 180 0,0 7.54475,-0.8754772 L8.65219,-0.8754772 A0.1,0.1 270 0,1 8.75219,-0.7754772 L8.75219,0.9045228 A0.1,0.1 0 0,1 8.65219,1.0045228 L7.54475,1.0045228 A0.1,0.1 270 0,0 7.44475,1.1045228 L7.44475,3.3905228 A0.1,0.1 180 0,0 7.54475,3.4905228 L8.65219,3.4905228z" transform="matrix(1,0,0,-1,13.31575,5.2129128)" fill="rgb(0,0,0)" stroke-linecap="round" stroke-linejoin="round" /><path d="M2.63938,-3.1584772 a0.275,0.275 0 1,1 0.55,0 a0.275,0.275 0 1,1 -0.55,0z" transform="matrix(1,0,0,-1,13.31575,5.2129128)" fill="rgb(255,255,255)" stroke="rgb(0,0,0)" stroke-width="0.0010cm" stroke-linecap="round" stroke-linejoin="round" /><path d="M0.71575,1.2155228 L3.33375,1.2155228 A0.1,0.1 90 0,0 3.43375,1.1155228 L3.43375,-1.1704772 A0.1,0.1 0 0,0 3.33375,-1.2704772 L0.71575,-1.2704772 A0.1,0.1 270 0,0 0.61575,-1.1704772 L0.61575,1.1155228 A0.1,0.1 180 0,0 0.71575,1.2155228z" transform="matrix(1,0,0,-1,13.31575,5.2129128)" fill="rgb(255,255,255)" stroke="rgb(0,0,0)" stroke-width="0.0010cm" stroke-linecap="round" stroke-linejoin="round" /><path d="M-12.61575,-3.8124772 L-12.61575,3.7875228 A0.1,0.1 180 0,0 -12.51575,3.8875228 L-4.96575,3.8875228 A0.1,0.1 90 0,0 -4.86575,3.7875228 L-4.86575,-3.8124772 A0.1,0.1 0 0,0 -4.96575,-3.9124772 L-12.51575,-3.9124772 A0.1,0.1 270 0,0 -12.61575,-3.8124772z" transform="matrix(1,0,0,-1,13.31575,5.2129128)" fill="rgb(255,255,255)" stroke="rgb(0,0,0)" stroke-width="0.0010cm" stroke-linecap="round" stroke-linejoin="round" /><path d="M3.63425,4.0975228 L7.23425,4.0975228 A0.1,0.1 90 0,0 7.33425,3.9975228 L7.33425,-4.0024772 A0.1,0.1 0 0,0 7.23425,-4.1024772 L3.63425,-4.1024772 A0.1,0.1 270 0,0 3.53425,-4.0024772 L3.53425,3.9975228 A0.1,0.1 180 0,0 3.63425,4.0975228z" transform="matrix(1,0,0,-1,13.31575,5.2129128)" fill="rgb(255,255,255)" stroke="rgb(0,0,0)" stroke-width="0.0010cm" stroke-linecap="round" stroke-linejoin="round" /><path d="M-4.66575,-3.8124772 L-4.66575,3.7875228 A0.1,0.1 180 0,0 -4.56575,3.8875228 L-0.71575,3.8875228 A0.1,0.1 90 0,0 -0.61575,3.7875228 L-0.61575,-3.8124772 A0.1,0.1 0 0,0 -0.71575,-3.9124772 L-4.56575,-3.9124772 A0.1,0.1 270 0,0 -4.66575,-3.8124772z" transform="matrix(1,0,0,-1,13.31575,5.2129128)" fill="rgb(255,255,255)" stroke="rgb(0,0,0)" stroke-width="0.0010cm" stroke-linecap="round" stroke-linejoin="round" /><path d="M-12.67575,-4.4124772 a0.16,0.16 0 1,1 0.32,0 a0.16,0.16 0 1,1 -0.32,0z" transform="matrix(1,0,0,-1,13.31575,5.2129128)" fill="rgb(255,255,255)" stroke="rgb(0,0,0)" stroke-width="0.0010cm" stroke-linecap="round" stroke-linejoin="round" /><path d="M7.82425,-4.4124772 a0.16,0.16 0 1,1 0.32,0 a0.16,0.16 0 1,1 -0.32,0z" transform="matrix(1,0,0,-1,13.31575,5.2129128)" fill="rgb(255,255,255)" stroke="rgb(0,0,0)" stroke-width="0.0010cm" stroke-linecap="round" stroke-linejoin="round" /><path d="M-12.67575,4.3875228 a0.16,0.16 0 1,1 0.32,0 a0.16,0.16 0 1,1 -0.32,0z" transform="matrix(1,0,0,-1,13.31575,5.2129128)" fill="rgb(255,255,255)" stroke="rgb(0,0,0)" stroke-width="0.0010cm" stroke-linecap="round" stroke-linejoin="round" /><path d="M7.82425,4.3875228 a0.16,0.16 0 1,1 0.32,0 a0.16,0.16 0 1,1 -0.32,0z" transform="matrix(1,0,0,-1,13.31575,5.2129128)" fill="rgb(255,255,255)" stroke="rgb(0,0,0)" stroke-width="0.0010cm" stroke-linecap="round" stroke-linejoin="round" /><path d="M1.12425,4.3875228 a0.16,0.16 0 1,1 0.32,0 a0.16,0.16 0 1,1 -0.32,0z" transform="matrix(1,0,0,-1,13.31575,5.2129128)" fill="rgb(255,255,255)" stroke="rgb(0,0,0)" stroke-width="0.0010cm" stroke-linecap="round" stroke-linejoin="round" /><path d="M2.52425,-4.4124772 a0.16,0.16 0 1,1 0.32,0 a0.16,0.16 0 1,1 -0.32,0z" transform="matrix(1,0,0,-1,13.31575,5.2129128)" fill="rgb(255,255,255)" stroke="rgb(0,0,0)" stroke-width="0.0010cm" stroke-linecap="round" stroke-linejoin="round" /><path d="M2.52425,4.3875228 a0.16,0.16 0 1,1 0.32,0 a0.16,0.16 0 1,1 -0.32,0z" transform="matrix(1,0,0,-1,13.31575,5.2129128)" fill="rgb(255,255,255)" stroke="rgb(0,0,0)" stroke-width="0.0010cm" stroke-linecap="round" stroke-linejoin="round" /><path d="M1.12425,-4.4124772 a0.16,0.16 0 1,1 0.32,0 a0.16,0.16 0 1,1 -0.32,0z" transform="matrix(1,0,0,-1,13.31575,5.2129128)" fill="rgb(255,255,255)" stroke="rgb(0,0,0)" stroke-width="0.0010cm" stroke-linecap="round" stroke-linejoin="round" /></svg>