G04 #@! TF.GenerationSoftware,KiCad,Pcbnew,(5.1.9-0-10_14)*
G04 #@! TF.CreationDate,2021-04-09T13:05:53-05:00*
G04 #@! TF.ProjectId,Memory Card,4d656d6f-7279-4204-9361-72642e6b6963,rev?*
G04 #@! TF.SameCoordinates,Original*
G04 #@! TF.FileFunction,Paste,Top*
G04 #@! TF.FilePolarity,Positive*
%FSLAX46Y46*%
G04 Gerber Fmt 4.6, Leading zero omitted, Abs format (unit mm)*
G04 Created by KiCad (PCBNEW (5.1.9-0-10_14)) date 2021-04-09 13:05:53*
%MOMM*%
%LPD*%
G01*
G04 APERTURE LIST*
%ADD10R,1.270000X5.080000*%
G04 APERTURE END LIST*
G36*
G01*
X146698000Y-108425000D02*
X146698000Y-107475000D01*
G75*
G02*
X146948000Y-107225000I250000J0D01*
G01*
X147448000Y-107225000D01*
G75*
G02*
X147698000Y-107475000I0J-250000D01*
G01*
X147698000Y-108425000D01*
G75*
G02*
X147448000Y-108675000I-250000J0D01*
G01*
X146948000Y-108675000D01*
G75*
G02*
X146698000Y-108425000I0J250000D01*
G01*
G37*
G36*
G01*
X148598000Y-108425000D02*
X148598000Y-107475000D01*
G75*
G02*
X148848000Y-107225000I250000J0D01*
G01*
X149348000Y-107225000D01*
G75*
G02*
X149598000Y-107475000I0J-250000D01*
G01*
X149598000Y-108425000D01*
G75*
G02*
X149348000Y-108675000I-250000J0D01*
G01*
X148848000Y-108675000D01*
G75*
G02*
X148598000Y-108425000I0J250000D01*
G01*
G37*
G36*
G01*
X191524000Y-108425000D02*
X191524000Y-107475000D01*
G75*
G02*
X191774000Y-107225000I250000J0D01*
G01*
X192274000Y-107225000D01*
G75*
G02*
X192524000Y-107475000I0J-250000D01*
G01*
X192524000Y-108425000D01*
G75*
G02*
X192274000Y-108675000I-250000J0D01*
G01*
X191774000Y-108675000D01*
G75*
G02*
X191524000Y-108425000I0J250000D01*
G01*
G37*
G36*
G01*
X189624000Y-108425000D02*
X189624000Y-107475000D01*
G75*
G02*
X189874000Y-107225000I250000J0D01*
G01*
X190374000Y-107225000D01*
G75*
G02*
X190624000Y-107475000I0J-250000D01*
G01*
X190624000Y-108425000D01*
G75*
G02*
X190374000Y-108675000I-250000J0D01*
G01*
X189874000Y-108675000D01*
G75*
G02*
X189624000Y-108425000I0J250000D01*
G01*
G37*
G36*
G01*
X117508000Y-80526000D02*
X118458000Y-80526000D01*
G75*
G02*
X118708000Y-80776000I0J-250000D01*
G01*
X118708000Y-81276000D01*
G75*
G02*
X118458000Y-81526000I-250000J0D01*
G01*
X117508000Y-81526000D01*
G75*
G02*
X117258000Y-81276000I0J250000D01*
G01*
X117258000Y-80776000D01*
G75*
G02*
X117508000Y-80526000I250000J0D01*
G01*
G37*
G36*
G01*
X117508000Y-82426000D02*
X118458000Y-82426000D01*
G75*
G02*
X118708000Y-82676000I0J-250000D01*
G01*
X118708000Y-83176000D01*
G75*
G02*
X118458000Y-83426000I-250000J0D01*
G01*
X117508000Y-83426000D01*
G75*
G02*
X117258000Y-83176000I0J250000D01*
G01*
X117258000Y-82676000D01*
G75*
G02*
X117508000Y-82426000I250000J0D01*
G01*
G37*
G36*
G01*
X139987000Y-82431000D02*
X140937000Y-82431000D01*
G75*
G02*
X141187000Y-82681000I0J-250000D01*
G01*
X141187000Y-83181000D01*
G75*
G02*
X140937000Y-83431000I-250000J0D01*
G01*
X139987000Y-83431000D01*
G75*
G02*
X139737000Y-83181000I0J250000D01*
G01*
X139737000Y-82681000D01*
G75*
G02*
X139987000Y-82431000I250000J0D01*
G01*
G37*
G36*
G01*
X139987000Y-80531000D02*
X140937000Y-80531000D01*
G75*
G02*
X141187000Y-80781000I0J-250000D01*
G01*
X141187000Y-81281000D01*
G75*
G02*
X140937000Y-81531000I-250000J0D01*
G01*
X139987000Y-81531000D01*
G75*
G02*
X139737000Y-81281000I0J250000D01*
G01*
X139737000Y-80781000D01*
G75*
G02*
X139987000Y-80531000I250000J0D01*
G01*
G37*
G36*
G01*
X162085000Y-80531000D02*
X163035000Y-80531000D01*
G75*
G02*
X163285000Y-80781000I0J-250000D01*
G01*
X163285000Y-81281000D01*
G75*
G02*
X163035000Y-81531000I-250000J0D01*
G01*
X162085000Y-81531000D01*
G75*
G02*
X161835000Y-81281000I0J250000D01*
G01*
X161835000Y-80781000D01*
G75*
G02*
X162085000Y-80531000I250000J0D01*
G01*
G37*
G36*
G01*
X162085000Y-82431000D02*
X163035000Y-82431000D01*
G75*
G02*
X163285000Y-82681000I0J-250000D01*
G01*
X163285000Y-83181000D01*
G75*
G02*
X163035000Y-83431000I-250000J0D01*
G01*
X162085000Y-83431000D01*
G75*
G02*
X161835000Y-83181000I0J250000D01*
G01*
X161835000Y-82681000D01*
G75*
G02*
X162085000Y-82431000I250000J0D01*
G01*
G37*
D10*
X115300000Y-130030000D03*
X117840000Y-130030000D03*
X120380000Y-130030000D03*
X122920000Y-130030000D03*
X125460000Y-130030000D03*
X128000000Y-130030000D03*
X130540000Y-130030000D03*
X133080000Y-130030000D03*
X135620000Y-130030000D03*
X138160000Y-130030000D03*
X140700000Y-130030000D03*
X143240000Y-130030000D03*
X145780000Y-130030000D03*
X148320000Y-130030000D03*
X150860000Y-130030000D03*
X153400000Y-130030000D03*
X155940000Y-130030000D03*
X158480000Y-130030000D03*
X161020000Y-130030000D03*
X163560000Y-130030000D03*
G36*
G01*
X185979500Y-112325999D02*
X185979500Y-113226001D01*
G75*
G02*
X185729501Y-113476000I-249999J0D01*
G01*
X185204499Y-113476000D01*
G75*
G02*
X184954500Y-113226001I0J249999D01*
G01*
X184954500Y-112325999D01*
G75*
G02*
X185204499Y-112076000I249999J0D01*
G01*
X185729501Y-112076000D01*
G75*
G02*
X185979500Y-112325999I0J-249999D01*
G01*
G37*
G36*
G01*
X184154500Y-112325999D02*
X184154500Y-113226001D01*
G75*
G02*
X183904501Y-113476000I-249999J0D01*
G01*
X183379499Y-113476000D01*
G75*
G02*
X183129500Y-113226001I0J249999D01*
G01*
X183129500Y-112325999D01*
G75*
G02*
X183379499Y-112076000I249999J0D01*
G01*
X183904501Y-112076000D01*
G75*
G02*
X184154500Y-112325999I0J-249999D01*
G01*
G37*
G36*
G01*
X116897999Y-114088500D02*
X117798001Y-114088500D01*
G75*
G02*
X118048000Y-114338499I0J-249999D01*
G01*
X118048000Y-114863501D01*
G75*
G02*
X117798001Y-115113500I-249999J0D01*
G01*
X116897999Y-115113500D01*
G75*
G02*
X116648000Y-114863501I0J249999D01*
G01*
X116648000Y-114338499D01*
G75*
G02*
X116897999Y-114088500I249999J0D01*
G01*
G37*
G36*
G01*
X116897999Y-112263500D02*
X117798001Y-112263500D01*
G75*
G02*
X118048000Y-112513499I0J-249999D01*
G01*
X118048000Y-113038501D01*
G75*
G02*
X117798001Y-113288500I-249999J0D01*
G01*
X116897999Y-113288500D01*
G75*
G02*
X116648000Y-113038501I0J249999D01*
G01*
X116648000Y-112513499D01*
G75*
G02*
X116897999Y-112263500I249999J0D01*
G01*
G37*
G36*
G01*
X122070000Y-86954000D02*
X121770000Y-86954000D01*
G75*
G02*
X121620000Y-86804000I0J150000D01*
G01*
X121620000Y-85154000D01*
G75*
G02*
X121770000Y-85004000I150000J0D01*
G01*
X122070000Y-85004000D01*
G75*
G02*
X122220000Y-85154000I0J-150000D01*
G01*
X122220000Y-86804000D01*
G75*
G02*
X122070000Y-86954000I-150000J0D01*
G01*
G37*
G36*
G01*
X123340000Y-86954000D02*
X123040000Y-86954000D01*
G75*
G02*
X122890000Y-86804000I0J150000D01*
G01*
X122890000Y-85154000D01*
G75*
G02*
X123040000Y-85004000I150000J0D01*
G01*
X123340000Y-85004000D01*
G75*
G02*
X123490000Y-85154000I0J-150000D01*
G01*
X123490000Y-86804000D01*
G75*
G02*
X123340000Y-86954000I-150000J0D01*
G01*
G37*
G36*
G01*
X124610000Y-86954000D02*
X124310000Y-86954000D01*
G75*
G02*
X124160000Y-86804000I0J150000D01*
G01*
X124160000Y-85154000D01*
G75*
G02*
X124310000Y-85004000I150000J0D01*
G01*
X124610000Y-85004000D01*
G75*
G02*
X124760000Y-85154000I0J-150000D01*
G01*
X124760000Y-86804000D01*
G75*
G02*
X124610000Y-86954000I-150000J0D01*
G01*
G37*
G36*
G01*
X125880000Y-86954000D02*
X125580000Y-86954000D01*
G75*
G02*
X125430000Y-86804000I0J150000D01*
G01*
X125430000Y-85154000D01*
G75*
G02*
X125580000Y-85004000I150000J0D01*
G01*
X125880000Y-85004000D01*
G75*
G02*
X126030000Y-85154000I0J-150000D01*
G01*
X126030000Y-86804000D01*
G75*
G02*
X125880000Y-86954000I-150000J0D01*
G01*
G37*
G36*
G01*
X127150000Y-86954000D02*
X126850000Y-86954000D01*
G75*
G02*
X126700000Y-86804000I0J150000D01*
G01*
X126700000Y-85154000D01*
G75*
G02*
X126850000Y-85004000I150000J0D01*
G01*
X127150000Y-85004000D01*
G75*
G02*
X127300000Y-85154000I0J-150000D01*
G01*
X127300000Y-86804000D01*
G75*
G02*
X127150000Y-86954000I-150000J0D01*
G01*
G37*
G36*
G01*
X128420000Y-86954000D02*
X128120000Y-86954000D01*
G75*
G02*
X127970000Y-86804000I0J150000D01*
G01*
X127970000Y-85154000D01*
G75*
G02*
X128120000Y-85004000I150000J0D01*
G01*
X128420000Y-85004000D01*
G75*
G02*
X128570000Y-85154000I0J-150000D01*
G01*
X128570000Y-86804000D01*
G75*
G02*
X128420000Y-86954000I-150000J0D01*
G01*
G37*
G36*
G01*
X129690000Y-86954000D02*
X129390000Y-86954000D01*
G75*
G02*
X129240000Y-86804000I0J150000D01*
G01*
X129240000Y-85154000D01*
G75*
G02*
X129390000Y-85004000I150000J0D01*
G01*
X129690000Y-85004000D01*
G75*
G02*
X129840000Y-85154000I0J-150000D01*
G01*
X129840000Y-86804000D01*
G75*
G02*
X129690000Y-86954000I-150000J0D01*
G01*
G37*
G36*
G01*
X129690000Y-82004000D02*
X129390000Y-82004000D01*
G75*
G02*
X129240000Y-81854000I0J150000D01*
G01*
X129240000Y-80204000D01*
G75*
G02*
X129390000Y-80054000I150000J0D01*
G01*
X129690000Y-80054000D01*
G75*
G02*
X129840000Y-80204000I0J-150000D01*
G01*
X129840000Y-81854000D01*
G75*
G02*
X129690000Y-82004000I-150000J0D01*
G01*
G37*
G36*
G01*
X128420000Y-82004000D02*
X128120000Y-82004000D01*
G75*
G02*
X127970000Y-81854000I0J150000D01*
G01*
X127970000Y-80204000D01*
G75*
G02*
X128120000Y-80054000I150000J0D01*
G01*
X128420000Y-80054000D01*
G75*
G02*
X128570000Y-80204000I0J-150000D01*
G01*
X128570000Y-81854000D01*
G75*
G02*
X128420000Y-82004000I-150000J0D01*
G01*
G37*
G36*
G01*
X127150000Y-82004000D02*
X126850000Y-82004000D01*
G75*
G02*
X126700000Y-81854000I0J150000D01*
G01*
X126700000Y-80204000D01*
G75*
G02*
X126850000Y-80054000I150000J0D01*
G01*
X127150000Y-80054000D01*
G75*
G02*
X127300000Y-80204000I0J-150000D01*
G01*
X127300000Y-81854000D01*
G75*
G02*
X127150000Y-82004000I-150000J0D01*
G01*
G37*
G36*
G01*
X125880000Y-82004000D02*
X125580000Y-82004000D01*
G75*
G02*
X125430000Y-81854000I0J150000D01*
G01*
X125430000Y-80204000D01*
G75*
G02*
X125580000Y-80054000I150000J0D01*
G01*
X125880000Y-80054000D01*
G75*
G02*
X126030000Y-80204000I0J-150000D01*
G01*
X126030000Y-81854000D01*
G75*
G02*
X125880000Y-82004000I-150000J0D01*
G01*
G37*
G36*
G01*
X124610000Y-82004000D02*
X124310000Y-82004000D01*
G75*
G02*
X124160000Y-81854000I0J150000D01*
G01*
X124160000Y-80204000D01*
G75*
G02*
X124310000Y-80054000I150000J0D01*
G01*
X124610000Y-80054000D01*
G75*
G02*
X124760000Y-80204000I0J-150000D01*
G01*
X124760000Y-81854000D01*
G75*
G02*
X124610000Y-82004000I-150000J0D01*
G01*
G37*
G36*
G01*
X123340000Y-82004000D02*
X123040000Y-82004000D01*
G75*
G02*
X122890000Y-81854000I0J150000D01*
G01*
X122890000Y-80204000D01*
G75*
G02*
X123040000Y-80054000I150000J0D01*
G01*
X123340000Y-80054000D01*
G75*
G02*
X123490000Y-80204000I0J-150000D01*
G01*
X123490000Y-81854000D01*
G75*
G02*
X123340000Y-82004000I-150000J0D01*
G01*
G37*
G36*
G01*
X122070000Y-82004000D02*
X121770000Y-82004000D01*
G75*
G02*
X121620000Y-81854000I0J150000D01*
G01*
X121620000Y-80204000D01*
G75*
G02*
X121770000Y-80054000I150000J0D01*
G01*
X122070000Y-80054000D01*
G75*
G02*
X122220000Y-80204000I0J-150000D01*
G01*
X122220000Y-81854000D01*
G75*
G02*
X122070000Y-82004000I-150000J0D01*
G01*
G37*
G36*
G01*
X144549000Y-82001000D02*
X144249000Y-82001000D01*
G75*
G02*
X144099000Y-81851000I0J150000D01*
G01*
X144099000Y-80201000D01*
G75*
G02*
X144249000Y-80051000I150000J0D01*
G01*
X144549000Y-80051000D01*
G75*
G02*
X144699000Y-80201000I0J-150000D01*
G01*
X144699000Y-81851000D01*
G75*
G02*
X144549000Y-82001000I-150000J0D01*
G01*
G37*
G36*
G01*
X145819000Y-82001000D02*
X145519000Y-82001000D01*
G75*
G02*
X145369000Y-81851000I0J150000D01*
G01*
X145369000Y-80201000D01*
G75*
G02*
X145519000Y-80051000I150000J0D01*
G01*
X145819000Y-80051000D01*
G75*
G02*
X145969000Y-80201000I0J-150000D01*
G01*
X145969000Y-81851000D01*
G75*
G02*
X145819000Y-82001000I-150000J0D01*
G01*
G37*
G36*
G01*
X147089000Y-82001000D02*
X146789000Y-82001000D01*
G75*
G02*
X146639000Y-81851000I0J150000D01*
G01*
X146639000Y-80201000D01*
G75*
G02*
X146789000Y-80051000I150000J0D01*
G01*
X147089000Y-80051000D01*
G75*
G02*
X147239000Y-80201000I0J-150000D01*
G01*
X147239000Y-81851000D01*
G75*
G02*
X147089000Y-82001000I-150000J0D01*
G01*
G37*
G36*
G01*
X148359000Y-82001000D02*
X148059000Y-82001000D01*
G75*
G02*
X147909000Y-81851000I0J150000D01*
G01*
X147909000Y-80201000D01*
G75*
G02*
X148059000Y-80051000I150000J0D01*
G01*
X148359000Y-80051000D01*
G75*
G02*
X148509000Y-80201000I0J-150000D01*
G01*
X148509000Y-81851000D01*
G75*
G02*
X148359000Y-82001000I-150000J0D01*
G01*
G37*
G36*
G01*
X149629000Y-82001000D02*
X149329000Y-82001000D01*
G75*
G02*
X149179000Y-81851000I0J150000D01*
G01*
X149179000Y-80201000D01*
G75*
G02*
X149329000Y-80051000I150000J0D01*
G01*
X149629000Y-80051000D01*
G75*
G02*
X149779000Y-80201000I0J-150000D01*
G01*
X149779000Y-81851000D01*
G75*
G02*
X149629000Y-82001000I-150000J0D01*
G01*
G37*
G36*
G01*
X150899000Y-82001000D02*
X150599000Y-82001000D01*
G75*
G02*
X150449000Y-81851000I0J150000D01*
G01*
X150449000Y-80201000D01*
G75*
G02*
X150599000Y-80051000I150000J0D01*
G01*
X150899000Y-80051000D01*
G75*
G02*
X151049000Y-80201000I0J-150000D01*
G01*
X151049000Y-81851000D01*
G75*
G02*
X150899000Y-82001000I-150000J0D01*
G01*
G37*
G36*
G01*
X152169000Y-82001000D02*
X151869000Y-82001000D01*
G75*
G02*
X151719000Y-81851000I0J150000D01*
G01*
X151719000Y-80201000D01*
G75*
G02*
X151869000Y-80051000I150000J0D01*
G01*
X152169000Y-80051000D01*
G75*
G02*
X152319000Y-80201000I0J-150000D01*
G01*
X152319000Y-81851000D01*
G75*
G02*
X152169000Y-82001000I-150000J0D01*
G01*
G37*
G36*
G01*
X152169000Y-86951000D02*
X151869000Y-86951000D01*
G75*
G02*
X151719000Y-86801000I0J150000D01*
G01*
X151719000Y-85151000D01*
G75*
G02*
X151869000Y-85001000I150000J0D01*
G01*
X152169000Y-85001000D01*
G75*
G02*
X152319000Y-85151000I0J-150000D01*
G01*
X152319000Y-86801000D01*
G75*
G02*
X152169000Y-86951000I-150000J0D01*
G01*
G37*
G36*
G01*
X150899000Y-86951000D02*
X150599000Y-86951000D01*
G75*
G02*
X150449000Y-86801000I0J150000D01*
G01*
X150449000Y-85151000D01*
G75*
G02*
X150599000Y-85001000I150000J0D01*
G01*
X150899000Y-85001000D01*
G75*
G02*
X151049000Y-85151000I0J-150000D01*
G01*
X151049000Y-86801000D01*
G75*
G02*
X150899000Y-86951000I-150000J0D01*
G01*
G37*
G36*
G01*
X149629000Y-86951000D02*
X149329000Y-86951000D01*
G75*
G02*
X149179000Y-86801000I0J150000D01*
G01*
X149179000Y-85151000D01*
G75*
G02*
X149329000Y-85001000I150000J0D01*
G01*
X149629000Y-85001000D01*
G75*
G02*
X149779000Y-85151000I0J-150000D01*
G01*
X149779000Y-86801000D01*
G75*
G02*
X149629000Y-86951000I-150000J0D01*
G01*
G37*
G36*
G01*
X148359000Y-86951000D02*
X148059000Y-86951000D01*
G75*
G02*
X147909000Y-86801000I0J150000D01*
G01*
X147909000Y-85151000D01*
G75*
G02*
X148059000Y-85001000I150000J0D01*
G01*
X148359000Y-85001000D01*
G75*
G02*
X148509000Y-85151000I0J-150000D01*
G01*
X148509000Y-86801000D01*
G75*
G02*
X148359000Y-86951000I-150000J0D01*
G01*
G37*
G36*
G01*
X147089000Y-86951000D02*
X146789000Y-86951000D01*
G75*
G02*
X146639000Y-86801000I0J150000D01*
G01*
X146639000Y-85151000D01*
G75*
G02*
X146789000Y-85001000I150000J0D01*
G01*
X147089000Y-85001000D01*
G75*
G02*
X147239000Y-85151000I0J-150000D01*
G01*
X147239000Y-86801000D01*
G75*
G02*
X147089000Y-86951000I-150000J0D01*
G01*
G37*
G36*
G01*
X145819000Y-86951000D02*
X145519000Y-86951000D01*
G75*
G02*
X145369000Y-86801000I0J150000D01*
G01*
X145369000Y-85151000D01*
G75*
G02*
X145519000Y-85001000I150000J0D01*
G01*
X145819000Y-85001000D01*
G75*
G02*
X145969000Y-85151000I0J-150000D01*
G01*
X145969000Y-86801000D01*
G75*
G02*
X145819000Y-86951000I-150000J0D01*
G01*
G37*
G36*
G01*
X144549000Y-86951000D02*
X144249000Y-86951000D01*
G75*
G02*
X144099000Y-86801000I0J150000D01*
G01*
X144099000Y-85151000D01*
G75*
G02*
X144249000Y-85001000I150000J0D01*
G01*
X144549000Y-85001000D01*
G75*
G02*
X144699000Y-85151000I0J-150000D01*
G01*
X144699000Y-86801000D01*
G75*
G02*
X144549000Y-86951000I-150000J0D01*
G01*
G37*
G36*
G01*
X166647000Y-86954000D02*
X166347000Y-86954000D01*
G75*
G02*
X166197000Y-86804000I0J150000D01*
G01*
X166197000Y-85154000D01*
G75*
G02*
X166347000Y-85004000I150000J0D01*
G01*
X166647000Y-85004000D01*
G75*
G02*
X166797000Y-85154000I0J-150000D01*
G01*
X166797000Y-86804000D01*
G75*
G02*
X166647000Y-86954000I-150000J0D01*
G01*
G37*
G36*
G01*
X167917000Y-86954000D02*
X167617000Y-86954000D01*
G75*
G02*
X167467000Y-86804000I0J150000D01*
G01*
X167467000Y-85154000D01*
G75*
G02*
X167617000Y-85004000I150000J0D01*
G01*
X167917000Y-85004000D01*
G75*
G02*
X168067000Y-85154000I0J-150000D01*
G01*
X168067000Y-86804000D01*
G75*
G02*
X167917000Y-86954000I-150000J0D01*
G01*
G37*
G36*
G01*
X169187000Y-86954000D02*
X168887000Y-86954000D01*
G75*
G02*
X168737000Y-86804000I0J150000D01*
G01*
X168737000Y-85154000D01*
G75*
G02*
X168887000Y-85004000I150000J0D01*
G01*
X169187000Y-85004000D01*
G75*
G02*
X169337000Y-85154000I0J-150000D01*
G01*
X169337000Y-86804000D01*
G75*
G02*
X169187000Y-86954000I-150000J0D01*
G01*
G37*
G36*
G01*
X170457000Y-86954000D02*
X170157000Y-86954000D01*
G75*
G02*
X170007000Y-86804000I0J150000D01*
G01*
X170007000Y-85154000D01*
G75*
G02*
X170157000Y-85004000I150000J0D01*
G01*
X170457000Y-85004000D01*
G75*
G02*
X170607000Y-85154000I0J-150000D01*
G01*
X170607000Y-86804000D01*
G75*
G02*
X170457000Y-86954000I-150000J0D01*
G01*
G37*
G36*
G01*
X171727000Y-86954000D02*
X171427000Y-86954000D01*
G75*
G02*
X171277000Y-86804000I0J150000D01*
G01*
X171277000Y-85154000D01*
G75*
G02*
X171427000Y-85004000I150000J0D01*
G01*
X171727000Y-85004000D01*
G75*
G02*
X171877000Y-85154000I0J-150000D01*
G01*
X171877000Y-86804000D01*
G75*
G02*
X171727000Y-86954000I-150000J0D01*
G01*
G37*
G36*
G01*
X172997000Y-86954000D02*
X172697000Y-86954000D01*
G75*
G02*
X172547000Y-86804000I0J150000D01*
G01*
X172547000Y-85154000D01*
G75*
G02*
X172697000Y-85004000I150000J0D01*
G01*
X172997000Y-85004000D01*
G75*
G02*
X173147000Y-85154000I0J-150000D01*
G01*
X173147000Y-86804000D01*
G75*
G02*
X172997000Y-86954000I-150000J0D01*
G01*
G37*
G36*
G01*
X174267000Y-86954000D02*
X173967000Y-86954000D01*
G75*
G02*
X173817000Y-86804000I0J150000D01*
G01*
X173817000Y-85154000D01*
G75*
G02*
X173967000Y-85004000I150000J0D01*
G01*
X174267000Y-85004000D01*
G75*
G02*
X174417000Y-85154000I0J-150000D01*
G01*
X174417000Y-86804000D01*
G75*
G02*
X174267000Y-86954000I-150000J0D01*
G01*
G37*
G36*
G01*
X174267000Y-82004000D02*
X173967000Y-82004000D01*
G75*
G02*
X173817000Y-81854000I0J150000D01*
G01*
X173817000Y-80204000D01*
G75*
G02*
X173967000Y-80054000I150000J0D01*
G01*
X174267000Y-80054000D01*
G75*
G02*
X174417000Y-80204000I0J-150000D01*
G01*
X174417000Y-81854000D01*
G75*
G02*
X174267000Y-82004000I-150000J0D01*
G01*
G37*
G36*
G01*
X172997000Y-82004000D02*
X172697000Y-82004000D01*
G75*
G02*
X172547000Y-81854000I0J150000D01*
G01*
X172547000Y-80204000D01*
G75*
G02*
X172697000Y-80054000I150000J0D01*
G01*
X172997000Y-80054000D01*
G75*
G02*
X173147000Y-80204000I0J-150000D01*
G01*
X173147000Y-81854000D01*
G75*
G02*
X172997000Y-82004000I-150000J0D01*
G01*
G37*
G36*
G01*
X171727000Y-82004000D02*
X171427000Y-82004000D01*
G75*
G02*
X171277000Y-81854000I0J150000D01*
G01*
X171277000Y-80204000D01*
G75*
G02*
X171427000Y-80054000I150000J0D01*
G01*
X171727000Y-80054000D01*
G75*
G02*
X171877000Y-80204000I0J-150000D01*
G01*
X171877000Y-81854000D01*
G75*
G02*
X171727000Y-82004000I-150000J0D01*
G01*
G37*
G36*
G01*
X170457000Y-82004000D02*
X170157000Y-82004000D01*
G75*
G02*
X170007000Y-81854000I0J150000D01*
G01*
X170007000Y-80204000D01*
G75*
G02*
X170157000Y-80054000I150000J0D01*
G01*
X170457000Y-80054000D01*
G75*
G02*
X170607000Y-80204000I0J-150000D01*
G01*
X170607000Y-81854000D01*
G75*
G02*
X170457000Y-82004000I-150000J0D01*
G01*
G37*
G36*
G01*
X169187000Y-82004000D02*
X168887000Y-82004000D01*
G75*
G02*
X168737000Y-81854000I0J150000D01*
G01*
X168737000Y-80204000D01*
G75*
G02*
X168887000Y-80054000I150000J0D01*
G01*
X169187000Y-80054000D01*
G75*
G02*
X169337000Y-80204000I0J-150000D01*
G01*
X169337000Y-81854000D01*
G75*
G02*
X169187000Y-82004000I-150000J0D01*
G01*
G37*
G36*
G01*
X167917000Y-82004000D02*
X167617000Y-82004000D01*
G75*
G02*
X167467000Y-81854000I0J150000D01*
G01*
X167467000Y-80204000D01*
G75*
G02*
X167617000Y-80054000I150000J0D01*
G01*
X167917000Y-80054000D01*
G75*
G02*
X168067000Y-80204000I0J-150000D01*
G01*
X168067000Y-81854000D01*
G75*
G02*
X167917000Y-82004000I-150000J0D01*
G01*
G37*
G36*
G01*
X166647000Y-82004000D02*
X166347000Y-82004000D01*
G75*
G02*
X166197000Y-81854000I0J150000D01*
G01*
X166197000Y-80204000D01*
G75*
G02*
X166347000Y-80054000I150000J0D01*
G01*
X166647000Y-80054000D01*
G75*
G02*
X166797000Y-80204000I0J-150000D01*
G01*
X166797000Y-81854000D01*
G75*
G02*
X166647000Y-82004000I-150000J0D01*
G01*
G37*
M02*
