G04 #@! TF.GenerationSoftware,KiCad,Pcbnew,(5.1.9-0-10_14)*
G04 #@! TF.CreationDate,2021-04-09T13:26:58-05:00*
G04 #@! TF.ProjectId,Serial Card,53657269-616c-4204-9361-72642e6b6963,rev?*
G04 #@! TF.SameCoordinates,Original*
G04 #@! TF.FileFunction,Paste,Top*
G04 #@! TF.FilePolarity,Positive*
%FSLAX46Y46*%
G04 Gerber Fmt 4.6, Leading zero omitted, Abs format (unit mm)*
G04 Created by KiCad (PCBNEW (5.1.9-0-10_14)) date 2021-04-09 13:26:58*
%MOMM*%
%LPD*%
G01*
G04 APERTURE LIST*
%ADD10R,1.270000X5.080000*%
%ADD11R,1.200000X0.900000*%
%ADD12R,1.450000X0.300000*%
%ADD13R,1.450000X0.600000*%
%ADD14R,0.450000X1.750000*%
G04 APERTURE END LIST*
G36*
G01*
X166774000Y-96812000D02*
X166474000Y-96812000D01*
G75*
G02*
X166324000Y-96662000I0J150000D01*
G01*
X166324000Y-94912000D01*
G75*
G02*
X166474000Y-94762000I150000J0D01*
G01*
X166774000Y-94762000D01*
G75*
G02*
X166924000Y-94912000I0J-150000D01*
G01*
X166924000Y-96662000D01*
G75*
G02*
X166774000Y-96812000I-150000J0D01*
G01*
G37*
G36*
G01*
X168044000Y-96812000D02*
X167744000Y-96812000D01*
G75*
G02*
X167594000Y-96662000I0J150000D01*
G01*
X167594000Y-94912000D01*
G75*
G02*
X167744000Y-94762000I150000J0D01*
G01*
X168044000Y-94762000D01*
G75*
G02*
X168194000Y-94912000I0J-150000D01*
G01*
X168194000Y-96662000D01*
G75*
G02*
X168044000Y-96812000I-150000J0D01*
G01*
G37*
G36*
G01*
X169314000Y-96812000D02*
X169014000Y-96812000D01*
G75*
G02*
X168864000Y-96662000I0J150000D01*
G01*
X168864000Y-94912000D01*
G75*
G02*
X169014000Y-94762000I150000J0D01*
G01*
X169314000Y-94762000D01*
G75*
G02*
X169464000Y-94912000I0J-150000D01*
G01*
X169464000Y-96662000D01*
G75*
G02*
X169314000Y-96812000I-150000J0D01*
G01*
G37*
G36*
G01*
X170584000Y-96812000D02*
X170284000Y-96812000D01*
G75*
G02*
X170134000Y-96662000I0J150000D01*
G01*
X170134000Y-94912000D01*
G75*
G02*
X170284000Y-94762000I150000J0D01*
G01*
X170584000Y-94762000D01*
G75*
G02*
X170734000Y-94912000I0J-150000D01*
G01*
X170734000Y-96662000D01*
G75*
G02*
X170584000Y-96812000I-150000J0D01*
G01*
G37*
G36*
G01*
X171854000Y-96812000D02*
X171554000Y-96812000D01*
G75*
G02*
X171404000Y-96662000I0J150000D01*
G01*
X171404000Y-94912000D01*
G75*
G02*
X171554000Y-94762000I150000J0D01*
G01*
X171854000Y-94762000D01*
G75*
G02*
X172004000Y-94912000I0J-150000D01*
G01*
X172004000Y-96662000D01*
G75*
G02*
X171854000Y-96812000I-150000J0D01*
G01*
G37*
G36*
G01*
X173124000Y-96812000D02*
X172824000Y-96812000D01*
G75*
G02*
X172674000Y-96662000I0J150000D01*
G01*
X172674000Y-94912000D01*
G75*
G02*
X172824000Y-94762000I150000J0D01*
G01*
X173124000Y-94762000D01*
G75*
G02*
X173274000Y-94912000I0J-150000D01*
G01*
X173274000Y-96662000D01*
G75*
G02*
X173124000Y-96812000I-150000J0D01*
G01*
G37*
G36*
G01*
X174394000Y-96812000D02*
X174094000Y-96812000D01*
G75*
G02*
X173944000Y-96662000I0J150000D01*
G01*
X173944000Y-94912000D01*
G75*
G02*
X174094000Y-94762000I150000J0D01*
G01*
X174394000Y-94762000D01*
G75*
G02*
X174544000Y-94912000I0J-150000D01*
G01*
X174544000Y-96662000D01*
G75*
G02*
X174394000Y-96812000I-150000J0D01*
G01*
G37*
G36*
G01*
X175664000Y-96812000D02*
X175364000Y-96812000D01*
G75*
G02*
X175214000Y-96662000I0J150000D01*
G01*
X175214000Y-94912000D01*
G75*
G02*
X175364000Y-94762000I150000J0D01*
G01*
X175664000Y-94762000D01*
G75*
G02*
X175814000Y-94912000I0J-150000D01*
G01*
X175814000Y-96662000D01*
G75*
G02*
X175664000Y-96812000I-150000J0D01*
G01*
G37*
G36*
G01*
X176934000Y-96812000D02*
X176634000Y-96812000D01*
G75*
G02*
X176484000Y-96662000I0J150000D01*
G01*
X176484000Y-94912000D01*
G75*
G02*
X176634000Y-94762000I150000J0D01*
G01*
X176934000Y-94762000D01*
G75*
G02*
X177084000Y-94912000I0J-150000D01*
G01*
X177084000Y-96662000D01*
G75*
G02*
X176934000Y-96812000I-150000J0D01*
G01*
G37*
G36*
G01*
X178204000Y-96812000D02*
X177904000Y-96812000D01*
G75*
G02*
X177754000Y-96662000I0J150000D01*
G01*
X177754000Y-94912000D01*
G75*
G02*
X177904000Y-94762000I150000J0D01*
G01*
X178204000Y-94762000D01*
G75*
G02*
X178354000Y-94912000I0J-150000D01*
G01*
X178354000Y-96662000D01*
G75*
G02*
X178204000Y-96812000I-150000J0D01*
G01*
G37*
G36*
G01*
X179474000Y-96812000D02*
X179174000Y-96812000D01*
G75*
G02*
X179024000Y-96662000I0J150000D01*
G01*
X179024000Y-94912000D01*
G75*
G02*
X179174000Y-94762000I150000J0D01*
G01*
X179474000Y-94762000D01*
G75*
G02*
X179624000Y-94912000I0J-150000D01*
G01*
X179624000Y-96662000D01*
G75*
G02*
X179474000Y-96812000I-150000J0D01*
G01*
G37*
G36*
G01*
X180744000Y-96812000D02*
X180444000Y-96812000D01*
G75*
G02*
X180294000Y-96662000I0J150000D01*
G01*
X180294000Y-94912000D01*
G75*
G02*
X180444000Y-94762000I150000J0D01*
G01*
X180744000Y-94762000D01*
G75*
G02*
X180894000Y-94912000I0J-150000D01*
G01*
X180894000Y-96662000D01*
G75*
G02*
X180744000Y-96812000I-150000J0D01*
G01*
G37*
G36*
G01*
X180744000Y-87512000D02*
X180444000Y-87512000D01*
G75*
G02*
X180294000Y-87362000I0J150000D01*
G01*
X180294000Y-85612000D01*
G75*
G02*
X180444000Y-85462000I150000J0D01*
G01*
X180744000Y-85462000D01*
G75*
G02*
X180894000Y-85612000I0J-150000D01*
G01*
X180894000Y-87362000D01*
G75*
G02*
X180744000Y-87512000I-150000J0D01*
G01*
G37*
G36*
G01*
X179474000Y-87512000D02*
X179174000Y-87512000D01*
G75*
G02*
X179024000Y-87362000I0J150000D01*
G01*
X179024000Y-85612000D01*
G75*
G02*
X179174000Y-85462000I150000J0D01*
G01*
X179474000Y-85462000D01*
G75*
G02*
X179624000Y-85612000I0J-150000D01*
G01*
X179624000Y-87362000D01*
G75*
G02*
X179474000Y-87512000I-150000J0D01*
G01*
G37*
G36*
G01*
X178204000Y-87512000D02*
X177904000Y-87512000D01*
G75*
G02*
X177754000Y-87362000I0J150000D01*
G01*
X177754000Y-85612000D01*
G75*
G02*
X177904000Y-85462000I150000J0D01*
G01*
X178204000Y-85462000D01*
G75*
G02*
X178354000Y-85612000I0J-150000D01*
G01*
X178354000Y-87362000D01*
G75*
G02*
X178204000Y-87512000I-150000J0D01*
G01*
G37*
G36*
G01*
X176934000Y-87512000D02*
X176634000Y-87512000D01*
G75*
G02*
X176484000Y-87362000I0J150000D01*
G01*
X176484000Y-85612000D01*
G75*
G02*
X176634000Y-85462000I150000J0D01*
G01*
X176934000Y-85462000D01*
G75*
G02*
X177084000Y-85612000I0J-150000D01*
G01*
X177084000Y-87362000D01*
G75*
G02*
X176934000Y-87512000I-150000J0D01*
G01*
G37*
G36*
G01*
X175664000Y-87512000D02*
X175364000Y-87512000D01*
G75*
G02*
X175214000Y-87362000I0J150000D01*
G01*
X175214000Y-85612000D01*
G75*
G02*
X175364000Y-85462000I150000J0D01*
G01*
X175664000Y-85462000D01*
G75*
G02*
X175814000Y-85612000I0J-150000D01*
G01*
X175814000Y-87362000D01*
G75*
G02*
X175664000Y-87512000I-150000J0D01*
G01*
G37*
G36*
G01*
X174394000Y-87512000D02*
X174094000Y-87512000D01*
G75*
G02*
X173944000Y-87362000I0J150000D01*
G01*
X173944000Y-85612000D01*
G75*
G02*
X174094000Y-85462000I150000J0D01*
G01*
X174394000Y-85462000D01*
G75*
G02*
X174544000Y-85612000I0J-150000D01*
G01*
X174544000Y-87362000D01*
G75*
G02*
X174394000Y-87512000I-150000J0D01*
G01*
G37*
G36*
G01*
X173124000Y-87512000D02*
X172824000Y-87512000D01*
G75*
G02*
X172674000Y-87362000I0J150000D01*
G01*
X172674000Y-85612000D01*
G75*
G02*
X172824000Y-85462000I150000J0D01*
G01*
X173124000Y-85462000D01*
G75*
G02*
X173274000Y-85612000I0J-150000D01*
G01*
X173274000Y-87362000D01*
G75*
G02*
X173124000Y-87512000I-150000J0D01*
G01*
G37*
G36*
G01*
X171854000Y-87512000D02*
X171554000Y-87512000D01*
G75*
G02*
X171404000Y-87362000I0J150000D01*
G01*
X171404000Y-85612000D01*
G75*
G02*
X171554000Y-85462000I150000J0D01*
G01*
X171854000Y-85462000D01*
G75*
G02*
X172004000Y-85612000I0J-150000D01*
G01*
X172004000Y-87362000D01*
G75*
G02*
X171854000Y-87512000I-150000J0D01*
G01*
G37*
G36*
G01*
X170584000Y-87512000D02*
X170284000Y-87512000D01*
G75*
G02*
X170134000Y-87362000I0J150000D01*
G01*
X170134000Y-85612000D01*
G75*
G02*
X170284000Y-85462000I150000J0D01*
G01*
X170584000Y-85462000D01*
G75*
G02*
X170734000Y-85612000I0J-150000D01*
G01*
X170734000Y-87362000D01*
G75*
G02*
X170584000Y-87512000I-150000J0D01*
G01*
G37*
G36*
G01*
X169314000Y-87512000D02*
X169014000Y-87512000D01*
G75*
G02*
X168864000Y-87362000I0J150000D01*
G01*
X168864000Y-85612000D01*
G75*
G02*
X169014000Y-85462000I150000J0D01*
G01*
X169314000Y-85462000D01*
G75*
G02*
X169464000Y-85612000I0J-150000D01*
G01*
X169464000Y-87362000D01*
G75*
G02*
X169314000Y-87512000I-150000J0D01*
G01*
G37*
G36*
G01*
X168044000Y-87512000D02*
X167744000Y-87512000D01*
G75*
G02*
X167594000Y-87362000I0J150000D01*
G01*
X167594000Y-85612000D01*
G75*
G02*
X167744000Y-85462000I150000J0D01*
G01*
X168044000Y-85462000D01*
G75*
G02*
X168194000Y-85612000I0J-150000D01*
G01*
X168194000Y-87362000D01*
G75*
G02*
X168044000Y-87512000I-150000J0D01*
G01*
G37*
G36*
G01*
X166774000Y-87512000D02*
X166474000Y-87512000D01*
G75*
G02*
X166324000Y-87362000I0J150000D01*
G01*
X166324000Y-85612000D01*
G75*
G02*
X166474000Y-85462000I150000J0D01*
G01*
X166774000Y-85462000D01*
G75*
G02*
X166924000Y-85612000I0J-150000D01*
G01*
X166924000Y-87362000D01*
G75*
G02*
X166774000Y-87512000I-150000J0D01*
G01*
G37*
D10*
X115290000Y-129950000D03*
X117830000Y-129950000D03*
X120370000Y-129950000D03*
X122910000Y-129950000D03*
X125450000Y-129950000D03*
X127990000Y-129950000D03*
X130530000Y-129950000D03*
X133070000Y-129950000D03*
X135610000Y-129950000D03*
X138150000Y-129950000D03*
X140690000Y-129950000D03*
X143230000Y-129950000D03*
X145770000Y-129950000D03*
X148310000Y-129950000D03*
X150850000Y-129950000D03*
X153390000Y-129950000D03*
X155930000Y-129950000D03*
X158470000Y-129950000D03*
X161010000Y-129950000D03*
X163550000Y-129950000D03*
G36*
G01*
X173280500Y-98854499D02*
X173280500Y-100154501D01*
G75*
G02*
X173030501Y-100404500I-249999J0D01*
G01*
X172380499Y-100404500D01*
G75*
G02*
X172130500Y-100154501I0J249999D01*
G01*
X172130500Y-98854499D01*
G75*
G02*
X172380499Y-98604500I249999J0D01*
G01*
X173030501Y-98604500D01*
G75*
G02*
X173280500Y-98854499I0J-249999D01*
G01*
G37*
G36*
G01*
X176230500Y-98854499D02*
X176230500Y-100154501D01*
G75*
G02*
X175980501Y-100404500I-249999J0D01*
G01*
X175330499Y-100404500D01*
G75*
G02*
X175080500Y-100154501I0J249999D01*
G01*
X175080500Y-98854499D01*
G75*
G02*
X175330499Y-98604500I249999J0D01*
G01*
X175980501Y-98604500D01*
G75*
G02*
X176230500Y-98854499I0J-249999D01*
G01*
G37*
G36*
G01*
X171023500Y-98854499D02*
X171023500Y-100154501D01*
G75*
G02*
X170773501Y-100404500I-249999J0D01*
G01*
X170123499Y-100404500D01*
G75*
G02*
X169873500Y-100154501I0J249999D01*
G01*
X169873500Y-98854499D01*
G75*
G02*
X170123499Y-98604500I249999J0D01*
G01*
X170773501Y-98604500D01*
G75*
G02*
X171023500Y-98854499I0J-249999D01*
G01*
G37*
G36*
G01*
X168073500Y-98854499D02*
X168073500Y-100154501D01*
G75*
G02*
X167823501Y-100404500I-249999J0D01*
G01*
X167173499Y-100404500D01*
G75*
G02*
X166923500Y-100154501I0J249999D01*
G01*
X166923500Y-98854499D01*
G75*
G02*
X167173499Y-98604500I249999J0D01*
G01*
X167823501Y-98604500D01*
G75*
G02*
X168073500Y-98854499I0J-249999D01*
G01*
G37*
G36*
G01*
X180238500Y-100154501D02*
X180238500Y-98854499D01*
G75*
G02*
X180488499Y-98604500I249999J0D01*
G01*
X181138501Y-98604500D01*
G75*
G02*
X181388500Y-98854499I0J-249999D01*
G01*
X181388500Y-100154501D01*
G75*
G02*
X181138501Y-100404500I-249999J0D01*
G01*
X180488499Y-100404500D01*
G75*
G02*
X180238500Y-100154501I0J249999D01*
G01*
G37*
G36*
G01*
X177288500Y-100154501D02*
X177288500Y-98854499D01*
G75*
G02*
X177538499Y-98604500I249999J0D01*
G01*
X178188501Y-98604500D01*
G75*
G02*
X178438500Y-98854499I0J-249999D01*
G01*
X178438500Y-100154501D01*
G75*
G02*
X178188501Y-100404500I-249999J0D01*
G01*
X177538499Y-100404500D01*
G75*
G02*
X177288500Y-100154501I0J249999D01*
G01*
G37*
G36*
G01*
X181359500Y-82026999D02*
X181359500Y-83327001D01*
G75*
G02*
X181109501Y-83577000I-249999J0D01*
G01*
X180459499Y-83577000D01*
G75*
G02*
X180209500Y-83327001I0J249999D01*
G01*
X180209500Y-82026999D01*
G75*
G02*
X180459499Y-81777000I249999J0D01*
G01*
X181109501Y-81777000D01*
G75*
G02*
X181359500Y-82026999I0J-249999D01*
G01*
G37*
G36*
G01*
X178409500Y-82026999D02*
X178409500Y-83327001D01*
G75*
G02*
X178159501Y-83577000I-249999J0D01*
G01*
X177509499Y-83577000D01*
G75*
G02*
X177259500Y-83327001I0J249999D01*
G01*
X177259500Y-82026999D01*
G75*
G02*
X177509499Y-81777000I249999J0D01*
G01*
X178159501Y-81777000D01*
G75*
G02*
X178409500Y-82026999I0J-249999D01*
G01*
G37*
G36*
G01*
X172067000Y-83327001D02*
X172067000Y-82026999D01*
G75*
G02*
X172316999Y-81777000I249999J0D01*
G01*
X172967001Y-81777000D01*
G75*
G02*
X173217000Y-82026999I0J-249999D01*
G01*
X173217000Y-83327001D01*
G75*
G02*
X172967001Y-83577000I-249999J0D01*
G01*
X172316999Y-83577000D01*
G75*
G02*
X172067000Y-83327001I0J249999D01*
G01*
G37*
G36*
G01*
X175017000Y-83327001D02*
X175017000Y-82026999D01*
G75*
G02*
X175266999Y-81777000I249999J0D01*
G01*
X175917001Y-81777000D01*
G75*
G02*
X176167000Y-82026999I0J-249999D01*
G01*
X176167000Y-83327001D01*
G75*
G02*
X175917001Y-83577000I-249999J0D01*
G01*
X175266999Y-83577000D01*
G75*
G02*
X175017000Y-83327001I0J249999D01*
G01*
G37*
G36*
G01*
X126164000Y-115730000D02*
X126164000Y-116680000D01*
G75*
G02*
X125914000Y-116930000I-250000J0D01*
G01*
X125414000Y-116930000D01*
G75*
G02*
X125164000Y-116680000I0J250000D01*
G01*
X125164000Y-115730000D01*
G75*
G02*
X125414000Y-115480000I250000J0D01*
G01*
X125914000Y-115480000D01*
G75*
G02*
X126164000Y-115730000I0J-250000D01*
G01*
G37*
G36*
G01*
X124264000Y-115730000D02*
X124264000Y-116680000D01*
G75*
G02*
X124014000Y-116930000I-250000J0D01*
G01*
X123514000Y-116930000D01*
G75*
G02*
X123264000Y-116680000I0J250000D01*
G01*
X123264000Y-115730000D01*
G75*
G02*
X123514000Y-115480000I250000J0D01*
G01*
X124014000Y-115480000D01*
G75*
G02*
X124264000Y-115730000I0J-250000D01*
G01*
G37*
G36*
G01*
X162293000Y-80424000D02*
X162293000Y-81374000D01*
G75*
G02*
X162043000Y-81624000I-250000J0D01*
G01*
X161543000Y-81624000D01*
G75*
G02*
X161293000Y-81374000I0J250000D01*
G01*
X161293000Y-80424000D01*
G75*
G02*
X161543000Y-80174000I250000J0D01*
G01*
X162043000Y-80174000D01*
G75*
G02*
X162293000Y-80424000I0J-250000D01*
G01*
G37*
G36*
G01*
X160393000Y-80424000D02*
X160393000Y-81374000D01*
G75*
G02*
X160143000Y-81624000I-250000J0D01*
G01*
X159643000Y-81624000D01*
G75*
G02*
X159393000Y-81374000I0J250000D01*
G01*
X159393000Y-80424000D01*
G75*
G02*
X159643000Y-80174000I250000J0D01*
G01*
X160143000Y-80174000D01*
G75*
G02*
X160393000Y-80424000I0J-250000D01*
G01*
G37*
G36*
G01*
X144153000Y-81374000D02*
X144153000Y-80424000D01*
G75*
G02*
X144403000Y-80174000I250000J0D01*
G01*
X144903000Y-80174000D01*
G75*
G02*
X145153000Y-80424000I0J-250000D01*
G01*
X145153000Y-81374000D01*
G75*
G02*
X144903000Y-81624000I-250000J0D01*
G01*
X144403000Y-81624000D01*
G75*
G02*
X144153000Y-81374000I0J250000D01*
G01*
G37*
G36*
G01*
X142253000Y-81374000D02*
X142253000Y-80424000D01*
G75*
G02*
X142503000Y-80174000I250000J0D01*
G01*
X143003000Y-80174000D01*
G75*
G02*
X143253000Y-80424000I0J-250000D01*
G01*
X143253000Y-81374000D01*
G75*
G02*
X143003000Y-81624000I-250000J0D01*
G01*
X142503000Y-81624000D01*
G75*
G02*
X142253000Y-81374000I0J250000D01*
G01*
G37*
G36*
G01*
X183421000Y-114686500D02*
X184371000Y-114686500D01*
G75*
G02*
X184621000Y-114936500I0J-250000D01*
G01*
X184621000Y-115436500D01*
G75*
G02*
X184371000Y-115686500I-250000J0D01*
G01*
X183421000Y-115686500D01*
G75*
G02*
X183171000Y-115436500I0J250000D01*
G01*
X183171000Y-114936500D01*
G75*
G02*
X183421000Y-114686500I250000J0D01*
G01*
G37*
G36*
G01*
X183421000Y-112786500D02*
X184371000Y-112786500D01*
G75*
G02*
X184621000Y-113036500I0J-250000D01*
G01*
X184621000Y-113536500D01*
G75*
G02*
X184371000Y-113786500I-250000J0D01*
G01*
X183421000Y-113786500D01*
G75*
G02*
X183171000Y-113536500I0J250000D01*
G01*
X183171000Y-113036500D01*
G75*
G02*
X183421000Y-112786500I250000J0D01*
G01*
G37*
G36*
G01*
X184307500Y-120449000D02*
X183357500Y-120449000D01*
G75*
G02*
X183107500Y-120199000I0J250000D01*
G01*
X183107500Y-119699000D01*
G75*
G02*
X183357500Y-119449000I250000J0D01*
G01*
X184307500Y-119449000D01*
G75*
G02*
X184557500Y-119699000I0J-250000D01*
G01*
X184557500Y-120199000D01*
G75*
G02*
X184307500Y-120449000I-250000J0D01*
G01*
G37*
G36*
G01*
X184307500Y-118549000D02*
X183357500Y-118549000D01*
G75*
G02*
X183107500Y-118299000I0J250000D01*
G01*
X183107500Y-117799000D01*
G75*
G02*
X183357500Y-117549000I250000J0D01*
G01*
X184307500Y-117549000D01*
G75*
G02*
X184557500Y-117799000I0J-250000D01*
G01*
X184557500Y-118299000D01*
G75*
G02*
X184307500Y-118549000I-250000J0D01*
G01*
G37*
G36*
G01*
X171376000Y-120556000D02*
X171376000Y-121506000D01*
G75*
G02*
X171126000Y-121756000I-250000J0D01*
G01*
X170626000Y-121756000D01*
G75*
G02*
X170376000Y-121506000I0J250000D01*
G01*
X170376000Y-120556000D01*
G75*
G02*
X170626000Y-120306000I250000J0D01*
G01*
X171126000Y-120306000D01*
G75*
G02*
X171376000Y-120556000I0J-250000D01*
G01*
G37*
G36*
G01*
X169476000Y-120556000D02*
X169476000Y-121506000D01*
G75*
G02*
X169226000Y-121756000I-250000J0D01*
G01*
X168726000Y-121756000D01*
G75*
G02*
X168476000Y-121506000I0J250000D01*
G01*
X168476000Y-120556000D01*
G75*
G02*
X168726000Y-120306000I250000J0D01*
G01*
X169226000Y-120306000D01*
G75*
G02*
X169476000Y-120556000I0J-250000D01*
G01*
G37*
G36*
G01*
X173090500Y-102522000D02*
X173090500Y-103472000D01*
G75*
G02*
X172840500Y-103722000I-250000J0D01*
G01*
X172340500Y-103722000D01*
G75*
G02*
X172090500Y-103472000I0J250000D01*
G01*
X172090500Y-102522000D01*
G75*
G02*
X172340500Y-102272000I250000J0D01*
G01*
X172840500Y-102272000D01*
G75*
G02*
X173090500Y-102522000I0J-250000D01*
G01*
G37*
G36*
G01*
X171190500Y-102522000D02*
X171190500Y-103472000D01*
G75*
G02*
X170940500Y-103722000I-250000J0D01*
G01*
X170440500Y-103722000D01*
G75*
G02*
X170190500Y-103472000I0J250000D01*
G01*
X170190500Y-102522000D01*
G75*
G02*
X170440500Y-102272000I250000J0D01*
G01*
X170940500Y-102272000D01*
G75*
G02*
X171190500Y-102522000I0J-250000D01*
G01*
G37*
G36*
G01*
X162463500Y-102097500D02*
X161513500Y-102097500D01*
G75*
G02*
X161263500Y-101847500I0J250000D01*
G01*
X161263500Y-101347500D01*
G75*
G02*
X161513500Y-101097500I250000J0D01*
G01*
X162463500Y-101097500D01*
G75*
G02*
X162713500Y-101347500I0J-250000D01*
G01*
X162713500Y-101847500D01*
G75*
G02*
X162463500Y-102097500I-250000J0D01*
G01*
G37*
G36*
G01*
X162463500Y-100197500D02*
X161513500Y-100197500D01*
G75*
G02*
X161263500Y-99947500I0J250000D01*
G01*
X161263500Y-99447500D01*
G75*
G02*
X161513500Y-99197500I250000J0D01*
G01*
X162463500Y-99197500D01*
G75*
G02*
X162713500Y-99447500I0J-250000D01*
G01*
X162713500Y-99947500D01*
G75*
G02*
X162463500Y-100197500I-250000J0D01*
G01*
G37*
G36*
G01*
X174313000Y-121506000D02*
X174313000Y-120556000D01*
G75*
G02*
X174563000Y-120306000I250000J0D01*
G01*
X175063000Y-120306000D01*
G75*
G02*
X175313000Y-120556000I0J-250000D01*
G01*
X175313000Y-121506000D01*
G75*
G02*
X175063000Y-121756000I-250000J0D01*
G01*
X174563000Y-121756000D01*
G75*
G02*
X174313000Y-121506000I0J250000D01*
G01*
G37*
G36*
G01*
X172413000Y-121506000D02*
X172413000Y-120556000D01*
G75*
G02*
X172663000Y-120306000I250000J0D01*
G01*
X173163000Y-120306000D01*
G75*
G02*
X173413000Y-120556000I0J-250000D01*
G01*
X173413000Y-121506000D01*
G75*
G02*
X173163000Y-121756000I-250000J0D01*
G01*
X172663000Y-121756000D01*
G75*
G02*
X172413000Y-121506000I0J250000D01*
G01*
G37*
G36*
G01*
X111702000Y-118267500D02*
X111702000Y-117317500D01*
G75*
G02*
X111952000Y-117067500I250000J0D01*
G01*
X112452000Y-117067500D01*
G75*
G02*
X112702000Y-117317500I0J-250000D01*
G01*
X112702000Y-118267500D01*
G75*
G02*
X112452000Y-118517500I-250000J0D01*
G01*
X111952000Y-118517500D01*
G75*
G02*
X111702000Y-118267500I0J250000D01*
G01*
G37*
G36*
G01*
X109802000Y-118267500D02*
X109802000Y-117317500D01*
G75*
G02*
X110052000Y-117067500I250000J0D01*
G01*
X110552000Y-117067500D01*
G75*
G02*
X110802000Y-117317500I0J-250000D01*
G01*
X110802000Y-118267500D01*
G75*
G02*
X110552000Y-118517500I-250000J0D01*
G01*
X110052000Y-118517500D01*
G75*
G02*
X109802000Y-118267500I0J250000D01*
G01*
G37*
D11*
X181610000Y-106554000D03*
X181610000Y-109854000D03*
G36*
G01*
X159206250Y-112008500D02*
X158293750Y-112008500D01*
G75*
G02*
X158050000Y-111764750I0J243750D01*
G01*
X158050000Y-111277250D01*
G75*
G02*
X158293750Y-111033500I243750J0D01*
G01*
X159206250Y-111033500D01*
G75*
G02*
X159450000Y-111277250I0J-243750D01*
G01*
X159450000Y-111764750D01*
G75*
G02*
X159206250Y-112008500I-243750J0D01*
G01*
G37*
G36*
G01*
X159206250Y-113883500D02*
X158293750Y-113883500D01*
G75*
G02*
X158050000Y-113639750I0J243750D01*
G01*
X158050000Y-113152250D01*
G75*
G02*
X158293750Y-112908500I243750J0D01*
G01*
X159206250Y-112908500D01*
G75*
G02*
X159450000Y-113152250I0J-243750D01*
G01*
X159450000Y-113639750D01*
G75*
G02*
X159206250Y-113883500I-243750J0D01*
G01*
G37*
G36*
G01*
X159206250Y-117947500D02*
X158293750Y-117947500D01*
G75*
G02*
X158050000Y-117703750I0J243750D01*
G01*
X158050000Y-117216250D01*
G75*
G02*
X158293750Y-116972500I243750J0D01*
G01*
X159206250Y-116972500D01*
G75*
G02*
X159450000Y-117216250I0J-243750D01*
G01*
X159450000Y-117703750D01*
G75*
G02*
X159206250Y-117947500I-243750J0D01*
G01*
G37*
G36*
G01*
X159206250Y-116072500D02*
X158293750Y-116072500D01*
G75*
G02*
X158050000Y-115828750I0J243750D01*
G01*
X158050000Y-115341250D01*
G75*
G02*
X158293750Y-115097500I243750J0D01*
G01*
X159206250Y-115097500D01*
G75*
G02*
X159450000Y-115341250I0J-243750D01*
G01*
X159450000Y-115828750D01*
G75*
G02*
X159206250Y-116072500I-243750J0D01*
G01*
G37*
D12*
X190347000Y-117092000D03*
X190347000Y-115092000D03*
X190347000Y-115592000D03*
X190347000Y-116092000D03*
X190347000Y-116592000D03*
X190347000Y-117592000D03*
X190347000Y-118092000D03*
X190347000Y-118592000D03*
D13*
X190347000Y-113592000D03*
X190347000Y-114392000D03*
X190347000Y-119292000D03*
X190347000Y-120092000D03*
X190347000Y-120092000D03*
X190347000Y-119292000D03*
X190347000Y-114392000D03*
X190347000Y-113592000D03*
G36*
G01*
X180842499Y-114636500D02*
X181742501Y-114636500D01*
G75*
G02*
X181992500Y-114886499I0J-249999D01*
G01*
X181992500Y-115411501D01*
G75*
G02*
X181742501Y-115661500I-249999J0D01*
G01*
X180842499Y-115661500D01*
G75*
G02*
X180592500Y-115411501I0J249999D01*
G01*
X180592500Y-114886499D01*
G75*
G02*
X180842499Y-114636500I249999J0D01*
G01*
G37*
G36*
G01*
X180842499Y-112811500D02*
X181742501Y-112811500D01*
G75*
G02*
X181992500Y-113061499I0J-249999D01*
G01*
X181992500Y-113586501D01*
G75*
G02*
X181742501Y-113836500I-249999J0D01*
G01*
X180842499Y-113836500D01*
G75*
G02*
X180592500Y-113586501I0J249999D01*
G01*
X180592500Y-113061499D01*
G75*
G02*
X180842499Y-112811500I249999J0D01*
G01*
G37*
G36*
G01*
X181742501Y-120424000D02*
X180842499Y-120424000D01*
G75*
G02*
X180592500Y-120174001I0J249999D01*
G01*
X180592500Y-119648999D01*
G75*
G02*
X180842499Y-119399000I249999J0D01*
G01*
X181742501Y-119399000D01*
G75*
G02*
X181992500Y-119648999I0J-249999D01*
G01*
X181992500Y-120174001D01*
G75*
G02*
X181742501Y-120424000I-249999J0D01*
G01*
G37*
G36*
G01*
X181742501Y-118599000D02*
X180842499Y-118599000D01*
G75*
G02*
X180592500Y-118349001I0J249999D01*
G01*
X180592500Y-117823999D01*
G75*
G02*
X180842499Y-117574000I249999J0D01*
G01*
X181742501Y-117574000D01*
G75*
G02*
X181992500Y-117823999I0J-249999D01*
G01*
X181992500Y-118349001D01*
G75*
G02*
X181742501Y-118599000I-249999J0D01*
G01*
G37*
G36*
G01*
X161982999Y-112858500D02*
X162883001Y-112858500D01*
G75*
G02*
X163133000Y-113108499I0J-249999D01*
G01*
X163133000Y-113633501D01*
G75*
G02*
X162883001Y-113883500I-249999J0D01*
G01*
X161982999Y-113883500D01*
G75*
G02*
X161733000Y-113633501I0J249999D01*
G01*
X161733000Y-113108499D01*
G75*
G02*
X161982999Y-112858500I249999J0D01*
G01*
G37*
G36*
G01*
X161982999Y-111033500D02*
X162883001Y-111033500D01*
G75*
G02*
X163133000Y-111283499I0J-249999D01*
G01*
X163133000Y-111808501D01*
G75*
G02*
X162883001Y-112058500I-249999J0D01*
G01*
X161982999Y-112058500D01*
G75*
G02*
X161733000Y-111808501I0J249999D01*
G01*
X161733000Y-111283499D01*
G75*
G02*
X161982999Y-111033500I249999J0D01*
G01*
G37*
G36*
G01*
X161982999Y-115097500D02*
X162883001Y-115097500D01*
G75*
G02*
X163133000Y-115347499I0J-249999D01*
G01*
X163133000Y-115872501D01*
G75*
G02*
X162883001Y-116122500I-249999J0D01*
G01*
X161982999Y-116122500D01*
G75*
G02*
X161733000Y-115872501I0J249999D01*
G01*
X161733000Y-115347499D01*
G75*
G02*
X161982999Y-115097500I249999J0D01*
G01*
G37*
G36*
G01*
X161982999Y-116922500D02*
X162883001Y-116922500D01*
G75*
G02*
X163133000Y-117172499I0J-249999D01*
G01*
X163133000Y-117697501D01*
G75*
G02*
X162883001Y-117947500I-249999J0D01*
G01*
X161982999Y-117947500D01*
G75*
G02*
X161733000Y-117697501I0J249999D01*
G01*
X161733000Y-117172499D01*
G75*
G02*
X161982999Y-116922500I249999J0D01*
G01*
G37*
G36*
G01*
X186886001Y-115661500D02*
X185985999Y-115661500D01*
G75*
G02*
X185736000Y-115411501I0J249999D01*
G01*
X185736000Y-114886499D01*
G75*
G02*
X185985999Y-114636500I249999J0D01*
G01*
X186886001Y-114636500D01*
G75*
G02*
X187136000Y-114886499I0J-249999D01*
G01*
X187136000Y-115411501D01*
G75*
G02*
X186886001Y-115661500I-249999J0D01*
G01*
G37*
G36*
G01*
X186886001Y-113836500D02*
X185985999Y-113836500D01*
G75*
G02*
X185736000Y-113586501I0J249999D01*
G01*
X185736000Y-113061499D01*
G75*
G02*
X185985999Y-112811500I249999J0D01*
G01*
X186886001Y-112811500D01*
G75*
G02*
X187136000Y-113061499I0J-249999D01*
G01*
X187136000Y-113586501D01*
G75*
G02*
X186886001Y-113836500I-249999J0D01*
G01*
G37*
G36*
G01*
X185985999Y-119399000D02*
X186886001Y-119399000D01*
G75*
G02*
X187136000Y-119648999I0J-249999D01*
G01*
X187136000Y-120174001D01*
G75*
G02*
X186886001Y-120424000I-249999J0D01*
G01*
X185985999Y-120424000D01*
G75*
G02*
X185736000Y-120174001I0J249999D01*
G01*
X185736000Y-119648999D01*
G75*
G02*
X185985999Y-119399000I249999J0D01*
G01*
G37*
G36*
G01*
X185985999Y-117574000D02*
X186886001Y-117574000D01*
G75*
G02*
X187136000Y-117823999I0J-249999D01*
G01*
X187136000Y-118349001D01*
G75*
G02*
X186886001Y-118599000I-249999J0D01*
G01*
X185985999Y-118599000D01*
G75*
G02*
X185736000Y-118349001I0J249999D01*
G01*
X185736000Y-117823999D01*
G75*
G02*
X185985999Y-117574000I249999J0D01*
G01*
G37*
G36*
G01*
X127912000Y-122322000D02*
X127612000Y-122322000D01*
G75*
G02*
X127462000Y-122172000I0J150000D01*
G01*
X127462000Y-120522000D01*
G75*
G02*
X127612000Y-120372000I150000J0D01*
G01*
X127912000Y-120372000D01*
G75*
G02*
X128062000Y-120522000I0J-150000D01*
G01*
X128062000Y-122172000D01*
G75*
G02*
X127912000Y-122322000I-150000J0D01*
G01*
G37*
G36*
G01*
X129182000Y-122322000D02*
X128882000Y-122322000D01*
G75*
G02*
X128732000Y-122172000I0J150000D01*
G01*
X128732000Y-120522000D01*
G75*
G02*
X128882000Y-120372000I150000J0D01*
G01*
X129182000Y-120372000D01*
G75*
G02*
X129332000Y-120522000I0J-150000D01*
G01*
X129332000Y-122172000D01*
G75*
G02*
X129182000Y-122322000I-150000J0D01*
G01*
G37*
G36*
G01*
X130452000Y-122322000D02*
X130152000Y-122322000D01*
G75*
G02*
X130002000Y-122172000I0J150000D01*
G01*
X130002000Y-120522000D01*
G75*
G02*
X130152000Y-120372000I150000J0D01*
G01*
X130452000Y-120372000D01*
G75*
G02*
X130602000Y-120522000I0J-150000D01*
G01*
X130602000Y-122172000D01*
G75*
G02*
X130452000Y-122322000I-150000J0D01*
G01*
G37*
G36*
G01*
X131722000Y-122322000D02*
X131422000Y-122322000D01*
G75*
G02*
X131272000Y-122172000I0J150000D01*
G01*
X131272000Y-120522000D01*
G75*
G02*
X131422000Y-120372000I150000J0D01*
G01*
X131722000Y-120372000D01*
G75*
G02*
X131872000Y-120522000I0J-150000D01*
G01*
X131872000Y-122172000D01*
G75*
G02*
X131722000Y-122322000I-150000J0D01*
G01*
G37*
G36*
G01*
X132992000Y-122322000D02*
X132692000Y-122322000D01*
G75*
G02*
X132542000Y-122172000I0J150000D01*
G01*
X132542000Y-120522000D01*
G75*
G02*
X132692000Y-120372000I150000J0D01*
G01*
X132992000Y-120372000D01*
G75*
G02*
X133142000Y-120522000I0J-150000D01*
G01*
X133142000Y-122172000D01*
G75*
G02*
X132992000Y-122322000I-150000J0D01*
G01*
G37*
G36*
G01*
X134262000Y-122322000D02*
X133962000Y-122322000D01*
G75*
G02*
X133812000Y-122172000I0J150000D01*
G01*
X133812000Y-120522000D01*
G75*
G02*
X133962000Y-120372000I150000J0D01*
G01*
X134262000Y-120372000D01*
G75*
G02*
X134412000Y-120522000I0J-150000D01*
G01*
X134412000Y-122172000D01*
G75*
G02*
X134262000Y-122322000I-150000J0D01*
G01*
G37*
G36*
G01*
X135532000Y-122322000D02*
X135232000Y-122322000D01*
G75*
G02*
X135082000Y-122172000I0J150000D01*
G01*
X135082000Y-120522000D01*
G75*
G02*
X135232000Y-120372000I150000J0D01*
G01*
X135532000Y-120372000D01*
G75*
G02*
X135682000Y-120522000I0J-150000D01*
G01*
X135682000Y-122172000D01*
G75*
G02*
X135532000Y-122322000I-150000J0D01*
G01*
G37*
G36*
G01*
X136802000Y-122322000D02*
X136502000Y-122322000D01*
G75*
G02*
X136352000Y-122172000I0J150000D01*
G01*
X136352000Y-120522000D01*
G75*
G02*
X136502000Y-120372000I150000J0D01*
G01*
X136802000Y-120372000D01*
G75*
G02*
X136952000Y-120522000I0J-150000D01*
G01*
X136952000Y-122172000D01*
G75*
G02*
X136802000Y-122322000I-150000J0D01*
G01*
G37*
G36*
G01*
X136802000Y-117372000D02*
X136502000Y-117372000D01*
G75*
G02*
X136352000Y-117222000I0J150000D01*
G01*
X136352000Y-115572000D01*
G75*
G02*
X136502000Y-115422000I150000J0D01*
G01*
X136802000Y-115422000D01*
G75*
G02*
X136952000Y-115572000I0J-150000D01*
G01*
X136952000Y-117222000D01*
G75*
G02*
X136802000Y-117372000I-150000J0D01*
G01*
G37*
G36*
G01*
X135532000Y-117372000D02*
X135232000Y-117372000D01*
G75*
G02*
X135082000Y-117222000I0J150000D01*
G01*
X135082000Y-115572000D01*
G75*
G02*
X135232000Y-115422000I150000J0D01*
G01*
X135532000Y-115422000D01*
G75*
G02*
X135682000Y-115572000I0J-150000D01*
G01*
X135682000Y-117222000D01*
G75*
G02*
X135532000Y-117372000I-150000J0D01*
G01*
G37*
G36*
G01*
X134262000Y-117372000D02*
X133962000Y-117372000D01*
G75*
G02*
X133812000Y-117222000I0J150000D01*
G01*
X133812000Y-115572000D01*
G75*
G02*
X133962000Y-115422000I150000J0D01*
G01*
X134262000Y-115422000D01*
G75*
G02*
X134412000Y-115572000I0J-150000D01*
G01*
X134412000Y-117222000D01*
G75*
G02*
X134262000Y-117372000I-150000J0D01*
G01*
G37*
G36*
G01*
X132992000Y-117372000D02*
X132692000Y-117372000D01*
G75*
G02*
X132542000Y-117222000I0J150000D01*
G01*
X132542000Y-115572000D01*
G75*
G02*
X132692000Y-115422000I150000J0D01*
G01*
X132992000Y-115422000D01*
G75*
G02*
X133142000Y-115572000I0J-150000D01*
G01*
X133142000Y-117222000D01*
G75*
G02*
X132992000Y-117372000I-150000J0D01*
G01*
G37*
G36*
G01*
X131722000Y-117372000D02*
X131422000Y-117372000D01*
G75*
G02*
X131272000Y-117222000I0J150000D01*
G01*
X131272000Y-115572000D01*
G75*
G02*
X131422000Y-115422000I150000J0D01*
G01*
X131722000Y-115422000D01*
G75*
G02*
X131872000Y-115572000I0J-150000D01*
G01*
X131872000Y-117222000D01*
G75*
G02*
X131722000Y-117372000I-150000J0D01*
G01*
G37*
G36*
G01*
X130452000Y-117372000D02*
X130152000Y-117372000D01*
G75*
G02*
X130002000Y-117222000I0J150000D01*
G01*
X130002000Y-115572000D01*
G75*
G02*
X130152000Y-115422000I150000J0D01*
G01*
X130452000Y-115422000D01*
G75*
G02*
X130602000Y-115572000I0J-150000D01*
G01*
X130602000Y-117222000D01*
G75*
G02*
X130452000Y-117372000I-150000J0D01*
G01*
G37*
G36*
G01*
X129182000Y-117372000D02*
X128882000Y-117372000D01*
G75*
G02*
X128732000Y-117222000I0J150000D01*
G01*
X128732000Y-115572000D01*
G75*
G02*
X128882000Y-115422000I150000J0D01*
G01*
X129182000Y-115422000D01*
G75*
G02*
X129332000Y-115572000I0J-150000D01*
G01*
X129332000Y-117222000D01*
G75*
G02*
X129182000Y-117372000I-150000J0D01*
G01*
G37*
G36*
G01*
X127912000Y-117372000D02*
X127612000Y-117372000D01*
G75*
G02*
X127462000Y-117222000I0J150000D01*
G01*
X127462000Y-115572000D01*
G75*
G02*
X127612000Y-115422000I150000J0D01*
G01*
X127912000Y-115422000D01*
G75*
G02*
X128062000Y-115572000I0J-150000D01*
G01*
X128062000Y-117222000D01*
G75*
G02*
X127912000Y-117372000I-150000J0D01*
G01*
G37*
G36*
G01*
X116227500Y-115293000D02*
X116227500Y-115593000D01*
G75*
G02*
X116077500Y-115743000I-150000J0D01*
G01*
X114427500Y-115743000D01*
G75*
G02*
X114277500Y-115593000I0J150000D01*
G01*
X114277500Y-115293000D01*
G75*
G02*
X114427500Y-115143000I150000J0D01*
G01*
X116077500Y-115143000D01*
G75*
G02*
X116227500Y-115293000I0J-150000D01*
G01*
G37*
G36*
G01*
X116227500Y-114023000D02*
X116227500Y-114323000D01*
G75*
G02*
X116077500Y-114473000I-150000J0D01*
G01*
X114427500Y-114473000D01*
G75*
G02*
X114277500Y-114323000I0J150000D01*
G01*
X114277500Y-114023000D01*
G75*
G02*
X114427500Y-113873000I150000J0D01*
G01*
X116077500Y-113873000D01*
G75*
G02*
X116227500Y-114023000I0J-150000D01*
G01*
G37*
G36*
G01*
X116227500Y-112753000D02*
X116227500Y-113053000D01*
G75*
G02*
X116077500Y-113203000I-150000J0D01*
G01*
X114427500Y-113203000D01*
G75*
G02*
X114277500Y-113053000I0J150000D01*
G01*
X114277500Y-112753000D01*
G75*
G02*
X114427500Y-112603000I150000J0D01*
G01*
X116077500Y-112603000D01*
G75*
G02*
X116227500Y-112753000I0J-150000D01*
G01*
G37*
G36*
G01*
X116227500Y-111483000D02*
X116227500Y-111783000D01*
G75*
G02*
X116077500Y-111933000I-150000J0D01*
G01*
X114427500Y-111933000D01*
G75*
G02*
X114277500Y-111783000I0J150000D01*
G01*
X114277500Y-111483000D01*
G75*
G02*
X114427500Y-111333000I150000J0D01*
G01*
X116077500Y-111333000D01*
G75*
G02*
X116227500Y-111483000I0J-150000D01*
G01*
G37*
G36*
G01*
X116227500Y-110213000D02*
X116227500Y-110513000D01*
G75*
G02*
X116077500Y-110663000I-150000J0D01*
G01*
X114427500Y-110663000D01*
G75*
G02*
X114277500Y-110513000I0J150000D01*
G01*
X114277500Y-110213000D01*
G75*
G02*
X114427500Y-110063000I150000J0D01*
G01*
X116077500Y-110063000D01*
G75*
G02*
X116227500Y-110213000I0J-150000D01*
G01*
G37*
G36*
G01*
X116227500Y-108943000D02*
X116227500Y-109243000D01*
G75*
G02*
X116077500Y-109393000I-150000J0D01*
G01*
X114427500Y-109393000D01*
G75*
G02*
X114277500Y-109243000I0J150000D01*
G01*
X114277500Y-108943000D01*
G75*
G02*
X114427500Y-108793000I150000J0D01*
G01*
X116077500Y-108793000D01*
G75*
G02*
X116227500Y-108943000I0J-150000D01*
G01*
G37*
G36*
G01*
X116227500Y-107673000D02*
X116227500Y-107973000D01*
G75*
G02*
X116077500Y-108123000I-150000J0D01*
G01*
X114427500Y-108123000D01*
G75*
G02*
X114277500Y-107973000I0J150000D01*
G01*
X114277500Y-107673000D01*
G75*
G02*
X114427500Y-107523000I150000J0D01*
G01*
X116077500Y-107523000D01*
G75*
G02*
X116227500Y-107673000I0J-150000D01*
G01*
G37*
G36*
G01*
X111277500Y-107673000D02*
X111277500Y-107973000D01*
G75*
G02*
X111127500Y-108123000I-150000J0D01*
G01*
X109477500Y-108123000D01*
G75*
G02*
X109327500Y-107973000I0J150000D01*
G01*
X109327500Y-107673000D01*
G75*
G02*
X109477500Y-107523000I150000J0D01*
G01*
X111127500Y-107523000D01*
G75*
G02*
X111277500Y-107673000I0J-150000D01*
G01*
G37*
G36*
G01*
X111277500Y-108943000D02*
X111277500Y-109243000D01*
G75*
G02*
X111127500Y-109393000I-150000J0D01*
G01*
X109477500Y-109393000D01*
G75*
G02*
X109327500Y-109243000I0J150000D01*
G01*
X109327500Y-108943000D01*
G75*
G02*
X109477500Y-108793000I150000J0D01*
G01*
X111127500Y-108793000D01*
G75*
G02*
X111277500Y-108943000I0J-150000D01*
G01*
G37*
G36*
G01*
X111277500Y-110213000D02*
X111277500Y-110513000D01*
G75*
G02*
X111127500Y-110663000I-150000J0D01*
G01*
X109477500Y-110663000D01*
G75*
G02*
X109327500Y-110513000I0J150000D01*
G01*
X109327500Y-110213000D01*
G75*
G02*
X109477500Y-110063000I150000J0D01*
G01*
X111127500Y-110063000D01*
G75*
G02*
X111277500Y-110213000I0J-150000D01*
G01*
G37*
G36*
G01*
X111277500Y-111483000D02*
X111277500Y-111783000D01*
G75*
G02*
X111127500Y-111933000I-150000J0D01*
G01*
X109477500Y-111933000D01*
G75*
G02*
X109327500Y-111783000I0J150000D01*
G01*
X109327500Y-111483000D01*
G75*
G02*
X109477500Y-111333000I150000J0D01*
G01*
X111127500Y-111333000D01*
G75*
G02*
X111277500Y-111483000I0J-150000D01*
G01*
G37*
G36*
G01*
X111277500Y-112753000D02*
X111277500Y-113053000D01*
G75*
G02*
X111127500Y-113203000I-150000J0D01*
G01*
X109477500Y-113203000D01*
G75*
G02*
X109327500Y-113053000I0J150000D01*
G01*
X109327500Y-112753000D01*
G75*
G02*
X109477500Y-112603000I150000J0D01*
G01*
X111127500Y-112603000D01*
G75*
G02*
X111277500Y-112753000I0J-150000D01*
G01*
G37*
G36*
G01*
X111277500Y-114023000D02*
X111277500Y-114323000D01*
G75*
G02*
X111127500Y-114473000I-150000J0D01*
G01*
X109477500Y-114473000D01*
G75*
G02*
X109327500Y-114323000I0J150000D01*
G01*
X109327500Y-114023000D01*
G75*
G02*
X109477500Y-113873000I150000J0D01*
G01*
X111127500Y-113873000D01*
G75*
G02*
X111277500Y-114023000I0J-150000D01*
G01*
G37*
G36*
G01*
X111277500Y-115293000D02*
X111277500Y-115593000D01*
G75*
G02*
X111127500Y-115743000I-150000J0D01*
G01*
X109477500Y-115743000D01*
G75*
G02*
X109327500Y-115593000I0J150000D01*
G01*
X109327500Y-115293000D01*
G75*
G02*
X109477500Y-115143000I150000J0D01*
G01*
X111127500Y-115143000D01*
G75*
G02*
X111277500Y-115293000I0J-150000D01*
G01*
G37*
D14*
X176119500Y-110636500D03*
X175469500Y-110636500D03*
X174819500Y-110636500D03*
X174169500Y-110636500D03*
X173519500Y-110636500D03*
X172869500Y-110636500D03*
X172219500Y-110636500D03*
X171569500Y-110636500D03*
X170919500Y-110636500D03*
X170269500Y-110636500D03*
X169619500Y-110636500D03*
X168969500Y-110636500D03*
X168319500Y-110636500D03*
X167669500Y-110636500D03*
X167669500Y-117836500D03*
X168319500Y-117836500D03*
X168969500Y-117836500D03*
X169619500Y-117836500D03*
X170269500Y-117836500D03*
X170919500Y-117836500D03*
X171569500Y-117836500D03*
X172219500Y-117836500D03*
X172869500Y-117836500D03*
X173519500Y-117836500D03*
X174169500Y-117836500D03*
X174819500Y-117836500D03*
X175469500Y-117836500D03*
X176119500Y-117836500D03*
M02*
