G04 #@! TF.GenerationSoftware,KiCad,Pcbnew,(5.1.9-0-10_14)*
G04 #@! TF.CreationDate,2021-04-09T13:00:34-05:00*
G04 #@! TF.ProjectId,CPU Card,43505520-4361-4726-942e-6b696361645f,v1.0*
G04 #@! TF.SameCoordinates,Original*
G04 #@! TF.FileFunction,Soldermask,Top*
G04 #@! TF.FilePolarity,Negative*
%FSLAX46Y46*%
G04 Gerber Fmt 4.6, Leading zero omitted, Abs format (unit mm)*
G04 Created by KiCad (PCBNEW (5.1.9-0-10_14)) date 2021-04-09 13:00:34*
%MOMM*%
%LPD*%
G01*
G04 APERTURE LIST*
%ADD10R,1.600000X2.400000*%
%ADD11O,1.600000X2.400000*%
%ADD12R,1.700000X1.700000*%
%ADD13O,1.700000X1.700000*%
%ADD14C,0.100000*%
G04 APERTURE END LIST*
G36*
G01*
X152895000Y-86901000D02*
X152895000Y-87851000D01*
G75*
G02*
X152645000Y-88101000I-250000J0D01*
G01*
X152145000Y-88101000D01*
G75*
G02*
X151895000Y-87851000I0J250000D01*
G01*
X151895000Y-86901000D01*
G75*
G02*
X152145000Y-86651000I250000J0D01*
G01*
X152645000Y-86651000D01*
G75*
G02*
X152895000Y-86901000I0J-250000D01*
G01*
G37*
G36*
G01*
X150995000Y-86901000D02*
X150995000Y-87851000D01*
G75*
G02*
X150745000Y-88101000I-250000J0D01*
G01*
X150245000Y-88101000D01*
G75*
G02*
X149995000Y-87851000I0J250000D01*
G01*
X149995000Y-86901000D01*
G75*
G02*
X150245000Y-86651000I250000J0D01*
G01*
X150745000Y-86651000D01*
G75*
G02*
X150995000Y-86901000I0J-250000D01*
G01*
G37*
G36*
G01*
X115885000Y-132541600D02*
X114615000Y-132541600D01*
G75*
G02*
X114513400Y-132440000I0J101600D01*
G01*
X114513400Y-127360000D01*
G75*
G02*
X114615000Y-127258400I101600J0D01*
G01*
X115885000Y-127258400D01*
G75*
G02*
X115986600Y-127360000I0J-101600D01*
G01*
X115986600Y-132440000D01*
G75*
G02*
X115885000Y-132541600I-101600J0D01*
G01*
G37*
G36*
G01*
X118425000Y-132541600D02*
X117155000Y-132541600D01*
G75*
G02*
X117053400Y-132440000I0J101600D01*
G01*
X117053400Y-127360000D01*
G75*
G02*
X117155000Y-127258400I101600J0D01*
G01*
X118425000Y-127258400D01*
G75*
G02*
X118526600Y-127360000I0J-101600D01*
G01*
X118526600Y-132440000D01*
G75*
G02*
X118425000Y-132541600I-101600J0D01*
G01*
G37*
G36*
G01*
X120965000Y-132541600D02*
X119695000Y-132541600D01*
G75*
G02*
X119593400Y-132440000I0J101600D01*
G01*
X119593400Y-127360000D01*
G75*
G02*
X119695000Y-127258400I101600J0D01*
G01*
X120965000Y-127258400D01*
G75*
G02*
X121066600Y-127360000I0J-101600D01*
G01*
X121066600Y-132440000D01*
G75*
G02*
X120965000Y-132541600I-101600J0D01*
G01*
G37*
G36*
G01*
X123505000Y-132541600D02*
X122235000Y-132541600D01*
G75*
G02*
X122133400Y-132440000I0J101600D01*
G01*
X122133400Y-127360000D01*
G75*
G02*
X122235000Y-127258400I101600J0D01*
G01*
X123505000Y-127258400D01*
G75*
G02*
X123606600Y-127360000I0J-101600D01*
G01*
X123606600Y-132440000D01*
G75*
G02*
X123505000Y-132541600I-101600J0D01*
G01*
G37*
G36*
G01*
X126045000Y-132541600D02*
X124775000Y-132541600D01*
G75*
G02*
X124673400Y-132440000I0J101600D01*
G01*
X124673400Y-127360000D01*
G75*
G02*
X124775000Y-127258400I101600J0D01*
G01*
X126045000Y-127258400D01*
G75*
G02*
X126146600Y-127360000I0J-101600D01*
G01*
X126146600Y-132440000D01*
G75*
G02*
X126045000Y-132541600I-101600J0D01*
G01*
G37*
G36*
G01*
X128585000Y-132541600D02*
X127315000Y-132541600D01*
G75*
G02*
X127213400Y-132440000I0J101600D01*
G01*
X127213400Y-127360000D01*
G75*
G02*
X127315000Y-127258400I101600J0D01*
G01*
X128585000Y-127258400D01*
G75*
G02*
X128686600Y-127360000I0J-101600D01*
G01*
X128686600Y-132440000D01*
G75*
G02*
X128585000Y-132541600I-101600J0D01*
G01*
G37*
G36*
G01*
X131125000Y-132541600D02*
X129855000Y-132541600D01*
G75*
G02*
X129753400Y-132440000I0J101600D01*
G01*
X129753400Y-127360000D01*
G75*
G02*
X129855000Y-127258400I101600J0D01*
G01*
X131125000Y-127258400D01*
G75*
G02*
X131226600Y-127360000I0J-101600D01*
G01*
X131226600Y-132440000D01*
G75*
G02*
X131125000Y-132541600I-101600J0D01*
G01*
G37*
G36*
G01*
X133665000Y-132541600D02*
X132395000Y-132541600D01*
G75*
G02*
X132293400Y-132440000I0J101600D01*
G01*
X132293400Y-127360000D01*
G75*
G02*
X132395000Y-127258400I101600J0D01*
G01*
X133665000Y-127258400D01*
G75*
G02*
X133766600Y-127360000I0J-101600D01*
G01*
X133766600Y-132440000D01*
G75*
G02*
X133665000Y-132541600I-101600J0D01*
G01*
G37*
G36*
G01*
X136205000Y-132541600D02*
X134935000Y-132541600D01*
G75*
G02*
X134833400Y-132440000I0J101600D01*
G01*
X134833400Y-127360000D01*
G75*
G02*
X134935000Y-127258400I101600J0D01*
G01*
X136205000Y-127258400D01*
G75*
G02*
X136306600Y-127360000I0J-101600D01*
G01*
X136306600Y-132440000D01*
G75*
G02*
X136205000Y-132541600I-101600J0D01*
G01*
G37*
G36*
G01*
X138745000Y-132541600D02*
X137475000Y-132541600D01*
G75*
G02*
X137373400Y-132440000I0J101600D01*
G01*
X137373400Y-127360000D01*
G75*
G02*
X137475000Y-127258400I101600J0D01*
G01*
X138745000Y-127258400D01*
G75*
G02*
X138846600Y-127360000I0J-101600D01*
G01*
X138846600Y-132440000D01*
G75*
G02*
X138745000Y-132541600I-101600J0D01*
G01*
G37*
G36*
G01*
X141285000Y-132541600D02*
X140015000Y-132541600D01*
G75*
G02*
X139913400Y-132440000I0J101600D01*
G01*
X139913400Y-127360000D01*
G75*
G02*
X140015000Y-127258400I101600J0D01*
G01*
X141285000Y-127258400D01*
G75*
G02*
X141386600Y-127360000I0J-101600D01*
G01*
X141386600Y-132440000D01*
G75*
G02*
X141285000Y-132541600I-101600J0D01*
G01*
G37*
G36*
G01*
X143825000Y-132541600D02*
X142555000Y-132541600D01*
G75*
G02*
X142453400Y-132440000I0J101600D01*
G01*
X142453400Y-127360000D01*
G75*
G02*
X142555000Y-127258400I101600J0D01*
G01*
X143825000Y-127258400D01*
G75*
G02*
X143926600Y-127360000I0J-101600D01*
G01*
X143926600Y-132440000D01*
G75*
G02*
X143825000Y-132541600I-101600J0D01*
G01*
G37*
G36*
G01*
X146365000Y-132541600D02*
X145095000Y-132541600D01*
G75*
G02*
X144993400Y-132440000I0J101600D01*
G01*
X144993400Y-127360000D01*
G75*
G02*
X145095000Y-127258400I101600J0D01*
G01*
X146365000Y-127258400D01*
G75*
G02*
X146466600Y-127360000I0J-101600D01*
G01*
X146466600Y-132440000D01*
G75*
G02*
X146365000Y-132541600I-101600J0D01*
G01*
G37*
G36*
G01*
X148905000Y-132541600D02*
X147635000Y-132541600D01*
G75*
G02*
X147533400Y-132440000I0J101600D01*
G01*
X147533400Y-127360000D01*
G75*
G02*
X147635000Y-127258400I101600J0D01*
G01*
X148905000Y-127258400D01*
G75*
G02*
X149006600Y-127360000I0J-101600D01*
G01*
X149006600Y-132440000D01*
G75*
G02*
X148905000Y-132541600I-101600J0D01*
G01*
G37*
G36*
G01*
X151445000Y-132541600D02*
X150175000Y-132541600D01*
G75*
G02*
X150073400Y-132440000I0J101600D01*
G01*
X150073400Y-127360000D01*
G75*
G02*
X150175000Y-127258400I101600J0D01*
G01*
X151445000Y-127258400D01*
G75*
G02*
X151546600Y-127360000I0J-101600D01*
G01*
X151546600Y-132440000D01*
G75*
G02*
X151445000Y-132541600I-101600J0D01*
G01*
G37*
G36*
G01*
X153985000Y-132541600D02*
X152715000Y-132541600D01*
G75*
G02*
X152613400Y-132440000I0J101600D01*
G01*
X152613400Y-127360000D01*
G75*
G02*
X152715000Y-127258400I101600J0D01*
G01*
X153985000Y-127258400D01*
G75*
G02*
X154086600Y-127360000I0J-101600D01*
G01*
X154086600Y-132440000D01*
G75*
G02*
X153985000Y-132541600I-101600J0D01*
G01*
G37*
G36*
G01*
X156525000Y-132541600D02*
X155255000Y-132541600D01*
G75*
G02*
X155153400Y-132440000I0J101600D01*
G01*
X155153400Y-127360000D01*
G75*
G02*
X155255000Y-127258400I101600J0D01*
G01*
X156525000Y-127258400D01*
G75*
G02*
X156626600Y-127360000I0J-101600D01*
G01*
X156626600Y-132440000D01*
G75*
G02*
X156525000Y-132541600I-101600J0D01*
G01*
G37*
G36*
G01*
X159065000Y-132541600D02*
X157795000Y-132541600D01*
G75*
G02*
X157693400Y-132440000I0J101600D01*
G01*
X157693400Y-127360000D01*
G75*
G02*
X157795000Y-127258400I101600J0D01*
G01*
X159065000Y-127258400D01*
G75*
G02*
X159166600Y-127360000I0J-101600D01*
G01*
X159166600Y-132440000D01*
G75*
G02*
X159065000Y-132541600I-101600J0D01*
G01*
G37*
G36*
G01*
X161605000Y-132541600D02*
X160335000Y-132541600D01*
G75*
G02*
X160233400Y-132440000I0J101600D01*
G01*
X160233400Y-127360000D01*
G75*
G02*
X160335000Y-127258400I101600J0D01*
G01*
X161605000Y-127258400D01*
G75*
G02*
X161706600Y-127360000I0J-101600D01*
G01*
X161706600Y-132440000D01*
G75*
G02*
X161605000Y-132541600I-101600J0D01*
G01*
G37*
G36*
G01*
X164145000Y-132541600D02*
X162875000Y-132541600D01*
G75*
G02*
X162773400Y-132440000I0J101600D01*
G01*
X162773400Y-127360000D01*
G75*
G02*
X162875000Y-127258400I101600J0D01*
G01*
X164145000Y-127258400D01*
G75*
G02*
X164246600Y-127360000I0J-101600D01*
G01*
X164246600Y-132440000D01*
G75*
G02*
X164145000Y-132541600I-101600J0D01*
G01*
G37*
D10*
X170180000Y-92710000D03*
D11*
X121920000Y-107950000D03*
X167640000Y-92710000D03*
X124460000Y-107950000D03*
X165100000Y-92710000D03*
X127000000Y-107950000D03*
X162560000Y-92710000D03*
X129540000Y-107950000D03*
X160020000Y-92710000D03*
X132080000Y-107950000D03*
X157480000Y-92710000D03*
X134620000Y-107950000D03*
X154940000Y-92710000D03*
X137160000Y-107950000D03*
X152400000Y-92710000D03*
X139700000Y-107950000D03*
X149860000Y-92710000D03*
X142240000Y-107950000D03*
X147320000Y-92710000D03*
X144780000Y-107950000D03*
X144780000Y-92710000D03*
X147320000Y-107950000D03*
X142240000Y-92710000D03*
X149860000Y-107950000D03*
X139700000Y-92710000D03*
X152400000Y-107950000D03*
X137160000Y-92710000D03*
X154940000Y-107950000D03*
X134620000Y-92710000D03*
X157480000Y-107950000D03*
X132080000Y-92710000D03*
X160020000Y-107950000D03*
X129540000Y-92710000D03*
X162560000Y-107950000D03*
X127000000Y-92710000D03*
X165100000Y-107950000D03*
X124460000Y-92710000D03*
X167640000Y-107950000D03*
X121920000Y-92710000D03*
X170180000Y-107950000D03*
D12*
X184150000Y-99060000D03*
D13*
X184150000Y-101600000D03*
X181610000Y-99060000D03*
X181610000Y-101600000D03*
G36*
G01*
X170692500Y-113087999D02*
X170692500Y-113988001D01*
G75*
G02*
X170442501Y-114238000I-249999J0D01*
G01*
X169917499Y-114238000D01*
G75*
G02*
X169667500Y-113988001I0J249999D01*
G01*
X169667500Y-113087999D01*
G75*
G02*
X169917499Y-112838000I249999J0D01*
G01*
X170442501Y-112838000D01*
G75*
G02*
X170692500Y-113087999I0J-249999D01*
G01*
G37*
G36*
G01*
X168867500Y-113087999D02*
X168867500Y-113988001D01*
G75*
G02*
X168617501Y-114238000I-249999J0D01*
G01*
X168092499Y-114238000D01*
G75*
G02*
X167842500Y-113988001I0J249999D01*
G01*
X167842500Y-113087999D01*
G75*
G02*
X168092499Y-112838000I249999J0D01*
G01*
X168617501Y-112838000D01*
G75*
G02*
X168867500Y-113087999I0J-249999D01*
G01*
G37*
G36*
G01*
X166327500Y-86925999D02*
X166327500Y-87826001D01*
G75*
G02*
X166077501Y-88076000I-249999J0D01*
G01*
X165552499Y-88076000D01*
G75*
G02*
X165302500Y-87826001I0J249999D01*
G01*
X165302500Y-86925999D01*
G75*
G02*
X165552499Y-86676000I249999J0D01*
G01*
X166077501Y-86676000D01*
G75*
G02*
X166327500Y-86925999I0J-249999D01*
G01*
G37*
G36*
G01*
X168152500Y-86925999D02*
X168152500Y-87826001D01*
G75*
G02*
X167902501Y-88076000I-249999J0D01*
G01*
X167377499Y-88076000D01*
G75*
G02*
X167127500Y-87826001I0J249999D01*
G01*
X167127500Y-86925999D01*
G75*
G02*
X167377499Y-86676000I249999J0D01*
G01*
X167902501Y-86676000D01*
G75*
G02*
X168152500Y-86925999I0J-249999D01*
G01*
G37*
G36*
G01*
X163119500Y-86925999D02*
X163119500Y-87826001D01*
G75*
G02*
X162869501Y-88076000I-249999J0D01*
G01*
X162344499Y-88076000D01*
G75*
G02*
X162094500Y-87826001I0J249999D01*
G01*
X162094500Y-86925999D01*
G75*
G02*
X162344499Y-86676000I249999J0D01*
G01*
X162869501Y-86676000D01*
G75*
G02*
X163119500Y-86925999I0J-249999D01*
G01*
G37*
G36*
G01*
X161294500Y-86925999D02*
X161294500Y-87826001D01*
G75*
G02*
X161044501Y-88076000I-249999J0D01*
G01*
X160519499Y-88076000D01*
G75*
G02*
X160269500Y-87826001I0J249999D01*
G01*
X160269500Y-86925999D01*
G75*
G02*
X160519499Y-86676000I249999J0D01*
G01*
X161044501Y-86676000D01*
G75*
G02*
X161294500Y-86925999I0J-249999D01*
G01*
G37*
G36*
G01*
X156167500Y-86925999D02*
X156167500Y-87826001D01*
G75*
G02*
X155917501Y-88076000I-249999J0D01*
G01*
X155392499Y-88076000D01*
G75*
G02*
X155142500Y-87826001I0J249999D01*
G01*
X155142500Y-86925999D01*
G75*
G02*
X155392499Y-86676000I249999J0D01*
G01*
X155917501Y-86676000D01*
G75*
G02*
X156167500Y-86925999I0J-249999D01*
G01*
G37*
G36*
G01*
X157992500Y-86925999D02*
X157992500Y-87826001D01*
G75*
G02*
X157742501Y-88076000I-249999J0D01*
G01*
X157217499Y-88076000D01*
G75*
G02*
X156967500Y-87826001I0J249999D01*
G01*
X156967500Y-86925999D01*
G75*
G02*
X157217499Y-86676000I249999J0D01*
G01*
X157742501Y-86676000D01*
G75*
G02*
X157992500Y-86925999I0J-249999D01*
G01*
G37*
G36*
G01*
X159507500Y-113988001D02*
X159507500Y-113087999D01*
G75*
G02*
X159757499Y-112838000I249999J0D01*
G01*
X160282501Y-112838000D01*
G75*
G02*
X160532500Y-113087999I0J-249999D01*
G01*
X160532500Y-113988001D01*
G75*
G02*
X160282501Y-114238000I-249999J0D01*
G01*
X159757499Y-114238000D01*
G75*
G02*
X159507500Y-113988001I0J249999D01*
G01*
G37*
G36*
G01*
X161332500Y-113988001D02*
X161332500Y-113087999D01*
G75*
G02*
X161582499Y-112838000I249999J0D01*
G01*
X162107501Y-112838000D01*
G75*
G02*
X162357500Y-113087999I0J-249999D01*
G01*
X162357500Y-113988001D01*
G75*
G02*
X162107501Y-114238000I-249999J0D01*
G01*
X161582499Y-114238000D01*
G75*
G02*
X161332500Y-113988001I0J249999D01*
G01*
G37*
D14*
G36*
X189471398Y-100838000D02*
G01*
X189471398Y-100862534D01*
X189466588Y-100911365D01*
X189457016Y-100959490D01*
X189442772Y-101006445D01*
X189423995Y-101051778D01*
X189400864Y-101095051D01*
X189373604Y-101135850D01*
X189342476Y-101173779D01*
X189307779Y-101208476D01*
X189269850Y-101239604D01*
X189229051Y-101266864D01*
X189185778Y-101289995D01*
X189140445Y-101308772D01*
X189093490Y-101323016D01*
X189045365Y-101332588D01*
X188996534Y-101337398D01*
X188972000Y-101337398D01*
X188972000Y-101338000D01*
X188472000Y-101338000D01*
X188472000Y-101337398D01*
X188447466Y-101337398D01*
X188398635Y-101332588D01*
X188350510Y-101323016D01*
X188303555Y-101308772D01*
X188258222Y-101289995D01*
X188214949Y-101266864D01*
X188174150Y-101239604D01*
X188136221Y-101208476D01*
X188101524Y-101173779D01*
X188070396Y-101135850D01*
X188043136Y-101095051D01*
X188020005Y-101051778D01*
X188001228Y-101006445D01*
X187986984Y-100959490D01*
X187977412Y-100911365D01*
X187972602Y-100862534D01*
X187972602Y-100838000D01*
X187972000Y-100838000D01*
X187972000Y-100338000D01*
X189472000Y-100338000D01*
X189472000Y-100838000D01*
X189471398Y-100838000D01*
G37*
G36*
X187972000Y-100038000D02*
G01*
X187972000Y-99538000D01*
X187972602Y-99538000D01*
X187972602Y-99513466D01*
X187977412Y-99464635D01*
X187986984Y-99416510D01*
X188001228Y-99369555D01*
X188020005Y-99324222D01*
X188043136Y-99280949D01*
X188070396Y-99240150D01*
X188101524Y-99202221D01*
X188136221Y-99167524D01*
X188174150Y-99136396D01*
X188214949Y-99109136D01*
X188258222Y-99086005D01*
X188303555Y-99067228D01*
X188350510Y-99052984D01*
X188398635Y-99043412D01*
X188447466Y-99038602D01*
X188472000Y-99038602D01*
X188472000Y-99038000D01*
X188972000Y-99038000D01*
X188972000Y-99038602D01*
X188996534Y-99038602D01*
X189045365Y-99043412D01*
X189093490Y-99052984D01*
X189140445Y-99067228D01*
X189185778Y-99086005D01*
X189229051Y-99109136D01*
X189269850Y-99136396D01*
X189307779Y-99167524D01*
X189342476Y-99202221D01*
X189373604Y-99240150D01*
X189400864Y-99280949D01*
X189423995Y-99324222D01*
X189442772Y-99369555D01*
X189457016Y-99416510D01*
X189466588Y-99464635D01*
X189471398Y-99513466D01*
X189471398Y-99538000D01*
X189472000Y-99538000D01*
X189472000Y-100038000D01*
X187972000Y-100038000D01*
G37*
G36*
X176288000Y-100053000D02*
G01*
X176288000Y-99553000D01*
X176288602Y-99553000D01*
X176288602Y-99528466D01*
X176293412Y-99479635D01*
X176302984Y-99431510D01*
X176317228Y-99384555D01*
X176336005Y-99339222D01*
X176359136Y-99295949D01*
X176386396Y-99255150D01*
X176417524Y-99217221D01*
X176452221Y-99182524D01*
X176490150Y-99151396D01*
X176530949Y-99124136D01*
X176574222Y-99101005D01*
X176619555Y-99082228D01*
X176666510Y-99067984D01*
X176714635Y-99058412D01*
X176763466Y-99053602D01*
X176788000Y-99053602D01*
X176788000Y-99053000D01*
X177288000Y-99053000D01*
X177288000Y-99053602D01*
X177312534Y-99053602D01*
X177361365Y-99058412D01*
X177409490Y-99067984D01*
X177456445Y-99082228D01*
X177501778Y-99101005D01*
X177545051Y-99124136D01*
X177585850Y-99151396D01*
X177623779Y-99182524D01*
X177658476Y-99217221D01*
X177689604Y-99255150D01*
X177716864Y-99295949D01*
X177739995Y-99339222D01*
X177758772Y-99384555D01*
X177773016Y-99431510D01*
X177782588Y-99479635D01*
X177787398Y-99528466D01*
X177787398Y-99553000D01*
X177788000Y-99553000D01*
X177788000Y-100053000D01*
X176288000Y-100053000D01*
G37*
G36*
X177787398Y-100853000D02*
G01*
X177787398Y-100877534D01*
X177782588Y-100926365D01*
X177773016Y-100974490D01*
X177758772Y-101021445D01*
X177739995Y-101066778D01*
X177716864Y-101110051D01*
X177689604Y-101150850D01*
X177658476Y-101188779D01*
X177623779Y-101223476D01*
X177585850Y-101254604D01*
X177545051Y-101281864D01*
X177501778Y-101304995D01*
X177456445Y-101323772D01*
X177409490Y-101338016D01*
X177361365Y-101347588D01*
X177312534Y-101352398D01*
X177288000Y-101352398D01*
X177288000Y-101353000D01*
X176788000Y-101353000D01*
X176788000Y-101352398D01*
X176763466Y-101352398D01*
X176714635Y-101347588D01*
X176666510Y-101338016D01*
X176619555Y-101323772D01*
X176574222Y-101304995D01*
X176530949Y-101281864D01*
X176490150Y-101254604D01*
X176452221Y-101223476D01*
X176417524Y-101188779D01*
X176386396Y-101150850D01*
X176359136Y-101110051D01*
X176336005Y-101066778D01*
X176317228Y-101021445D01*
X176302984Y-100974490D01*
X176293412Y-100926365D01*
X176288602Y-100877534D01*
X176288602Y-100853000D01*
X176288000Y-100853000D01*
X176288000Y-100353000D01*
X177788000Y-100353000D01*
X177788000Y-100853000D01*
X177787398Y-100853000D01*
G37*
M02*
