<?xml version="1.0" encoding="utf-8"?>
<!-- Generator: Fusion 360, Shaper Origin Export Add-In, Version 1.9.0  -->
<svg xmlns="http://www.w3.org/2000/svg" xmlns:xlink="http://www.w3.org/1999/xlink" xmlns:shaper="http://www.shapertools.com/namespaces/shaper" shaper:fusionaddin="version:1.9.0" width="10.4cm" height="5.4cm" version="1.1" x="0cm" y="0cm" viewBox="0 0 10.4 5.4" enable-background="new 0 0 10.4 5.4" xml:space="preserve"><path d="M0.94161,-1.46756 A0.1,0.1 180 0,0 1.04161,-1.36756 L3.42761,-1.36756 A0.1,0.1 90 0,0 3.52761,-1.46756 L3.52761,-2.6 A0.1,0.1 180 0,1 3.62761,-2.7 L4.5,-2.7 A0.7,0.7 269.9999974 0,1 5.2,-2 L5.2,2 A0.7,0.7 0 0,1 4.5,2.7 L3.52461,2.7 A0.1,0.1 90 0,1 3.42461,2.6 L3.42461,1.16658 A0.1,0.1 0 0,0 3.32461,1.06658 L-1.88539,1.06658 A0.1,0.1 270 0,0 -1.98539,1.16658 L-1.98539,2.6079185 A0.1,0.1 0 0,1 -2.04639,2.7 A0.1,0.1 90 0,1 -2.14639,2.6 L-2.14639,1.07294 A0.1,0.1 0 0,0 -2.24639,0.97294 L-3.74639,0.97294 A0.1,0.1 270 0,0 -3.84639,1.07294 L-3.84639,2.6 A0.1,0.1 0 0,1 -3.94639,2.7 L-4.5,2.7 A0.7,0.7 89.9999974 0,1 -5.2,2 L-5.2,-2 A0.7,0.7 179.9999973 0,1 -4.5,-2.7 L-3.52439,-2.7 A0.1,0.1 270 0,1 -3.42439,-2.6 L-3.42439,-1.46756 A0.1,0.1 180 0,0 -3.32439,-1.36756 L-0.93839,-1.36756 A0.1,0.1 90 0,0 -0.83839,-1.46756 L-0.83839,-2.6 A0.1,0.1 180 0,1 -0.73839,-2.7 L0.84161,-2.7 A0.1,0.1 270 0,1 0.94161,-2.6 L0.94161,-1.46756z" transform="matrix(1,0,0,-1,5.2,2.7)" fill="rgb(0,0,0)" shaper:cutDepth="0.3cm" stroke-linecap="round" stroke-linejoin="round" /><path d="M4.23961,1.89294 a0.16,0.16 0 1,1 0.32,0 a0.16,0.16 0 1,1 -0.32,0z" transform="matrix(1,0,0,-1,5.2,2.7)" fill="rgb(255,255,255)" stroke="rgb(0,0,0)" stroke-width="0.0010cm" stroke-linecap="round" stroke-linejoin="round" shaper:cutDepth="0.3cm" /><path d="M4.23961,-1.90706 a0.16,0.16 0 1,1 0.32,0 a0.16,0.16 0 1,1 -0.32,0z" transform="matrix(1,0,0,-1,5.2,2.7)" fill="rgb(255,255,255)" stroke="rgb(0,0,0)" stroke-width="0.0010cm" stroke-linecap="round" stroke-linejoin="round" shaper:cutDepth="0.3cm" /><path d="M-4.56039,-1.90706 a0.16,0.16 0 1,1 0.32,0 a0.16,0.16 0 1,1 -0.32,0z" transform="matrix(1,0,0,-1,5.2,2.7)" fill="rgb(255,255,255)" stroke="rgb(0,0,0)" stroke-width="0.0010cm" stroke-linecap="round" stroke-linejoin="round" shaper:cutDepth="0.3cm" /><path d="M-4.56039,1.89294 a0.16,0.16 0 1,1 0.32,0 a0.16,0.16 0 1,1 -0.32,0z" transform="matrix(1,0,0,-1,5.2,2.7)" fill="rgb(255,255,255)" stroke="rgb(0,0,0)" stroke-width="0.0010cm" stroke-linecap="round" stroke-linejoin="round" shaper:cutDepth="0.3cm" /><path d="M-2.97339,-0.46106 A0.28,0.28 0 0,0 -3.53339,-0.46106 L-3.53339,0.13894 A0.28,0.28 180 0,0 -2.97339,0.13894 L-2.97339,-0.46106z" transform="matrix(1,0,0,-1,5.2,2.7)" fill="rgb(255,255,255)" stroke="rgb(0,0,0)" stroke-width="0.0010cm" stroke-linecap="round" stroke-linejoin="round" shaper:cutDepth="0.3cm" /></svg>