<?xml version="1.0" encoding="utf-8"?>
<!-- Generator: Fusion 360, Shaper Origin Export Add-In, Version 1.5.0  -->
<svg enable-background="new 0 0 10 5.762" height="5.762cm" shaper:fusionaddin="version:1.5.0" version="1.1" viewBox="0 0 10 5.762" width="10cm" x="0cm" xml:space="preserve" xmlns="http://www.w3.org/2000/svg" xmlns:shaper="http://www.shapertools.com/namespaces/shaper" xmlns:xlink="http://www.w3.org/1999/xlink" y="0cm"><path d="M2.92,5.1 L2.92,5.762 8,5.762 8,5.1 A0.1,0.1 180 0,1 8.1,5 L9,5 A0.5,0.5 90 0,0 9.5,4.5 L9.5,0.5 A0.5,0.5 0 0,0 9,0 L0,0 A0.5,0.5 270 0,0 -0.5,0.5 L-0.5,4.5 A0.5,0.5 180 0,0 0,5 L2.82,5 A0.1,0.1 270 0,1 2.92,5.1z" fill="rgb(0,0,0)" shaper:cutDepth="0.0016" shaper:pathType="exterior" transform="matrix(1,0,0,-1,0.5,5.762)" vector-effect="non-scaling-stroke" /></svg>