G04 #@! TF.GenerationSoftware,KiCad,Pcbnew,(5.1.9-0-10_14)*
G04 #@! TF.CreationDate,2021-04-09T13:05:53-05:00*
G04 #@! TF.ProjectId,Memory Card,4d656d6f-7279-4204-9361-72642e6b6963,rev?*
G04 #@! TF.SameCoordinates,Original*
G04 #@! TF.FileFunction,Soldermask,Top*
G04 #@! TF.FilePolarity,Negative*
%FSLAX46Y46*%
G04 Gerber Fmt 4.6, Leading zero omitted, Abs format (unit mm)*
G04 Created by KiCad (PCBNEW (5.1.9-0-10_14)) date 2021-04-09 13:05:53*
%MOMM*%
%LPD*%
G01*
G04 APERTURE LIST*
%ADD10R,1.600000X2.400000*%
%ADD11O,1.600000X2.400000*%
%ADD12R,1.700000X1.700000*%
%ADD13O,1.700000X1.700000*%
%ADD14C,0.100000*%
G04 APERTURE END LIST*
G36*
G01*
X146698000Y-108425000D02*
X146698000Y-107475000D01*
G75*
G02*
X146948000Y-107225000I250000J0D01*
G01*
X147448000Y-107225000D01*
G75*
G02*
X147698000Y-107475000I0J-250000D01*
G01*
X147698000Y-108425000D01*
G75*
G02*
X147448000Y-108675000I-250000J0D01*
G01*
X146948000Y-108675000D01*
G75*
G02*
X146698000Y-108425000I0J250000D01*
G01*
G37*
G36*
G01*
X148598000Y-108425000D02*
X148598000Y-107475000D01*
G75*
G02*
X148848000Y-107225000I250000J0D01*
G01*
X149348000Y-107225000D01*
G75*
G02*
X149598000Y-107475000I0J-250000D01*
G01*
X149598000Y-108425000D01*
G75*
G02*
X149348000Y-108675000I-250000J0D01*
G01*
X148848000Y-108675000D01*
G75*
G02*
X148598000Y-108425000I0J250000D01*
G01*
G37*
G36*
G01*
X191524000Y-108425000D02*
X191524000Y-107475000D01*
G75*
G02*
X191774000Y-107225000I250000J0D01*
G01*
X192274000Y-107225000D01*
G75*
G02*
X192524000Y-107475000I0J-250000D01*
G01*
X192524000Y-108425000D01*
G75*
G02*
X192274000Y-108675000I-250000J0D01*
G01*
X191774000Y-108675000D01*
G75*
G02*
X191524000Y-108425000I0J250000D01*
G01*
G37*
G36*
G01*
X189624000Y-108425000D02*
X189624000Y-107475000D01*
G75*
G02*
X189874000Y-107225000I250000J0D01*
G01*
X190374000Y-107225000D01*
G75*
G02*
X190624000Y-107475000I0J-250000D01*
G01*
X190624000Y-108425000D01*
G75*
G02*
X190374000Y-108675000I-250000J0D01*
G01*
X189874000Y-108675000D01*
G75*
G02*
X189624000Y-108425000I0J250000D01*
G01*
G37*
G36*
G01*
X117508000Y-80526000D02*
X118458000Y-80526000D01*
G75*
G02*
X118708000Y-80776000I0J-250000D01*
G01*
X118708000Y-81276000D01*
G75*
G02*
X118458000Y-81526000I-250000J0D01*
G01*
X117508000Y-81526000D01*
G75*
G02*
X117258000Y-81276000I0J250000D01*
G01*
X117258000Y-80776000D01*
G75*
G02*
X117508000Y-80526000I250000J0D01*
G01*
G37*
G36*
G01*
X117508000Y-82426000D02*
X118458000Y-82426000D01*
G75*
G02*
X118708000Y-82676000I0J-250000D01*
G01*
X118708000Y-83176000D01*
G75*
G02*
X118458000Y-83426000I-250000J0D01*
G01*
X117508000Y-83426000D01*
G75*
G02*
X117258000Y-83176000I0J250000D01*
G01*
X117258000Y-82676000D01*
G75*
G02*
X117508000Y-82426000I250000J0D01*
G01*
G37*
G36*
G01*
X139987000Y-82431000D02*
X140937000Y-82431000D01*
G75*
G02*
X141187000Y-82681000I0J-250000D01*
G01*
X141187000Y-83181000D01*
G75*
G02*
X140937000Y-83431000I-250000J0D01*
G01*
X139987000Y-83431000D01*
G75*
G02*
X139737000Y-83181000I0J250000D01*
G01*
X139737000Y-82681000D01*
G75*
G02*
X139987000Y-82431000I250000J0D01*
G01*
G37*
G36*
G01*
X139987000Y-80531000D02*
X140937000Y-80531000D01*
G75*
G02*
X141187000Y-80781000I0J-250000D01*
G01*
X141187000Y-81281000D01*
G75*
G02*
X140937000Y-81531000I-250000J0D01*
G01*
X139987000Y-81531000D01*
G75*
G02*
X139737000Y-81281000I0J250000D01*
G01*
X139737000Y-80781000D01*
G75*
G02*
X139987000Y-80531000I250000J0D01*
G01*
G37*
G36*
G01*
X162085000Y-80531000D02*
X163035000Y-80531000D01*
G75*
G02*
X163285000Y-80781000I0J-250000D01*
G01*
X163285000Y-81281000D01*
G75*
G02*
X163035000Y-81531000I-250000J0D01*
G01*
X162085000Y-81531000D01*
G75*
G02*
X161835000Y-81281000I0J250000D01*
G01*
X161835000Y-80781000D01*
G75*
G02*
X162085000Y-80531000I250000J0D01*
G01*
G37*
G36*
G01*
X162085000Y-82431000D02*
X163035000Y-82431000D01*
G75*
G02*
X163285000Y-82681000I0J-250000D01*
G01*
X163285000Y-83181000D01*
G75*
G02*
X163035000Y-83431000I-250000J0D01*
G01*
X162085000Y-83431000D01*
G75*
G02*
X161835000Y-83181000I0J250000D01*
G01*
X161835000Y-82681000D01*
G75*
G02*
X162085000Y-82431000I250000J0D01*
G01*
G37*
G36*
G01*
X115935000Y-132671600D02*
X114665000Y-132671600D01*
G75*
G02*
X114563400Y-132570000I0J101600D01*
G01*
X114563400Y-127490000D01*
G75*
G02*
X114665000Y-127388400I101600J0D01*
G01*
X115935000Y-127388400D01*
G75*
G02*
X116036600Y-127490000I0J-101600D01*
G01*
X116036600Y-132570000D01*
G75*
G02*
X115935000Y-132671600I-101600J0D01*
G01*
G37*
G36*
G01*
X118475000Y-132671600D02*
X117205000Y-132671600D01*
G75*
G02*
X117103400Y-132570000I0J101600D01*
G01*
X117103400Y-127490000D01*
G75*
G02*
X117205000Y-127388400I101600J0D01*
G01*
X118475000Y-127388400D01*
G75*
G02*
X118576600Y-127490000I0J-101600D01*
G01*
X118576600Y-132570000D01*
G75*
G02*
X118475000Y-132671600I-101600J0D01*
G01*
G37*
G36*
G01*
X121015000Y-132671600D02*
X119745000Y-132671600D01*
G75*
G02*
X119643400Y-132570000I0J101600D01*
G01*
X119643400Y-127490000D01*
G75*
G02*
X119745000Y-127388400I101600J0D01*
G01*
X121015000Y-127388400D01*
G75*
G02*
X121116600Y-127490000I0J-101600D01*
G01*
X121116600Y-132570000D01*
G75*
G02*
X121015000Y-132671600I-101600J0D01*
G01*
G37*
G36*
G01*
X123555000Y-132671600D02*
X122285000Y-132671600D01*
G75*
G02*
X122183400Y-132570000I0J101600D01*
G01*
X122183400Y-127490000D01*
G75*
G02*
X122285000Y-127388400I101600J0D01*
G01*
X123555000Y-127388400D01*
G75*
G02*
X123656600Y-127490000I0J-101600D01*
G01*
X123656600Y-132570000D01*
G75*
G02*
X123555000Y-132671600I-101600J0D01*
G01*
G37*
G36*
G01*
X126095000Y-132671600D02*
X124825000Y-132671600D01*
G75*
G02*
X124723400Y-132570000I0J101600D01*
G01*
X124723400Y-127490000D01*
G75*
G02*
X124825000Y-127388400I101600J0D01*
G01*
X126095000Y-127388400D01*
G75*
G02*
X126196600Y-127490000I0J-101600D01*
G01*
X126196600Y-132570000D01*
G75*
G02*
X126095000Y-132671600I-101600J0D01*
G01*
G37*
G36*
G01*
X128635000Y-132671600D02*
X127365000Y-132671600D01*
G75*
G02*
X127263400Y-132570000I0J101600D01*
G01*
X127263400Y-127490000D01*
G75*
G02*
X127365000Y-127388400I101600J0D01*
G01*
X128635000Y-127388400D01*
G75*
G02*
X128736600Y-127490000I0J-101600D01*
G01*
X128736600Y-132570000D01*
G75*
G02*
X128635000Y-132671600I-101600J0D01*
G01*
G37*
G36*
G01*
X131175000Y-132671600D02*
X129905000Y-132671600D01*
G75*
G02*
X129803400Y-132570000I0J101600D01*
G01*
X129803400Y-127490000D01*
G75*
G02*
X129905000Y-127388400I101600J0D01*
G01*
X131175000Y-127388400D01*
G75*
G02*
X131276600Y-127490000I0J-101600D01*
G01*
X131276600Y-132570000D01*
G75*
G02*
X131175000Y-132671600I-101600J0D01*
G01*
G37*
G36*
G01*
X133715000Y-132671600D02*
X132445000Y-132671600D01*
G75*
G02*
X132343400Y-132570000I0J101600D01*
G01*
X132343400Y-127490000D01*
G75*
G02*
X132445000Y-127388400I101600J0D01*
G01*
X133715000Y-127388400D01*
G75*
G02*
X133816600Y-127490000I0J-101600D01*
G01*
X133816600Y-132570000D01*
G75*
G02*
X133715000Y-132671600I-101600J0D01*
G01*
G37*
G36*
G01*
X136255000Y-132671600D02*
X134985000Y-132671600D01*
G75*
G02*
X134883400Y-132570000I0J101600D01*
G01*
X134883400Y-127490000D01*
G75*
G02*
X134985000Y-127388400I101600J0D01*
G01*
X136255000Y-127388400D01*
G75*
G02*
X136356600Y-127490000I0J-101600D01*
G01*
X136356600Y-132570000D01*
G75*
G02*
X136255000Y-132671600I-101600J0D01*
G01*
G37*
G36*
G01*
X138795000Y-132671600D02*
X137525000Y-132671600D01*
G75*
G02*
X137423400Y-132570000I0J101600D01*
G01*
X137423400Y-127490000D01*
G75*
G02*
X137525000Y-127388400I101600J0D01*
G01*
X138795000Y-127388400D01*
G75*
G02*
X138896600Y-127490000I0J-101600D01*
G01*
X138896600Y-132570000D01*
G75*
G02*
X138795000Y-132671600I-101600J0D01*
G01*
G37*
G36*
G01*
X141335000Y-132671600D02*
X140065000Y-132671600D01*
G75*
G02*
X139963400Y-132570000I0J101600D01*
G01*
X139963400Y-127490000D01*
G75*
G02*
X140065000Y-127388400I101600J0D01*
G01*
X141335000Y-127388400D01*
G75*
G02*
X141436600Y-127490000I0J-101600D01*
G01*
X141436600Y-132570000D01*
G75*
G02*
X141335000Y-132671600I-101600J0D01*
G01*
G37*
G36*
G01*
X143875000Y-132671600D02*
X142605000Y-132671600D01*
G75*
G02*
X142503400Y-132570000I0J101600D01*
G01*
X142503400Y-127490000D01*
G75*
G02*
X142605000Y-127388400I101600J0D01*
G01*
X143875000Y-127388400D01*
G75*
G02*
X143976600Y-127490000I0J-101600D01*
G01*
X143976600Y-132570000D01*
G75*
G02*
X143875000Y-132671600I-101600J0D01*
G01*
G37*
G36*
G01*
X146415000Y-132671600D02*
X145145000Y-132671600D01*
G75*
G02*
X145043400Y-132570000I0J101600D01*
G01*
X145043400Y-127490000D01*
G75*
G02*
X145145000Y-127388400I101600J0D01*
G01*
X146415000Y-127388400D01*
G75*
G02*
X146516600Y-127490000I0J-101600D01*
G01*
X146516600Y-132570000D01*
G75*
G02*
X146415000Y-132671600I-101600J0D01*
G01*
G37*
G36*
G01*
X148955000Y-132671600D02*
X147685000Y-132671600D01*
G75*
G02*
X147583400Y-132570000I0J101600D01*
G01*
X147583400Y-127490000D01*
G75*
G02*
X147685000Y-127388400I101600J0D01*
G01*
X148955000Y-127388400D01*
G75*
G02*
X149056600Y-127490000I0J-101600D01*
G01*
X149056600Y-132570000D01*
G75*
G02*
X148955000Y-132671600I-101600J0D01*
G01*
G37*
G36*
G01*
X151495000Y-132671600D02*
X150225000Y-132671600D01*
G75*
G02*
X150123400Y-132570000I0J101600D01*
G01*
X150123400Y-127490000D01*
G75*
G02*
X150225000Y-127388400I101600J0D01*
G01*
X151495000Y-127388400D01*
G75*
G02*
X151596600Y-127490000I0J-101600D01*
G01*
X151596600Y-132570000D01*
G75*
G02*
X151495000Y-132671600I-101600J0D01*
G01*
G37*
G36*
G01*
X154035000Y-132671600D02*
X152765000Y-132671600D01*
G75*
G02*
X152663400Y-132570000I0J101600D01*
G01*
X152663400Y-127490000D01*
G75*
G02*
X152765000Y-127388400I101600J0D01*
G01*
X154035000Y-127388400D01*
G75*
G02*
X154136600Y-127490000I0J-101600D01*
G01*
X154136600Y-132570000D01*
G75*
G02*
X154035000Y-132671600I-101600J0D01*
G01*
G37*
G36*
G01*
X156575000Y-132671600D02*
X155305000Y-132671600D01*
G75*
G02*
X155203400Y-132570000I0J101600D01*
G01*
X155203400Y-127490000D01*
G75*
G02*
X155305000Y-127388400I101600J0D01*
G01*
X156575000Y-127388400D01*
G75*
G02*
X156676600Y-127490000I0J-101600D01*
G01*
X156676600Y-132570000D01*
G75*
G02*
X156575000Y-132671600I-101600J0D01*
G01*
G37*
G36*
G01*
X159115000Y-132671600D02*
X157845000Y-132671600D01*
G75*
G02*
X157743400Y-132570000I0J101600D01*
G01*
X157743400Y-127490000D01*
G75*
G02*
X157845000Y-127388400I101600J0D01*
G01*
X159115000Y-127388400D01*
G75*
G02*
X159216600Y-127490000I0J-101600D01*
G01*
X159216600Y-132570000D01*
G75*
G02*
X159115000Y-132671600I-101600J0D01*
G01*
G37*
G36*
G01*
X161655000Y-132671600D02*
X160385000Y-132671600D01*
G75*
G02*
X160283400Y-132570000I0J101600D01*
G01*
X160283400Y-127490000D01*
G75*
G02*
X160385000Y-127388400I101600J0D01*
G01*
X161655000Y-127388400D01*
G75*
G02*
X161756600Y-127490000I0J-101600D01*
G01*
X161756600Y-132570000D01*
G75*
G02*
X161655000Y-132671600I-101600J0D01*
G01*
G37*
G36*
G01*
X164195000Y-132671600D02*
X162925000Y-132671600D01*
G75*
G02*
X162823400Y-132570000I0J101600D01*
G01*
X162823400Y-127490000D01*
G75*
G02*
X162925000Y-127388400I101600J0D01*
G01*
X164195000Y-127388400D01*
G75*
G02*
X164296600Y-127490000I0J-101600D01*
G01*
X164296600Y-132570000D01*
G75*
G02*
X164195000Y-132671600I-101600J0D01*
G01*
G37*
D10*
X143256000Y-92710000D03*
D11*
X110236000Y-107950000D03*
X140716000Y-92710000D03*
X112776000Y-107950000D03*
X138176000Y-92710000D03*
X115316000Y-107950000D03*
X135636000Y-92710000D03*
X117856000Y-107950000D03*
X133096000Y-92710000D03*
X120396000Y-107950000D03*
X130556000Y-92710000D03*
X122936000Y-107950000D03*
X128016000Y-92710000D03*
X125476000Y-107950000D03*
X125476000Y-92710000D03*
X128016000Y-107950000D03*
X122936000Y-92710000D03*
X130556000Y-107950000D03*
X120396000Y-92710000D03*
X133096000Y-107950000D03*
X117856000Y-92710000D03*
X135636000Y-107950000D03*
X115316000Y-92710000D03*
X138176000Y-107950000D03*
X112776000Y-92710000D03*
X140716000Y-107950000D03*
X110236000Y-92710000D03*
X143256000Y-107950000D03*
X186182000Y-107950000D03*
X153162000Y-92710000D03*
X183642000Y-107950000D03*
X155702000Y-92710000D03*
X181102000Y-107950000D03*
X158242000Y-92710000D03*
X178562000Y-107950000D03*
X160782000Y-92710000D03*
X176022000Y-107950000D03*
X163322000Y-92710000D03*
X173482000Y-107950000D03*
X165862000Y-92710000D03*
X170942000Y-107950000D03*
X168402000Y-92710000D03*
X168402000Y-107950000D03*
X170942000Y-92710000D03*
X165862000Y-107950000D03*
X173482000Y-92710000D03*
X163322000Y-107950000D03*
X176022000Y-92710000D03*
X160782000Y-107950000D03*
X178562000Y-92710000D03*
X158242000Y-107950000D03*
X181102000Y-92710000D03*
X155702000Y-107950000D03*
X183642000Y-92710000D03*
X153162000Y-107950000D03*
D10*
X186182000Y-92710000D03*
D12*
X182753000Y-117348000D03*
D13*
X185293000Y-117348000D03*
D12*
X110490000Y-118872000D03*
D13*
X110490000Y-116332000D03*
X113030000Y-118872000D03*
X113030000Y-116332000D03*
D14*
G36*
X183888000Y-123051000D02*
G01*
X183388000Y-123051000D01*
X183388000Y-123050398D01*
X183363466Y-123050398D01*
X183314635Y-123045588D01*
X183266510Y-123036016D01*
X183219555Y-123021772D01*
X183174222Y-123002995D01*
X183130949Y-122979864D01*
X183090150Y-122952604D01*
X183052221Y-122921476D01*
X183017524Y-122886779D01*
X182986396Y-122848850D01*
X182959136Y-122808051D01*
X182936005Y-122764778D01*
X182917228Y-122719445D01*
X182902984Y-122672490D01*
X182893412Y-122624365D01*
X182888602Y-122575534D01*
X182888602Y-122551000D01*
X182888000Y-122551000D01*
X182888000Y-122051000D01*
X182888602Y-122051000D01*
X182888602Y-122026466D01*
X182893412Y-121977635D01*
X182902984Y-121929510D01*
X182917228Y-121882555D01*
X182936005Y-121837222D01*
X182959136Y-121793949D01*
X182986396Y-121753150D01*
X183017524Y-121715221D01*
X183052221Y-121680524D01*
X183090150Y-121649396D01*
X183130949Y-121622136D01*
X183174222Y-121599005D01*
X183219555Y-121580228D01*
X183266510Y-121565984D01*
X183314635Y-121556412D01*
X183363466Y-121551602D01*
X183388000Y-121551602D01*
X183388000Y-121551000D01*
X183888000Y-121551000D01*
X183888000Y-123051000D01*
G37*
G36*
X184688000Y-121551602D02*
G01*
X184712534Y-121551602D01*
X184761365Y-121556412D01*
X184809490Y-121565984D01*
X184856445Y-121580228D01*
X184901778Y-121599005D01*
X184945051Y-121622136D01*
X184985850Y-121649396D01*
X185023779Y-121680524D01*
X185058476Y-121715221D01*
X185089604Y-121753150D01*
X185116864Y-121793949D01*
X185139995Y-121837222D01*
X185158772Y-121882555D01*
X185173016Y-121929510D01*
X185182588Y-121977635D01*
X185187398Y-122026466D01*
X185187398Y-122051000D01*
X185188000Y-122051000D01*
X185188000Y-122551000D01*
X185187398Y-122551000D01*
X185187398Y-122575534D01*
X185182588Y-122624365D01*
X185173016Y-122672490D01*
X185158772Y-122719445D01*
X185139995Y-122764778D01*
X185116864Y-122808051D01*
X185089604Y-122848850D01*
X185058476Y-122886779D01*
X185023779Y-122921476D01*
X184985850Y-122952604D01*
X184945051Y-122979864D01*
X184901778Y-123002995D01*
X184856445Y-123021772D01*
X184809490Y-123036016D01*
X184761365Y-123045588D01*
X184712534Y-123050398D01*
X184688000Y-123050398D01*
X184688000Y-123051000D01*
X184188000Y-123051000D01*
X184188000Y-121551000D01*
X184688000Y-121551000D01*
X184688000Y-121551602D01*
G37*
G36*
X105422602Y-116810000D02*
G01*
X105422602Y-116785466D01*
X105427412Y-116736635D01*
X105436984Y-116688510D01*
X105451228Y-116641555D01*
X105470005Y-116596222D01*
X105493136Y-116552949D01*
X105520396Y-116512150D01*
X105551524Y-116474221D01*
X105586221Y-116439524D01*
X105624150Y-116408396D01*
X105664949Y-116381136D01*
X105708222Y-116358005D01*
X105753555Y-116339228D01*
X105800510Y-116324984D01*
X105848635Y-116315412D01*
X105897466Y-116310602D01*
X105922000Y-116310602D01*
X105922000Y-116310000D01*
X106422000Y-116310000D01*
X106422000Y-116310602D01*
X106446534Y-116310602D01*
X106495365Y-116315412D01*
X106543490Y-116324984D01*
X106590445Y-116339228D01*
X106635778Y-116358005D01*
X106679051Y-116381136D01*
X106719850Y-116408396D01*
X106757779Y-116439524D01*
X106792476Y-116474221D01*
X106823604Y-116512150D01*
X106850864Y-116552949D01*
X106873995Y-116596222D01*
X106892772Y-116641555D01*
X106907016Y-116688510D01*
X106916588Y-116736635D01*
X106921398Y-116785466D01*
X106921398Y-116810000D01*
X106922000Y-116810000D01*
X106922000Y-117310000D01*
X105422000Y-117310000D01*
X105422000Y-116810000D01*
X105422602Y-116810000D01*
G37*
G36*
X106922000Y-117610000D02*
G01*
X106922000Y-118110000D01*
X106921398Y-118110000D01*
X106921398Y-118134534D01*
X106916588Y-118183365D01*
X106907016Y-118231490D01*
X106892772Y-118278445D01*
X106873995Y-118323778D01*
X106850864Y-118367051D01*
X106823604Y-118407850D01*
X106792476Y-118445779D01*
X106757779Y-118480476D01*
X106719850Y-118511604D01*
X106679051Y-118538864D01*
X106635778Y-118561995D01*
X106590445Y-118580772D01*
X106543490Y-118595016D01*
X106495365Y-118604588D01*
X106446534Y-118609398D01*
X106422000Y-118609398D01*
X106422000Y-118610000D01*
X105922000Y-118610000D01*
X105922000Y-118609398D01*
X105897466Y-118609398D01*
X105848635Y-118604588D01*
X105800510Y-118595016D01*
X105753555Y-118580772D01*
X105708222Y-118561995D01*
X105664949Y-118538864D01*
X105624150Y-118511604D01*
X105586221Y-118480476D01*
X105551524Y-118445779D01*
X105520396Y-118407850D01*
X105493136Y-118367051D01*
X105470005Y-118323778D01*
X105451228Y-118278445D01*
X105436984Y-118231490D01*
X105427412Y-118183365D01*
X105422602Y-118134534D01*
X105422602Y-118110000D01*
X105422000Y-118110000D01*
X105422000Y-117610000D01*
X106922000Y-117610000D01*
G37*
G36*
X118098000Y-117640000D02*
G01*
X118098000Y-118140000D01*
X118097398Y-118140000D01*
X118097398Y-118164534D01*
X118092588Y-118213365D01*
X118083016Y-118261490D01*
X118068772Y-118308445D01*
X118049995Y-118353778D01*
X118026864Y-118397051D01*
X117999604Y-118437850D01*
X117968476Y-118475779D01*
X117933779Y-118510476D01*
X117895850Y-118541604D01*
X117855051Y-118568864D01*
X117811778Y-118591995D01*
X117766445Y-118610772D01*
X117719490Y-118625016D01*
X117671365Y-118634588D01*
X117622534Y-118639398D01*
X117598000Y-118639398D01*
X117598000Y-118640000D01*
X117098000Y-118640000D01*
X117098000Y-118639398D01*
X117073466Y-118639398D01*
X117024635Y-118634588D01*
X116976510Y-118625016D01*
X116929555Y-118610772D01*
X116884222Y-118591995D01*
X116840949Y-118568864D01*
X116800150Y-118541604D01*
X116762221Y-118510476D01*
X116727524Y-118475779D01*
X116696396Y-118437850D01*
X116669136Y-118397051D01*
X116646005Y-118353778D01*
X116627228Y-118308445D01*
X116612984Y-118261490D01*
X116603412Y-118213365D01*
X116598602Y-118164534D01*
X116598602Y-118140000D01*
X116598000Y-118140000D01*
X116598000Y-117640000D01*
X118098000Y-117640000D01*
G37*
G36*
X116598602Y-116840000D02*
G01*
X116598602Y-116815466D01*
X116603412Y-116766635D01*
X116612984Y-116718510D01*
X116627228Y-116671555D01*
X116646005Y-116626222D01*
X116669136Y-116582949D01*
X116696396Y-116542150D01*
X116727524Y-116504221D01*
X116762221Y-116469524D01*
X116800150Y-116438396D01*
X116840949Y-116411136D01*
X116884222Y-116388005D01*
X116929555Y-116369228D01*
X116976510Y-116354984D01*
X117024635Y-116345412D01*
X117073466Y-116340602D01*
X117098000Y-116340602D01*
X117098000Y-116340000D01*
X117598000Y-116340000D01*
X117598000Y-116340602D01*
X117622534Y-116340602D01*
X117671365Y-116345412D01*
X117719490Y-116354984D01*
X117766445Y-116369228D01*
X117811778Y-116388005D01*
X117855051Y-116411136D01*
X117895850Y-116438396D01*
X117933779Y-116469524D01*
X117968476Y-116504221D01*
X117999604Y-116542150D01*
X118026864Y-116582949D01*
X118049995Y-116626222D01*
X118068772Y-116671555D01*
X118083016Y-116718510D01*
X118092588Y-116766635D01*
X118097398Y-116815466D01*
X118097398Y-116840000D01*
X118098000Y-116840000D01*
X118098000Y-117340000D01*
X116598000Y-117340000D01*
X116598000Y-116840000D01*
X116598602Y-116840000D01*
G37*
G36*
G01*
X185979500Y-112325999D02*
X185979500Y-113226001D01*
G75*
G02*
X185729501Y-113476000I-249999J0D01*
G01*
X185204499Y-113476000D01*
G75*
G02*
X184954500Y-113226001I0J249999D01*
G01*
X184954500Y-112325999D01*
G75*
G02*
X185204499Y-112076000I249999J0D01*
G01*
X185729501Y-112076000D01*
G75*
G02*
X185979500Y-112325999I0J-249999D01*
G01*
G37*
G36*
G01*
X184154500Y-112325999D02*
X184154500Y-113226001D01*
G75*
G02*
X183904501Y-113476000I-249999J0D01*
G01*
X183379499Y-113476000D01*
G75*
G02*
X183129500Y-113226001I0J249999D01*
G01*
X183129500Y-112325999D01*
G75*
G02*
X183379499Y-112076000I249999J0D01*
G01*
X183904501Y-112076000D01*
G75*
G02*
X184154500Y-112325999I0J-249999D01*
G01*
G37*
G36*
G01*
X116897999Y-114088500D02*
X117798001Y-114088500D01*
G75*
G02*
X118048000Y-114338499I0J-249999D01*
G01*
X118048000Y-114863501D01*
G75*
G02*
X117798001Y-115113500I-249999J0D01*
G01*
X116897999Y-115113500D01*
G75*
G02*
X116648000Y-114863501I0J249999D01*
G01*
X116648000Y-114338499D01*
G75*
G02*
X116897999Y-114088500I249999J0D01*
G01*
G37*
G36*
G01*
X116897999Y-112263500D02*
X117798001Y-112263500D01*
G75*
G02*
X118048000Y-112513499I0J-249999D01*
G01*
X118048000Y-113038501D01*
G75*
G02*
X117798001Y-113288500I-249999J0D01*
G01*
X116897999Y-113288500D01*
G75*
G02*
X116648000Y-113038501I0J249999D01*
G01*
X116648000Y-112513499D01*
G75*
G02*
X116897999Y-112263500I249999J0D01*
G01*
G37*
G36*
G01*
X122070000Y-86954000D02*
X121770000Y-86954000D01*
G75*
G02*
X121620000Y-86804000I0J150000D01*
G01*
X121620000Y-85154000D01*
G75*
G02*
X121770000Y-85004000I150000J0D01*
G01*
X122070000Y-85004000D01*
G75*
G02*
X122220000Y-85154000I0J-150000D01*
G01*
X122220000Y-86804000D01*
G75*
G02*
X122070000Y-86954000I-150000J0D01*
G01*
G37*
G36*
G01*
X123340000Y-86954000D02*
X123040000Y-86954000D01*
G75*
G02*
X122890000Y-86804000I0J150000D01*
G01*
X122890000Y-85154000D01*
G75*
G02*
X123040000Y-85004000I150000J0D01*
G01*
X123340000Y-85004000D01*
G75*
G02*
X123490000Y-85154000I0J-150000D01*
G01*
X123490000Y-86804000D01*
G75*
G02*
X123340000Y-86954000I-150000J0D01*
G01*
G37*
G36*
G01*
X124610000Y-86954000D02*
X124310000Y-86954000D01*
G75*
G02*
X124160000Y-86804000I0J150000D01*
G01*
X124160000Y-85154000D01*
G75*
G02*
X124310000Y-85004000I150000J0D01*
G01*
X124610000Y-85004000D01*
G75*
G02*
X124760000Y-85154000I0J-150000D01*
G01*
X124760000Y-86804000D01*
G75*
G02*
X124610000Y-86954000I-150000J0D01*
G01*
G37*
G36*
G01*
X125880000Y-86954000D02*
X125580000Y-86954000D01*
G75*
G02*
X125430000Y-86804000I0J150000D01*
G01*
X125430000Y-85154000D01*
G75*
G02*
X125580000Y-85004000I150000J0D01*
G01*
X125880000Y-85004000D01*
G75*
G02*
X126030000Y-85154000I0J-150000D01*
G01*
X126030000Y-86804000D01*
G75*
G02*
X125880000Y-86954000I-150000J0D01*
G01*
G37*
G36*
G01*
X127150000Y-86954000D02*
X126850000Y-86954000D01*
G75*
G02*
X126700000Y-86804000I0J150000D01*
G01*
X126700000Y-85154000D01*
G75*
G02*
X126850000Y-85004000I150000J0D01*
G01*
X127150000Y-85004000D01*
G75*
G02*
X127300000Y-85154000I0J-150000D01*
G01*
X127300000Y-86804000D01*
G75*
G02*
X127150000Y-86954000I-150000J0D01*
G01*
G37*
G36*
G01*
X128420000Y-86954000D02*
X128120000Y-86954000D01*
G75*
G02*
X127970000Y-86804000I0J150000D01*
G01*
X127970000Y-85154000D01*
G75*
G02*
X128120000Y-85004000I150000J0D01*
G01*
X128420000Y-85004000D01*
G75*
G02*
X128570000Y-85154000I0J-150000D01*
G01*
X128570000Y-86804000D01*
G75*
G02*
X128420000Y-86954000I-150000J0D01*
G01*
G37*
G36*
G01*
X129690000Y-86954000D02*
X129390000Y-86954000D01*
G75*
G02*
X129240000Y-86804000I0J150000D01*
G01*
X129240000Y-85154000D01*
G75*
G02*
X129390000Y-85004000I150000J0D01*
G01*
X129690000Y-85004000D01*
G75*
G02*
X129840000Y-85154000I0J-150000D01*
G01*
X129840000Y-86804000D01*
G75*
G02*
X129690000Y-86954000I-150000J0D01*
G01*
G37*
G36*
G01*
X129690000Y-82004000D02*
X129390000Y-82004000D01*
G75*
G02*
X129240000Y-81854000I0J150000D01*
G01*
X129240000Y-80204000D01*
G75*
G02*
X129390000Y-80054000I150000J0D01*
G01*
X129690000Y-80054000D01*
G75*
G02*
X129840000Y-80204000I0J-150000D01*
G01*
X129840000Y-81854000D01*
G75*
G02*
X129690000Y-82004000I-150000J0D01*
G01*
G37*
G36*
G01*
X128420000Y-82004000D02*
X128120000Y-82004000D01*
G75*
G02*
X127970000Y-81854000I0J150000D01*
G01*
X127970000Y-80204000D01*
G75*
G02*
X128120000Y-80054000I150000J0D01*
G01*
X128420000Y-80054000D01*
G75*
G02*
X128570000Y-80204000I0J-150000D01*
G01*
X128570000Y-81854000D01*
G75*
G02*
X128420000Y-82004000I-150000J0D01*
G01*
G37*
G36*
G01*
X127150000Y-82004000D02*
X126850000Y-82004000D01*
G75*
G02*
X126700000Y-81854000I0J150000D01*
G01*
X126700000Y-80204000D01*
G75*
G02*
X126850000Y-80054000I150000J0D01*
G01*
X127150000Y-80054000D01*
G75*
G02*
X127300000Y-80204000I0J-150000D01*
G01*
X127300000Y-81854000D01*
G75*
G02*
X127150000Y-82004000I-150000J0D01*
G01*
G37*
G36*
G01*
X125880000Y-82004000D02*
X125580000Y-82004000D01*
G75*
G02*
X125430000Y-81854000I0J150000D01*
G01*
X125430000Y-80204000D01*
G75*
G02*
X125580000Y-80054000I150000J0D01*
G01*
X125880000Y-80054000D01*
G75*
G02*
X126030000Y-80204000I0J-150000D01*
G01*
X126030000Y-81854000D01*
G75*
G02*
X125880000Y-82004000I-150000J0D01*
G01*
G37*
G36*
G01*
X124610000Y-82004000D02*
X124310000Y-82004000D01*
G75*
G02*
X124160000Y-81854000I0J150000D01*
G01*
X124160000Y-80204000D01*
G75*
G02*
X124310000Y-80054000I150000J0D01*
G01*
X124610000Y-80054000D01*
G75*
G02*
X124760000Y-80204000I0J-150000D01*
G01*
X124760000Y-81854000D01*
G75*
G02*
X124610000Y-82004000I-150000J0D01*
G01*
G37*
G36*
G01*
X123340000Y-82004000D02*
X123040000Y-82004000D01*
G75*
G02*
X122890000Y-81854000I0J150000D01*
G01*
X122890000Y-80204000D01*
G75*
G02*
X123040000Y-80054000I150000J0D01*
G01*
X123340000Y-80054000D01*
G75*
G02*
X123490000Y-80204000I0J-150000D01*
G01*
X123490000Y-81854000D01*
G75*
G02*
X123340000Y-82004000I-150000J0D01*
G01*
G37*
G36*
G01*
X122070000Y-82004000D02*
X121770000Y-82004000D01*
G75*
G02*
X121620000Y-81854000I0J150000D01*
G01*
X121620000Y-80204000D01*
G75*
G02*
X121770000Y-80054000I150000J0D01*
G01*
X122070000Y-80054000D01*
G75*
G02*
X122220000Y-80204000I0J-150000D01*
G01*
X122220000Y-81854000D01*
G75*
G02*
X122070000Y-82004000I-150000J0D01*
G01*
G37*
G36*
G01*
X144549000Y-82001000D02*
X144249000Y-82001000D01*
G75*
G02*
X144099000Y-81851000I0J150000D01*
G01*
X144099000Y-80201000D01*
G75*
G02*
X144249000Y-80051000I150000J0D01*
G01*
X144549000Y-80051000D01*
G75*
G02*
X144699000Y-80201000I0J-150000D01*
G01*
X144699000Y-81851000D01*
G75*
G02*
X144549000Y-82001000I-150000J0D01*
G01*
G37*
G36*
G01*
X145819000Y-82001000D02*
X145519000Y-82001000D01*
G75*
G02*
X145369000Y-81851000I0J150000D01*
G01*
X145369000Y-80201000D01*
G75*
G02*
X145519000Y-80051000I150000J0D01*
G01*
X145819000Y-80051000D01*
G75*
G02*
X145969000Y-80201000I0J-150000D01*
G01*
X145969000Y-81851000D01*
G75*
G02*
X145819000Y-82001000I-150000J0D01*
G01*
G37*
G36*
G01*
X147089000Y-82001000D02*
X146789000Y-82001000D01*
G75*
G02*
X146639000Y-81851000I0J150000D01*
G01*
X146639000Y-80201000D01*
G75*
G02*
X146789000Y-80051000I150000J0D01*
G01*
X147089000Y-80051000D01*
G75*
G02*
X147239000Y-80201000I0J-150000D01*
G01*
X147239000Y-81851000D01*
G75*
G02*
X147089000Y-82001000I-150000J0D01*
G01*
G37*
G36*
G01*
X148359000Y-82001000D02*
X148059000Y-82001000D01*
G75*
G02*
X147909000Y-81851000I0J150000D01*
G01*
X147909000Y-80201000D01*
G75*
G02*
X148059000Y-80051000I150000J0D01*
G01*
X148359000Y-80051000D01*
G75*
G02*
X148509000Y-80201000I0J-150000D01*
G01*
X148509000Y-81851000D01*
G75*
G02*
X148359000Y-82001000I-150000J0D01*
G01*
G37*
G36*
G01*
X149629000Y-82001000D02*
X149329000Y-82001000D01*
G75*
G02*
X149179000Y-81851000I0J150000D01*
G01*
X149179000Y-80201000D01*
G75*
G02*
X149329000Y-80051000I150000J0D01*
G01*
X149629000Y-80051000D01*
G75*
G02*
X149779000Y-80201000I0J-150000D01*
G01*
X149779000Y-81851000D01*
G75*
G02*
X149629000Y-82001000I-150000J0D01*
G01*
G37*
G36*
G01*
X150899000Y-82001000D02*
X150599000Y-82001000D01*
G75*
G02*
X150449000Y-81851000I0J150000D01*
G01*
X150449000Y-80201000D01*
G75*
G02*
X150599000Y-80051000I150000J0D01*
G01*
X150899000Y-80051000D01*
G75*
G02*
X151049000Y-80201000I0J-150000D01*
G01*
X151049000Y-81851000D01*
G75*
G02*
X150899000Y-82001000I-150000J0D01*
G01*
G37*
G36*
G01*
X152169000Y-82001000D02*
X151869000Y-82001000D01*
G75*
G02*
X151719000Y-81851000I0J150000D01*
G01*
X151719000Y-80201000D01*
G75*
G02*
X151869000Y-80051000I150000J0D01*
G01*
X152169000Y-80051000D01*
G75*
G02*
X152319000Y-80201000I0J-150000D01*
G01*
X152319000Y-81851000D01*
G75*
G02*
X152169000Y-82001000I-150000J0D01*
G01*
G37*
G36*
G01*
X152169000Y-86951000D02*
X151869000Y-86951000D01*
G75*
G02*
X151719000Y-86801000I0J150000D01*
G01*
X151719000Y-85151000D01*
G75*
G02*
X151869000Y-85001000I150000J0D01*
G01*
X152169000Y-85001000D01*
G75*
G02*
X152319000Y-85151000I0J-150000D01*
G01*
X152319000Y-86801000D01*
G75*
G02*
X152169000Y-86951000I-150000J0D01*
G01*
G37*
G36*
G01*
X150899000Y-86951000D02*
X150599000Y-86951000D01*
G75*
G02*
X150449000Y-86801000I0J150000D01*
G01*
X150449000Y-85151000D01*
G75*
G02*
X150599000Y-85001000I150000J0D01*
G01*
X150899000Y-85001000D01*
G75*
G02*
X151049000Y-85151000I0J-150000D01*
G01*
X151049000Y-86801000D01*
G75*
G02*
X150899000Y-86951000I-150000J0D01*
G01*
G37*
G36*
G01*
X149629000Y-86951000D02*
X149329000Y-86951000D01*
G75*
G02*
X149179000Y-86801000I0J150000D01*
G01*
X149179000Y-85151000D01*
G75*
G02*
X149329000Y-85001000I150000J0D01*
G01*
X149629000Y-85001000D01*
G75*
G02*
X149779000Y-85151000I0J-150000D01*
G01*
X149779000Y-86801000D01*
G75*
G02*
X149629000Y-86951000I-150000J0D01*
G01*
G37*
G36*
G01*
X148359000Y-86951000D02*
X148059000Y-86951000D01*
G75*
G02*
X147909000Y-86801000I0J150000D01*
G01*
X147909000Y-85151000D01*
G75*
G02*
X148059000Y-85001000I150000J0D01*
G01*
X148359000Y-85001000D01*
G75*
G02*
X148509000Y-85151000I0J-150000D01*
G01*
X148509000Y-86801000D01*
G75*
G02*
X148359000Y-86951000I-150000J0D01*
G01*
G37*
G36*
G01*
X147089000Y-86951000D02*
X146789000Y-86951000D01*
G75*
G02*
X146639000Y-86801000I0J150000D01*
G01*
X146639000Y-85151000D01*
G75*
G02*
X146789000Y-85001000I150000J0D01*
G01*
X147089000Y-85001000D01*
G75*
G02*
X147239000Y-85151000I0J-150000D01*
G01*
X147239000Y-86801000D01*
G75*
G02*
X147089000Y-86951000I-150000J0D01*
G01*
G37*
G36*
G01*
X145819000Y-86951000D02*
X145519000Y-86951000D01*
G75*
G02*
X145369000Y-86801000I0J150000D01*
G01*
X145369000Y-85151000D01*
G75*
G02*
X145519000Y-85001000I150000J0D01*
G01*
X145819000Y-85001000D01*
G75*
G02*
X145969000Y-85151000I0J-150000D01*
G01*
X145969000Y-86801000D01*
G75*
G02*
X145819000Y-86951000I-150000J0D01*
G01*
G37*
G36*
G01*
X144549000Y-86951000D02*
X144249000Y-86951000D01*
G75*
G02*
X144099000Y-86801000I0J150000D01*
G01*
X144099000Y-85151000D01*
G75*
G02*
X144249000Y-85001000I150000J0D01*
G01*
X144549000Y-85001000D01*
G75*
G02*
X144699000Y-85151000I0J-150000D01*
G01*
X144699000Y-86801000D01*
G75*
G02*
X144549000Y-86951000I-150000J0D01*
G01*
G37*
G36*
G01*
X166647000Y-86954000D02*
X166347000Y-86954000D01*
G75*
G02*
X166197000Y-86804000I0J150000D01*
G01*
X166197000Y-85154000D01*
G75*
G02*
X166347000Y-85004000I150000J0D01*
G01*
X166647000Y-85004000D01*
G75*
G02*
X166797000Y-85154000I0J-150000D01*
G01*
X166797000Y-86804000D01*
G75*
G02*
X166647000Y-86954000I-150000J0D01*
G01*
G37*
G36*
G01*
X167917000Y-86954000D02*
X167617000Y-86954000D01*
G75*
G02*
X167467000Y-86804000I0J150000D01*
G01*
X167467000Y-85154000D01*
G75*
G02*
X167617000Y-85004000I150000J0D01*
G01*
X167917000Y-85004000D01*
G75*
G02*
X168067000Y-85154000I0J-150000D01*
G01*
X168067000Y-86804000D01*
G75*
G02*
X167917000Y-86954000I-150000J0D01*
G01*
G37*
G36*
G01*
X169187000Y-86954000D02*
X168887000Y-86954000D01*
G75*
G02*
X168737000Y-86804000I0J150000D01*
G01*
X168737000Y-85154000D01*
G75*
G02*
X168887000Y-85004000I150000J0D01*
G01*
X169187000Y-85004000D01*
G75*
G02*
X169337000Y-85154000I0J-150000D01*
G01*
X169337000Y-86804000D01*
G75*
G02*
X169187000Y-86954000I-150000J0D01*
G01*
G37*
G36*
G01*
X170457000Y-86954000D02*
X170157000Y-86954000D01*
G75*
G02*
X170007000Y-86804000I0J150000D01*
G01*
X170007000Y-85154000D01*
G75*
G02*
X170157000Y-85004000I150000J0D01*
G01*
X170457000Y-85004000D01*
G75*
G02*
X170607000Y-85154000I0J-150000D01*
G01*
X170607000Y-86804000D01*
G75*
G02*
X170457000Y-86954000I-150000J0D01*
G01*
G37*
G36*
G01*
X171727000Y-86954000D02*
X171427000Y-86954000D01*
G75*
G02*
X171277000Y-86804000I0J150000D01*
G01*
X171277000Y-85154000D01*
G75*
G02*
X171427000Y-85004000I150000J0D01*
G01*
X171727000Y-85004000D01*
G75*
G02*
X171877000Y-85154000I0J-150000D01*
G01*
X171877000Y-86804000D01*
G75*
G02*
X171727000Y-86954000I-150000J0D01*
G01*
G37*
G36*
G01*
X172997000Y-86954000D02*
X172697000Y-86954000D01*
G75*
G02*
X172547000Y-86804000I0J150000D01*
G01*
X172547000Y-85154000D01*
G75*
G02*
X172697000Y-85004000I150000J0D01*
G01*
X172997000Y-85004000D01*
G75*
G02*
X173147000Y-85154000I0J-150000D01*
G01*
X173147000Y-86804000D01*
G75*
G02*
X172997000Y-86954000I-150000J0D01*
G01*
G37*
G36*
G01*
X174267000Y-86954000D02*
X173967000Y-86954000D01*
G75*
G02*
X173817000Y-86804000I0J150000D01*
G01*
X173817000Y-85154000D01*
G75*
G02*
X173967000Y-85004000I150000J0D01*
G01*
X174267000Y-85004000D01*
G75*
G02*
X174417000Y-85154000I0J-150000D01*
G01*
X174417000Y-86804000D01*
G75*
G02*
X174267000Y-86954000I-150000J0D01*
G01*
G37*
G36*
G01*
X174267000Y-82004000D02*
X173967000Y-82004000D01*
G75*
G02*
X173817000Y-81854000I0J150000D01*
G01*
X173817000Y-80204000D01*
G75*
G02*
X173967000Y-80054000I150000J0D01*
G01*
X174267000Y-80054000D01*
G75*
G02*
X174417000Y-80204000I0J-150000D01*
G01*
X174417000Y-81854000D01*
G75*
G02*
X174267000Y-82004000I-150000J0D01*
G01*
G37*
G36*
G01*
X172997000Y-82004000D02*
X172697000Y-82004000D01*
G75*
G02*
X172547000Y-81854000I0J150000D01*
G01*
X172547000Y-80204000D01*
G75*
G02*
X172697000Y-80054000I150000J0D01*
G01*
X172997000Y-80054000D01*
G75*
G02*
X173147000Y-80204000I0J-150000D01*
G01*
X173147000Y-81854000D01*
G75*
G02*
X172997000Y-82004000I-150000J0D01*
G01*
G37*
G36*
G01*
X171727000Y-82004000D02*
X171427000Y-82004000D01*
G75*
G02*
X171277000Y-81854000I0J150000D01*
G01*
X171277000Y-80204000D01*
G75*
G02*
X171427000Y-80054000I150000J0D01*
G01*
X171727000Y-80054000D01*
G75*
G02*
X171877000Y-80204000I0J-150000D01*
G01*
X171877000Y-81854000D01*
G75*
G02*
X171727000Y-82004000I-150000J0D01*
G01*
G37*
G36*
G01*
X170457000Y-82004000D02*
X170157000Y-82004000D01*
G75*
G02*
X170007000Y-81854000I0J150000D01*
G01*
X170007000Y-80204000D01*
G75*
G02*
X170157000Y-80054000I150000J0D01*
G01*
X170457000Y-80054000D01*
G75*
G02*
X170607000Y-80204000I0J-150000D01*
G01*
X170607000Y-81854000D01*
G75*
G02*
X170457000Y-82004000I-150000J0D01*
G01*
G37*
G36*
G01*
X169187000Y-82004000D02*
X168887000Y-82004000D01*
G75*
G02*
X168737000Y-81854000I0J150000D01*
G01*
X168737000Y-80204000D01*
G75*
G02*
X168887000Y-80054000I150000J0D01*
G01*
X169187000Y-80054000D01*
G75*
G02*
X169337000Y-80204000I0J-150000D01*
G01*
X169337000Y-81854000D01*
G75*
G02*
X169187000Y-82004000I-150000J0D01*
G01*
G37*
G36*
G01*
X167917000Y-82004000D02*
X167617000Y-82004000D01*
G75*
G02*
X167467000Y-81854000I0J150000D01*
G01*
X167467000Y-80204000D01*
G75*
G02*
X167617000Y-80054000I150000J0D01*
G01*
X167917000Y-80054000D01*
G75*
G02*
X168067000Y-80204000I0J-150000D01*
G01*
X168067000Y-81854000D01*
G75*
G02*
X167917000Y-82004000I-150000J0D01*
G01*
G37*
G36*
G01*
X166647000Y-82004000D02*
X166347000Y-82004000D01*
G75*
G02*
X166197000Y-81854000I0J150000D01*
G01*
X166197000Y-80204000D01*
G75*
G02*
X166347000Y-80054000I150000J0D01*
G01*
X166647000Y-80054000D01*
G75*
G02*
X166797000Y-80204000I0J-150000D01*
G01*
X166797000Y-81854000D01*
G75*
G02*
X166647000Y-82004000I-150000J0D01*
G01*
G37*
M02*
