<?xml version="1.0" encoding="utf-8"?>
<!-- Generator: Fusion 360, Shaper Origin Export Add-In, Version 1.9.0  -->
<svg xmlns="http://www.w3.org/2000/svg" xmlns:xlink="http://www.w3.org/1999/xlink" xmlns:shaper="http://www.shapertools.com/namespaces/shaper" shaper:fusionaddin="version:1.9.0" width="10.4cm" height="5.4cm" version="1.1" x="0cm" y="0cm" viewBox="0 0 10.4 5.4" enable-background="new 0 0 10.4 5.4" xml:space="preserve"><path d="M-3.53461,2.6 A0.1,0.1 0 0,1 -3.63461,2.7 L-4.5,2.7 A0.7,0.7 89.9999974 0,1 -5.2,2 L-5.2,-2 A0.7,0.7 179.9999973 0,1 -4.5,-2.7 L4.5,-2.7 A0.7,0.7 269.9999974 0,1 5.2,-2 L5.2,2 A0.7,0.7 0 0,1 4.5,2.7 L3.53139,2.7 A0.1,0.1 90 0,1 3.43139,2.6 L3.43139,1.5 A0.1,0.1 0 0,0 3.33139,1.4 L0.93139,1.4 A0.1,0.1 270 0,0 0.83139,1.5 L0.83139,2.6 A0.1,0.1 0 0,1 0.73139,2.7 L-0.83461,2.7 A0.1,0.1 90 0,1 -0.93461,2.6 L-0.93461,1.5 A0.1,0.1 0 0,0 -1.03461,1.4 L-3.43461,1.4 A0.1,0.1 270 0,0 -3.53461,1.5 L-3.53461,2.6z" transform="matrix(1,0,0,-1,5.2,2.7)" fill="rgb(0,0,0)" shaper:cutDepth="0.3cm" stroke-linecap="round" stroke-linejoin="round" /><path d="M-0.85961,-0.64294 a0.55,0.55 0 1,1 1.1,0 a0.55,0.55 0 1,1 -1.1,0z" transform="matrix(1,0,0,-1,5.2,2.7)" fill="rgb(255,255,255)" stroke="rgb(0,0,0)" stroke-width="0.0010cm" stroke-linecap="round" stroke-linejoin="round" shaper:cutDepth="0.3cm" /><path d="M3.64039,-0.64294 a0.55,0.55 0 1,1 1.1,0 a0.55,0.55 0 1,1 -1.1,0z" transform="matrix(1,0,0,-1,5.2,2.7)" fill="rgb(255,255,255)" stroke="rgb(0,0,0)" stroke-width="0.0010cm" stroke-linecap="round" stroke-linejoin="round" shaper:cutDepth="0.3cm" /><path d="M0.54039,-0.64294 a0.55,0.55 0 1,1 1.1,0 a0.55,0.55 0 1,1 -1.1,0z" transform="matrix(1,0,0,-1,5.2,2.7)" fill="rgb(255,255,255)" stroke="rgb(0,0,0)" stroke-width="0.0010cm" stroke-linecap="round" stroke-linejoin="round" shaper:cutDepth="0.3cm" /><path d="M2.24039,-0.64294 a0.55,0.55 0 1,1 1.1,0 a0.55,0.55 0 1,1 -1.1,0z" transform="matrix(1,0,0,-1,5.2,2.7)" fill="rgb(255,255,255)" stroke="rgb(0,0,0)" stroke-width="0.0010cm" stroke-linecap="round" stroke-linejoin="round" shaper:cutDepth="0.3cm" /><path d="M-4.56211,1.90706 a0.16,0.16 0 1,1 0.32,0 a0.16,0.16 0 1,1 -0.32,0z" transform="matrix(1,0,0,-1,5.2,2.7)" fill="rgb(255,255,255)" stroke="rgb(0,0,0)" stroke-width="0.0010cm" stroke-linecap="round" stroke-linejoin="round" shaper:cutDepth="0.3cm" /><path d="M4.23789,1.90706 a0.16,0.16 0 1,1 0.32,0 a0.16,0.16 0 1,1 -0.32,0z" transform="matrix(1,0,0,-1,5.2,2.7)" fill="rgb(255,255,255)" stroke="rgb(0,0,0)" stroke-width="0.0010cm" stroke-linecap="round" stroke-linejoin="round" shaper:cutDepth="0.3cm" /><path d="M-4.56211,-1.89294 a0.16,0.16 0 1,1 0.32,0 a0.16,0.16 0 1,1 -0.32,0z" transform="matrix(1,0,0,-1,5.2,2.7)" fill="rgb(255,255,255)" stroke="rgb(0,0,0)" stroke-width="0.0010cm" stroke-linecap="round" stroke-linejoin="round" shaper:cutDepth="0.3cm" /><path d="M4.23789,-1.89294 a0.16,0.16 0 1,1 0.32,0 a0.16,0.16 0 1,1 -0.32,0z" transform="matrix(1,0,0,-1,5.2,2.7)" fill="rgb(255,255,255)" stroke="rgb(0,0,0)" stroke-width="0.0010cm" stroke-linecap="round" stroke-linejoin="round" shaper:cutDepth="0.3cm" /><path d="M-3.65961,-1.64294 L-3.65961,-1.24294 A0.05,0.05 0 0,1 -3.70961,-1.19294 L-4.1104553,-1.19294 A0.55,0.55 270 0,0 -4.1104553,-0.09294 L-3.70961,-0.09294 A0.05,0.05 270 0,1 -3.65961,-0.04294 L-3.65961,0.35706 A0.55,0.55 180 0,0 -2.55961,0.35706 L-2.55961,-0.04294 A0.05,0.05 180 0,1 -2.50961,-0.09294 L-2.10961,-0.09294 A0.55,0.55 90 0,0 -2.10961,-1.19294 L-2.50961,-1.19294 A0.05,0.05 90 0,1 -2.55961,-1.24294 L-2.55961,-1.64294 A0.55,0.55 0 0,0 -3.65961,-1.64294z" transform="matrix(1,0,0,-1,5.2,2.7)" fill="rgb(255,255,255)" stroke="rgb(0,0,0)" stroke-width="0.0010cm" stroke-linecap="round" stroke-linejoin="round" shaper:cutDepth="0.3cm" /></svg>