<?xml version="1.0" encoding="utf-8"?>
<!-- Generator: Fusion 360, Shaper Origin Export Add-In, Version 1.8.0  -->
<svg xmlns="http://www.w3.org/2000/svg" xmlns:xlink="http://www.w3.org/1999/xlink" xmlns:shaper="http://www.shapertools.com/namespaces/shaper" shaper:fusionaddin="version:1.8.0" width="33.9cm" height="12.9cm" version="1.1" x="0cm" y="0cm" viewBox="0 0 33.9 12.9" enable-background="new 0 0 33.9 12.9" xml:space="preserve"><path d="M15.186,1.9426914 A0.1,0.1 90 0,1 15.086,1.8426914 L15.086,0.3706914 A0.1,0.1 0 0,0 14.986,0.2706914 L8.506,0.2706914 A0.1,0.1 270 0,0 8.406,0.3706914 L8.406,0.4241914 A0.1,0.1 0 0,1 8.306,0.5241914 L3.197,0.5241914 A0.1,0.1 270 0,0 3.097,0.6241914 L3.097,1.8426914 A0.1,0.1 0 0,1 2.997,1.9426914 L-4.217,1.9426914 A0.1,0.1 90 0,1 -4.317,1.8426914 L-4.317,0.6241914 A0.1,0.1 0 0,0 -4.417,0.5241914 L-9.607,0.5241914 A0.1,0.1 90 0,1 -9.707,0.4241914 L-9.707,0.3706914 A0.1,0.1 0 0,0 -9.807,0.2706914 L-15.017,0.2706914 A0.1,0.1 270 0,0 -15.117,0.3706914 L-15.117,1.8426914 A0.1,0.1 0 0,1 -15.217,1.9426914 L-16.25,1.9426914 A0.7,0.7 89.9999974 0,1 -16.95,1.2426914 L-16.95,-10.2573086 A0.7,0.7 179.9999973 0,1 -16.25,-10.9573086 L16.25,-10.9573086 A0.7,0.7 269.9999974 0,1 16.95,-10.2573085 L16.95,1.2426914 A0.7,0.7 0 0,1 16.25,1.9426914 L15.186,1.9426914z" transform="matrix(1,0,0,-1,16.95,1.9426914)" fill="rgb(0,0,0)" stroke-linecap="round" stroke-linejoin="round" /><path d="M13.026496,-5.8856914 A0.1,0.1 180 0,1 13.126496,-5.9856914 L13.706496,-5.9856914 A0.1,0.1 270 0,1 13.806496,-5.8856914 L13.806496,-0.3706914 A0.1,0.1 180 0,0 13.906496,-0.2706914 L15.656496,-0.2706914 A0.1,0.1 90 0,0 15.756496,-0.3706914 L15.756496,-5.9306914 A0.1,0.1 0 0,0 15.656496,-6.0306914 L13.951496,-6.0306914 A0.1,0.1 90 0,1 13.851496,-6.1306914 L13.851496,-7.7906914 A0.1,0.1 180 0,1 13.951496,-7.8906914 L15.656496,-7.8906914 A0.1,0.1 90 0,0 15.756496,-7.9906914 L15.756496,-9.7406914 A0.1,0.1 0 0,0 15.656496,-9.8406914 L-15.621004,-9.8406914 A0.1,0.1 270 0,0 -15.721004,-9.7406914 L-15.721004,-0.3706914 A0.1,0.1 180 0,0 -15.621004,-0.2706914 L12.926496,-0.2706914 A0.1,0.1 90 0,0 13.026496,-0.3706914 L13.026496,-5.8856914z" transform="matrix(1,0,0,-1,16.95,1.9426914)" fill="rgb(255,255,255)" stroke="rgb(0,0,0)" stroke-width="0.0010cm" stroke-linecap="round" stroke-linejoin="round" /><path d="M-0.81,1.2426914 a0.16,0.16 0 1,1 0.32,0 a0.16,0.16 0 1,1 -0.32,0z" transform="matrix(1,0,0,-1,16.95,1.9426914)" fill="rgb(255,255,255)" stroke="rgb(0,0,0)" stroke-width="0.0010cm" stroke-linecap="round" stroke-linejoin="round" /><path d="M-0.81,-10.2573086 a0.16,0.16 0 1,1 0.32,0 a0.16,0.16 0 1,1 -0.32,0z" transform="matrix(1,0,0,-1,16.95,1.9426914)" fill="rgb(255,255,255)" stroke="rgb(0,0,0)" stroke-width="0.0010cm" stroke-linecap="round" stroke-linejoin="round" /><path d="M16.09,-10.2573086 a0.16,0.16 0 1,1 0.32,0 a0.16,0.16 0 1,1 -0.32,0z" transform="matrix(1,0,0,-1,16.95,1.9426914)" fill="rgb(255,255,255)" stroke="rgb(0,0,0)" stroke-width="0.0010cm" stroke-linecap="round" stroke-linejoin="round" /><path d="M16.09,1.2426914 a0.16,0.16 0 1,1 0.32,0 a0.16,0.16 0 1,1 -0.32,0z" transform="matrix(1,0,0,-1,16.95,1.9426914)" fill="rgb(255,255,255)" stroke="rgb(0,0,0)" stroke-width="0.0010cm" stroke-linecap="round" stroke-linejoin="round" /><path d="M-16.41,-10.2573086 a0.16,0.16 0 1,1 0.32,0 a0.16,0.16 0 1,1 -0.32,0z" transform="matrix(1,0,0,-1,16.95,1.9426914)" fill="rgb(255,255,255)" stroke="rgb(0,0,0)" stroke-width="0.0010cm" stroke-linecap="round" stroke-linejoin="round" /><path d="M-16.41,1.2426914 a0.16,0.16 0 1,1 0.32,0 a0.16,0.16 0 1,1 -0.32,0z" transform="matrix(1,0,0,-1,16.95,1.9426914)" fill="rgb(255,255,255)" stroke="rgb(0,0,0)" stroke-width="0.0010cm" stroke-linecap="round" stroke-linejoin="round" /></svg>