<?xml version="1.0" encoding="utf-8"?>
<!-- Generator: Fusion 360, Shaper Origin Export Add-In, Version 1.8.0  -->
<svg xmlns="http://www.w3.org/2000/svg" xmlns:xlink="http://www.w3.org/1999/xlink" xmlns:shaper="http://www.shapertools.com/namespaces/shaper" shaper:fusionaddin="version:1.8.0" width="5.4cm" height="5.4cm" version="1.1" x="0cm" y="0cm" viewBox="0 0 5.4 5.4" enable-background="new 0 0 5.4 5.4" xml:space="preserve"><path d="M-2.6,-1.58759 A0.1,0.1 90 0,1 -2.7,-1.68759 L-2.7,-2 A0.7,0.7 179.9999973 0,1 -2,-2.7 L2,-2.7 A0.7,0.7 269.9999974 0,1 2.7,-2 L2.7,-1.40059 A0.1,0.1 0 0,1 2.6,-1.30059 L1.49956,-1.30059 A0.1,0.1 270 0,0 1.39956,-1.20059 L1.39956,1.18541 A0.1,0.1 180 0,0 1.49956,1.28541 L2.6,1.28541 A0.1,0.1 270 0,1 2.7,1.38541 L2.7,2 A0.7,0.7 0 0,1 2,2.7 L-2,2.7 A0.7,0.7 89.9999974 0,1 -2.7,2 L-2.7,1.69241 A0.1,0.1 180 0,1 -2.6,1.59241 L-1.16794,1.59241 A0.1,0.1 90 0,0 -1.06794,1.49241 L-1.06794,-1.48759 A0.1,0.1 0 0,0 -1.16794,-1.58759 L-2.6,-1.58759z" transform="matrix(1,0,0,-1,2.7,2.7)" fill="rgb(0,0,0)" stroke-linecap="round" stroke-linejoin="round" /><path d="M1.77206,-1.94159 a0.16,0.16 0 1,1 0.32,0 a0.16,0.16 0 1,1 -0.32,0z" transform="matrix(1,0,0,-1,2.7,2.7)" fill="rgb(255,255,255)" stroke="rgb(0,0,0)" stroke-width="0.0010cm" stroke-linecap="round" stroke-linejoin="round" /><path d="M-2.12794,-1.94159 a0.16,0.16 0 1,1 0.32,0 a0.16,0.16 0 1,1 -0.32,0z" transform="matrix(1,0,0,-1,2.7,2.7)" fill="rgb(255,255,255)" stroke="rgb(0,0,0)" stroke-width="0.0010cm" stroke-linecap="round" stroke-linejoin="round" /><path d="M-2.12794,1.95841 a0.16,0.16 0 1,1 0.32,0 a0.16,0.16 0 1,1 -0.32,0z" transform="matrix(1,0,0,-1,2.7,2.7)" fill="rgb(255,255,255)" stroke="rgb(0,0,0)" stroke-width="0.0010cm" stroke-linecap="round" stroke-linejoin="round" /><path d="M1.77206,1.95841 a0.16,0.16 0 1,1 0.32,0 a0.16,0.16 0 1,1 -0.32,0z" transform="matrix(1,0,0,-1,2.7,2.7)" fill="rgb(255,255,255)" stroke="rgb(0,0,0)" stroke-width="0.0010cm" stroke-linecap="round" stroke-linejoin="round" /></svg>