<?xml version="1.0" encoding="UTF-8" standalone="no"?>
<!DOCTYPE svg PUBLIC "-//W3C//DTD SVG 1.1//EN" "http://www.w3.org/Graphics/SVG/1.1/DTD/svg11.dtd">
<svg width="100%" height="100%" viewBox="0 0 2500 1150" version="1.1" xmlns="http://www.w3.org/2000/svg" xmlns:xlink="http://www.w3.org/1999/xlink" xml:space="preserve" xmlns:serif="http://www.serif.com/" style="fill-rule:evenodd;clip-rule:evenodd;stroke-linejoin:round;stroke-miterlimit:2;">
    <g id="_6502" serif:id="6502" transform="matrix(2.72153,0,0,2.66204,-5371.02,-77.3411)">
        <g transform="matrix(600,0,0,600,1951.93,455.053)">
            <path d="M0.203,0.01C0.149,0.01 0.108,-0.005 0.079,-0.036C0.05,-0.067 0.036,-0.11 0.036,-0.166L0.036,-0.528C0.036,-0.649 0.092,-0.71 0.204,-0.71C0.257,-0.71 0.298,-0.695 0.326,-0.665C0.354,-0.634 0.368,-0.591 0.368,-0.534L0.368,-0.521L0.264,-0.521L0.264,-0.541C0.264,-0.587 0.245,-0.61 0.207,-0.61C0.186,-0.61 0.171,-0.604 0.161,-0.591C0.151,-0.578 0.146,-0.556 0.146,-0.524L0.146,-0.39L0.148,-0.39C0.167,-0.431 0.201,-0.451 0.248,-0.451C0.288,-0.451 0.318,-0.437 0.339,-0.41C0.36,-0.383 0.37,-0.343 0.37,-0.291L0.37,-0.166C0.37,-0.11 0.356,-0.067 0.327,-0.036C0.298,-0.005 0.257,0.01 0.203,0.01ZM0.203,-0.09C0.241,-0.09 0.26,-0.113 0.26,-0.158L0.26,-0.282C0.26,-0.328 0.241,-0.351 0.203,-0.351C0.165,-0.351 0.146,-0.328 0.146,-0.282L0.146,-0.158C0.146,-0.113 0.165,-0.09 0.203,-0.09Z" style="fill:white;fill-rule:nonzero;"/>
        </g>
        <g transform="matrix(600,0,0,600,2191.93,455.053)">
            <path d="M0.202,0.01C0.149,0.01 0.108,-0.005 0.08,-0.036C0.052,-0.066 0.038,-0.109 0.038,-0.166L0.038,-0.221L0.142,-0.221L0.142,-0.158C0.142,-0.113 0.161,-0.09 0.199,-0.09C0.237,-0.09 0.256,-0.113 0.256,-0.158L0.256,-0.315C0.256,-0.361 0.237,-0.384 0.199,-0.384C0.161,-0.384 0.142,-0.361 0.142,-0.315L0.142,-0.309L0.038,-0.309L0.058,-0.7L0.348,-0.7L0.348,-0.6L0.156,-0.6L0.147,-0.433L0.149,-0.433C0.17,-0.467 0.201,-0.484 0.244,-0.484C0.284,-0.484 0.314,-0.47 0.335,-0.443C0.356,-0.416 0.366,-0.376 0.366,-0.324L0.366,-0.166C0.366,-0.109 0.352,-0.066 0.324,-0.036C0.296,-0.005 0.255,0.01 0.202,0.01Z" style="fill:white;fill-rule:nonzero;"/>
        </g>
        <g transform="matrix(600,0,0,600,2431.93,455.053)">
            <path d="M0.2,0.01C0.146,0.01 0.105,-0.005 0.076,-0.036C0.047,-0.067 0.033,-0.11 0.033,-0.166L0.033,-0.534C0.033,-0.59 0.047,-0.633 0.076,-0.664C0.105,-0.695 0.146,-0.71 0.2,-0.71C0.254,-0.71 0.295,-0.695 0.324,-0.664C0.353,-0.633 0.367,-0.59 0.367,-0.534L0.367,-0.166C0.367,-0.11 0.353,-0.067 0.324,-0.036C0.295,-0.005 0.254,0.01 0.2,0.01ZM0.2,-0.09C0.238,-0.09 0.257,-0.113 0.257,-0.159L0.257,-0.541C0.257,-0.587 0.238,-0.61 0.2,-0.61C0.162,-0.61 0.143,-0.587 0.143,-0.541L0.143,-0.159C0.143,-0.113 0.162,-0.09 0.2,-0.09Z" style="fill:white;fill-rule:nonzero;"/>
        </g>
        <g transform="matrix(600,0,0,600,2671.93,455.053)">
            <path d="M0.039,-0.076C0.039,-0.126 0.047,-0.169 0.063,-0.205C0.079,-0.24 0.108,-0.28 0.149,-0.323C0.19,-0.366 0.218,-0.403 0.234,-0.434C0.249,-0.465 0.257,-0.497 0.257,-0.53C0.257,-0.56 0.252,-0.581 0.243,-0.593C0.233,-0.604 0.219,-0.61 0.2,-0.61C0.162,-0.61 0.143,-0.587 0.143,-0.541L0.143,-0.466L0.039,-0.466L0.039,-0.534C0.039,-0.591 0.053,-0.634 0.081,-0.665C0.109,-0.695 0.15,-0.71 0.203,-0.71C0.256,-0.71 0.297,-0.695 0.325,-0.665C0.353,-0.634 0.367,-0.591 0.367,-0.534C0.367,-0.491 0.357,-0.45 0.337,-0.409C0.316,-0.368 0.281,-0.322 0.231,-0.269C0.198,-0.234 0.176,-0.206 0.165,-0.185C0.154,-0.163 0.148,-0.14 0.148,-0.115L0.148,-0.1L0.357,-0.1L0.357,-0L0.039,-0L0.039,-0.076Z" style="fill:white;fill-rule:nonzero;"/>
        </g>
    </g>
</svg>
