G04 #@! TF.GenerationSoftware,KiCad,Pcbnew,(5.1.9-0-10_14)*
G04 #@! TF.CreationDate,2021-04-09T12:46:09-05:00*
G04 #@! TF.ProjectId,Backplane,4261636b-706c-4616-9e65-2e6b69636164,1*
G04 #@! TF.SameCoordinates,Original*
G04 #@! TF.FileFunction,Soldermask,Bot*
G04 #@! TF.FilePolarity,Negative*
%FSLAX46Y46*%
G04 Gerber Fmt 4.6, Leading zero omitted, Abs format (unit mm)*
G04 Created by KiCad (PCBNEW (5.1.9-0-10_14)) date 2021-04-09 12:46:09*
%MOMM*%
%LPD*%
G01*
G04 APERTURE LIST*
%ADD10O,1.000000X1.800000*%
%ADD11O,2.203200X1.703200*%
%ADD12C,3.200000*%
%ADD13O,1.700000X2.000000*%
%ADD14R,1.700000X1.700000*%
%ADD15O,1.700000X1.700000*%
%ADD16C,1.500000*%
G04 APERTURE END LIST*
D10*
X171496000Y-147056000D03*
X162856000Y-147056000D03*
X171496000Y-143256000D03*
X162856000Y-143256000D03*
G36*
G01*
X162830000Y-65188400D02*
X164830000Y-65188400D01*
G75*
G02*
X164931600Y-65290000I0J-101600D01*
G01*
X164931600Y-66790000D01*
G75*
G02*
X164830000Y-66891600I-101600J0D01*
G01*
X162830000Y-66891600D01*
G75*
G02*
X162728400Y-66790000I0J101600D01*
G01*
X162728400Y-65290000D01*
G75*
G02*
X162830000Y-65188400I101600J0D01*
G01*
G37*
D11*
X168681000Y-66040000D03*
X163830000Y-68580000D03*
X168681000Y-68580000D03*
X163830000Y-71120000D03*
X168681000Y-71120000D03*
X163830000Y-73660000D03*
X168681000Y-73660000D03*
X163830000Y-76200000D03*
X168681000Y-76200000D03*
X163830000Y-78740000D03*
X168681000Y-78740000D03*
X163830000Y-81280000D03*
X168681000Y-81280000D03*
X163830000Y-83820000D03*
X168681000Y-83820000D03*
X163830000Y-86360000D03*
X168681000Y-86360000D03*
X163830000Y-88900000D03*
X168681000Y-88900000D03*
X163830000Y-91440000D03*
X168681000Y-91440000D03*
X163830000Y-93980000D03*
X168681000Y-93980000D03*
X163830000Y-96520000D03*
X168681000Y-96520000D03*
X163830000Y-99060000D03*
X168681000Y-99060000D03*
X163830000Y-101600000D03*
X168681000Y-101600000D03*
X163830000Y-104140000D03*
X168681000Y-104140000D03*
X163830000Y-106680000D03*
X168681000Y-106680000D03*
X163830000Y-109220000D03*
X168681000Y-109220000D03*
X163830000Y-111760000D03*
X168681000Y-111760000D03*
X163830000Y-114300000D03*
X168681000Y-114300000D03*
D12*
X96000000Y-56000000D03*
X184000000Y-56000000D03*
X184540000Y-144860000D03*
X96000000Y-144000000D03*
G36*
G01*
X96790000Y-65148400D02*
X98790000Y-65148400D01*
G75*
G02*
X98891600Y-65250000I0J-101600D01*
G01*
X98891600Y-66750000D01*
G75*
G02*
X98790000Y-66851600I-101600J0D01*
G01*
X96790000Y-66851600D01*
G75*
G02*
X96688400Y-66750000I0J101600D01*
G01*
X96688400Y-65250000D01*
G75*
G02*
X96790000Y-65148400I101600J0D01*
G01*
G37*
D11*
X102641000Y-66000000D03*
X97790000Y-68540000D03*
X102641000Y-68540000D03*
X97790000Y-71080000D03*
X102641000Y-71080000D03*
X97790000Y-73620000D03*
X102641000Y-73620000D03*
X97790000Y-76160000D03*
X102641000Y-76160000D03*
X97790000Y-78700000D03*
X102641000Y-78700000D03*
X97790000Y-81240000D03*
X102641000Y-81240000D03*
X97790000Y-83780000D03*
X102641000Y-83780000D03*
X97790000Y-86320000D03*
X102641000Y-86320000D03*
X97790000Y-88860000D03*
X102641000Y-88860000D03*
X97790000Y-91400000D03*
X102641000Y-91400000D03*
X97790000Y-93940000D03*
X102641000Y-93940000D03*
X97790000Y-96480000D03*
X102641000Y-96480000D03*
X97790000Y-99020000D03*
X102641000Y-99020000D03*
X97790000Y-101560000D03*
X102641000Y-101560000D03*
X97790000Y-104100000D03*
X102641000Y-104100000D03*
X97790000Y-106640000D03*
X102641000Y-106640000D03*
X97790000Y-109180000D03*
X102641000Y-109180000D03*
X97790000Y-111720000D03*
X102641000Y-111720000D03*
X97790000Y-114260000D03*
X102641000Y-114260000D03*
G36*
G01*
X178474000Y-135116000D02*
X178474000Y-133616000D01*
G75*
G02*
X178724000Y-133366000I250000J0D01*
G01*
X179924000Y-133366000D01*
G75*
G02*
X180174000Y-133616000I0J-250000D01*
G01*
X180174000Y-135116000D01*
G75*
G02*
X179924000Y-135366000I-250000J0D01*
G01*
X178724000Y-135366000D01*
G75*
G02*
X178474000Y-135116000I0J250000D01*
G01*
G37*
D13*
X181824000Y-134366000D03*
G36*
G01*
X113300000Y-65188400D02*
X115300000Y-65188400D01*
G75*
G02*
X115401600Y-65290000I0J-101600D01*
G01*
X115401600Y-66790000D01*
G75*
G02*
X115300000Y-66891600I-101600J0D01*
G01*
X113300000Y-66891600D01*
G75*
G02*
X113198400Y-66790000I0J101600D01*
G01*
X113198400Y-65290000D01*
G75*
G02*
X113300000Y-65188400I101600J0D01*
G01*
G37*
D11*
X119151000Y-66040000D03*
X114300000Y-68580000D03*
X119151000Y-68580000D03*
X114300000Y-71120000D03*
X119151000Y-71120000D03*
X114300000Y-73660000D03*
X119151000Y-73660000D03*
X114300000Y-76200000D03*
X119151000Y-76200000D03*
X114300000Y-78740000D03*
X119151000Y-78740000D03*
X114300000Y-81280000D03*
X119151000Y-81280000D03*
X114300000Y-83820000D03*
X119151000Y-83820000D03*
X114300000Y-86360000D03*
X119151000Y-86360000D03*
X114300000Y-88900000D03*
X119151000Y-88900000D03*
X114300000Y-91440000D03*
X119151000Y-91440000D03*
X114300000Y-93980000D03*
X119151000Y-93980000D03*
X114300000Y-96520000D03*
X119151000Y-96520000D03*
X114300000Y-99060000D03*
X119151000Y-99060000D03*
X114300000Y-101600000D03*
X119151000Y-101600000D03*
X114300000Y-104140000D03*
X119151000Y-104140000D03*
X114300000Y-106680000D03*
X119151000Y-106680000D03*
X114300000Y-109220000D03*
X119151000Y-109220000D03*
X114300000Y-111760000D03*
X119151000Y-111760000D03*
X114300000Y-114300000D03*
X119151000Y-114300000D03*
G36*
G01*
X129810000Y-65188400D02*
X131810000Y-65188400D01*
G75*
G02*
X131911600Y-65290000I0J-101600D01*
G01*
X131911600Y-66790000D01*
G75*
G02*
X131810000Y-66891600I-101600J0D01*
G01*
X129810000Y-66891600D01*
G75*
G02*
X129708400Y-66790000I0J101600D01*
G01*
X129708400Y-65290000D01*
G75*
G02*
X129810000Y-65188400I101600J0D01*
G01*
G37*
X135661000Y-66040000D03*
X130810000Y-68580000D03*
X135661000Y-68580000D03*
X130810000Y-71120000D03*
X135661000Y-71120000D03*
X130810000Y-73660000D03*
X135661000Y-73660000D03*
X130810000Y-76200000D03*
X135661000Y-76200000D03*
X130810000Y-78740000D03*
X135661000Y-78740000D03*
X130810000Y-81280000D03*
X135661000Y-81280000D03*
X130810000Y-83820000D03*
X135661000Y-83820000D03*
X130810000Y-86360000D03*
X135661000Y-86360000D03*
X130810000Y-88900000D03*
X135661000Y-88900000D03*
X130810000Y-91440000D03*
X135661000Y-91440000D03*
X130810000Y-93980000D03*
X135661000Y-93980000D03*
X130810000Y-96520000D03*
X135661000Y-96520000D03*
X130810000Y-99060000D03*
X135661000Y-99060000D03*
X130810000Y-101600000D03*
X135661000Y-101600000D03*
X130810000Y-104140000D03*
X135661000Y-104140000D03*
X130810000Y-106680000D03*
X135661000Y-106680000D03*
X130810000Y-109220000D03*
X135661000Y-109220000D03*
X130810000Y-111760000D03*
X135661000Y-111760000D03*
X130810000Y-114300000D03*
X135661000Y-114300000D03*
G36*
G01*
X178474000Y-126988000D02*
X178474000Y-125488000D01*
G75*
G02*
X178724000Y-125238000I250000J0D01*
G01*
X179924000Y-125238000D01*
G75*
G02*
X180174000Y-125488000I0J-250000D01*
G01*
X180174000Y-126988000D01*
G75*
G02*
X179924000Y-127238000I-250000J0D01*
G01*
X178724000Y-127238000D01*
G75*
G02*
X178474000Y-126988000I0J250000D01*
G01*
G37*
D13*
X181824000Y-126238000D03*
G36*
G01*
X110832000Y-143522000D02*
X110832000Y-145022000D01*
G75*
G02*
X110582000Y-145272000I-250000J0D01*
G01*
X109382000Y-145272000D01*
G75*
G02*
X109132000Y-145022000I0J250000D01*
G01*
X109132000Y-143522000D01*
G75*
G02*
X109382000Y-143272000I250000J0D01*
G01*
X110582000Y-143272000D01*
G75*
G02*
X110832000Y-143522000I0J-250000D01*
G01*
G37*
X107482000Y-144272000D03*
G36*
G01*
X146320000Y-65188400D02*
X148320000Y-65188400D01*
G75*
G02*
X148421600Y-65290000I0J-101600D01*
G01*
X148421600Y-66790000D01*
G75*
G02*
X148320000Y-66891600I-101600J0D01*
G01*
X146320000Y-66891600D01*
G75*
G02*
X146218400Y-66790000I0J101600D01*
G01*
X146218400Y-65290000D01*
G75*
G02*
X146320000Y-65188400I101600J0D01*
G01*
G37*
D11*
X152171000Y-66040000D03*
X147320000Y-68580000D03*
X152171000Y-68580000D03*
X147320000Y-71120000D03*
X152171000Y-71120000D03*
X147320000Y-73660000D03*
X152171000Y-73660000D03*
X147320000Y-76200000D03*
X152171000Y-76200000D03*
X147320000Y-78740000D03*
X152171000Y-78740000D03*
X147320000Y-81280000D03*
X152171000Y-81280000D03*
X147320000Y-83820000D03*
X152171000Y-83820000D03*
X147320000Y-86360000D03*
X152171000Y-86360000D03*
X147320000Y-88900000D03*
X152171000Y-88900000D03*
X147320000Y-91440000D03*
X152171000Y-91440000D03*
X147320000Y-93980000D03*
X152171000Y-93980000D03*
X147320000Y-96520000D03*
X152171000Y-96520000D03*
X147320000Y-99060000D03*
X152171000Y-99060000D03*
X147320000Y-101600000D03*
X152171000Y-101600000D03*
X147320000Y-104140000D03*
X152171000Y-104140000D03*
X147320000Y-106680000D03*
X152171000Y-106680000D03*
X147320000Y-109220000D03*
X152171000Y-109220000D03*
X147320000Y-111760000D03*
X152171000Y-111760000D03*
X147320000Y-114300000D03*
X152171000Y-114300000D03*
D14*
X179070000Y-66040000D03*
D15*
X181610000Y-66040000D03*
X179070000Y-68580000D03*
X181610000Y-68580000D03*
X179070000Y-71120000D03*
X181610000Y-71120000D03*
X179070000Y-73660000D03*
X181610000Y-73660000D03*
X179070000Y-76200000D03*
X181610000Y-76200000D03*
X179070000Y-78740000D03*
X181610000Y-78740000D03*
X179070000Y-81280000D03*
X181610000Y-81280000D03*
X179070000Y-83820000D03*
X181610000Y-83820000D03*
X179070000Y-86360000D03*
X181610000Y-86360000D03*
X179070000Y-88900000D03*
X181610000Y-88900000D03*
X179070000Y-91440000D03*
X181610000Y-91440000D03*
X179070000Y-93980000D03*
X181610000Y-93980000D03*
X179070000Y-96520000D03*
X181610000Y-96520000D03*
X179070000Y-99060000D03*
X181610000Y-99060000D03*
X179070000Y-101600000D03*
X181610000Y-101600000D03*
X179070000Y-104140000D03*
X181610000Y-104140000D03*
X179070000Y-106680000D03*
X181610000Y-106680000D03*
X179070000Y-109220000D03*
X181610000Y-109220000D03*
X179070000Y-111760000D03*
X181610000Y-111760000D03*
X179070000Y-114300000D03*
X181610000Y-114300000D03*
D16*
X98298000Y-128524000D03*
X98298000Y-133404000D03*
M02*
