G04 #@! TF.GenerationSoftware,KiCad,Pcbnew,(5.1.9-0-10_14)*
G04 #@! TF.CreationDate,2021-04-09T12:46:09-05:00*
G04 #@! TF.ProjectId,Backplane,4261636b-706c-4616-9e65-2e6b69636164,1*
G04 #@! TF.SameCoordinates,Original*
G04 #@! TF.FileFunction,Paste,Top*
G04 #@! TF.FilePolarity,Positive*
%FSLAX46Y46*%
G04 Gerber Fmt 4.6, Leading zero omitted, Abs format (unit mm)*
G04 Created by KiCad (PCBNEW (5.1.9-0-10_14)) date 2021-04-09 12:46:09*
%MOMM*%
%LPD*%
G01*
G04 APERTURE LIST*
%ADD10R,1.000000X0.750000*%
%ADD11R,0.700000X1.150000*%
%ADD12R,0.800000X1.150000*%
%ADD13R,0.900000X1.150000*%
G04 APERTURE END LIST*
D10*
X155400000Y-146909000D03*
X149400000Y-146909000D03*
X155400000Y-143159000D03*
X149400000Y-143159000D03*
D11*
X167676000Y-143256000D03*
X166676000Y-143256000D03*
D12*
X165656000Y-143256000D03*
X168696000Y-143256000D03*
D13*
X164426000Y-143256000D03*
X169926000Y-143256000D03*
G36*
G01*
X108933000Y-64762000D02*
X107983000Y-64762000D01*
G75*
G02*
X107733000Y-64512000I0J250000D01*
G01*
X107733000Y-64012000D01*
G75*
G02*
X107983000Y-63762000I250000J0D01*
G01*
X108933000Y-63762000D01*
G75*
G02*
X109183000Y-64012000I0J-250000D01*
G01*
X109183000Y-64512000D01*
G75*
G02*
X108933000Y-64762000I-250000J0D01*
G01*
G37*
G36*
G01*
X108933000Y-62862000D02*
X107983000Y-62862000D01*
G75*
G02*
X107733000Y-62612000I0J250000D01*
G01*
X107733000Y-62112000D01*
G75*
G02*
X107983000Y-61862000I250000J0D01*
G01*
X108933000Y-61862000D01*
G75*
G02*
X109183000Y-62112000I0J-250000D01*
G01*
X109183000Y-62612000D01*
G75*
G02*
X108933000Y-62862000I-250000J0D01*
G01*
G37*
G36*
G01*
X101714000Y-121191000D02*
X101714000Y-122141000D01*
G75*
G02*
X101464000Y-122391000I-250000J0D01*
G01*
X100964000Y-122391000D01*
G75*
G02*
X100714000Y-122141000I0J250000D01*
G01*
X100714000Y-121191000D01*
G75*
G02*
X100964000Y-120941000I250000J0D01*
G01*
X101464000Y-120941000D01*
G75*
G02*
X101714000Y-121191000I0J-250000D01*
G01*
G37*
G36*
G01*
X99814000Y-121191000D02*
X99814000Y-122141000D01*
G75*
G02*
X99564000Y-122391000I-250000J0D01*
G01*
X99064000Y-122391000D01*
G75*
G02*
X98814000Y-122141000I0J250000D01*
G01*
X98814000Y-121191000D01*
G75*
G02*
X99064000Y-120941000I250000J0D01*
G01*
X99564000Y-120941000D01*
G75*
G02*
X99814000Y-121191000I0J-250000D01*
G01*
G37*
G36*
G01*
X118224000Y-58199000D02*
X118224000Y-59149000D01*
G75*
G02*
X117974000Y-59399000I-250000J0D01*
G01*
X117474000Y-59399000D01*
G75*
G02*
X117224000Y-59149000I0J250000D01*
G01*
X117224000Y-58199000D01*
G75*
G02*
X117474000Y-57949000I250000J0D01*
G01*
X117974000Y-57949000D01*
G75*
G02*
X118224000Y-58199000I0J-250000D01*
G01*
G37*
G36*
G01*
X116324000Y-58199000D02*
X116324000Y-59149000D01*
G75*
G02*
X116074000Y-59399000I-250000J0D01*
G01*
X115574000Y-59399000D01*
G75*
G02*
X115324000Y-59149000I0J250000D01*
G01*
X115324000Y-58199000D01*
G75*
G02*
X115574000Y-57949000I250000J0D01*
G01*
X116074000Y-57949000D01*
G75*
G02*
X116324000Y-58199000I0J-250000D01*
G01*
G37*
G36*
G01*
X118224000Y-121191000D02*
X118224000Y-122141000D01*
G75*
G02*
X117974000Y-122391000I-250000J0D01*
G01*
X117474000Y-122391000D01*
G75*
G02*
X117224000Y-122141000I0J250000D01*
G01*
X117224000Y-121191000D01*
G75*
G02*
X117474000Y-120941000I250000J0D01*
G01*
X117974000Y-120941000D01*
G75*
G02*
X118224000Y-121191000I0J-250000D01*
G01*
G37*
G36*
G01*
X116324000Y-121191000D02*
X116324000Y-122141000D01*
G75*
G02*
X116074000Y-122391000I-250000J0D01*
G01*
X115574000Y-122391000D01*
G75*
G02*
X115324000Y-122141000I0J250000D01*
G01*
X115324000Y-121191000D01*
G75*
G02*
X115574000Y-120941000I250000J0D01*
G01*
X116074000Y-120941000D01*
G75*
G02*
X116324000Y-121191000I0J-250000D01*
G01*
G37*
G36*
G01*
X108171000Y-132072000D02*
X107221000Y-132072000D01*
G75*
G02*
X106971000Y-131822000I0J250000D01*
G01*
X106971000Y-131322000D01*
G75*
G02*
X107221000Y-131072000I250000J0D01*
G01*
X108171000Y-131072000D01*
G75*
G02*
X108421000Y-131322000I0J-250000D01*
G01*
X108421000Y-131822000D01*
G75*
G02*
X108171000Y-132072000I-250000J0D01*
G01*
G37*
G36*
G01*
X108171000Y-130172000D02*
X107221000Y-130172000D01*
G75*
G02*
X106971000Y-129922000I0J250000D01*
G01*
X106971000Y-129422000D01*
G75*
G02*
X107221000Y-129172000I250000J0D01*
G01*
X108171000Y-129172000D01*
G75*
G02*
X108421000Y-129422000I0J-250000D01*
G01*
X108421000Y-129922000D01*
G75*
G02*
X108171000Y-130172000I-250000J0D01*
G01*
G37*
G36*
G01*
X115456000Y-141191000D02*
X115456000Y-140241000D01*
G75*
G02*
X115706000Y-139991000I250000J0D01*
G01*
X116206000Y-139991000D01*
G75*
G02*
X116456000Y-140241000I0J-250000D01*
G01*
X116456000Y-141191000D01*
G75*
G02*
X116206000Y-141441000I-250000J0D01*
G01*
X115706000Y-141441000D01*
G75*
G02*
X115456000Y-141191000I0J250000D01*
G01*
G37*
G36*
G01*
X117356000Y-141191000D02*
X117356000Y-140241000D01*
G75*
G02*
X117606000Y-139991000I250000J0D01*
G01*
X118106000Y-139991000D01*
G75*
G02*
X118356000Y-140241000I0J-250000D01*
G01*
X118356000Y-141191000D01*
G75*
G02*
X118106000Y-141441000I-250000J0D01*
G01*
X117606000Y-141441000D01*
G75*
G02*
X117356000Y-141191000I0J250000D01*
G01*
G37*
G36*
G01*
X134612000Y-58199000D02*
X134612000Y-59149000D01*
G75*
G02*
X134362000Y-59399000I-250000J0D01*
G01*
X133862000Y-59399000D01*
G75*
G02*
X133612000Y-59149000I0J250000D01*
G01*
X133612000Y-58199000D01*
G75*
G02*
X133862000Y-57949000I250000J0D01*
G01*
X134362000Y-57949000D01*
G75*
G02*
X134612000Y-58199000I0J-250000D01*
G01*
G37*
G36*
G01*
X132712000Y-58199000D02*
X132712000Y-59149000D01*
G75*
G02*
X132462000Y-59399000I-250000J0D01*
G01*
X131962000Y-59399000D01*
G75*
G02*
X131712000Y-59149000I0J250000D01*
G01*
X131712000Y-58199000D01*
G75*
G02*
X131962000Y-57949000I250000J0D01*
G01*
X132462000Y-57949000D01*
G75*
G02*
X132712000Y-58199000I0J-250000D01*
G01*
G37*
G36*
G01*
X134734000Y-121191000D02*
X134734000Y-122141000D01*
G75*
G02*
X134484000Y-122391000I-250000J0D01*
G01*
X133984000Y-122391000D01*
G75*
G02*
X133734000Y-122141000I0J250000D01*
G01*
X133734000Y-121191000D01*
G75*
G02*
X133984000Y-120941000I250000J0D01*
G01*
X134484000Y-120941000D01*
G75*
G02*
X134734000Y-121191000I0J-250000D01*
G01*
G37*
G36*
G01*
X132834000Y-121191000D02*
X132834000Y-122141000D01*
G75*
G02*
X132584000Y-122391000I-250000J0D01*
G01*
X132084000Y-122391000D01*
G75*
G02*
X131834000Y-122141000I0J250000D01*
G01*
X131834000Y-121191000D01*
G75*
G02*
X132084000Y-120941000I250000J0D01*
G01*
X132584000Y-120941000D01*
G75*
G02*
X132834000Y-121191000I0J-250000D01*
G01*
G37*
G36*
G01*
X151376000Y-58199000D02*
X151376000Y-59149000D01*
G75*
G02*
X151126000Y-59399000I-250000J0D01*
G01*
X150626000Y-59399000D01*
G75*
G02*
X150376000Y-59149000I0J250000D01*
G01*
X150376000Y-58199000D01*
G75*
G02*
X150626000Y-57949000I250000J0D01*
G01*
X151126000Y-57949000D01*
G75*
G02*
X151376000Y-58199000I0J-250000D01*
G01*
G37*
G36*
G01*
X149476000Y-58199000D02*
X149476000Y-59149000D01*
G75*
G02*
X149226000Y-59399000I-250000J0D01*
G01*
X148726000Y-59399000D01*
G75*
G02*
X148476000Y-59149000I0J250000D01*
G01*
X148476000Y-58199000D01*
G75*
G02*
X148726000Y-57949000I250000J0D01*
G01*
X149226000Y-57949000D01*
G75*
G02*
X149476000Y-58199000I0J-250000D01*
G01*
G37*
G36*
G01*
X151376000Y-121191000D02*
X151376000Y-122141000D01*
G75*
G02*
X151126000Y-122391000I-250000J0D01*
G01*
X150626000Y-122391000D01*
G75*
G02*
X150376000Y-122141000I0J250000D01*
G01*
X150376000Y-121191000D01*
G75*
G02*
X150626000Y-120941000I250000J0D01*
G01*
X151126000Y-120941000D01*
G75*
G02*
X151376000Y-121191000I0J-250000D01*
G01*
G37*
G36*
G01*
X149476000Y-121191000D02*
X149476000Y-122141000D01*
G75*
G02*
X149226000Y-122391000I-250000J0D01*
G01*
X148726000Y-122391000D01*
G75*
G02*
X148476000Y-122141000I0J250000D01*
G01*
X148476000Y-121191000D01*
G75*
G02*
X148726000Y-120941000I250000J0D01*
G01*
X149226000Y-120941000D01*
G75*
G02*
X149476000Y-121191000I0J-250000D01*
G01*
G37*
G36*
G01*
X134587000Y-133596000D02*
X133637000Y-133596000D01*
G75*
G02*
X133387000Y-133346000I0J250000D01*
G01*
X133387000Y-132846000D01*
G75*
G02*
X133637000Y-132596000I250000J0D01*
G01*
X134587000Y-132596000D01*
G75*
G02*
X134837000Y-132846000I0J-250000D01*
G01*
X134837000Y-133346000D01*
G75*
G02*
X134587000Y-133596000I-250000J0D01*
G01*
G37*
G36*
G01*
X134587000Y-131696000D02*
X133637000Y-131696000D01*
G75*
G02*
X133387000Y-131446000I0J250000D01*
G01*
X133387000Y-130946000D01*
G75*
G02*
X133637000Y-130696000I250000J0D01*
G01*
X134587000Y-130696000D01*
G75*
G02*
X134837000Y-130946000I0J-250000D01*
G01*
X134837000Y-131446000D01*
G75*
G02*
X134587000Y-131696000I-250000J0D01*
G01*
G37*
G36*
G01*
X143248000Y-126779000D02*
X143248000Y-127729000D01*
G75*
G02*
X142998000Y-127979000I-250000J0D01*
G01*
X142498000Y-127979000D01*
G75*
G02*
X142248000Y-127729000I0J250000D01*
G01*
X142248000Y-126779000D01*
G75*
G02*
X142498000Y-126529000I250000J0D01*
G01*
X142998000Y-126529000D01*
G75*
G02*
X143248000Y-126779000I0J-250000D01*
G01*
G37*
G36*
G01*
X141348000Y-126779000D02*
X141348000Y-127729000D01*
G75*
G02*
X141098000Y-127979000I-250000J0D01*
G01*
X140598000Y-127979000D01*
G75*
G02*
X140348000Y-127729000I0J250000D01*
G01*
X140348000Y-126779000D01*
G75*
G02*
X140598000Y-126529000I250000J0D01*
G01*
X141098000Y-126529000D01*
G75*
G02*
X141348000Y-126779000I0J-250000D01*
G01*
G37*
G36*
G01*
X157767000Y-61862000D02*
X158717000Y-61862000D01*
G75*
G02*
X158967000Y-62112000I0J-250000D01*
G01*
X158967000Y-62612000D01*
G75*
G02*
X158717000Y-62862000I-250000J0D01*
G01*
X157767000Y-62862000D01*
G75*
G02*
X157517000Y-62612000I0J250000D01*
G01*
X157517000Y-62112000D01*
G75*
G02*
X157767000Y-61862000I250000J0D01*
G01*
G37*
G36*
G01*
X157767000Y-63762000D02*
X158717000Y-63762000D01*
G75*
G02*
X158967000Y-64012000I0J-250000D01*
G01*
X158967000Y-64512000D01*
G75*
G02*
X158717000Y-64762000I-250000J0D01*
G01*
X157767000Y-64762000D01*
G75*
G02*
X157517000Y-64512000I0J250000D01*
G01*
X157517000Y-64012000D01*
G75*
G02*
X157767000Y-63762000I250000J0D01*
G01*
G37*
G36*
G01*
X167886000Y-121191000D02*
X167886000Y-122141000D01*
G75*
G02*
X167636000Y-122391000I-250000J0D01*
G01*
X167136000Y-122391000D01*
G75*
G02*
X166886000Y-122141000I0J250000D01*
G01*
X166886000Y-121191000D01*
G75*
G02*
X167136000Y-120941000I250000J0D01*
G01*
X167636000Y-120941000D01*
G75*
G02*
X167886000Y-121191000I0J-250000D01*
G01*
G37*
G36*
G01*
X165986000Y-121191000D02*
X165986000Y-122141000D01*
G75*
G02*
X165736000Y-122391000I-250000J0D01*
G01*
X165236000Y-122391000D01*
G75*
G02*
X164986000Y-122141000I0J250000D01*
G01*
X164986000Y-121191000D01*
G75*
G02*
X165236000Y-120941000I250000J0D01*
G01*
X165736000Y-120941000D01*
G75*
G02*
X165986000Y-121191000I0J-250000D01*
G01*
G37*
G36*
G01*
X181856000Y-61247000D02*
X181856000Y-62197000D01*
G75*
G02*
X181606000Y-62447000I-250000J0D01*
G01*
X181106000Y-62447000D01*
G75*
G02*
X180856000Y-62197000I0J250000D01*
G01*
X180856000Y-61247000D01*
G75*
G02*
X181106000Y-60997000I250000J0D01*
G01*
X181606000Y-60997000D01*
G75*
G02*
X181856000Y-61247000I0J-250000D01*
G01*
G37*
G36*
G01*
X179956000Y-61247000D02*
X179956000Y-62197000D01*
G75*
G02*
X179706000Y-62447000I-250000J0D01*
G01*
X179206000Y-62447000D01*
G75*
G02*
X178956000Y-62197000I0J250000D01*
G01*
X178956000Y-61247000D01*
G75*
G02*
X179206000Y-60997000I250000J0D01*
G01*
X179706000Y-60997000D01*
G75*
G02*
X179956000Y-61247000I0J-250000D01*
G01*
G37*
G36*
G01*
X181856000Y-118143000D02*
X181856000Y-119093000D01*
G75*
G02*
X181606000Y-119343000I-250000J0D01*
G01*
X181106000Y-119343000D01*
G75*
G02*
X180856000Y-119093000I0J250000D01*
G01*
X180856000Y-118143000D01*
G75*
G02*
X181106000Y-117893000I250000J0D01*
G01*
X181606000Y-117893000D01*
G75*
G02*
X181856000Y-118143000I0J-250000D01*
G01*
G37*
G36*
G01*
X179956000Y-118143000D02*
X179956000Y-119093000D01*
G75*
G02*
X179706000Y-119343000I-250000J0D01*
G01*
X179206000Y-119343000D01*
G75*
G02*
X178956000Y-119093000I0J250000D01*
G01*
X178956000Y-118143000D01*
G75*
G02*
X179206000Y-117893000I250000J0D01*
G01*
X179706000Y-117893000D01*
G75*
G02*
X179956000Y-118143000I0J-250000D01*
G01*
G37*
G36*
G01*
X108001750Y-55997500D02*
X108914250Y-55997500D01*
G75*
G02*
X109158000Y-56241250I0J-243750D01*
G01*
X109158000Y-56728750D01*
G75*
G02*
X108914250Y-56972500I-243750J0D01*
G01*
X108001750Y-56972500D01*
G75*
G02*
X107758000Y-56728750I0J243750D01*
G01*
X107758000Y-56241250D01*
G75*
G02*
X108001750Y-55997500I243750J0D01*
G01*
G37*
G36*
G01*
X108001750Y-54122500D02*
X108914250Y-54122500D01*
G75*
G02*
X109158000Y-54366250I0J-243750D01*
G01*
X109158000Y-54853750D01*
G75*
G02*
X108914250Y-55097500I-243750J0D01*
G01*
X108001750Y-55097500D01*
G75*
G02*
X107758000Y-54853750I0J243750D01*
G01*
X107758000Y-54366250D01*
G75*
G02*
X108001750Y-54122500I243750J0D01*
G01*
G37*
G36*
G01*
X168713999Y-136393500D02*
X169614001Y-136393500D01*
G75*
G02*
X169864000Y-136643499I0J-249999D01*
G01*
X169864000Y-137168501D01*
G75*
G02*
X169614001Y-137418500I-249999J0D01*
G01*
X168713999Y-137418500D01*
G75*
G02*
X168464000Y-137168501I0J249999D01*
G01*
X168464000Y-136643499D01*
G75*
G02*
X168713999Y-136393500I249999J0D01*
G01*
G37*
G36*
G01*
X168713999Y-138218500D02*
X169614001Y-138218500D01*
G75*
G02*
X169864000Y-138468499I0J-249999D01*
G01*
X169864000Y-138993501D01*
G75*
G02*
X169614001Y-139243500I-249999J0D01*
G01*
X168713999Y-139243500D01*
G75*
G02*
X168464000Y-138993501I0J249999D01*
G01*
X168464000Y-138468499D01*
G75*
G02*
X168713999Y-138218500I249999J0D01*
G01*
G37*
G36*
G01*
X164395999Y-136393500D02*
X165296001Y-136393500D01*
G75*
G02*
X165546000Y-136643499I0J-249999D01*
G01*
X165546000Y-137168501D01*
G75*
G02*
X165296001Y-137418500I-249999J0D01*
G01*
X164395999Y-137418500D01*
G75*
G02*
X164146000Y-137168501I0J249999D01*
G01*
X164146000Y-136643499D01*
G75*
G02*
X164395999Y-136393500I249999J0D01*
G01*
G37*
G36*
G01*
X164395999Y-138218500D02*
X165296001Y-138218500D01*
G75*
G02*
X165546000Y-138468499I0J-249999D01*
G01*
X165546000Y-138993501D01*
G75*
G02*
X165296001Y-139243500I-249999J0D01*
G01*
X164395999Y-139243500D01*
G75*
G02*
X164146000Y-138993501I0J249999D01*
G01*
X164146000Y-138468499D01*
G75*
G02*
X164395999Y-138218500I249999J0D01*
G01*
G37*
G36*
G01*
X107245999Y-124408500D02*
X108146001Y-124408500D01*
G75*
G02*
X108396000Y-124658499I0J-249999D01*
G01*
X108396000Y-125183501D01*
G75*
G02*
X108146001Y-125433500I-249999J0D01*
G01*
X107245999Y-125433500D01*
G75*
G02*
X106996000Y-125183501I0J249999D01*
G01*
X106996000Y-124658499D01*
G75*
G02*
X107245999Y-124408500I249999J0D01*
G01*
G37*
G36*
G01*
X107245999Y-126233500D02*
X108146001Y-126233500D01*
G75*
G02*
X108396000Y-126483499I0J-249999D01*
G01*
X108396000Y-127008501D01*
G75*
G02*
X108146001Y-127258500I-249999J0D01*
G01*
X107245999Y-127258500D01*
G75*
G02*
X106996000Y-127008501I0J249999D01*
G01*
X106996000Y-126483499D01*
G75*
G02*
X107245999Y-126233500I249999J0D01*
G01*
G37*
G36*
G01*
X104590001Y-56947500D02*
X103689999Y-56947500D01*
G75*
G02*
X103440000Y-56697501I0J249999D01*
G01*
X103440000Y-56172499D01*
G75*
G02*
X103689999Y-55922500I249999J0D01*
G01*
X104590001Y-55922500D01*
G75*
G02*
X104840000Y-56172499I0J-249999D01*
G01*
X104840000Y-56697501D01*
G75*
G02*
X104590001Y-56947500I-249999J0D01*
G01*
G37*
G36*
G01*
X104590001Y-55122500D02*
X103689999Y-55122500D01*
G75*
G02*
X103440000Y-54872501I0J249999D01*
G01*
X103440000Y-54347499D01*
G75*
G02*
X103689999Y-54097500I249999J0D01*
G01*
X104590001Y-54097500D01*
G75*
G02*
X104840000Y-54347499I0J-249999D01*
G01*
X104840000Y-54872501D01*
G75*
G02*
X104590001Y-55122500I-249999J0D01*
G01*
G37*
G36*
G01*
X107245999Y-134060500D02*
X108146001Y-134060500D01*
G75*
G02*
X108396000Y-134310499I0J-249999D01*
G01*
X108396000Y-134835501D01*
G75*
G02*
X108146001Y-135085500I-249999J0D01*
G01*
X107245999Y-135085500D01*
G75*
G02*
X106996000Y-134835501I0J249999D01*
G01*
X106996000Y-134310499D01*
G75*
G02*
X107245999Y-134060500I249999J0D01*
G01*
G37*
G36*
G01*
X107245999Y-135885500D02*
X108146001Y-135885500D01*
G75*
G02*
X108396000Y-136135499I0J-249999D01*
G01*
X108396000Y-136660501D01*
G75*
G02*
X108146001Y-136910500I-249999J0D01*
G01*
X107245999Y-136910500D01*
G75*
G02*
X106996000Y-136660501I0J249999D01*
G01*
X106996000Y-136135499D01*
G75*
G02*
X107245999Y-135885500I249999J0D01*
G01*
G37*
G36*
G01*
X133661999Y-136346500D02*
X134562001Y-136346500D01*
G75*
G02*
X134812000Y-136596499I0J-249999D01*
G01*
X134812000Y-137121501D01*
G75*
G02*
X134562001Y-137371500I-249999J0D01*
G01*
X133661999Y-137371500D01*
G75*
G02*
X133412000Y-137121501I0J249999D01*
G01*
X133412000Y-136596499D01*
G75*
G02*
X133661999Y-136346500I249999J0D01*
G01*
G37*
G36*
G01*
X133661999Y-138171500D02*
X134562001Y-138171500D01*
G75*
G02*
X134812000Y-138421499I0J-249999D01*
G01*
X134812000Y-138946501D01*
G75*
G02*
X134562001Y-139196500I-249999J0D01*
G01*
X133661999Y-139196500D01*
G75*
G02*
X133412000Y-138946501I0J249999D01*
G01*
X133412000Y-138421499D01*
G75*
G02*
X133661999Y-138171500I249999J0D01*
G01*
G37*
G36*
G01*
X149802001Y-133655500D02*
X148901999Y-133655500D01*
G75*
G02*
X148652000Y-133405501I0J249999D01*
G01*
X148652000Y-132880499D01*
G75*
G02*
X148901999Y-132630500I249999J0D01*
G01*
X149802001Y-132630500D01*
G75*
G02*
X150052000Y-132880499I0J-249999D01*
G01*
X150052000Y-133405501D01*
G75*
G02*
X149802001Y-133655500I-249999J0D01*
G01*
G37*
G36*
G01*
X149802001Y-131830500D02*
X148901999Y-131830500D01*
G75*
G02*
X148652000Y-131580501I0J249999D01*
G01*
X148652000Y-131055499D01*
G75*
G02*
X148901999Y-130805500I249999J0D01*
G01*
X149802001Y-130805500D01*
G75*
G02*
X150052000Y-131055499I0J-249999D01*
G01*
X150052000Y-131580501D01*
G75*
G02*
X149802001Y-131830500I-249999J0D01*
G01*
G37*
G36*
G01*
X124003500Y-140265999D02*
X124003500Y-141166001D01*
G75*
G02*
X123753501Y-141416000I-249999J0D01*
G01*
X123228499Y-141416000D01*
G75*
G02*
X122978500Y-141166001I0J249999D01*
G01*
X122978500Y-140265999D01*
G75*
G02*
X123228499Y-140016000I249999J0D01*
G01*
X123753501Y-140016000D01*
G75*
G02*
X124003500Y-140265999I0J-249999D01*
G01*
G37*
G36*
G01*
X122178500Y-140265999D02*
X122178500Y-141166001D01*
G75*
G02*
X121928501Y-141416000I-249999J0D01*
G01*
X121403499Y-141416000D01*
G75*
G02*
X121153500Y-141166001I0J249999D01*
G01*
X121153500Y-140265999D01*
G75*
G02*
X121403499Y-140016000I249999J0D01*
G01*
X121928501Y-140016000D01*
G75*
G02*
X122178500Y-140265999I0J-249999D01*
G01*
G37*
G36*
G01*
X113325000Y-128674000D02*
X113325000Y-128374000D01*
G75*
G02*
X113475000Y-128224000I150000J0D01*
G01*
X115125000Y-128224000D01*
G75*
G02*
X115275000Y-128374000I0J-150000D01*
G01*
X115275000Y-128674000D01*
G75*
G02*
X115125000Y-128824000I-150000J0D01*
G01*
X113475000Y-128824000D01*
G75*
G02*
X113325000Y-128674000I0J150000D01*
G01*
G37*
G36*
G01*
X113325000Y-129944000D02*
X113325000Y-129644000D01*
G75*
G02*
X113475000Y-129494000I150000J0D01*
G01*
X115125000Y-129494000D01*
G75*
G02*
X115275000Y-129644000I0J-150000D01*
G01*
X115275000Y-129944000D01*
G75*
G02*
X115125000Y-130094000I-150000J0D01*
G01*
X113475000Y-130094000D01*
G75*
G02*
X113325000Y-129944000I0J150000D01*
G01*
G37*
G36*
G01*
X113325000Y-131214000D02*
X113325000Y-130914000D01*
G75*
G02*
X113475000Y-130764000I150000J0D01*
G01*
X115125000Y-130764000D01*
G75*
G02*
X115275000Y-130914000I0J-150000D01*
G01*
X115275000Y-131214000D01*
G75*
G02*
X115125000Y-131364000I-150000J0D01*
G01*
X113475000Y-131364000D01*
G75*
G02*
X113325000Y-131214000I0J150000D01*
G01*
G37*
G36*
G01*
X113325000Y-132484000D02*
X113325000Y-132184000D01*
G75*
G02*
X113475000Y-132034000I150000J0D01*
G01*
X115125000Y-132034000D01*
G75*
G02*
X115275000Y-132184000I0J-150000D01*
G01*
X115275000Y-132484000D01*
G75*
G02*
X115125000Y-132634000I-150000J0D01*
G01*
X113475000Y-132634000D01*
G75*
G02*
X113325000Y-132484000I0J150000D01*
G01*
G37*
G36*
G01*
X113325000Y-133754000D02*
X113325000Y-133454000D01*
G75*
G02*
X113475000Y-133304000I150000J0D01*
G01*
X115125000Y-133304000D01*
G75*
G02*
X115275000Y-133454000I0J-150000D01*
G01*
X115275000Y-133754000D01*
G75*
G02*
X115125000Y-133904000I-150000J0D01*
G01*
X113475000Y-133904000D01*
G75*
G02*
X113325000Y-133754000I0J150000D01*
G01*
G37*
G36*
G01*
X113325000Y-135024000D02*
X113325000Y-134724000D01*
G75*
G02*
X113475000Y-134574000I150000J0D01*
G01*
X115125000Y-134574000D01*
G75*
G02*
X115275000Y-134724000I0J-150000D01*
G01*
X115275000Y-135024000D01*
G75*
G02*
X115125000Y-135174000I-150000J0D01*
G01*
X113475000Y-135174000D01*
G75*
G02*
X113325000Y-135024000I0J150000D01*
G01*
G37*
G36*
G01*
X113325000Y-136294000D02*
X113325000Y-135994000D01*
G75*
G02*
X113475000Y-135844000I150000J0D01*
G01*
X115125000Y-135844000D01*
G75*
G02*
X115275000Y-135994000I0J-150000D01*
G01*
X115275000Y-136294000D01*
G75*
G02*
X115125000Y-136444000I-150000J0D01*
G01*
X113475000Y-136444000D01*
G75*
G02*
X113325000Y-136294000I0J150000D01*
G01*
G37*
G36*
G01*
X118275000Y-136294000D02*
X118275000Y-135994000D01*
G75*
G02*
X118425000Y-135844000I150000J0D01*
G01*
X120075000Y-135844000D01*
G75*
G02*
X120225000Y-135994000I0J-150000D01*
G01*
X120225000Y-136294000D01*
G75*
G02*
X120075000Y-136444000I-150000J0D01*
G01*
X118425000Y-136444000D01*
G75*
G02*
X118275000Y-136294000I0J150000D01*
G01*
G37*
G36*
G01*
X118275000Y-135024000D02*
X118275000Y-134724000D01*
G75*
G02*
X118425000Y-134574000I150000J0D01*
G01*
X120075000Y-134574000D01*
G75*
G02*
X120225000Y-134724000I0J-150000D01*
G01*
X120225000Y-135024000D01*
G75*
G02*
X120075000Y-135174000I-150000J0D01*
G01*
X118425000Y-135174000D01*
G75*
G02*
X118275000Y-135024000I0J150000D01*
G01*
G37*
G36*
G01*
X118275000Y-133754000D02*
X118275000Y-133454000D01*
G75*
G02*
X118425000Y-133304000I150000J0D01*
G01*
X120075000Y-133304000D01*
G75*
G02*
X120225000Y-133454000I0J-150000D01*
G01*
X120225000Y-133754000D01*
G75*
G02*
X120075000Y-133904000I-150000J0D01*
G01*
X118425000Y-133904000D01*
G75*
G02*
X118275000Y-133754000I0J150000D01*
G01*
G37*
G36*
G01*
X118275000Y-132484000D02*
X118275000Y-132184000D01*
G75*
G02*
X118425000Y-132034000I150000J0D01*
G01*
X120075000Y-132034000D01*
G75*
G02*
X120225000Y-132184000I0J-150000D01*
G01*
X120225000Y-132484000D01*
G75*
G02*
X120075000Y-132634000I-150000J0D01*
G01*
X118425000Y-132634000D01*
G75*
G02*
X118275000Y-132484000I0J150000D01*
G01*
G37*
G36*
G01*
X118275000Y-131214000D02*
X118275000Y-130914000D01*
G75*
G02*
X118425000Y-130764000I150000J0D01*
G01*
X120075000Y-130764000D01*
G75*
G02*
X120225000Y-130914000I0J-150000D01*
G01*
X120225000Y-131214000D01*
G75*
G02*
X120075000Y-131364000I-150000J0D01*
G01*
X118425000Y-131364000D01*
G75*
G02*
X118275000Y-131214000I0J150000D01*
G01*
G37*
G36*
G01*
X118275000Y-129944000D02*
X118275000Y-129644000D01*
G75*
G02*
X118425000Y-129494000I150000J0D01*
G01*
X120075000Y-129494000D01*
G75*
G02*
X120225000Y-129644000I0J-150000D01*
G01*
X120225000Y-129944000D01*
G75*
G02*
X120075000Y-130094000I-150000J0D01*
G01*
X118425000Y-130094000D01*
G75*
G02*
X118275000Y-129944000I0J150000D01*
G01*
G37*
G36*
G01*
X118275000Y-128674000D02*
X118275000Y-128374000D01*
G75*
G02*
X118425000Y-128224000I150000J0D01*
G01*
X120075000Y-128224000D01*
G75*
G02*
X120225000Y-128374000I0J-150000D01*
G01*
X120225000Y-128674000D01*
G75*
G02*
X120075000Y-128824000I-150000J0D01*
G01*
X118425000Y-128824000D01*
G75*
G02*
X118275000Y-128674000I0J150000D01*
G01*
G37*
G36*
G01*
X138347000Y-131468000D02*
X138347000Y-131168000D01*
G75*
G02*
X138497000Y-131018000I150000J0D01*
G01*
X140147000Y-131018000D01*
G75*
G02*
X140297000Y-131168000I0J-150000D01*
G01*
X140297000Y-131468000D01*
G75*
G02*
X140147000Y-131618000I-150000J0D01*
G01*
X138497000Y-131618000D01*
G75*
G02*
X138347000Y-131468000I0J150000D01*
G01*
G37*
G36*
G01*
X138347000Y-132738000D02*
X138347000Y-132438000D01*
G75*
G02*
X138497000Y-132288000I150000J0D01*
G01*
X140147000Y-132288000D01*
G75*
G02*
X140297000Y-132438000I0J-150000D01*
G01*
X140297000Y-132738000D01*
G75*
G02*
X140147000Y-132888000I-150000J0D01*
G01*
X138497000Y-132888000D01*
G75*
G02*
X138347000Y-132738000I0J150000D01*
G01*
G37*
G36*
G01*
X138347000Y-134008000D02*
X138347000Y-133708000D01*
G75*
G02*
X138497000Y-133558000I150000J0D01*
G01*
X140147000Y-133558000D01*
G75*
G02*
X140297000Y-133708000I0J-150000D01*
G01*
X140297000Y-134008000D01*
G75*
G02*
X140147000Y-134158000I-150000J0D01*
G01*
X138497000Y-134158000D01*
G75*
G02*
X138347000Y-134008000I0J150000D01*
G01*
G37*
G36*
G01*
X138347000Y-135278000D02*
X138347000Y-134978000D01*
G75*
G02*
X138497000Y-134828000I150000J0D01*
G01*
X140147000Y-134828000D01*
G75*
G02*
X140297000Y-134978000I0J-150000D01*
G01*
X140297000Y-135278000D01*
G75*
G02*
X140147000Y-135428000I-150000J0D01*
G01*
X138497000Y-135428000D01*
G75*
G02*
X138347000Y-135278000I0J150000D01*
G01*
G37*
G36*
G01*
X143297000Y-135278000D02*
X143297000Y-134978000D01*
G75*
G02*
X143447000Y-134828000I150000J0D01*
G01*
X145097000Y-134828000D01*
G75*
G02*
X145247000Y-134978000I0J-150000D01*
G01*
X145247000Y-135278000D01*
G75*
G02*
X145097000Y-135428000I-150000J0D01*
G01*
X143447000Y-135428000D01*
G75*
G02*
X143297000Y-135278000I0J150000D01*
G01*
G37*
G36*
G01*
X143297000Y-134008000D02*
X143297000Y-133708000D01*
G75*
G02*
X143447000Y-133558000I150000J0D01*
G01*
X145097000Y-133558000D01*
G75*
G02*
X145247000Y-133708000I0J-150000D01*
G01*
X145247000Y-134008000D01*
G75*
G02*
X145097000Y-134158000I-150000J0D01*
G01*
X143447000Y-134158000D01*
G75*
G02*
X143297000Y-134008000I0J150000D01*
G01*
G37*
G36*
G01*
X143297000Y-132738000D02*
X143297000Y-132438000D01*
G75*
G02*
X143447000Y-132288000I150000J0D01*
G01*
X145097000Y-132288000D01*
G75*
G02*
X145247000Y-132438000I0J-150000D01*
G01*
X145247000Y-132738000D01*
G75*
G02*
X145097000Y-132888000I-150000J0D01*
G01*
X143447000Y-132888000D01*
G75*
G02*
X143297000Y-132738000I0J150000D01*
G01*
G37*
G36*
G01*
X143297000Y-131468000D02*
X143297000Y-131168000D01*
G75*
G02*
X143447000Y-131018000I150000J0D01*
G01*
X145097000Y-131018000D01*
G75*
G02*
X145247000Y-131168000I0J-150000D01*
G01*
X145247000Y-131468000D01*
G75*
G02*
X145097000Y-131618000I-150000J0D01*
G01*
X143447000Y-131618000D01*
G75*
G02*
X143297000Y-131468000I0J150000D01*
G01*
G37*
G36*
G01*
X148701999Y-135552000D02*
X150002001Y-135552000D01*
G75*
G02*
X150252000Y-135801999I0J-249999D01*
G01*
X150252000Y-136452001D01*
G75*
G02*
X150002001Y-136702000I-249999J0D01*
G01*
X148701999Y-136702000D01*
G75*
G02*
X148452000Y-136452001I0J249999D01*
G01*
X148452000Y-135801999D01*
G75*
G02*
X148701999Y-135552000I249999J0D01*
G01*
G37*
G36*
G01*
X148701999Y-138502000D02*
X150002001Y-138502000D01*
G75*
G02*
X150252000Y-138751999I0J-249999D01*
G01*
X150252000Y-139402001D01*
G75*
G02*
X150002001Y-139652000I-249999J0D01*
G01*
X148701999Y-139652000D01*
G75*
G02*
X148452000Y-139402001I0J249999D01*
G01*
X148452000Y-138751999D01*
G75*
G02*
X148701999Y-138502000I249999J0D01*
G01*
G37*
M02*
