G04 #@! TF.GenerationSoftware,KiCad,Pcbnew,(5.1.9-0-10_14)*
G04 #@! TF.CreationDate,2021-04-09T12:46:09-05:00*
G04 #@! TF.ProjectId,Backplane,4261636b-706c-4616-9e65-2e6b69636164,1*
G04 #@! TF.SameCoordinates,Original*
G04 #@! TF.FileFunction,Soldermask,Top*
G04 #@! TF.FilePolarity,Negative*
%FSLAX46Y46*%
G04 Gerber Fmt 4.6, Leading zero omitted, Abs format (unit mm)*
G04 Created by KiCad (PCBNEW (5.1.9-0-10_14)) date 2021-04-09 12:46:09*
%MOMM*%
%LPD*%
G01*
G04 APERTURE LIST*
%ADD10R,1.000000X0.750000*%
%ADD11O,1.000000X1.800000*%
%ADD12R,0.700000X1.150000*%
%ADD13R,0.800000X1.150000*%
%ADD14R,0.900000X1.150000*%
%ADD15O,2.203200X1.703200*%
%ADD16C,3.200000*%
%ADD17O,1.700000X2.000000*%
%ADD18R,1.700000X1.700000*%
%ADD19O,1.700000X1.700000*%
%ADD20C,0.100000*%
%ADD21C,1.500000*%
G04 APERTURE END LIST*
D10*
X155400000Y-146909000D03*
X149400000Y-146909000D03*
X155400000Y-143159000D03*
X149400000Y-143159000D03*
D11*
X171496000Y-147056000D03*
X162856000Y-147056000D03*
X171496000Y-143256000D03*
X162856000Y-143256000D03*
D12*
X167676000Y-143256000D03*
X166676000Y-143256000D03*
D13*
X165656000Y-143256000D03*
X168696000Y-143256000D03*
D14*
X164426000Y-143256000D03*
X169926000Y-143256000D03*
G36*
G01*
X162830000Y-65188400D02*
X164830000Y-65188400D01*
G75*
G02*
X164931600Y-65290000I0J-101600D01*
G01*
X164931600Y-66790000D01*
G75*
G02*
X164830000Y-66891600I-101600J0D01*
G01*
X162830000Y-66891600D01*
G75*
G02*
X162728400Y-66790000I0J101600D01*
G01*
X162728400Y-65290000D01*
G75*
G02*
X162830000Y-65188400I101600J0D01*
G01*
G37*
D15*
X168681000Y-66040000D03*
X163830000Y-68580000D03*
X168681000Y-68580000D03*
X163830000Y-71120000D03*
X168681000Y-71120000D03*
X163830000Y-73660000D03*
X168681000Y-73660000D03*
X163830000Y-76200000D03*
X168681000Y-76200000D03*
X163830000Y-78740000D03*
X168681000Y-78740000D03*
X163830000Y-81280000D03*
X168681000Y-81280000D03*
X163830000Y-83820000D03*
X168681000Y-83820000D03*
X163830000Y-86360000D03*
X168681000Y-86360000D03*
X163830000Y-88900000D03*
X168681000Y-88900000D03*
X163830000Y-91440000D03*
X168681000Y-91440000D03*
X163830000Y-93980000D03*
X168681000Y-93980000D03*
X163830000Y-96520000D03*
X168681000Y-96520000D03*
X163830000Y-99060000D03*
X168681000Y-99060000D03*
X163830000Y-101600000D03*
X168681000Y-101600000D03*
X163830000Y-104140000D03*
X168681000Y-104140000D03*
X163830000Y-106680000D03*
X168681000Y-106680000D03*
X163830000Y-109220000D03*
X168681000Y-109220000D03*
X163830000Y-111760000D03*
X168681000Y-111760000D03*
X163830000Y-114300000D03*
X168681000Y-114300000D03*
G36*
G01*
X108933000Y-64762000D02*
X107983000Y-64762000D01*
G75*
G02*
X107733000Y-64512000I0J250000D01*
G01*
X107733000Y-64012000D01*
G75*
G02*
X107983000Y-63762000I250000J0D01*
G01*
X108933000Y-63762000D01*
G75*
G02*
X109183000Y-64012000I0J-250000D01*
G01*
X109183000Y-64512000D01*
G75*
G02*
X108933000Y-64762000I-250000J0D01*
G01*
G37*
G36*
G01*
X108933000Y-62862000D02*
X107983000Y-62862000D01*
G75*
G02*
X107733000Y-62612000I0J250000D01*
G01*
X107733000Y-62112000D01*
G75*
G02*
X107983000Y-61862000I250000J0D01*
G01*
X108933000Y-61862000D01*
G75*
G02*
X109183000Y-62112000I0J-250000D01*
G01*
X109183000Y-62612000D01*
G75*
G02*
X108933000Y-62862000I-250000J0D01*
G01*
G37*
G36*
G01*
X101714000Y-121191000D02*
X101714000Y-122141000D01*
G75*
G02*
X101464000Y-122391000I-250000J0D01*
G01*
X100964000Y-122391000D01*
G75*
G02*
X100714000Y-122141000I0J250000D01*
G01*
X100714000Y-121191000D01*
G75*
G02*
X100964000Y-120941000I250000J0D01*
G01*
X101464000Y-120941000D01*
G75*
G02*
X101714000Y-121191000I0J-250000D01*
G01*
G37*
G36*
G01*
X99814000Y-121191000D02*
X99814000Y-122141000D01*
G75*
G02*
X99564000Y-122391000I-250000J0D01*
G01*
X99064000Y-122391000D01*
G75*
G02*
X98814000Y-122141000I0J250000D01*
G01*
X98814000Y-121191000D01*
G75*
G02*
X99064000Y-120941000I250000J0D01*
G01*
X99564000Y-120941000D01*
G75*
G02*
X99814000Y-121191000I0J-250000D01*
G01*
G37*
G36*
G01*
X118224000Y-58199000D02*
X118224000Y-59149000D01*
G75*
G02*
X117974000Y-59399000I-250000J0D01*
G01*
X117474000Y-59399000D01*
G75*
G02*
X117224000Y-59149000I0J250000D01*
G01*
X117224000Y-58199000D01*
G75*
G02*
X117474000Y-57949000I250000J0D01*
G01*
X117974000Y-57949000D01*
G75*
G02*
X118224000Y-58199000I0J-250000D01*
G01*
G37*
G36*
G01*
X116324000Y-58199000D02*
X116324000Y-59149000D01*
G75*
G02*
X116074000Y-59399000I-250000J0D01*
G01*
X115574000Y-59399000D01*
G75*
G02*
X115324000Y-59149000I0J250000D01*
G01*
X115324000Y-58199000D01*
G75*
G02*
X115574000Y-57949000I250000J0D01*
G01*
X116074000Y-57949000D01*
G75*
G02*
X116324000Y-58199000I0J-250000D01*
G01*
G37*
G36*
G01*
X118224000Y-121191000D02*
X118224000Y-122141000D01*
G75*
G02*
X117974000Y-122391000I-250000J0D01*
G01*
X117474000Y-122391000D01*
G75*
G02*
X117224000Y-122141000I0J250000D01*
G01*
X117224000Y-121191000D01*
G75*
G02*
X117474000Y-120941000I250000J0D01*
G01*
X117974000Y-120941000D01*
G75*
G02*
X118224000Y-121191000I0J-250000D01*
G01*
G37*
G36*
G01*
X116324000Y-121191000D02*
X116324000Y-122141000D01*
G75*
G02*
X116074000Y-122391000I-250000J0D01*
G01*
X115574000Y-122391000D01*
G75*
G02*
X115324000Y-122141000I0J250000D01*
G01*
X115324000Y-121191000D01*
G75*
G02*
X115574000Y-120941000I250000J0D01*
G01*
X116074000Y-120941000D01*
G75*
G02*
X116324000Y-121191000I0J-250000D01*
G01*
G37*
G36*
G01*
X108171000Y-132072000D02*
X107221000Y-132072000D01*
G75*
G02*
X106971000Y-131822000I0J250000D01*
G01*
X106971000Y-131322000D01*
G75*
G02*
X107221000Y-131072000I250000J0D01*
G01*
X108171000Y-131072000D01*
G75*
G02*
X108421000Y-131322000I0J-250000D01*
G01*
X108421000Y-131822000D01*
G75*
G02*
X108171000Y-132072000I-250000J0D01*
G01*
G37*
G36*
G01*
X108171000Y-130172000D02*
X107221000Y-130172000D01*
G75*
G02*
X106971000Y-129922000I0J250000D01*
G01*
X106971000Y-129422000D01*
G75*
G02*
X107221000Y-129172000I250000J0D01*
G01*
X108171000Y-129172000D01*
G75*
G02*
X108421000Y-129422000I0J-250000D01*
G01*
X108421000Y-129922000D01*
G75*
G02*
X108171000Y-130172000I-250000J0D01*
G01*
G37*
G36*
G01*
X115456000Y-141191000D02*
X115456000Y-140241000D01*
G75*
G02*
X115706000Y-139991000I250000J0D01*
G01*
X116206000Y-139991000D01*
G75*
G02*
X116456000Y-140241000I0J-250000D01*
G01*
X116456000Y-141191000D01*
G75*
G02*
X116206000Y-141441000I-250000J0D01*
G01*
X115706000Y-141441000D01*
G75*
G02*
X115456000Y-141191000I0J250000D01*
G01*
G37*
G36*
G01*
X117356000Y-141191000D02*
X117356000Y-140241000D01*
G75*
G02*
X117606000Y-139991000I250000J0D01*
G01*
X118106000Y-139991000D01*
G75*
G02*
X118356000Y-140241000I0J-250000D01*
G01*
X118356000Y-141191000D01*
G75*
G02*
X118106000Y-141441000I-250000J0D01*
G01*
X117606000Y-141441000D01*
G75*
G02*
X117356000Y-141191000I0J250000D01*
G01*
G37*
G36*
G01*
X134612000Y-58199000D02*
X134612000Y-59149000D01*
G75*
G02*
X134362000Y-59399000I-250000J0D01*
G01*
X133862000Y-59399000D01*
G75*
G02*
X133612000Y-59149000I0J250000D01*
G01*
X133612000Y-58199000D01*
G75*
G02*
X133862000Y-57949000I250000J0D01*
G01*
X134362000Y-57949000D01*
G75*
G02*
X134612000Y-58199000I0J-250000D01*
G01*
G37*
G36*
G01*
X132712000Y-58199000D02*
X132712000Y-59149000D01*
G75*
G02*
X132462000Y-59399000I-250000J0D01*
G01*
X131962000Y-59399000D01*
G75*
G02*
X131712000Y-59149000I0J250000D01*
G01*
X131712000Y-58199000D01*
G75*
G02*
X131962000Y-57949000I250000J0D01*
G01*
X132462000Y-57949000D01*
G75*
G02*
X132712000Y-58199000I0J-250000D01*
G01*
G37*
G36*
G01*
X134734000Y-121191000D02*
X134734000Y-122141000D01*
G75*
G02*
X134484000Y-122391000I-250000J0D01*
G01*
X133984000Y-122391000D01*
G75*
G02*
X133734000Y-122141000I0J250000D01*
G01*
X133734000Y-121191000D01*
G75*
G02*
X133984000Y-120941000I250000J0D01*
G01*
X134484000Y-120941000D01*
G75*
G02*
X134734000Y-121191000I0J-250000D01*
G01*
G37*
G36*
G01*
X132834000Y-121191000D02*
X132834000Y-122141000D01*
G75*
G02*
X132584000Y-122391000I-250000J0D01*
G01*
X132084000Y-122391000D01*
G75*
G02*
X131834000Y-122141000I0J250000D01*
G01*
X131834000Y-121191000D01*
G75*
G02*
X132084000Y-120941000I250000J0D01*
G01*
X132584000Y-120941000D01*
G75*
G02*
X132834000Y-121191000I0J-250000D01*
G01*
G37*
G36*
G01*
X151376000Y-58199000D02*
X151376000Y-59149000D01*
G75*
G02*
X151126000Y-59399000I-250000J0D01*
G01*
X150626000Y-59399000D01*
G75*
G02*
X150376000Y-59149000I0J250000D01*
G01*
X150376000Y-58199000D01*
G75*
G02*
X150626000Y-57949000I250000J0D01*
G01*
X151126000Y-57949000D01*
G75*
G02*
X151376000Y-58199000I0J-250000D01*
G01*
G37*
G36*
G01*
X149476000Y-58199000D02*
X149476000Y-59149000D01*
G75*
G02*
X149226000Y-59399000I-250000J0D01*
G01*
X148726000Y-59399000D01*
G75*
G02*
X148476000Y-59149000I0J250000D01*
G01*
X148476000Y-58199000D01*
G75*
G02*
X148726000Y-57949000I250000J0D01*
G01*
X149226000Y-57949000D01*
G75*
G02*
X149476000Y-58199000I0J-250000D01*
G01*
G37*
G36*
G01*
X151376000Y-121191000D02*
X151376000Y-122141000D01*
G75*
G02*
X151126000Y-122391000I-250000J0D01*
G01*
X150626000Y-122391000D01*
G75*
G02*
X150376000Y-122141000I0J250000D01*
G01*
X150376000Y-121191000D01*
G75*
G02*
X150626000Y-120941000I250000J0D01*
G01*
X151126000Y-120941000D01*
G75*
G02*
X151376000Y-121191000I0J-250000D01*
G01*
G37*
G36*
G01*
X149476000Y-121191000D02*
X149476000Y-122141000D01*
G75*
G02*
X149226000Y-122391000I-250000J0D01*
G01*
X148726000Y-122391000D01*
G75*
G02*
X148476000Y-122141000I0J250000D01*
G01*
X148476000Y-121191000D01*
G75*
G02*
X148726000Y-120941000I250000J0D01*
G01*
X149226000Y-120941000D01*
G75*
G02*
X149476000Y-121191000I0J-250000D01*
G01*
G37*
G36*
G01*
X134587000Y-133596000D02*
X133637000Y-133596000D01*
G75*
G02*
X133387000Y-133346000I0J250000D01*
G01*
X133387000Y-132846000D01*
G75*
G02*
X133637000Y-132596000I250000J0D01*
G01*
X134587000Y-132596000D01*
G75*
G02*
X134837000Y-132846000I0J-250000D01*
G01*
X134837000Y-133346000D01*
G75*
G02*
X134587000Y-133596000I-250000J0D01*
G01*
G37*
G36*
G01*
X134587000Y-131696000D02*
X133637000Y-131696000D01*
G75*
G02*
X133387000Y-131446000I0J250000D01*
G01*
X133387000Y-130946000D01*
G75*
G02*
X133637000Y-130696000I250000J0D01*
G01*
X134587000Y-130696000D01*
G75*
G02*
X134837000Y-130946000I0J-250000D01*
G01*
X134837000Y-131446000D01*
G75*
G02*
X134587000Y-131696000I-250000J0D01*
G01*
G37*
G36*
G01*
X143248000Y-126779000D02*
X143248000Y-127729000D01*
G75*
G02*
X142998000Y-127979000I-250000J0D01*
G01*
X142498000Y-127979000D01*
G75*
G02*
X142248000Y-127729000I0J250000D01*
G01*
X142248000Y-126779000D01*
G75*
G02*
X142498000Y-126529000I250000J0D01*
G01*
X142998000Y-126529000D01*
G75*
G02*
X143248000Y-126779000I0J-250000D01*
G01*
G37*
G36*
G01*
X141348000Y-126779000D02*
X141348000Y-127729000D01*
G75*
G02*
X141098000Y-127979000I-250000J0D01*
G01*
X140598000Y-127979000D01*
G75*
G02*
X140348000Y-127729000I0J250000D01*
G01*
X140348000Y-126779000D01*
G75*
G02*
X140598000Y-126529000I250000J0D01*
G01*
X141098000Y-126529000D01*
G75*
G02*
X141348000Y-126779000I0J-250000D01*
G01*
G37*
G36*
G01*
X157767000Y-61862000D02*
X158717000Y-61862000D01*
G75*
G02*
X158967000Y-62112000I0J-250000D01*
G01*
X158967000Y-62612000D01*
G75*
G02*
X158717000Y-62862000I-250000J0D01*
G01*
X157767000Y-62862000D01*
G75*
G02*
X157517000Y-62612000I0J250000D01*
G01*
X157517000Y-62112000D01*
G75*
G02*
X157767000Y-61862000I250000J0D01*
G01*
G37*
G36*
G01*
X157767000Y-63762000D02*
X158717000Y-63762000D01*
G75*
G02*
X158967000Y-64012000I0J-250000D01*
G01*
X158967000Y-64512000D01*
G75*
G02*
X158717000Y-64762000I-250000J0D01*
G01*
X157767000Y-64762000D01*
G75*
G02*
X157517000Y-64512000I0J250000D01*
G01*
X157517000Y-64012000D01*
G75*
G02*
X157767000Y-63762000I250000J0D01*
G01*
G37*
G36*
G01*
X167886000Y-121191000D02*
X167886000Y-122141000D01*
G75*
G02*
X167636000Y-122391000I-250000J0D01*
G01*
X167136000Y-122391000D01*
G75*
G02*
X166886000Y-122141000I0J250000D01*
G01*
X166886000Y-121191000D01*
G75*
G02*
X167136000Y-120941000I250000J0D01*
G01*
X167636000Y-120941000D01*
G75*
G02*
X167886000Y-121191000I0J-250000D01*
G01*
G37*
G36*
G01*
X165986000Y-121191000D02*
X165986000Y-122141000D01*
G75*
G02*
X165736000Y-122391000I-250000J0D01*
G01*
X165236000Y-122391000D01*
G75*
G02*
X164986000Y-122141000I0J250000D01*
G01*
X164986000Y-121191000D01*
G75*
G02*
X165236000Y-120941000I250000J0D01*
G01*
X165736000Y-120941000D01*
G75*
G02*
X165986000Y-121191000I0J-250000D01*
G01*
G37*
G36*
G01*
X181856000Y-61247000D02*
X181856000Y-62197000D01*
G75*
G02*
X181606000Y-62447000I-250000J0D01*
G01*
X181106000Y-62447000D01*
G75*
G02*
X180856000Y-62197000I0J250000D01*
G01*
X180856000Y-61247000D01*
G75*
G02*
X181106000Y-60997000I250000J0D01*
G01*
X181606000Y-60997000D01*
G75*
G02*
X181856000Y-61247000I0J-250000D01*
G01*
G37*
G36*
G01*
X179956000Y-61247000D02*
X179956000Y-62197000D01*
G75*
G02*
X179706000Y-62447000I-250000J0D01*
G01*
X179206000Y-62447000D01*
G75*
G02*
X178956000Y-62197000I0J250000D01*
G01*
X178956000Y-61247000D01*
G75*
G02*
X179206000Y-60997000I250000J0D01*
G01*
X179706000Y-60997000D01*
G75*
G02*
X179956000Y-61247000I0J-250000D01*
G01*
G37*
G36*
G01*
X181856000Y-118143000D02*
X181856000Y-119093000D01*
G75*
G02*
X181606000Y-119343000I-250000J0D01*
G01*
X181106000Y-119343000D01*
G75*
G02*
X180856000Y-119093000I0J250000D01*
G01*
X180856000Y-118143000D01*
G75*
G02*
X181106000Y-117893000I250000J0D01*
G01*
X181606000Y-117893000D01*
G75*
G02*
X181856000Y-118143000I0J-250000D01*
G01*
G37*
G36*
G01*
X179956000Y-118143000D02*
X179956000Y-119093000D01*
G75*
G02*
X179706000Y-119343000I-250000J0D01*
G01*
X179206000Y-119343000D01*
G75*
G02*
X178956000Y-119093000I0J250000D01*
G01*
X178956000Y-118143000D01*
G75*
G02*
X179206000Y-117893000I250000J0D01*
G01*
X179706000Y-117893000D01*
G75*
G02*
X179956000Y-118143000I0J-250000D01*
G01*
G37*
G36*
G01*
X108001750Y-55997500D02*
X108914250Y-55997500D01*
G75*
G02*
X109158000Y-56241250I0J-243750D01*
G01*
X109158000Y-56728750D01*
G75*
G02*
X108914250Y-56972500I-243750J0D01*
G01*
X108001750Y-56972500D01*
G75*
G02*
X107758000Y-56728750I0J243750D01*
G01*
X107758000Y-56241250D01*
G75*
G02*
X108001750Y-55997500I243750J0D01*
G01*
G37*
G36*
G01*
X108001750Y-54122500D02*
X108914250Y-54122500D01*
G75*
G02*
X109158000Y-54366250I0J-243750D01*
G01*
X109158000Y-54853750D01*
G75*
G02*
X108914250Y-55097500I-243750J0D01*
G01*
X108001750Y-55097500D01*
G75*
G02*
X107758000Y-54853750I0J243750D01*
G01*
X107758000Y-54366250D01*
G75*
G02*
X108001750Y-54122500I243750J0D01*
G01*
G37*
D16*
X96000000Y-56000000D03*
X184000000Y-56000000D03*
X184540000Y-144860000D03*
X96000000Y-144000000D03*
G36*
G01*
X96790000Y-65148400D02*
X98790000Y-65148400D01*
G75*
G02*
X98891600Y-65250000I0J-101600D01*
G01*
X98891600Y-66750000D01*
G75*
G02*
X98790000Y-66851600I-101600J0D01*
G01*
X96790000Y-66851600D01*
G75*
G02*
X96688400Y-66750000I0J101600D01*
G01*
X96688400Y-65250000D01*
G75*
G02*
X96790000Y-65148400I101600J0D01*
G01*
G37*
D15*
X102641000Y-66000000D03*
X97790000Y-68540000D03*
X102641000Y-68540000D03*
X97790000Y-71080000D03*
X102641000Y-71080000D03*
X97790000Y-73620000D03*
X102641000Y-73620000D03*
X97790000Y-76160000D03*
X102641000Y-76160000D03*
X97790000Y-78700000D03*
X102641000Y-78700000D03*
X97790000Y-81240000D03*
X102641000Y-81240000D03*
X97790000Y-83780000D03*
X102641000Y-83780000D03*
X97790000Y-86320000D03*
X102641000Y-86320000D03*
X97790000Y-88860000D03*
X102641000Y-88860000D03*
X97790000Y-91400000D03*
X102641000Y-91400000D03*
X97790000Y-93940000D03*
X102641000Y-93940000D03*
X97790000Y-96480000D03*
X102641000Y-96480000D03*
X97790000Y-99020000D03*
X102641000Y-99020000D03*
X97790000Y-101560000D03*
X102641000Y-101560000D03*
X97790000Y-104100000D03*
X102641000Y-104100000D03*
X97790000Y-106640000D03*
X102641000Y-106640000D03*
X97790000Y-109180000D03*
X102641000Y-109180000D03*
X97790000Y-111720000D03*
X102641000Y-111720000D03*
X97790000Y-114260000D03*
X102641000Y-114260000D03*
G36*
G01*
X178474000Y-135116000D02*
X178474000Y-133616000D01*
G75*
G02*
X178724000Y-133366000I250000J0D01*
G01*
X179924000Y-133366000D01*
G75*
G02*
X180174000Y-133616000I0J-250000D01*
G01*
X180174000Y-135116000D01*
G75*
G02*
X179924000Y-135366000I-250000J0D01*
G01*
X178724000Y-135366000D01*
G75*
G02*
X178474000Y-135116000I0J250000D01*
G01*
G37*
D17*
X181824000Y-134366000D03*
G36*
G01*
X113300000Y-65188400D02*
X115300000Y-65188400D01*
G75*
G02*
X115401600Y-65290000I0J-101600D01*
G01*
X115401600Y-66790000D01*
G75*
G02*
X115300000Y-66891600I-101600J0D01*
G01*
X113300000Y-66891600D01*
G75*
G02*
X113198400Y-66790000I0J101600D01*
G01*
X113198400Y-65290000D01*
G75*
G02*
X113300000Y-65188400I101600J0D01*
G01*
G37*
D15*
X119151000Y-66040000D03*
X114300000Y-68580000D03*
X119151000Y-68580000D03*
X114300000Y-71120000D03*
X119151000Y-71120000D03*
X114300000Y-73660000D03*
X119151000Y-73660000D03*
X114300000Y-76200000D03*
X119151000Y-76200000D03*
X114300000Y-78740000D03*
X119151000Y-78740000D03*
X114300000Y-81280000D03*
X119151000Y-81280000D03*
X114300000Y-83820000D03*
X119151000Y-83820000D03*
X114300000Y-86360000D03*
X119151000Y-86360000D03*
X114300000Y-88900000D03*
X119151000Y-88900000D03*
X114300000Y-91440000D03*
X119151000Y-91440000D03*
X114300000Y-93980000D03*
X119151000Y-93980000D03*
X114300000Y-96520000D03*
X119151000Y-96520000D03*
X114300000Y-99060000D03*
X119151000Y-99060000D03*
X114300000Y-101600000D03*
X119151000Y-101600000D03*
X114300000Y-104140000D03*
X119151000Y-104140000D03*
X114300000Y-106680000D03*
X119151000Y-106680000D03*
X114300000Y-109220000D03*
X119151000Y-109220000D03*
X114300000Y-111760000D03*
X119151000Y-111760000D03*
X114300000Y-114300000D03*
X119151000Y-114300000D03*
G36*
G01*
X129810000Y-65188400D02*
X131810000Y-65188400D01*
G75*
G02*
X131911600Y-65290000I0J-101600D01*
G01*
X131911600Y-66790000D01*
G75*
G02*
X131810000Y-66891600I-101600J0D01*
G01*
X129810000Y-66891600D01*
G75*
G02*
X129708400Y-66790000I0J101600D01*
G01*
X129708400Y-65290000D01*
G75*
G02*
X129810000Y-65188400I101600J0D01*
G01*
G37*
X135661000Y-66040000D03*
X130810000Y-68580000D03*
X135661000Y-68580000D03*
X130810000Y-71120000D03*
X135661000Y-71120000D03*
X130810000Y-73660000D03*
X135661000Y-73660000D03*
X130810000Y-76200000D03*
X135661000Y-76200000D03*
X130810000Y-78740000D03*
X135661000Y-78740000D03*
X130810000Y-81280000D03*
X135661000Y-81280000D03*
X130810000Y-83820000D03*
X135661000Y-83820000D03*
X130810000Y-86360000D03*
X135661000Y-86360000D03*
X130810000Y-88900000D03*
X135661000Y-88900000D03*
X130810000Y-91440000D03*
X135661000Y-91440000D03*
X130810000Y-93980000D03*
X135661000Y-93980000D03*
X130810000Y-96520000D03*
X135661000Y-96520000D03*
X130810000Y-99060000D03*
X135661000Y-99060000D03*
X130810000Y-101600000D03*
X135661000Y-101600000D03*
X130810000Y-104140000D03*
X135661000Y-104140000D03*
X130810000Y-106680000D03*
X135661000Y-106680000D03*
X130810000Y-109220000D03*
X135661000Y-109220000D03*
X130810000Y-111760000D03*
X135661000Y-111760000D03*
X130810000Y-114300000D03*
X135661000Y-114300000D03*
G36*
G01*
X178474000Y-126988000D02*
X178474000Y-125488000D01*
G75*
G02*
X178724000Y-125238000I250000J0D01*
G01*
X179924000Y-125238000D01*
G75*
G02*
X180174000Y-125488000I0J-250000D01*
G01*
X180174000Y-126988000D01*
G75*
G02*
X179924000Y-127238000I-250000J0D01*
G01*
X178724000Y-127238000D01*
G75*
G02*
X178474000Y-126988000I0J250000D01*
G01*
G37*
D17*
X181824000Y-126238000D03*
G36*
G01*
X110832000Y-143522000D02*
X110832000Y-145022000D01*
G75*
G02*
X110582000Y-145272000I-250000J0D01*
G01*
X109382000Y-145272000D01*
G75*
G02*
X109132000Y-145022000I0J250000D01*
G01*
X109132000Y-143522000D01*
G75*
G02*
X109382000Y-143272000I250000J0D01*
G01*
X110582000Y-143272000D01*
G75*
G02*
X110832000Y-143522000I0J-250000D01*
G01*
G37*
X107482000Y-144272000D03*
G36*
G01*
X146320000Y-65188400D02*
X148320000Y-65188400D01*
G75*
G02*
X148421600Y-65290000I0J-101600D01*
G01*
X148421600Y-66790000D01*
G75*
G02*
X148320000Y-66891600I-101600J0D01*
G01*
X146320000Y-66891600D01*
G75*
G02*
X146218400Y-66790000I0J101600D01*
G01*
X146218400Y-65290000D01*
G75*
G02*
X146320000Y-65188400I101600J0D01*
G01*
G37*
D15*
X152171000Y-66040000D03*
X147320000Y-68580000D03*
X152171000Y-68580000D03*
X147320000Y-71120000D03*
X152171000Y-71120000D03*
X147320000Y-73660000D03*
X152171000Y-73660000D03*
X147320000Y-76200000D03*
X152171000Y-76200000D03*
X147320000Y-78740000D03*
X152171000Y-78740000D03*
X147320000Y-81280000D03*
X152171000Y-81280000D03*
X147320000Y-83820000D03*
X152171000Y-83820000D03*
X147320000Y-86360000D03*
X152171000Y-86360000D03*
X147320000Y-88900000D03*
X152171000Y-88900000D03*
X147320000Y-91440000D03*
X152171000Y-91440000D03*
X147320000Y-93980000D03*
X152171000Y-93980000D03*
X147320000Y-96520000D03*
X152171000Y-96520000D03*
X147320000Y-99060000D03*
X152171000Y-99060000D03*
X147320000Y-101600000D03*
X152171000Y-101600000D03*
X147320000Y-104140000D03*
X152171000Y-104140000D03*
X147320000Y-106680000D03*
X152171000Y-106680000D03*
X147320000Y-109220000D03*
X152171000Y-109220000D03*
X147320000Y-111760000D03*
X152171000Y-111760000D03*
X147320000Y-114300000D03*
X152171000Y-114300000D03*
D18*
X179070000Y-66040000D03*
D19*
X181610000Y-66040000D03*
X179070000Y-68580000D03*
X181610000Y-68580000D03*
X179070000Y-71120000D03*
X181610000Y-71120000D03*
X179070000Y-73660000D03*
X181610000Y-73660000D03*
X179070000Y-76200000D03*
X181610000Y-76200000D03*
X179070000Y-78740000D03*
X181610000Y-78740000D03*
X179070000Y-81280000D03*
X181610000Y-81280000D03*
X179070000Y-83820000D03*
X181610000Y-83820000D03*
X179070000Y-86360000D03*
X181610000Y-86360000D03*
X179070000Y-88900000D03*
X181610000Y-88900000D03*
X179070000Y-91440000D03*
X181610000Y-91440000D03*
X179070000Y-93980000D03*
X181610000Y-93980000D03*
X179070000Y-96520000D03*
X181610000Y-96520000D03*
X179070000Y-99060000D03*
X181610000Y-99060000D03*
X179070000Y-101600000D03*
X181610000Y-101600000D03*
X179070000Y-104140000D03*
X181610000Y-104140000D03*
X179070000Y-106680000D03*
X181610000Y-106680000D03*
X179070000Y-109220000D03*
X181610000Y-109220000D03*
X179070000Y-111760000D03*
X181610000Y-111760000D03*
X179070000Y-114300000D03*
X181610000Y-114300000D03*
D20*
G36*
X173978000Y-132880000D02*
G01*
X173978000Y-133380000D01*
X173977398Y-133380000D01*
X173977398Y-133404534D01*
X173972588Y-133453365D01*
X173963016Y-133501490D01*
X173948772Y-133548445D01*
X173929995Y-133593778D01*
X173906864Y-133637051D01*
X173879604Y-133677850D01*
X173848476Y-133715779D01*
X173813779Y-133750476D01*
X173775850Y-133781604D01*
X173735051Y-133808864D01*
X173691778Y-133831995D01*
X173646445Y-133850772D01*
X173599490Y-133865016D01*
X173551365Y-133874588D01*
X173502534Y-133879398D01*
X173478000Y-133879398D01*
X173478000Y-133880000D01*
X172978000Y-133880000D01*
X172978000Y-133879398D01*
X172953466Y-133879398D01*
X172904635Y-133874588D01*
X172856510Y-133865016D01*
X172809555Y-133850772D01*
X172764222Y-133831995D01*
X172720949Y-133808864D01*
X172680150Y-133781604D01*
X172642221Y-133750476D01*
X172607524Y-133715779D01*
X172576396Y-133677850D01*
X172549136Y-133637051D01*
X172526005Y-133593778D01*
X172507228Y-133548445D01*
X172492984Y-133501490D01*
X172483412Y-133453365D01*
X172478602Y-133404534D01*
X172478602Y-133380000D01*
X172478000Y-133380000D01*
X172478000Y-132880000D01*
X173978000Y-132880000D01*
G37*
G36*
X172478602Y-132080000D02*
G01*
X172478602Y-132055466D01*
X172483412Y-132006635D01*
X172492984Y-131958510D01*
X172507228Y-131911555D01*
X172526005Y-131866222D01*
X172549136Y-131822949D01*
X172576396Y-131782150D01*
X172607524Y-131744221D01*
X172642221Y-131709524D01*
X172680150Y-131678396D01*
X172720949Y-131651136D01*
X172764222Y-131628005D01*
X172809555Y-131609228D01*
X172856510Y-131594984D01*
X172904635Y-131585412D01*
X172953466Y-131580602D01*
X172978000Y-131580602D01*
X172978000Y-131580000D01*
X173478000Y-131580000D01*
X173478000Y-131580602D01*
X173502534Y-131580602D01*
X173551365Y-131585412D01*
X173599490Y-131594984D01*
X173646445Y-131609228D01*
X173691778Y-131628005D01*
X173735051Y-131651136D01*
X173775850Y-131678396D01*
X173813779Y-131709524D01*
X173848476Y-131744221D01*
X173879604Y-131782150D01*
X173906864Y-131822949D01*
X173929995Y-131866222D01*
X173948772Y-131911555D01*
X173963016Y-131958510D01*
X173972588Y-132006635D01*
X173977398Y-132055466D01*
X173977398Y-132080000D01*
X173978000Y-132080000D01*
X173978000Y-132580000D01*
X172478000Y-132580000D01*
X172478000Y-132080000D01*
X172478602Y-132080000D01*
G37*
G36*
X117589398Y-146192000D02*
G01*
X117589398Y-146216534D01*
X117584588Y-146265365D01*
X117575016Y-146313490D01*
X117560772Y-146360445D01*
X117541995Y-146405778D01*
X117518864Y-146449051D01*
X117491604Y-146489850D01*
X117460476Y-146527779D01*
X117425779Y-146562476D01*
X117387850Y-146593604D01*
X117347051Y-146620864D01*
X117303778Y-146643995D01*
X117258445Y-146662772D01*
X117211490Y-146677016D01*
X117163365Y-146686588D01*
X117114534Y-146691398D01*
X117090000Y-146691398D01*
X117090000Y-146692000D01*
X116590000Y-146692000D01*
X116590000Y-146691398D01*
X116565466Y-146691398D01*
X116516635Y-146686588D01*
X116468510Y-146677016D01*
X116421555Y-146662772D01*
X116376222Y-146643995D01*
X116332949Y-146620864D01*
X116292150Y-146593604D01*
X116254221Y-146562476D01*
X116219524Y-146527779D01*
X116188396Y-146489850D01*
X116161136Y-146449051D01*
X116138005Y-146405778D01*
X116119228Y-146360445D01*
X116104984Y-146313490D01*
X116095412Y-146265365D01*
X116090602Y-146216534D01*
X116090602Y-146192000D01*
X116090000Y-146192000D01*
X116090000Y-145692000D01*
X117590000Y-145692000D01*
X117590000Y-146192000D01*
X117589398Y-146192000D01*
G37*
G36*
X116090000Y-145392000D02*
G01*
X116090000Y-144892000D01*
X116090602Y-144892000D01*
X116090602Y-144867466D01*
X116095412Y-144818635D01*
X116104984Y-144770510D01*
X116119228Y-144723555D01*
X116138005Y-144678222D01*
X116161136Y-144634949D01*
X116188396Y-144594150D01*
X116219524Y-144556221D01*
X116254221Y-144521524D01*
X116292150Y-144490396D01*
X116332949Y-144463136D01*
X116376222Y-144440005D01*
X116421555Y-144421228D01*
X116468510Y-144406984D01*
X116516635Y-144397412D01*
X116565466Y-144392602D01*
X116590000Y-144392602D01*
X116590000Y-144392000D01*
X117090000Y-144392000D01*
X117090000Y-144392602D01*
X117114534Y-144392602D01*
X117163365Y-144397412D01*
X117211490Y-144406984D01*
X117258445Y-144421228D01*
X117303778Y-144440005D01*
X117347051Y-144463136D01*
X117387850Y-144490396D01*
X117425779Y-144521524D01*
X117460476Y-144556221D01*
X117491604Y-144594150D01*
X117518864Y-144634949D01*
X117541995Y-144678222D01*
X117560772Y-144723555D01*
X117575016Y-144770510D01*
X117584588Y-144818635D01*
X117589398Y-144867466D01*
X117589398Y-144892000D01*
X117590000Y-144892000D01*
X117590000Y-145392000D01*
X116090000Y-145392000D01*
G37*
G36*
G01*
X168713999Y-136393500D02*
X169614001Y-136393500D01*
G75*
G02*
X169864000Y-136643499I0J-249999D01*
G01*
X169864000Y-137168501D01*
G75*
G02*
X169614001Y-137418500I-249999J0D01*
G01*
X168713999Y-137418500D01*
G75*
G02*
X168464000Y-137168501I0J249999D01*
G01*
X168464000Y-136643499D01*
G75*
G02*
X168713999Y-136393500I249999J0D01*
G01*
G37*
G36*
G01*
X168713999Y-138218500D02*
X169614001Y-138218500D01*
G75*
G02*
X169864000Y-138468499I0J-249999D01*
G01*
X169864000Y-138993501D01*
G75*
G02*
X169614001Y-139243500I-249999J0D01*
G01*
X168713999Y-139243500D01*
G75*
G02*
X168464000Y-138993501I0J249999D01*
G01*
X168464000Y-138468499D01*
G75*
G02*
X168713999Y-138218500I249999J0D01*
G01*
G37*
G36*
G01*
X164395999Y-136393500D02*
X165296001Y-136393500D01*
G75*
G02*
X165546000Y-136643499I0J-249999D01*
G01*
X165546000Y-137168501D01*
G75*
G02*
X165296001Y-137418500I-249999J0D01*
G01*
X164395999Y-137418500D01*
G75*
G02*
X164146000Y-137168501I0J249999D01*
G01*
X164146000Y-136643499D01*
G75*
G02*
X164395999Y-136393500I249999J0D01*
G01*
G37*
G36*
G01*
X164395999Y-138218500D02*
X165296001Y-138218500D01*
G75*
G02*
X165546000Y-138468499I0J-249999D01*
G01*
X165546000Y-138993501D01*
G75*
G02*
X165296001Y-139243500I-249999J0D01*
G01*
X164395999Y-139243500D01*
G75*
G02*
X164146000Y-138993501I0J249999D01*
G01*
X164146000Y-138468499D01*
G75*
G02*
X164395999Y-138218500I249999J0D01*
G01*
G37*
G36*
G01*
X107245999Y-124408500D02*
X108146001Y-124408500D01*
G75*
G02*
X108396000Y-124658499I0J-249999D01*
G01*
X108396000Y-125183501D01*
G75*
G02*
X108146001Y-125433500I-249999J0D01*
G01*
X107245999Y-125433500D01*
G75*
G02*
X106996000Y-125183501I0J249999D01*
G01*
X106996000Y-124658499D01*
G75*
G02*
X107245999Y-124408500I249999J0D01*
G01*
G37*
G36*
G01*
X107245999Y-126233500D02*
X108146001Y-126233500D01*
G75*
G02*
X108396000Y-126483499I0J-249999D01*
G01*
X108396000Y-127008501D01*
G75*
G02*
X108146001Y-127258500I-249999J0D01*
G01*
X107245999Y-127258500D01*
G75*
G02*
X106996000Y-127008501I0J249999D01*
G01*
X106996000Y-126483499D01*
G75*
G02*
X107245999Y-126233500I249999J0D01*
G01*
G37*
G36*
G01*
X104590001Y-56947500D02*
X103689999Y-56947500D01*
G75*
G02*
X103440000Y-56697501I0J249999D01*
G01*
X103440000Y-56172499D01*
G75*
G02*
X103689999Y-55922500I249999J0D01*
G01*
X104590001Y-55922500D01*
G75*
G02*
X104840000Y-56172499I0J-249999D01*
G01*
X104840000Y-56697501D01*
G75*
G02*
X104590001Y-56947500I-249999J0D01*
G01*
G37*
G36*
G01*
X104590001Y-55122500D02*
X103689999Y-55122500D01*
G75*
G02*
X103440000Y-54872501I0J249999D01*
G01*
X103440000Y-54347499D01*
G75*
G02*
X103689999Y-54097500I249999J0D01*
G01*
X104590001Y-54097500D01*
G75*
G02*
X104840000Y-54347499I0J-249999D01*
G01*
X104840000Y-54872501D01*
G75*
G02*
X104590001Y-55122500I-249999J0D01*
G01*
G37*
G36*
G01*
X107245999Y-134060500D02*
X108146001Y-134060500D01*
G75*
G02*
X108396000Y-134310499I0J-249999D01*
G01*
X108396000Y-134835501D01*
G75*
G02*
X108146001Y-135085500I-249999J0D01*
G01*
X107245999Y-135085500D01*
G75*
G02*
X106996000Y-134835501I0J249999D01*
G01*
X106996000Y-134310499D01*
G75*
G02*
X107245999Y-134060500I249999J0D01*
G01*
G37*
G36*
G01*
X107245999Y-135885500D02*
X108146001Y-135885500D01*
G75*
G02*
X108396000Y-136135499I0J-249999D01*
G01*
X108396000Y-136660501D01*
G75*
G02*
X108146001Y-136910500I-249999J0D01*
G01*
X107245999Y-136910500D01*
G75*
G02*
X106996000Y-136660501I0J249999D01*
G01*
X106996000Y-136135499D01*
G75*
G02*
X107245999Y-135885500I249999J0D01*
G01*
G37*
G36*
G01*
X133661999Y-136346500D02*
X134562001Y-136346500D01*
G75*
G02*
X134812000Y-136596499I0J-249999D01*
G01*
X134812000Y-137121501D01*
G75*
G02*
X134562001Y-137371500I-249999J0D01*
G01*
X133661999Y-137371500D01*
G75*
G02*
X133412000Y-137121501I0J249999D01*
G01*
X133412000Y-136596499D01*
G75*
G02*
X133661999Y-136346500I249999J0D01*
G01*
G37*
G36*
G01*
X133661999Y-138171500D02*
X134562001Y-138171500D01*
G75*
G02*
X134812000Y-138421499I0J-249999D01*
G01*
X134812000Y-138946501D01*
G75*
G02*
X134562001Y-139196500I-249999J0D01*
G01*
X133661999Y-139196500D01*
G75*
G02*
X133412000Y-138946501I0J249999D01*
G01*
X133412000Y-138421499D01*
G75*
G02*
X133661999Y-138171500I249999J0D01*
G01*
G37*
G36*
G01*
X149802001Y-133655500D02*
X148901999Y-133655500D01*
G75*
G02*
X148652000Y-133405501I0J249999D01*
G01*
X148652000Y-132880499D01*
G75*
G02*
X148901999Y-132630500I249999J0D01*
G01*
X149802001Y-132630500D01*
G75*
G02*
X150052000Y-132880499I0J-249999D01*
G01*
X150052000Y-133405501D01*
G75*
G02*
X149802001Y-133655500I-249999J0D01*
G01*
G37*
G36*
G01*
X149802001Y-131830500D02*
X148901999Y-131830500D01*
G75*
G02*
X148652000Y-131580501I0J249999D01*
G01*
X148652000Y-131055499D01*
G75*
G02*
X148901999Y-130805500I249999J0D01*
G01*
X149802001Y-130805500D01*
G75*
G02*
X150052000Y-131055499I0J-249999D01*
G01*
X150052000Y-131580501D01*
G75*
G02*
X149802001Y-131830500I-249999J0D01*
G01*
G37*
G36*
G01*
X124003500Y-140265999D02*
X124003500Y-141166001D01*
G75*
G02*
X123753501Y-141416000I-249999J0D01*
G01*
X123228499Y-141416000D01*
G75*
G02*
X122978500Y-141166001I0J249999D01*
G01*
X122978500Y-140265999D01*
G75*
G02*
X123228499Y-140016000I249999J0D01*
G01*
X123753501Y-140016000D01*
G75*
G02*
X124003500Y-140265999I0J-249999D01*
G01*
G37*
G36*
G01*
X122178500Y-140265999D02*
X122178500Y-141166001D01*
G75*
G02*
X121928501Y-141416000I-249999J0D01*
G01*
X121403499Y-141416000D01*
G75*
G02*
X121153500Y-141166001I0J249999D01*
G01*
X121153500Y-140265999D01*
G75*
G02*
X121403499Y-140016000I249999J0D01*
G01*
X121928501Y-140016000D01*
G75*
G02*
X122178500Y-140265999I0J-249999D01*
G01*
G37*
G36*
G01*
X113325000Y-128674000D02*
X113325000Y-128374000D01*
G75*
G02*
X113475000Y-128224000I150000J0D01*
G01*
X115125000Y-128224000D01*
G75*
G02*
X115275000Y-128374000I0J-150000D01*
G01*
X115275000Y-128674000D01*
G75*
G02*
X115125000Y-128824000I-150000J0D01*
G01*
X113475000Y-128824000D01*
G75*
G02*
X113325000Y-128674000I0J150000D01*
G01*
G37*
G36*
G01*
X113325000Y-129944000D02*
X113325000Y-129644000D01*
G75*
G02*
X113475000Y-129494000I150000J0D01*
G01*
X115125000Y-129494000D01*
G75*
G02*
X115275000Y-129644000I0J-150000D01*
G01*
X115275000Y-129944000D01*
G75*
G02*
X115125000Y-130094000I-150000J0D01*
G01*
X113475000Y-130094000D01*
G75*
G02*
X113325000Y-129944000I0J150000D01*
G01*
G37*
G36*
G01*
X113325000Y-131214000D02*
X113325000Y-130914000D01*
G75*
G02*
X113475000Y-130764000I150000J0D01*
G01*
X115125000Y-130764000D01*
G75*
G02*
X115275000Y-130914000I0J-150000D01*
G01*
X115275000Y-131214000D01*
G75*
G02*
X115125000Y-131364000I-150000J0D01*
G01*
X113475000Y-131364000D01*
G75*
G02*
X113325000Y-131214000I0J150000D01*
G01*
G37*
G36*
G01*
X113325000Y-132484000D02*
X113325000Y-132184000D01*
G75*
G02*
X113475000Y-132034000I150000J0D01*
G01*
X115125000Y-132034000D01*
G75*
G02*
X115275000Y-132184000I0J-150000D01*
G01*
X115275000Y-132484000D01*
G75*
G02*
X115125000Y-132634000I-150000J0D01*
G01*
X113475000Y-132634000D01*
G75*
G02*
X113325000Y-132484000I0J150000D01*
G01*
G37*
G36*
G01*
X113325000Y-133754000D02*
X113325000Y-133454000D01*
G75*
G02*
X113475000Y-133304000I150000J0D01*
G01*
X115125000Y-133304000D01*
G75*
G02*
X115275000Y-133454000I0J-150000D01*
G01*
X115275000Y-133754000D01*
G75*
G02*
X115125000Y-133904000I-150000J0D01*
G01*
X113475000Y-133904000D01*
G75*
G02*
X113325000Y-133754000I0J150000D01*
G01*
G37*
G36*
G01*
X113325000Y-135024000D02*
X113325000Y-134724000D01*
G75*
G02*
X113475000Y-134574000I150000J0D01*
G01*
X115125000Y-134574000D01*
G75*
G02*
X115275000Y-134724000I0J-150000D01*
G01*
X115275000Y-135024000D01*
G75*
G02*
X115125000Y-135174000I-150000J0D01*
G01*
X113475000Y-135174000D01*
G75*
G02*
X113325000Y-135024000I0J150000D01*
G01*
G37*
G36*
G01*
X113325000Y-136294000D02*
X113325000Y-135994000D01*
G75*
G02*
X113475000Y-135844000I150000J0D01*
G01*
X115125000Y-135844000D01*
G75*
G02*
X115275000Y-135994000I0J-150000D01*
G01*
X115275000Y-136294000D01*
G75*
G02*
X115125000Y-136444000I-150000J0D01*
G01*
X113475000Y-136444000D01*
G75*
G02*
X113325000Y-136294000I0J150000D01*
G01*
G37*
G36*
G01*
X118275000Y-136294000D02*
X118275000Y-135994000D01*
G75*
G02*
X118425000Y-135844000I150000J0D01*
G01*
X120075000Y-135844000D01*
G75*
G02*
X120225000Y-135994000I0J-150000D01*
G01*
X120225000Y-136294000D01*
G75*
G02*
X120075000Y-136444000I-150000J0D01*
G01*
X118425000Y-136444000D01*
G75*
G02*
X118275000Y-136294000I0J150000D01*
G01*
G37*
G36*
G01*
X118275000Y-135024000D02*
X118275000Y-134724000D01*
G75*
G02*
X118425000Y-134574000I150000J0D01*
G01*
X120075000Y-134574000D01*
G75*
G02*
X120225000Y-134724000I0J-150000D01*
G01*
X120225000Y-135024000D01*
G75*
G02*
X120075000Y-135174000I-150000J0D01*
G01*
X118425000Y-135174000D01*
G75*
G02*
X118275000Y-135024000I0J150000D01*
G01*
G37*
G36*
G01*
X118275000Y-133754000D02*
X118275000Y-133454000D01*
G75*
G02*
X118425000Y-133304000I150000J0D01*
G01*
X120075000Y-133304000D01*
G75*
G02*
X120225000Y-133454000I0J-150000D01*
G01*
X120225000Y-133754000D01*
G75*
G02*
X120075000Y-133904000I-150000J0D01*
G01*
X118425000Y-133904000D01*
G75*
G02*
X118275000Y-133754000I0J150000D01*
G01*
G37*
G36*
G01*
X118275000Y-132484000D02*
X118275000Y-132184000D01*
G75*
G02*
X118425000Y-132034000I150000J0D01*
G01*
X120075000Y-132034000D01*
G75*
G02*
X120225000Y-132184000I0J-150000D01*
G01*
X120225000Y-132484000D01*
G75*
G02*
X120075000Y-132634000I-150000J0D01*
G01*
X118425000Y-132634000D01*
G75*
G02*
X118275000Y-132484000I0J150000D01*
G01*
G37*
G36*
G01*
X118275000Y-131214000D02*
X118275000Y-130914000D01*
G75*
G02*
X118425000Y-130764000I150000J0D01*
G01*
X120075000Y-130764000D01*
G75*
G02*
X120225000Y-130914000I0J-150000D01*
G01*
X120225000Y-131214000D01*
G75*
G02*
X120075000Y-131364000I-150000J0D01*
G01*
X118425000Y-131364000D01*
G75*
G02*
X118275000Y-131214000I0J150000D01*
G01*
G37*
G36*
G01*
X118275000Y-129944000D02*
X118275000Y-129644000D01*
G75*
G02*
X118425000Y-129494000I150000J0D01*
G01*
X120075000Y-129494000D01*
G75*
G02*
X120225000Y-129644000I0J-150000D01*
G01*
X120225000Y-129944000D01*
G75*
G02*
X120075000Y-130094000I-150000J0D01*
G01*
X118425000Y-130094000D01*
G75*
G02*
X118275000Y-129944000I0J150000D01*
G01*
G37*
G36*
G01*
X118275000Y-128674000D02*
X118275000Y-128374000D01*
G75*
G02*
X118425000Y-128224000I150000J0D01*
G01*
X120075000Y-128224000D01*
G75*
G02*
X120225000Y-128374000I0J-150000D01*
G01*
X120225000Y-128674000D01*
G75*
G02*
X120075000Y-128824000I-150000J0D01*
G01*
X118425000Y-128824000D01*
G75*
G02*
X118275000Y-128674000I0J150000D01*
G01*
G37*
G36*
G01*
X138347000Y-131468000D02*
X138347000Y-131168000D01*
G75*
G02*
X138497000Y-131018000I150000J0D01*
G01*
X140147000Y-131018000D01*
G75*
G02*
X140297000Y-131168000I0J-150000D01*
G01*
X140297000Y-131468000D01*
G75*
G02*
X140147000Y-131618000I-150000J0D01*
G01*
X138497000Y-131618000D01*
G75*
G02*
X138347000Y-131468000I0J150000D01*
G01*
G37*
G36*
G01*
X138347000Y-132738000D02*
X138347000Y-132438000D01*
G75*
G02*
X138497000Y-132288000I150000J0D01*
G01*
X140147000Y-132288000D01*
G75*
G02*
X140297000Y-132438000I0J-150000D01*
G01*
X140297000Y-132738000D01*
G75*
G02*
X140147000Y-132888000I-150000J0D01*
G01*
X138497000Y-132888000D01*
G75*
G02*
X138347000Y-132738000I0J150000D01*
G01*
G37*
G36*
G01*
X138347000Y-134008000D02*
X138347000Y-133708000D01*
G75*
G02*
X138497000Y-133558000I150000J0D01*
G01*
X140147000Y-133558000D01*
G75*
G02*
X140297000Y-133708000I0J-150000D01*
G01*
X140297000Y-134008000D01*
G75*
G02*
X140147000Y-134158000I-150000J0D01*
G01*
X138497000Y-134158000D01*
G75*
G02*
X138347000Y-134008000I0J150000D01*
G01*
G37*
G36*
G01*
X138347000Y-135278000D02*
X138347000Y-134978000D01*
G75*
G02*
X138497000Y-134828000I150000J0D01*
G01*
X140147000Y-134828000D01*
G75*
G02*
X140297000Y-134978000I0J-150000D01*
G01*
X140297000Y-135278000D01*
G75*
G02*
X140147000Y-135428000I-150000J0D01*
G01*
X138497000Y-135428000D01*
G75*
G02*
X138347000Y-135278000I0J150000D01*
G01*
G37*
G36*
G01*
X143297000Y-135278000D02*
X143297000Y-134978000D01*
G75*
G02*
X143447000Y-134828000I150000J0D01*
G01*
X145097000Y-134828000D01*
G75*
G02*
X145247000Y-134978000I0J-150000D01*
G01*
X145247000Y-135278000D01*
G75*
G02*
X145097000Y-135428000I-150000J0D01*
G01*
X143447000Y-135428000D01*
G75*
G02*
X143297000Y-135278000I0J150000D01*
G01*
G37*
G36*
G01*
X143297000Y-134008000D02*
X143297000Y-133708000D01*
G75*
G02*
X143447000Y-133558000I150000J0D01*
G01*
X145097000Y-133558000D01*
G75*
G02*
X145247000Y-133708000I0J-150000D01*
G01*
X145247000Y-134008000D01*
G75*
G02*
X145097000Y-134158000I-150000J0D01*
G01*
X143447000Y-134158000D01*
G75*
G02*
X143297000Y-134008000I0J150000D01*
G01*
G37*
G36*
G01*
X143297000Y-132738000D02*
X143297000Y-132438000D01*
G75*
G02*
X143447000Y-132288000I150000J0D01*
G01*
X145097000Y-132288000D01*
G75*
G02*
X145247000Y-132438000I0J-150000D01*
G01*
X145247000Y-132738000D01*
G75*
G02*
X145097000Y-132888000I-150000J0D01*
G01*
X143447000Y-132888000D01*
G75*
G02*
X143297000Y-132738000I0J150000D01*
G01*
G37*
G36*
G01*
X143297000Y-131468000D02*
X143297000Y-131168000D01*
G75*
G02*
X143447000Y-131018000I150000J0D01*
G01*
X145097000Y-131018000D01*
G75*
G02*
X145247000Y-131168000I0J-150000D01*
G01*
X145247000Y-131468000D01*
G75*
G02*
X145097000Y-131618000I-150000J0D01*
G01*
X143447000Y-131618000D01*
G75*
G02*
X143297000Y-131468000I0J150000D01*
G01*
G37*
D21*
X98298000Y-128524000D03*
X98298000Y-133404000D03*
G36*
G01*
X148701999Y-135552000D02*
X150002001Y-135552000D01*
G75*
G02*
X150252000Y-135801999I0J-249999D01*
G01*
X150252000Y-136452001D01*
G75*
G02*
X150002001Y-136702000I-249999J0D01*
G01*
X148701999Y-136702000D01*
G75*
G02*
X148452000Y-136452001I0J249999D01*
G01*
X148452000Y-135801999D01*
G75*
G02*
X148701999Y-135552000I249999J0D01*
G01*
G37*
G36*
G01*
X148701999Y-138502000D02*
X150002001Y-138502000D01*
G75*
G02*
X150252000Y-138751999I0J-249999D01*
G01*
X150252000Y-139402001D01*
G75*
G02*
X150002001Y-139652000I-249999J0D01*
G01*
X148701999Y-139652000D01*
G75*
G02*
X148452000Y-139402001I0J249999D01*
G01*
X148452000Y-138751999D01*
G75*
G02*
X148701999Y-138502000I249999J0D01*
G01*
G37*
M02*
