M48
; DRILL file {KiCad (5.1.9-0-10_14)} date Friday, April 09, 2021 at 12:46:17 PM
; FORMAT={-:-/ absolute / inch / decimal}
; #@! TF.CreationDate,2021-04-09T12:46:17-05:00
; #@! TF.GenerationSoftware,Kicad,Pcbnew,(5.1.9-0-10_14)
; #@! TF.FileFunction,Plated,1,2,PTH
FMAT,2
INCH
T1C0.0157
T2C0.0197
T3C0.0315
T4C0.0394
%
G90
G05
T1
X4.85Y-5.31
X5.36Y-5.31
X6.68Y-5.09
X6.91Y-5.09
T3
X3.87Y-5.06
X3.87Y-5.2521
T4
X3.85Y-2.5984
X3.85Y-2.6984
X3.85Y-2.7984
X3.85Y-2.8984
X3.85Y-2.9984
X3.85Y-3.0984
X3.85Y-3.1984
X3.85Y-3.2984
X3.85Y-3.3984
X3.85Y-3.4984
X3.85Y-3.5984
X3.85Y-3.6984
X3.85Y-3.7984
X3.85Y-3.8984
X3.85Y-3.9984
X3.85Y-4.0984
X3.85Y-4.1984
X3.85Y-4.2984
X3.85Y-4.3984
X3.85Y-4.4984
X4.041Y-2.5984
X4.041Y-2.6984
X4.041Y-2.7984
X4.041Y-2.8984
X4.041Y-2.9984
X4.041Y-3.0984
X4.041Y-3.1984
X4.041Y-3.2984
X4.041Y-3.3984
X4.041Y-3.4984
X4.041Y-3.5984
X4.041Y-3.6984
X4.041Y-3.7984
X4.041Y-3.8984
X4.041Y-3.9984
X4.041Y-4.0984
X4.041Y-4.1984
X4.041Y-4.2984
X4.041Y-4.3984
X4.041Y-4.4984
X4.2316Y-5.68
X4.33Y-5.68
X4.5Y-2.6
X4.5Y-2.7
X4.5Y-2.8
X4.5Y-2.9
X4.5Y-3.0
X4.5Y-3.1
X4.5Y-3.2
X4.5Y-3.3
X4.5Y-3.4
X4.5Y-3.5
X4.5Y-3.6
X4.5Y-3.7
X4.5Y-3.8
X4.5Y-3.9
X4.5Y-4.0
X4.5Y-4.1
X4.5Y-4.2
X4.5Y-4.3
X4.5Y-4.4
X4.5Y-4.5
X4.691Y-2.6
X4.691Y-2.7
X4.691Y-2.8
X4.691Y-2.9
X4.691Y-3.0
X4.691Y-3.1
X4.691Y-3.2
X4.691Y-3.3
X4.691Y-3.4
X4.691Y-3.5
X4.691Y-3.6
X4.691Y-3.7
X4.691Y-3.8
X4.691Y-3.9
X4.691Y-4.0
X4.691Y-4.1
X4.691Y-4.2
X4.691Y-4.3
X4.691Y-4.4
X4.691Y-4.5
X5.15Y-2.6
X5.15Y-2.7
X5.15Y-2.8
X5.15Y-2.9
X5.15Y-3.0
X5.15Y-3.1
X5.15Y-3.2
X5.15Y-3.3
X5.15Y-3.4
X5.15Y-3.5
X5.15Y-3.6
X5.15Y-3.7
X5.15Y-3.8
X5.15Y-3.9
X5.15Y-4.0
X5.15Y-4.1
X5.15Y-4.2
X5.15Y-4.3
X5.15Y-4.4
X5.15Y-4.5
X5.341Y-2.6
X5.341Y-2.7
X5.341Y-2.8
X5.341Y-2.9
X5.341Y-3.0
X5.341Y-3.1
X5.341Y-3.2
X5.341Y-3.3
X5.341Y-3.4
X5.341Y-3.5
X5.341Y-3.6
X5.341Y-3.7
X5.341Y-3.8
X5.341Y-3.9
X5.341Y-4.0
X5.341Y-4.1
X5.341Y-4.2
X5.341Y-4.3
X5.341Y-4.4
X5.341Y-4.5
X5.8Y-2.6
X5.8Y-2.7
X5.8Y-2.8
X5.8Y-2.9
X5.8Y-3.0
X5.8Y-3.1
X5.8Y-3.2
X5.8Y-3.3
X5.8Y-3.4
X5.8Y-3.5
X5.8Y-3.6
X5.8Y-3.7
X5.8Y-3.8
X5.8Y-3.9
X5.8Y-4.0
X5.8Y-4.1
X5.8Y-4.2
X5.8Y-4.3
X5.8Y-4.4
X5.8Y-4.5
X5.991Y-2.6
X5.991Y-2.7
X5.991Y-2.8
X5.991Y-2.9
X5.991Y-3.0
X5.991Y-3.1
X5.991Y-3.2
X5.991Y-3.3
X5.991Y-3.4
X5.991Y-3.5
X5.991Y-3.6
X5.991Y-3.7
X5.991Y-3.8
X5.991Y-3.9
X5.991Y-4.0
X5.991Y-4.1
X5.991Y-4.2
X5.991Y-4.3
X5.991Y-4.4
X5.991Y-4.5
X6.45Y-2.6
X6.45Y-2.7
X6.45Y-2.8
X6.45Y-2.9
X6.45Y-3.0
X6.45Y-3.1
X6.45Y-3.2
X6.45Y-3.3
X6.45Y-3.4
X6.45Y-3.5
X6.45Y-3.6
X6.45Y-3.7
X6.45Y-3.8
X6.45Y-3.9
X6.45Y-4.0
X6.45Y-4.1
X6.45Y-4.2
X6.45Y-4.3
X6.45Y-4.4
X6.45Y-4.5
X6.641Y-2.6
X6.641Y-2.7
X6.641Y-2.8
X6.641Y-2.9
X6.641Y-3.0
X6.641Y-3.1
X6.641Y-3.2
X6.641Y-3.3
X6.641Y-3.4
X6.641Y-3.5
X6.641Y-3.6
X6.641Y-3.7
X6.641Y-3.8
X6.641Y-3.9
X6.641Y-4.0
X6.641Y-4.1
X6.641Y-4.2
X6.641Y-4.3
X6.641Y-4.4
X6.641Y-4.5
X7.05Y-2.6
X7.05Y-2.7
X7.05Y-2.8
X7.05Y-2.9
X7.05Y-3.0
X7.05Y-3.1
X7.05Y-3.2
X7.05Y-3.3
X7.05Y-3.4
X7.05Y-3.5
X7.05Y-3.6
X7.05Y-3.7
X7.05Y-3.8
X7.05Y-3.9
X7.05Y-4.0
X7.05Y-4.1
X7.05Y-4.2
X7.05Y-4.3
X7.05Y-4.4
X7.05Y-4.5
X7.06Y-4.97
X7.06Y-5.29
X7.15Y-2.6
X7.15Y-2.7
X7.15Y-2.8
X7.15Y-2.9
X7.15Y-3.0
X7.15Y-3.1
X7.15Y-3.2
X7.15Y-3.3
X7.15Y-3.4
X7.15Y-3.5
X7.15Y-3.6
X7.15Y-3.7
X7.15Y-3.8
X7.15Y-3.9
X7.15Y-4.0
X7.15Y-4.1
X7.15Y-4.2
X7.15Y-4.3
X7.15Y-4.4
X7.15Y-4.5
X7.1584Y-4.97
X7.1584Y-5.29
T2
G00X6.4117Y-5.6262
M15
G01X6.4117Y-5.6538
M16
G05
G00X6.4117Y-5.7758
M15
G01X6.4117Y-5.8034
M16
G05
G00X6.7518Y-5.6262
M15
G01X6.7518Y-5.6538
M16
G05
G00X6.7518Y-5.7758
M15
G01X6.7518Y-5.8034
M16
G05
T0
M30
