G04 #@! TF.GenerationSoftware,KiCad,Pcbnew,(5.1.9-0-10_14)*
G04 #@! TF.CreationDate,2021-04-09T13:26:58-05:00*
G04 #@! TF.ProjectId,Serial Card,53657269-616c-4204-9361-72642e6b6963,rev?*
G04 #@! TF.SameCoordinates,Original*
G04 #@! TF.FileFunction,Soldermask,Bot*
G04 #@! TF.FilePolarity,Negative*
%FSLAX46Y46*%
G04 Gerber Fmt 4.6, Leading zero omitted, Abs format (unit mm)*
G04 Created by KiCad (PCBNEW (5.1.9-0-10_14)) date 2021-04-09 13:26:58*
%MOMM*%
%LPD*%
G01*
G04 APERTURE LIST*
%ADD10R,1.700000X1.700000*%
%ADD11O,1.700000X1.700000*%
%ADD12C,2.082800*%
%ADD13C,5.283200*%
%ADD14O,1.600000X1.000000*%
%ADD15C,0.650000*%
%ADD16O,2.100000X1.000000*%
%ADD17R,1.600000X1.600000*%
%ADD18O,1.600000X1.600000*%
%ADD19C,1.500000*%
G04 APERTURE END LIST*
G36*
G01*
X115925000Y-132591600D02*
X114655000Y-132591600D01*
G75*
G02*
X114553400Y-132490000I0J101600D01*
G01*
X114553400Y-127410000D01*
G75*
G02*
X114655000Y-127308400I101600J0D01*
G01*
X115925000Y-127308400D01*
G75*
G02*
X116026600Y-127410000I0J-101600D01*
G01*
X116026600Y-132490000D01*
G75*
G02*
X115925000Y-132591600I-101600J0D01*
G01*
G37*
G36*
G01*
X118465000Y-132591600D02*
X117195000Y-132591600D01*
G75*
G02*
X117093400Y-132490000I0J101600D01*
G01*
X117093400Y-127410000D01*
G75*
G02*
X117195000Y-127308400I101600J0D01*
G01*
X118465000Y-127308400D01*
G75*
G02*
X118566600Y-127410000I0J-101600D01*
G01*
X118566600Y-132490000D01*
G75*
G02*
X118465000Y-132591600I-101600J0D01*
G01*
G37*
G36*
G01*
X121005000Y-132591600D02*
X119735000Y-132591600D01*
G75*
G02*
X119633400Y-132490000I0J101600D01*
G01*
X119633400Y-127410000D01*
G75*
G02*
X119735000Y-127308400I101600J0D01*
G01*
X121005000Y-127308400D01*
G75*
G02*
X121106600Y-127410000I0J-101600D01*
G01*
X121106600Y-132490000D01*
G75*
G02*
X121005000Y-132591600I-101600J0D01*
G01*
G37*
G36*
G01*
X123545000Y-132591600D02*
X122275000Y-132591600D01*
G75*
G02*
X122173400Y-132490000I0J101600D01*
G01*
X122173400Y-127410000D01*
G75*
G02*
X122275000Y-127308400I101600J0D01*
G01*
X123545000Y-127308400D01*
G75*
G02*
X123646600Y-127410000I0J-101600D01*
G01*
X123646600Y-132490000D01*
G75*
G02*
X123545000Y-132591600I-101600J0D01*
G01*
G37*
G36*
G01*
X126085000Y-132591600D02*
X124815000Y-132591600D01*
G75*
G02*
X124713400Y-132490000I0J101600D01*
G01*
X124713400Y-127410000D01*
G75*
G02*
X124815000Y-127308400I101600J0D01*
G01*
X126085000Y-127308400D01*
G75*
G02*
X126186600Y-127410000I0J-101600D01*
G01*
X126186600Y-132490000D01*
G75*
G02*
X126085000Y-132591600I-101600J0D01*
G01*
G37*
G36*
G01*
X128625000Y-132591600D02*
X127355000Y-132591600D01*
G75*
G02*
X127253400Y-132490000I0J101600D01*
G01*
X127253400Y-127410000D01*
G75*
G02*
X127355000Y-127308400I101600J0D01*
G01*
X128625000Y-127308400D01*
G75*
G02*
X128726600Y-127410000I0J-101600D01*
G01*
X128726600Y-132490000D01*
G75*
G02*
X128625000Y-132591600I-101600J0D01*
G01*
G37*
G36*
G01*
X131165000Y-132591600D02*
X129895000Y-132591600D01*
G75*
G02*
X129793400Y-132490000I0J101600D01*
G01*
X129793400Y-127410000D01*
G75*
G02*
X129895000Y-127308400I101600J0D01*
G01*
X131165000Y-127308400D01*
G75*
G02*
X131266600Y-127410000I0J-101600D01*
G01*
X131266600Y-132490000D01*
G75*
G02*
X131165000Y-132591600I-101600J0D01*
G01*
G37*
G36*
G01*
X133705000Y-132591600D02*
X132435000Y-132591600D01*
G75*
G02*
X132333400Y-132490000I0J101600D01*
G01*
X132333400Y-127410000D01*
G75*
G02*
X132435000Y-127308400I101600J0D01*
G01*
X133705000Y-127308400D01*
G75*
G02*
X133806600Y-127410000I0J-101600D01*
G01*
X133806600Y-132490000D01*
G75*
G02*
X133705000Y-132591600I-101600J0D01*
G01*
G37*
G36*
G01*
X136245000Y-132591600D02*
X134975000Y-132591600D01*
G75*
G02*
X134873400Y-132490000I0J101600D01*
G01*
X134873400Y-127410000D01*
G75*
G02*
X134975000Y-127308400I101600J0D01*
G01*
X136245000Y-127308400D01*
G75*
G02*
X136346600Y-127410000I0J-101600D01*
G01*
X136346600Y-132490000D01*
G75*
G02*
X136245000Y-132591600I-101600J0D01*
G01*
G37*
G36*
G01*
X138785000Y-132591600D02*
X137515000Y-132591600D01*
G75*
G02*
X137413400Y-132490000I0J101600D01*
G01*
X137413400Y-127410000D01*
G75*
G02*
X137515000Y-127308400I101600J0D01*
G01*
X138785000Y-127308400D01*
G75*
G02*
X138886600Y-127410000I0J-101600D01*
G01*
X138886600Y-132490000D01*
G75*
G02*
X138785000Y-132591600I-101600J0D01*
G01*
G37*
G36*
G01*
X141325000Y-132591600D02*
X140055000Y-132591600D01*
G75*
G02*
X139953400Y-132490000I0J101600D01*
G01*
X139953400Y-127410000D01*
G75*
G02*
X140055000Y-127308400I101600J0D01*
G01*
X141325000Y-127308400D01*
G75*
G02*
X141426600Y-127410000I0J-101600D01*
G01*
X141426600Y-132490000D01*
G75*
G02*
X141325000Y-132591600I-101600J0D01*
G01*
G37*
G36*
G01*
X143865000Y-132591600D02*
X142595000Y-132591600D01*
G75*
G02*
X142493400Y-132490000I0J101600D01*
G01*
X142493400Y-127410000D01*
G75*
G02*
X142595000Y-127308400I101600J0D01*
G01*
X143865000Y-127308400D01*
G75*
G02*
X143966600Y-127410000I0J-101600D01*
G01*
X143966600Y-132490000D01*
G75*
G02*
X143865000Y-132591600I-101600J0D01*
G01*
G37*
G36*
G01*
X146405000Y-132591600D02*
X145135000Y-132591600D01*
G75*
G02*
X145033400Y-132490000I0J101600D01*
G01*
X145033400Y-127410000D01*
G75*
G02*
X145135000Y-127308400I101600J0D01*
G01*
X146405000Y-127308400D01*
G75*
G02*
X146506600Y-127410000I0J-101600D01*
G01*
X146506600Y-132490000D01*
G75*
G02*
X146405000Y-132591600I-101600J0D01*
G01*
G37*
G36*
G01*
X148945000Y-132591600D02*
X147675000Y-132591600D01*
G75*
G02*
X147573400Y-132490000I0J101600D01*
G01*
X147573400Y-127410000D01*
G75*
G02*
X147675000Y-127308400I101600J0D01*
G01*
X148945000Y-127308400D01*
G75*
G02*
X149046600Y-127410000I0J-101600D01*
G01*
X149046600Y-132490000D01*
G75*
G02*
X148945000Y-132591600I-101600J0D01*
G01*
G37*
G36*
G01*
X151485000Y-132591600D02*
X150215000Y-132591600D01*
G75*
G02*
X150113400Y-132490000I0J101600D01*
G01*
X150113400Y-127410000D01*
G75*
G02*
X150215000Y-127308400I101600J0D01*
G01*
X151485000Y-127308400D01*
G75*
G02*
X151586600Y-127410000I0J-101600D01*
G01*
X151586600Y-132490000D01*
G75*
G02*
X151485000Y-132591600I-101600J0D01*
G01*
G37*
G36*
G01*
X154025000Y-132591600D02*
X152755000Y-132591600D01*
G75*
G02*
X152653400Y-132490000I0J101600D01*
G01*
X152653400Y-127410000D01*
G75*
G02*
X152755000Y-127308400I101600J0D01*
G01*
X154025000Y-127308400D01*
G75*
G02*
X154126600Y-127410000I0J-101600D01*
G01*
X154126600Y-132490000D01*
G75*
G02*
X154025000Y-132591600I-101600J0D01*
G01*
G37*
G36*
G01*
X156565000Y-132591600D02*
X155295000Y-132591600D01*
G75*
G02*
X155193400Y-132490000I0J101600D01*
G01*
X155193400Y-127410000D01*
G75*
G02*
X155295000Y-127308400I101600J0D01*
G01*
X156565000Y-127308400D01*
G75*
G02*
X156666600Y-127410000I0J-101600D01*
G01*
X156666600Y-132490000D01*
G75*
G02*
X156565000Y-132591600I-101600J0D01*
G01*
G37*
G36*
G01*
X159105000Y-132591600D02*
X157835000Y-132591600D01*
G75*
G02*
X157733400Y-132490000I0J101600D01*
G01*
X157733400Y-127410000D01*
G75*
G02*
X157835000Y-127308400I101600J0D01*
G01*
X159105000Y-127308400D01*
G75*
G02*
X159206600Y-127410000I0J-101600D01*
G01*
X159206600Y-132490000D01*
G75*
G02*
X159105000Y-132591600I-101600J0D01*
G01*
G37*
G36*
G01*
X161645000Y-132591600D02*
X160375000Y-132591600D01*
G75*
G02*
X160273400Y-132490000I0J101600D01*
G01*
X160273400Y-127410000D01*
G75*
G02*
X160375000Y-127308400I101600J0D01*
G01*
X161645000Y-127308400D01*
G75*
G02*
X161746600Y-127410000I0J-101600D01*
G01*
X161746600Y-132490000D01*
G75*
G02*
X161645000Y-132591600I-101600J0D01*
G01*
G37*
G36*
G01*
X164185000Y-132591600D02*
X162915000Y-132591600D01*
G75*
G02*
X162813400Y-132490000I0J101600D01*
G01*
X162813400Y-127410000D01*
G75*
G02*
X162915000Y-127308400I101600J0D01*
G01*
X164185000Y-127308400D01*
G75*
G02*
X164286600Y-127410000I0J-101600D01*
G01*
X164286600Y-132490000D01*
G75*
G02*
X164185000Y-132591600I-101600J0D01*
G01*
G37*
D10*
X120332500Y-111379000D03*
D11*
X120332500Y-108839000D03*
X122872500Y-111379000D03*
X122872500Y-108839000D03*
X125412500Y-111379000D03*
X125412500Y-108839000D03*
X127952500Y-111379000D03*
X127952500Y-108839000D03*
X130492500Y-111379000D03*
X130492500Y-108839000D03*
X133032500Y-111379000D03*
X133032500Y-108839000D03*
X135572500Y-111379000D03*
X135572500Y-108839000D03*
X138112500Y-111379000D03*
X138112500Y-108839000D03*
G36*
G01*
X186489340Y-89377520D02*
X188368940Y-89377520D01*
G75*
G02*
X188470540Y-89479120I0J-101600D01*
G01*
X188470540Y-91358720D01*
G75*
G02*
X188368940Y-91460320I-101600J0D01*
G01*
X186489340Y-91460320D01*
G75*
G02*
X186387740Y-91358720I0J101600D01*
G01*
X186387740Y-89479120D01*
G75*
G02*
X186489340Y-89377520I101600J0D01*
G01*
G37*
D12*
X187429140Y-93190060D03*
X187429140Y-95958660D03*
X187429140Y-98727260D03*
X187429140Y-101498400D03*
X190268860Y-91810840D03*
X190268860Y-94579440D03*
X190268860Y-97337880D03*
X190268860Y-100106480D03*
D13*
X188849000Y-83459320D03*
X188849000Y-108458000D03*
D10*
X120332500Y-117094000D03*
D11*
X120332500Y-119634000D03*
X120332500Y-122174000D03*
D14*
X195442000Y-112522000D03*
D15*
X191792000Y-113952000D03*
D14*
X195442000Y-121162000D03*
D15*
X191792000Y-119732000D03*
D16*
X191262000Y-121162000D03*
X191262000Y-112522000D03*
D17*
X158750000Y-86360000D03*
D18*
X110490000Y-101600000D03*
X156210000Y-86360000D03*
X113030000Y-101600000D03*
X153670000Y-86360000D03*
X115570000Y-101600000D03*
X151130000Y-86360000D03*
X118110000Y-101600000D03*
X148590000Y-86360000D03*
X120650000Y-101600000D03*
X146050000Y-86360000D03*
X123190000Y-101600000D03*
X143510000Y-86360000D03*
X125730000Y-101600000D03*
X140970000Y-86360000D03*
X128270000Y-101600000D03*
X138430000Y-86360000D03*
X130810000Y-101600000D03*
X135890000Y-86360000D03*
X133350000Y-101600000D03*
X133350000Y-86360000D03*
X135890000Y-101600000D03*
X130810000Y-86360000D03*
X138430000Y-101600000D03*
X128270000Y-86360000D03*
X140970000Y-101600000D03*
X125730000Y-86360000D03*
X143510000Y-101600000D03*
X123190000Y-86360000D03*
X146050000Y-101600000D03*
X120650000Y-86360000D03*
X148590000Y-101600000D03*
X118110000Y-86360000D03*
X151130000Y-101600000D03*
X115570000Y-86360000D03*
X153670000Y-101600000D03*
X113030000Y-86360000D03*
X156210000Y-101600000D03*
X110490000Y-86360000D03*
X158750000Y-101600000D03*
D19*
X154740000Y-80899000D03*
X149860000Y-80899000D03*
M02*
