M48
; DRILL file {KiCad (5.1.9-0-10_14)} date Friday, April 09, 2021 at 01:27:02 PM
; FORMAT={-:-/ absolute / inch / decimal}
; #@! TF.CreationDate,2021-04-09T13:27:02-05:00
; #@! TF.GenerationSoftware,Kicad,Pcbnew,(5.1.9-0-10_14)
; #@! TF.FileFunction,Plated,1,2,PTH
FMAT,2
INCH
T1C0.0157
T2C0.0236
T3C0.0315
T4C0.0394
T5C0.0400
T6C0.1300
%
G90
G05
T1
X4.3425Y-4.76
X4.35Y-4.13
X4.41Y-4.345
X4.45Y-3.865
X4.45Y-4.13
X4.465Y-4.445
X4.465Y-4.495
X4.47Y-4.2725
X4.47Y-4.345
X4.5Y-3.52
X4.54Y-4.7
X4.55Y-3.825
X4.55Y-4.13
X4.6025Y-3.925
X4.61Y-4.395
X4.635Y-4.285
X4.64Y-4.875
X4.65Y-3.785
X4.65Y-4.49
X4.735Y-4.455
X4.75Y-3.75
X4.84Y-4.68
X4.84Y-4.905
X4.88Y-4.65
X4.88Y-4.71
X4.935Y-4.7462
X4.935Y-4.905
X4.95Y-3.68
X4.98Y-4.845
X4.98Y-4.905
X5.03Y-4.65
X5.03Y-4.905
X5.05Y-3.48
X5.075Y-4.935
X5.125Y-4.965
X5.15Y-3.6443
X5.18Y-4.845
X5.23Y-4.71
X5.25Y-3.52
X5.28Y-4.68
X5.35Y-3.57
X5.38Y-4.845
X5.38Y-4.915
X5.44Y-4.705
X5.45Y-3.71
X5.475Y-4.585
X5.485Y-4.915
X5.505Y-4.24
X5.51Y-4.81
X5.54Y-4.21
X5.54Y-4.735
X5.55Y-3.185
X5.5743Y-4.7057
X5.5743Y-4.1807
X5.6Y-3.75
X5.645Y-4.395
X5.645Y-4.585
X5.645Y-4.6493
X5.645Y-4.84
X5.65Y-3.3043
X5.7Y-3.785
X5.75Y-4.91
X5.8Y-3.825
X5.8507Y-4.9393
X5.9Y-3.865
X5.95Y-4.775
X6.04Y-4.81
X6.05Y-4.675
X6.09Y-4.965
X6.09Y-4.775
X6.14Y-4.39
X6.14Y-4.49
X6.14Y-4.675
X6.14Y-4.735
X6.15Y-4.28
X6.195Y-4.84
X6.1975Y-3.9225
X6.24Y-4.705
X6.285Y-4.775
X6.315Y-4.28
X6.34Y-4.675
X6.37Y-3.775
X6.395Y-4.775
X6.405Y-4.225
X6.44Y-3.185
X6.44Y-4.84
X6.4525Y-4.0
X6.46Y-4.435
X6.46Y-4.55
X6.49Y-3.4
X6.49Y-4.705
X6.49Y-4.8725
X6.56Y-3.54
X6.56Y-3.85
X6.575Y-4.0543
X6.575Y-4.4093
X6.605Y-4.465
X6.61Y-3.51
X6.61Y-3.6
X6.62Y-4.0793
X6.62Y-4.225
X6.6275Y-4.0
X6.63Y-3.3043
X6.63Y-4.495
X6.66Y-3.6243
X6.665Y-4.1043
X6.665Y-4.225
X6.675Y-4.27
X6.7025Y-4.13
X6.705Y-4.705
X6.71Y-3.71
X6.73Y-4.58
X6.76Y-3.68
X6.7793Y-4.55
X6.805Y-4.435
X6.805Y-4.195
X6.81Y-3.57
X6.81Y-3.65
X6.81Y-4.84
X6.855Y-4.58
X6.86Y-3.48
X6.86Y-3.57
X6.87Y-3.33
X6.885Y-4.41
X6.9075Y-4.295
X6.935Y-4.225
X6.96Y-3.48
X7.065Y-4.465
X7.07Y-4.72
X7.28Y-3.63
X7.28Y-3.7
T3
X4.35Y-3.4
X4.35Y-4.0
X4.45Y-3.4
X4.45Y-4.0
X4.55Y-3.4
X4.55Y-4.0
X4.65Y-3.4
X4.65Y-4.0
X4.75Y-3.4
X4.75Y-4.0
X4.85Y-3.4
X4.85Y-4.0
X4.95Y-3.4
X4.95Y-4.0
X5.05Y-3.4
X5.05Y-4.0
X5.15Y-3.4
X5.15Y-4.0
X5.25Y-3.4
X5.25Y-4.0
X5.35Y-3.4
X5.35Y-4.0
X5.45Y-3.4
X5.45Y-4.0
X5.55Y-3.4
X5.55Y-4.0
X5.65Y-3.4
X5.65Y-4.0
X5.75Y-3.4
X5.75Y-4.0
X5.85Y-3.4
X5.85Y-4.0
X5.9Y-3.185
X5.95Y-3.4
X5.95Y-4.0
X6.05Y-3.4
X6.05Y-4.0
X6.0921Y-3.185
X6.15Y-3.4
X6.15Y-4.0
X6.25Y-3.4
X6.25Y-4.0
T4
X4.7375Y-4.285
X4.7375Y-4.385
X4.7375Y-4.61
X4.7375Y-4.71
X4.7375Y-4.81
X4.8375Y-4.285
X4.8375Y-4.385
X4.9375Y-4.285
X4.9375Y-4.385
X5.0375Y-4.285
X5.0375Y-4.385
X5.1375Y-4.285
X5.1375Y-4.385
X5.2375Y-4.285
X5.2375Y-4.385
X5.3375Y-4.285
X5.3375Y-4.385
X5.4375Y-4.285
X5.4375Y-4.385
T5
X7.3791Y-3.5598
X7.3791Y-3.6689
X7.3791Y-3.7779
X7.3791Y-3.8869
X7.3791Y-3.996
X7.4909Y-3.6146
X7.4909Y-3.7236
X7.4909Y-3.8322
X7.4909Y-3.9412
T6
X7.435Y-3.2858
X7.435Y-4.27
T2
G00X7.5083Y-4.43
M15
G01X7.5517Y-4.43
M16
G05
G00X7.5083Y-4.7702
M15
G01X7.5517Y-4.7702
M16
G05
G00X7.6828Y-4.43
M15
G01X7.7064Y-4.43
M16
G05
G00X7.6828Y-4.7702
M15
G01X7.7064Y-4.7702
M16
G05
T0
M30
