G04 #@! TF.GenerationSoftware,KiCad,Pcbnew,(5.1.9-0-10_14)*
G04 #@! TF.CreationDate,2021-04-09T13:00:34-05:00*
G04 #@! TF.ProjectId,CPU Card,43505520-4361-4726-942e-6b696361645f,v1.0*
G04 #@! TF.SameCoordinates,Original*
G04 #@! TF.FileFunction,Paste,Top*
G04 #@! TF.FilePolarity,Positive*
%FSLAX46Y46*%
G04 Gerber Fmt 4.6, Leading zero omitted, Abs format (unit mm)*
G04 Created by KiCad (PCBNEW (5.1.9-0-10_14)) date 2021-04-09 13:00:34*
%MOMM*%
%LPD*%
G01*
G04 APERTURE LIST*
%ADD10R,1.270000X5.080000*%
G04 APERTURE END LIST*
G36*
G01*
X152895000Y-86901000D02*
X152895000Y-87851000D01*
G75*
G02*
X152645000Y-88101000I-250000J0D01*
G01*
X152145000Y-88101000D01*
G75*
G02*
X151895000Y-87851000I0J250000D01*
G01*
X151895000Y-86901000D01*
G75*
G02*
X152145000Y-86651000I250000J0D01*
G01*
X152645000Y-86651000D01*
G75*
G02*
X152895000Y-86901000I0J-250000D01*
G01*
G37*
G36*
G01*
X150995000Y-86901000D02*
X150995000Y-87851000D01*
G75*
G02*
X150745000Y-88101000I-250000J0D01*
G01*
X150245000Y-88101000D01*
G75*
G02*
X149995000Y-87851000I0J250000D01*
G01*
X149995000Y-86901000D01*
G75*
G02*
X150245000Y-86651000I250000J0D01*
G01*
X150745000Y-86651000D01*
G75*
G02*
X150995000Y-86901000I0J-250000D01*
G01*
G37*
D10*
X115250000Y-129900000D03*
X117790000Y-129900000D03*
X120330000Y-129900000D03*
X122870000Y-129900000D03*
X125410000Y-129900000D03*
X127950000Y-129900000D03*
X130490000Y-129900000D03*
X133030000Y-129900000D03*
X135570000Y-129900000D03*
X138110000Y-129900000D03*
X140650000Y-129900000D03*
X143190000Y-129900000D03*
X145730000Y-129900000D03*
X148270000Y-129900000D03*
X150810000Y-129900000D03*
X153350000Y-129900000D03*
X155890000Y-129900000D03*
X158430000Y-129900000D03*
X160970000Y-129900000D03*
X163510000Y-129900000D03*
G36*
G01*
X170692500Y-113087999D02*
X170692500Y-113988001D01*
G75*
G02*
X170442501Y-114238000I-249999J0D01*
G01*
X169917499Y-114238000D01*
G75*
G02*
X169667500Y-113988001I0J249999D01*
G01*
X169667500Y-113087999D01*
G75*
G02*
X169917499Y-112838000I249999J0D01*
G01*
X170442501Y-112838000D01*
G75*
G02*
X170692500Y-113087999I0J-249999D01*
G01*
G37*
G36*
G01*
X168867500Y-113087999D02*
X168867500Y-113988001D01*
G75*
G02*
X168617501Y-114238000I-249999J0D01*
G01*
X168092499Y-114238000D01*
G75*
G02*
X167842500Y-113988001I0J249999D01*
G01*
X167842500Y-113087999D01*
G75*
G02*
X168092499Y-112838000I249999J0D01*
G01*
X168617501Y-112838000D01*
G75*
G02*
X168867500Y-113087999I0J-249999D01*
G01*
G37*
G36*
G01*
X166327500Y-86925999D02*
X166327500Y-87826001D01*
G75*
G02*
X166077501Y-88076000I-249999J0D01*
G01*
X165552499Y-88076000D01*
G75*
G02*
X165302500Y-87826001I0J249999D01*
G01*
X165302500Y-86925999D01*
G75*
G02*
X165552499Y-86676000I249999J0D01*
G01*
X166077501Y-86676000D01*
G75*
G02*
X166327500Y-86925999I0J-249999D01*
G01*
G37*
G36*
G01*
X168152500Y-86925999D02*
X168152500Y-87826001D01*
G75*
G02*
X167902501Y-88076000I-249999J0D01*
G01*
X167377499Y-88076000D01*
G75*
G02*
X167127500Y-87826001I0J249999D01*
G01*
X167127500Y-86925999D01*
G75*
G02*
X167377499Y-86676000I249999J0D01*
G01*
X167902501Y-86676000D01*
G75*
G02*
X168152500Y-86925999I0J-249999D01*
G01*
G37*
G36*
G01*
X163119500Y-86925999D02*
X163119500Y-87826001D01*
G75*
G02*
X162869501Y-88076000I-249999J0D01*
G01*
X162344499Y-88076000D01*
G75*
G02*
X162094500Y-87826001I0J249999D01*
G01*
X162094500Y-86925999D01*
G75*
G02*
X162344499Y-86676000I249999J0D01*
G01*
X162869501Y-86676000D01*
G75*
G02*
X163119500Y-86925999I0J-249999D01*
G01*
G37*
G36*
G01*
X161294500Y-86925999D02*
X161294500Y-87826001D01*
G75*
G02*
X161044501Y-88076000I-249999J0D01*
G01*
X160519499Y-88076000D01*
G75*
G02*
X160269500Y-87826001I0J249999D01*
G01*
X160269500Y-86925999D01*
G75*
G02*
X160519499Y-86676000I249999J0D01*
G01*
X161044501Y-86676000D01*
G75*
G02*
X161294500Y-86925999I0J-249999D01*
G01*
G37*
G36*
G01*
X156167500Y-86925999D02*
X156167500Y-87826001D01*
G75*
G02*
X155917501Y-88076000I-249999J0D01*
G01*
X155392499Y-88076000D01*
G75*
G02*
X155142500Y-87826001I0J249999D01*
G01*
X155142500Y-86925999D01*
G75*
G02*
X155392499Y-86676000I249999J0D01*
G01*
X155917501Y-86676000D01*
G75*
G02*
X156167500Y-86925999I0J-249999D01*
G01*
G37*
G36*
G01*
X157992500Y-86925999D02*
X157992500Y-87826001D01*
G75*
G02*
X157742501Y-88076000I-249999J0D01*
G01*
X157217499Y-88076000D01*
G75*
G02*
X156967500Y-87826001I0J249999D01*
G01*
X156967500Y-86925999D01*
G75*
G02*
X157217499Y-86676000I249999J0D01*
G01*
X157742501Y-86676000D01*
G75*
G02*
X157992500Y-86925999I0J-249999D01*
G01*
G37*
G36*
G01*
X159507500Y-113988001D02*
X159507500Y-113087999D01*
G75*
G02*
X159757499Y-112838000I249999J0D01*
G01*
X160282501Y-112838000D01*
G75*
G02*
X160532500Y-113087999I0J-249999D01*
G01*
X160532500Y-113988001D01*
G75*
G02*
X160282501Y-114238000I-249999J0D01*
G01*
X159757499Y-114238000D01*
G75*
G02*
X159507500Y-113988001I0J249999D01*
G01*
G37*
G36*
G01*
X161332500Y-113988001D02*
X161332500Y-113087999D01*
G75*
G02*
X161582499Y-112838000I249999J0D01*
G01*
X162107501Y-112838000D01*
G75*
G02*
X162357500Y-113087999I0J-249999D01*
G01*
X162357500Y-113988001D01*
G75*
G02*
X162107501Y-114238000I-249999J0D01*
G01*
X161582499Y-114238000D01*
G75*
G02*
X161332500Y-113988001I0J249999D01*
G01*
G37*
M02*
