<?xml version="1.0" encoding="UTF-8" standalone="no"?>
<!DOCTYPE svg PUBLIC "-//W3C//DTD SVG 1.1//EN" "http://www.w3.org/Graphics/SVG/1.1/DTD/svg11.dtd">
<svg width="100%" height="100%" viewBox="0 0 1182 1182" version="1.1" xmlns="http://www.w3.org/2000/svg" xmlns:xlink="http://www.w3.org/1999/xlink" xml:space="preserve" xmlns:serif="http://www.serif.com/" style="fill-rule:evenodd;clip-rule:evenodd;stroke-linejoin:round;stroke-miterlimit:2;">
    <g transform="matrix(0.57671,0,0,0.57671,2.27374e-13,2.27374e-13)">
        <path d="M1024,-0C1589.16,-0 2048,458.839 2048,1024C2048,1589.16 1589.16,2048 1024,2048C458.839,2048 -0,1589.16 -0,1024C-0,458.839 458.839,-0 1024,-0ZM1064.7,1033.74C1060.52,1033.74 1057.12,1037.13 1057.12,1041.32L1057.12,1768.73C1057.12,1772.91 1060.52,1776.3 1064.7,1776.3L1239.28,1776.3C1298.61,1776.3 1342.97,1760.01 1372.64,1728.17C1402.16,1696.49 1417.28,1650.16 1417.28,1588.95C1417.28,1588.95 1417.28,1221.09 1417.28,1221.09C1417.28,1159.89 1402.16,1113.56 1372.64,1081.88C1342.97,1050.04 1298.61,1033.74 1239.28,1033.74C1239.28,1033.74 1064.7,1033.74 1064.7,1033.74ZM1186.58,1657.24L1237.2,1657.24C1253.42,1657.24 1266,1652.71 1274.71,1643.1C1283.79,1633.09 1287.82,1616.68 1287.82,1594.15L1287.82,1215.9C1287.82,1193.37 1283.79,1176.96 1274.71,1166.95C1266,1157.34 1253.42,1152.81 1237.2,1152.81L1186.58,1152.81L1186.58,1657.24ZM895.491,1228.25L876.526,1407.28C876.118,1411.13 872.868,1414.05 868.993,1414.05L793.135,1414.05C789.247,1414.05 785.99,1411.11 785.597,1407.24L748.707,1043.54C748.491,1041.41 749.188,1039.28 750.624,1037.69C752.06,1036.11 754.102,1035.2 756.245,1035.2L811.32,1035.2C815.237,1035.2 818.509,1038.18 818.864,1042.09L837.507,1246.78L857.296,1042.05C857.671,1038.16 860.935,1035.2 864.836,1035.2L927.185,1035.2C931.087,1035.2 934.351,1038.16 934.726,1042.05L954.514,1246.78L973.157,1042.09C973.513,1038.18 976.784,1035.2 980.702,1035.2L1030.06,1035.2C1032.2,1035.2 1034.25,1036.11 1035.68,1037.69C1037.12,1039.28 1037.82,1041.41 1037.6,1043.54L1000.71,1407.24C1000.32,1411.11 997.06,1414.05 993.172,1414.05L921.99,1414.05C918.115,1414.05 914.864,1411.13 914.456,1407.28L895.491,1228.25ZM771.627,871.892L751.791,1007.77C751.247,1011.5 748.056,1014.26 744.294,1014.26L638.301,1014.26C636.079,1014.26 633.969,1013.28 632.529,1011.59C631.09,1009.89 630.466,1007.66 630.823,1005.46L749.287,278.055C749.884,274.389 753.05,271.697 756.764,271.697L911.598,271.697C915.312,271.697 918.478,274.389 919.075,278.055L1037.54,1005.46C1037.9,1007.66 1037.27,1009.89 1035.83,1011.59C1034.39,1013.28 1032.28,1014.26 1030.06,1014.26L915.755,1014.26C911.988,1014.26 908.793,1011.49 908.256,1007.76L888.707,871.892L771.627,871.892ZM1148.87,1014.26C1178.72,1014.26 1201.37,1005.44 1217.05,988.436C1232.57,971.612 1240.62,947.97 1240.62,917.313L1240.62,865.875C1240.62,861.691 1237.23,858.3 1233.04,858.3L1179.01,858.3C1174.82,858.3 1171.43,861.691 1171.43,865.875L1171.43,921.47C1171.43,930.313 1169.92,937.051 1166.12,941.472C1162.66,945.494 1157.34,947.147 1150.43,947.147C1143.52,947.147 1138.2,945.494 1134.74,941.472C1130.94,937.051 1129.43,930.313 1129.43,921.47L1129.43,718.315C1129.43,709.279 1130.96,702.398 1134.78,697.88C1138.23,693.805 1143.54,692.119 1150.43,692.119C1157.33,692.119 1162.63,693.805 1166.08,697.88C1169.9,702.398 1171.43,709.279 1171.43,718.315L1171.43,760.401C1171.43,764.585 1174.82,767.977 1179.01,767.977L1233.04,767.977C1237.23,767.977 1240.62,764.585 1240.62,760.401L1240.62,721.952C1240.62,691.296 1232.57,667.654 1217.05,650.83C1201.37,633.827 1178.72,625.009 1148.87,625.009C1119.02,625.009 1096.37,633.827 1080.69,650.83C1065.18,667.654 1057.12,691.296 1057.12,721.952C1057.12,721.952 1057.12,917.313 1057.12,917.313C1057.12,947.97 1065.18,971.612 1080.69,988.436C1096.37,1005.44 1119.02,1014.26 1148.87,1014.26ZM787.286,758.021L872.738,758.021L829.572,453.21L787.286,758.021Z" style="fill:white;"/>
    </g>
</svg>
