<?xml version="1.0" encoding="utf-8"?>
<!-- Generator: Fusion 360, Shaper Origin Export Add-In, Version 1.8.0  -->
<svg xmlns="http://www.w3.org/2000/svg" xmlns:xlink="http://www.w3.org/1999/xlink" xmlns:shaper="http://www.shapertools.com/namespaces/shaper" shaper:fusionaddin="version:1.8.0" width="10cm" height="10cm" version="1.1" x="0cm" y="0cm" viewBox="0 0 10 10" enable-background="new 0 0 10 10" xml:space="preserve"><path d="M-4.07336,4.9 A0.1,0.1 0 0,1 -4.17336,5 L-4.5,5 A0.5,0.5 89.9999963 0,1 -5,4.5 L-5,-4.5 A0.5,0.5 179.9999964 0,1 -4.5,-5 L4.5,-5 A0.5,0.5 269.9999963 0,1 5,-4.5 L5,4.5 A0.5,0.5 0 0,1 4.5,5 L2.17264,5 A0.1,0.1 90 0,1 2.07264,4.9 L2.07264,3.53239 A0.1,0.1 0 0,0 1.97264,3.43239 L-3.97336,3.43239 A0.1,0.1 270 0,0 -4.07336,3.53239 L-4.07336,4.9z" transform="matrix(1,0,0,-1,5,5)" fill="rgb(0,0,0)" stroke-linecap="round" stroke-linejoin="round" /><path d="M2.69464,4.45989 L3.53464,4.45989 A0.05,0.05 90 0,0 3.58464,4.40989 L3.58464,3.73489 A0.05,0.05 0 0,0 3.53464,3.68489 L2.69464,3.68489 A0.05,0.05 270 0,0 2.64464,3.73489 L2.64464,4.40989 A0.05,0.05 180 0,0 2.69464,4.45989z" transform="matrix(1,0,0,-1,5,5)" fill="rgb(255,255,255)" stroke="rgb(0,0,0)" stroke-width="0.0010cm" stroke-linecap="round" stroke-linejoin="round" /><path d="M2.06984,-3.45275 L2.06984,-4.48747 A0.1,0.1 0 0,0 1.96984,-4.58747 L-3.87056,-4.58747 A0.1,0.1 270 0,0 -3.97056,-4.48747 L-3.97056,-3.45275 A0.1,0.1 180 0,0 -3.87056,-3.35275 L1.96984,-3.35275 A0.1,0.1 90 0,0 2.06984,-3.45275z" transform="matrix(1,0,0,-1,5,5)" fill="rgb(255,255,255)" stroke="rgb(0,0,0)" stroke-width="0.0010cm" stroke-linecap="round" stroke-linejoin="round" /><path d="M2.06984,-0.15275 L2.06984,-1.18747 A0.1,0.1 0 0,0 1.96984,-1.28747 L-3.87056,-1.28747 A0.1,0.1 270 0,0 -3.97056,-1.18747 L-3.97056,-0.15275 A0.1,0.1 180 0,0 -3.87056,-0.05275 L1.96984,-0.05275 A0.1,0.1 90 0,0 2.06984,-0.15275z" transform="matrix(1,0,0,-1,5,5)" fill="rgb(255,255,255)" stroke="rgb(0,0,0)" stroke-width="0.0010cm" stroke-linecap="round" stroke-linejoin="round" /><path d="M-4.03036,0.56989 L-4.03036,-0.27011 A0.05,0.05 0 0,0 -4.08036,-0.32011 L-4.75536,-0.32011 A0.05,0.05 270 0,0 -4.80536,-0.27011 L-4.80536,0.56989 A0.05,0.05 180 0,0 -4.75536,0.61989 L-4.08036,0.61989 A0.05,0.05 90 0,0 -4.03036,0.56989z" transform="matrix(1,0,0,-1,5,5)" fill="rgb(255,255,255)" stroke="rgb(0,0,0)" stroke-width="0.0010cm" stroke-linecap="round" stroke-linejoin="round" /><path d="M2.06984,3.24725 L2.06984,2.11253 A0.1,0.1 0 0,0 1.96984,2.01253 L-3.87056,2.01253 A0.1,0.1 270 0,0 -3.97056,2.11253 L-3.97056,3.14725 A0.1,0.1 180 0,0 -3.87056,3.24725 L2.06984,3.24725z" transform="matrix(1,0,0,-1,5,5)" fill="rgb(255,255,255)" stroke="rgb(0,0,0)" stroke-width="0.0010cm" stroke-linecap="round" stroke-linejoin="round" /><path d="M4.03464,-2.65511 L4.70964,-2.65511 A0.05,0.05 90 0,0 4.75964,-2.70511 L4.75964,-3.54511 A0.05,0.05 0 0,0 4.70964,-3.59511 L4.03464,-3.59511 A0.05,0.05 270 0,0 3.98464,-3.54511 L3.98464,-2.70511 A0.05,0.05 180 0,0 4.03464,-2.65511z" transform="matrix(1,0,0,-1,5,5)" fill="rgb(255,255,255)" stroke="rgb(0,0,0)" stroke-width="0.0010cm" stroke-linecap="round" stroke-linejoin="round" /><path d="M2.06984,-1.80275 L2.06984,-2.83747 A0.1,0.1 0 0,0 1.96984,-2.93747 L-3.87056,-2.93747 A0.1,0.1 270 0,0 -3.97056,-2.83747 L-3.97056,-1.80275 A0.1,0.1 180 0,0 -3.87056,-1.70275 L1.96984,-1.70275 A0.1,0.1 90 0,0 2.06984,-1.80275z" transform="matrix(1,0,0,-1,5,5)" fill="rgb(255,255,255)" stroke="rgb(0,0,0)" stroke-width="0.0010cm" stroke-linecap="round" stroke-linejoin="round" /><path d="M2.06984,1.49725 L2.06984,0.46253 A0.1,0.1 0 0,0 1.96984,0.36253 L-3.87056,0.36253 A0.1,0.1 270 0,0 -3.97056,0.46253 L-3.97056,1.49725 A0.1,0.1 180 0,0 -3.87056,1.59725 L1.96984,1.59725 A0.1,0.1 90 0,0 2.06984,1.49725z" transform="matrix(1,0,0,-1,5,5)" fill="rgb(255,255,255)" stroke="rgb(0,0,0)" stroke-width="0.0010cm" stroke-linecap="round" stroke-linejoin="round" /><path d="M-4.55536,-1.50261 a0.125,0.125 0 1,1 0.25,0 a0.125,0.125 0 1,1 -0.25,0z" transform="matrix(1,0,0,-1,5,5)" fill="rgb(255,255,255)" stroke="rgb(0,0,0)" stroke-width="0.0010cm" stroke-linecap="round" stroke-linejoin="round" /><path d="M-4.56036,4.39989 a0.16,0.16 0 1,1 0.32,0 a0.16,0.16 0 1,1 -0.32,0z" transform="matrix(1,0,0,-1,5,5)" fill="rgb(255,255,255)" stroke="rgb(0,0,0)" stroke-width="0.0010cm" stroke-linecap="round" stroke-linejoin="round" /><path d="M-4.56036,-4.40011 a0.16,0.16 0 1,1 0.32,0 a0.16,0.16 0 1,1 -0.32,0z" transform="matrix(1,0,0,-1,5,5)" fill="rgb(255,255,255)" stroke="rgb(0,0,0)" stroke-width="0.0010cm" stroke-linecap="round" stroke-linejoin="round" /><path d="M4.23964,-4.40011 a0.16,0.16 0 1,1 0.32,0 a0.16,0.16 0 1,1 -0.32,0z" transform="matrix(1,0,0,-1,5,5)" fill="rgb(255,255,255)" stroke="rgb(0,0,0)" stroke-width="0.0010cm" stroke-linecap="round" stroke-linejoin="round" /><path d="M4.23964,4.39989 a0.16,0.16 0 1,1 0.32,0 a0.16,0.16 0 1,1 -0.32,0z" transform="matrix(1,0,0,-1,5,5)" fill="rgb(255,255,255)" stroke="rgb(0,0,0)" stroke-width="0.0010cm" stroke-linecap="round" stroke-linejoin="round" /></svg>