<?xml version="1.0" encoding="utf-8"?>
<!-- Generator: Fusion 360, Shaper Origin Export Add-In, Version 1.9.0  -->
<svg xmlns="http://www.w3.org/2000/svg" xmlns:xlink="http://www.w3.org/1999/xlink" xmlns:shaper="http://www.shapertools.com/namespaces/shaper" shaper:fusionaddin="version:1.9.0" width="5cm" height="5cm" version="1.1" x="0cm" y="0cm" viewBox="0 0 5 5" enable-background="new 0 0 5 5" xml:space="preserve"><path d="M0.885,2.5 A0.1,0.1 90 0,1 0.785,2.4 L0.785,1.748 A0.1,0.1 0 0,0 0.685,1.648 L-0.685,1.648 A0.1,0.1 270 0,0 -0.785,1.748 L-0.785,2.4 A0.1,0.1 0 0,1 -0.885,2.5 L-2,2.5 A0.5,0.5 89.9999963 0,1 -2.5,2 L-2.5,-2 A0.5,0.5 179.9999964 0,1 -2,-2.5 L2,-2.5 A0.5,0.5 269.9999963 0,1 2.5,-2 L2.5,2 A0.5,0.5 0 0,1 2,2.5 L0.885,2.5z" transform="matrix(1,0,0,-1,2.5,2.5)" fill="rgb(0,0,0)" shaper:cutDepth="0.3cm" stroke-linecap="round" stroke-linejoin="round" /><path d="M-1.353,-1.747 a0.4,0.4 0 1,1 0.8,0 a0.4,0.4 0 1,1 -0.8,0z" transform="matrix(1,0,0,-1,2.5,2.5)" fill="rgb(255,255,255)" stroke="rgb(0,0,0)" stroke-width="0.0010cm" stroke-linecap="round" stroke-linejoin="round" shaper:cutDepth="0.3cm" /><path d="M0.522,-1.747 a0.4,0.4 0 1,1 0.8,0 a0.4,0.4 0 1,1 -0.8,0z" transform="matrix(1,0,0,-1,2.5,2.5)" fill="rgb(255,255,255)" stroke="rgb(0,0,0)" stroke-width="0.0010cm" stroke-linecap="round" stroke-linejoin="round" shaper:cutDepth="0.3cm" /><path d="M-0.403,-1.747 a0.4,0.4 0 1,1 0.8,0 a0.4,0.4 0 1,1 -0.8,0z" transform="matrix(1,0,0,-1,2.5,2.5)" fill="rgb(255,255,255)" stroke="rgb(0,0,0)" stroke-width="0.0010cm" stroke-linecap="round" stroke-linejoin="round" shaper:cutDepth="0.3cm" /><path d="M1.74,1.9 a0.16,0.16 0 1,1 0.32,0 a0.16,0.16 0 1,1 -0.32,0z" transform="matrix(1,0,0,-1,2.5,2.5)" fill="rgb(255,255,255)" stroke="rgb(0,0,0)" stroke-width="0.0010cm" stroke-linecap="round" stroke-linejoin="round" shaper:cutDepth="0.3cm" /><path d="M-2.06,1.9 a0.16,0.16 0 1,1 0.32,0 a0.16,0.16 0 1,1 -0.32,0z" transform="matrix(1,0,0,-1,2.5,2.5)" fill="rgb(255,255,255)" stroke="rgb(0,0,0)" stroke-width="0.0010cm" stroke-linecap="round" stroke-linejoin="round" shaper:cutDepth="0.3cm" /><path d="M1.74,-1.9 a0.16,0.16 0 1,1 0.32,0 a0.16,0.16 0 1,1 -0.32,0z" transform="matrix(1,0,0,-1,2.5,2.5)" fill="rgb(255,255,255)" stroke="rgb(0,0,0)" stroke-width="0.0010cm" stroke-linecap="round" stroke-linejoin="round" shaper:cutDepth="0.3cm" /><path d="M-2.06,-1.9 a0.16,0.16 0 1,1 0.32,0 a0.16,0.16 0 1,1 -0.32,0z" transform="matrix(1,0,0,-1,2.5,2.5)" fill="rgb(255,255,255)" stroke="rgb(0,0,0)" stroke-width="0.0010cm" stroke-linecap="round" stroke-linejoin="round" shaper:cutDepth="0.3cm" /></svg>