<?xml version="1.0" encoding="utf-8"?>
<!-- Generator: Fusion 360, Shaper Origin Export Add-In, Version 1.9.0  -->
<svg xmlns="http://www.w3.org/2000/svg" xmlns:xlink="http://www.w3.org/1999/xlink" xmlns:shaper="http://www.shapertools.com/namespaces/shaper" shaper:fusionaddin="version:1.9.0" width="10cm" height="5cm" version="1.1" x="0cm" y="0cm" viewBox="0 0 10 5" enable-background="new 0 0 10 5" xml:space="preserve"><path d="M-2.83672,-2.5 A0.1,0.1 270 0,1 -2.73672,-2.4 L-2.73672,-1.16658 A0.1,0.1 180 0,0 -2.63672,-1.06658 L2.57328,-1.06658 A0.1,0.1 90 0,0 2.67328,-1.16658 L2.67328,-2.4 A0.1,0.1 180 0,1 2.77328,-2.5 L4.5,-2.5 A0.5,0.5 269.9999963 0,1 5,-2 L5,2 A0.5,0.5 0 0,1 4.5,2.5 L3.52439,2.5 A0.1,0.1 90 0,1 3.42439,2.4 L3.42439,1.46756 A0.1,0.1 0 0,0 3.32439,1.36756 L0.93839,1.36756 A0.1,0.1 270 0,0 0.83839,1.46756 L0.83839,2.4 A0.1,0.1 0 0,1 0.73839,2.5 L-0.84161,2.5 A0.1,0.1 90 0,1 -0.94161,2.4 L-0.94161,1.46756 A0.1,0.1 0 0,0 -1.04161,1.36756 L-3.42761,1.36756 A0.1,0.1 270 0,0 -3.52761,1.46756 L-3.52761,2.4 A0.1,0.1 0 0,1 -3.62761,2.5 L-4.5,2.5 A0.5,0.5 89.9999963 0,1 -5,2 L-5,-2 A0.5,0.5 179.9999964 0,1 -4.5,-2.5 L-2.83672,-2.5z" transform="matrix(1,0,0,-1,5,2.5)" fill="rgb(0,0,0)" shaper:cutDepth="0.3cm" stroke-linecap="round" stroke-linejoin="round" /><path d="M4.24039,1.90706 a0.16,0.16 0 1,1 0.32,0 a0.16,0.16 0 1,1 -0.32,0z" transform="matrix(1,0,0,-1,5,2.5)" fill="rgb(255,255,255)" stroke="rgb(0,0,0)" stroke-width="0.0010cm" stroke-linecap="round" stroke-linejoin="round" shaper:cutDepth="0.3cm" /><path d="M-4.55961,-1.89294 a0.16,0.16 0 1,1 0.32,0 a0.16,0.16 0 1,1 -0.32,0z" transform="matrix(1,0,0,-1,5,2.5)" fill="rgb(255,255,255)" stroke="rgb(0,0,0)" stroke-width="0.0010cm" stroke-linecap="round" stroke-linejoin="round" shaper:cutDepth="0.3cm" /><path d="M-4.55961,1.90706 a0.16,0.16 0 1,1 0.32,0 a0.16,0.16 0 1,1 -0.32,0z" transform="matrix(1,0,0,-1,5,2.5)" fill="rgb(255,255,255)" stroke="rgb(0,0,0)" stroke-width="0.0010cm" stroke-linecap="round" stroke-linejoin="round" shaper:cutDepth="0.3cm" /><path d="M4.24039,-1.89294 a0.16,0.16 0 1,1 0.32,0 a0.16,0.16 0 1,1 -0.32,0z" transform="matrix(1,0,0,-1,5,2.5)" fill="rgb(255,255,255)" stroke="rgb(0,0,0)" stroke-width="0.0010cm" stroke-linecap="round" stroke-linejoin="round" shaper:cutDepth="0.3cm" /></svg>