<?xml version="1.0" encoding="utf-8"?>
<!-- Generator: Fusion 360, Shaper Origin Export Add-In, Version 1.9.0  -->
<svg xmlns="http://www.w3.org/2000/svg" xmlns:xlink="http://www.w3.org/1999/xlink" xmlns:shaper="http://www.shapertools.com/namespaces/shaper" shaper:fusionaddin="version:1.9.0" width="10cm" height="10cm" version="1.1" x="0cm" y="0cm" viewBox="0 0 10 10" enable-background="new 0 0 10 10" xml:space="preserve"><path d="M-2.5705065,-1.8522899 A0.1,0.1 0 0,0 -2.6705065,-1.9522899 L-3.7306465,-1.9522899 A0.1,0.1 90 0,1 -3.8306465,-2.0522899 L-3.8306465,-2.5361799 A0.5,0.5 179.9999964 0,1 -3.3306465,-3.0361799 L5.6693535,-3.0361799 A0.5,0.5 269.9999963 0,1 6.1693535,-2.5361799 L6.1693535,-2.1492899 A0.1,0.1 0 0,1 6.0693535,-2.0492899 L4.8309935,-2.0492899 A0.1,0.1 270 0,0 4.7309935,-1.9492899 L4.7309935,3.4607101 A0.1,0.1 180 0,0 4.8309935,3.5607101 L6.0693535,3.5607101 A0.1,0.1 270 0,1 6.1693535,3.6607101 L6.1693535,3.7577101 A0.1,0.1 0 0,1 6.0693535,3.8577101 L4.7459935,3.8577101 A0.1,0.1 270 0,0 4.6459935,3.9577101 L4.6459935,5.4577101 A0.1,0.1 180 0,0 4.7459935,5.5577101 L6.0693535,5.5577101 A0.1,0.1 270 0,1 6.1693535,5.6577101 L6.1693535,6.4638201 A0.5,0.5 0 0,1 5.6693535,6.9638201 L3.3419935,6.9638201 A0.1,0.1 90 0,1 3.2419935,6.8638201 L3.2419935,5.4962101 A0.1,0.1 0 0,0 3.1419935,5.3962101 L-2.8040065,5.3962101 A0.1,0.1 270 0,0 -2.9040065,5.4962101 L-2.9040065,6.8638201 A0.1,0.1 0 0,1 -3.0040065,6.9638201 L-3.3306465,6.9638201 A0.5,0.5 89.9999963 0,1 -3.8306465,6.4638201 L-3.8306465,3.0737101 A0.1,0.1 180 0,1 -3.7306465,2.9737101 L-2.6705065,2.9737101 A0.1,0.1 90 0,0 -2.5705065,2.8737101 L-2.5705065,-1.8522899z" transform="matrix(1,0,0,-1,3.8306465,6.9638201)" fill="rgb(0,0,0)" shaper:cutDepth="0.3cm" stroke-linecap="round" stroke-linejoin="round" /><path d="M5.4089935,-2.4362899 a0.16,0.16 0 1,1 0.32,0 a0.16,0.16 0 1,1 -0.32,0z" transform="matrix(1,0,0,-1,3.8306465,6.9638201)" fill="rgb(255,255,255)" stroke="rgb(0,0,0)" stroke-width="0.0010cm" stroke-linecap="round" stroke-linejoin="round" shaper:cutDepth="0.3cm" /><path d="M-3.3910065,6.3637101 a0.16,0.16 0 1,1 0.32,0 a0.16,0.16 0 1,1 -0.32,0z" transform="matrix(1,0,0,-1,3.8306465,6.9638201)" fill="rgb(255,255,255)" stroke="rgb(0,0,0)" stroke-width="0.0010cm" stroke-linecap="round" stroke-linejoin="round" shaper:cutDepth="0.3cm" /><path d="M-3.3910065,-2.4362899 a0.16,0.16 0 1,1 0.32,0 a0.16,0.16 0 1,1 -0.32,0z" transform="matrix(1,0,0,-1,3.8306465,6.9638201)" fill="rgb(255,255,255)" stroke="rgb(0,0,0)" stroke-width="0.0010cm" stroke-linecap="round" stroke-linejoin="round" shaper:cutDepth="0.3cm" /><path d="M5.4089935,6.3637101 a0.16,0.16 0 1,1 0.32,0 a0.16,0.16 0 1,1 -0.32,0z" transform="matrix(1,0,0,-1,3.8306465,6.9638201)" fill="rgb(255,255,255)" stroke="rgb(0,0,0)" stroke-width="0.0010cm" stroke-linecap="round" stroke-linejoin="round" shaper:cutDepth="0.3cm" /><path d="M1.3569935,1.2087101 A0.28,0.28 0 0,0 0.7969935,1.2087101 L0.7969935,1.8087101 A0.28,0.28 180 0,0 1.3569935,1.8087101 L1.3569935,1.2087101z" transform="matrix(1,0,0,-1,3.8306465,6.9638201)" fill="rgb(255,255,255)" stroke="rgb(0,0,0)" stroke-width="0.0010cm" stroke-linecap="round" stroke-linejoin="round" shaper:cutDepth="0.3cm" /><path d="M-2.4820065,4.9707101 A0.05,0.05 180 0,0 -2.4320065,5.0207101 L-1.8240065,5.0207101 A0.05,0.05 90 0,0 -1.7740065,4.9707101 L-1.7740065,2.8387101 A0.05,0.05 0 0,0 -1.8240065,2.7887101 L-2.4320065,2.7887101 A0.05,0.05 270 0,0 -2.4820065,2.8387101 L-2.4820065,4.9707101z" transform="matrix(1,0,0,-1,3.8306465,6.9638201)" fill="rgb(255,255,255)" stroke="rgb(0,0,0)" stroke-width="0.0010cm" stroke-linecap="round" stroke-linejoin="round" shaper:cutDepth="0.3cm" /></svg>