<?xml version="1.0" encoding="utf-8"?>
<!-- Generator: Fusion 360, Shaper Origin Export Add-In, Version 1.8.0  -->
<svg xmlns="http://www.w3.org/2000/svg" xmlns:xlink="http://www.w3.org/1999/xlink" xmlns:shaper="http://www.shapertools.com/namespaces/shaper" shaper:fusionaddin="version:1.8.0" width="10cm" height="10cm" version="1.1" x="0cm" y="0cm" viewBox="0 0 10 10" enable-background="new 0 0 10 10" xml:space="preserve"><path d="M3.64789,-3.53411 A0.1,0.1 0 0,1 3.54789,-3.43411 L3.42239,-3.43411 A0.1,0.1 270 0,0 3.32239,-3.33411 L3.32239,-0.00536 A0.1,0.1 180 0,0 3.42239,0.09464 L3.54789,0.09464 A0.1,0.1 270 0,1 3.64789,0.19464 L3.64789,0.42514 A0.1,0.1 180 0,0 3.74789,0.52514 L4.9,0.52514 A0.1,0.1 270 0,1 5,0.62514 L5,0.78989 A0.1,0.1 0 0,1 4.9,0.88989 L3.57964,0.88989 A0.1,0.1 270 0,0 3.47964,0.98989 L3.47964,2.48989 A0.1,0.1 180 0,0 3.57964,2.58989 L4.9,2.58989 A0.1,0.1 270 0,1 5,2.68989 L5,4.5 A0.5,0.5 0 0,1 4.5,5 L2.17264,5 A0.1,0.1 90 0,1 2.07264,4.9 L2.07264,3.53239 A0.1,0.1 0 0,0 1.97264,3.43239 L-3.97336,3.43239 A0.1,0.1 270 0,0 -4.07336,3.53239 L-4.07336,4.9 A0.1,0.1 0 0,1 -4.17336,5 L-4.5,5 A0.5,0.5 89.9999963 0,1 -5,4.5 L-5,2.72989 A0.1,0.1 180 0,1 -4.9,2.62989 L-3.58036,2.62989 A0.1,0.1 90 0,0 -3.48036,2.52989 L-3.48036,1.02989 A0.1,0.1 0 0,0 -3.58036,0.92989 L-4.9,0.92989 A0.1,0.1 90 0,1 -5,0.82989 L-5,0.79339 A0.1,0.1 180 0,1 -4.9,0.69339 L-3.74861,0.69339 A0.1,0.1 90 0,0 -3.64861,0.59339 L-3.64861,0.38389 A0.1,0.1 180 0,1 -3.54861,0.28389 L-3.42311,0.28389 A0.1,0.1 90 0,0 -3.32311,0.18389 L-3.32311,-3.14486 A0.1,0.1 0 0,0 -3.42311,-3.24486 L-3.54861,-3.24486 A0.1,0.1 90 0,1 -3.64861,-3.34486 L-3.64861,-3.57536 A0.1,0.1 0 0,0 -3.74861,-3.67536 L-4.9,-3.67536 A0.1,0.1 90 0,1 -5,-3.77536 L-5,-4.5 A0.5,0.5 179.9999964 0,1 -4.5,-5 L4.5,-5 A0.5,0.5 269.9999963 0,1 5,-4.5 L5,-3.94361 A0.1,0.1 0 0,1 4.9,-3.84361 L3.74789,-3.84361 A0.1,0.1 270 0,0 3.64789,-3.74361 L3.64789,-3.53411z" transform="matrix(1,0,0,-1,5,5)" fill="rgb(0,0,0)" stroke-linecap="round" stroke-linejoin="round" /><path d="M4.23964,-4.40011 a0.16,0.16 0 1,1 0.32,0 a0.16,0.16 0 1,1 -0.32,0z" transform="matrix(1,0,0,-1,5,5)" fill="rgb(255,255,255)" stroke="rgb(0,0,0)" stroke-width="0.0010cm" stroke-linecap="round" stroke-linejoin="round" /><path d="M-4.56036,4.39989 a0.16,0.16 0 1,1 0.32,0 a0.16,0.16 0 1,1 -0.32,0z" transform="matrix(1,0,0,-1,5,5)" fill="rgb(255,255,255)" stroke="rgb(0,0,0)" stroke-width="0.0010cm" stroke-linecap="round" stroke-linejoin="round" /><path d="M1.52514,-3.89311 L1.52514,-1.50711 A0.1,0.1 180 0,0 1.62514,-1.40711 L2.61414,-1.40711 A0.1,0.1 90 0,0 2.71414,-1.50711 L2.71414,-3.89311 A0.1,0.1 0 0,0 2.61414,-3.99311 L1.62514,-3.99311 A0.1,0.1 270 0,0 1.52514,-3.89311z" transform="matrix(1,0,0,-1,5,5)" fill="rgb(255,255,255)" stroke="rgb(0,0,0)" stroke-width="0.0010cm" stroke-linecap="round" stroke-linejoin="round" /><path d="M-4.56036,-4.40011 a0.16,0.16 0 1,1 0.32,0 a0.16,0.16 0 1,1 -0.32,0z" transform="matrix(1,0,0,-1,5,5)" fill="rgb(255,255,255)" stroke="rgb(0,0,0)" stroke-width="0.0010cm" stroke-linecap="round" stroke-linejoin="round" /><path d="M4.23964,4.39989 a0.16,0.16 0 1,1 0.32,0 a0.16,0.16 0 1,1 -0.32,0z" transform="matrix(1,0,0,-1,5,5)" fill="rgb(255,255,255)" stroke="rgb(0,0,0)" stroke-width="0.0010cm" stroke-linecap="round" stroke-linejoin="round" /><path d="M-2.95736,-4.45711 L-2.95736,-3.84911 A0.05,0.05 180 0,0 -2.90736,-3.79911 L-0.77536,-3.79911 A0.05,0.05 90 0,0 -0.72536,-3.84911 L-0.72536,-4.45711 A0.05,0.05 0 0,0 -0.77536,-4.50711 L-2.90736,-4.50711 A0.05,0.05 270 0,0 -2.95736,-4.45711z" transform="matrix(1,0,0,-1,5,5)" fill="rgb(255,255,255)" stroke="rgb(0,0,0)" stroke-width="0.0010cm" stroke-linecap="round" stroke-linejoin="round" /></svg>