<?xml version="1.0" encoding="utf-8"?>
<!-- Generator: Fusion 360, Shaper Origin Export Add-In, Version 1.9.0  -->
<svg xmlns="http://www.w3.org/2000/svg" xmlns:xlink="http://www.w3.org/1999/xlink" xmlns:shaper="http://www.shapertools.com/namespaces/shaper" shaper:fusionaddin="version:1.9.0" width="5cm" height="5cm" version="1.1" x="0cm" y="0cm" viewBox="0 0 5 5" enable-background="new 0 0 5 5" xml:space="preserve"><path d="M2.5,-1.40059 A0.1,0.1 0 0,1 2.4,-1.30059 L1.49956,-1.30059 A0.1,0.1 270 0,0 1.39956,-1.20059 L1.39956,1.18541 A0.1,0.1 180 0,0 1.49956,1.28541 L2.4,1.28541 A0.1,0.1 270 0,1 2.5,1.38541 L2.5,2 A0.5,0.5 0 0,1 2,2.5 L-2,2.5 A0.5,0.5 89.9999963 0,1 -2.5,2 L-2.5,1.69241 A0.1,0.1 180 0,1 -2.4,1.59241 L-1.16794,1.59241 A0.1,0.1 90 0,0 -1.06794,1.49241 L-1.06794,-1.48759 A0.1,0.1 0 0,0 -1.16794,-1.58759 L-2.4,-1.58759 A0.1,0.1 90 0,1 -2.5,-1.68759 L-2.5,-2 A0.5,0.5 179.9999964 0,1 -2,-2.5 L2,-2.5 A0.5,0.5 269.9999963 0,1 2.5,-2 L2.5,-1.40059z" transform="matrix(1,0,0,-1,2.5,2.5)" fill="rgb(0,0,0)" shaper:cutDepth="0.3cm" stroke-linecap="round" stroke-linejoin="round" /><path d="M-2.05294,-1.89159 a0.16,0.16 0 1,1 0.32,0 a0.16,0.16 0 1,1 -0.32,0z" transform="matrix(1,0,0,-1,2.5,2.5)" fill="rgb(255,255,255)" stroke="rgb(0,0,0)" stroke-width="0.0010cm" stroke-linecap="round" stroke-linejoin="round" shaper:cutDepth="0.3cm" /><path d="M1.74706,1.90841 a0.16,0.16 0 1,1 0.32,0 a0.16,0.16 0 1,1 -0.32,0z" transform="matrix(1,0,0,-1,2.5,2.5)" fill="rgb(255,255,255)" stroke="rgb(0,0,0)" stroke-width="0.0010cm" stroke-linecap="round" stroke-linejoin="round" shaper:cutDepth="0.3cm" /><path d="M1.74706,-1.89159 a0.16,0.16 0 1,1 0.32,0 a0.16,0.16 0 1,1 -0.32,0z" transform="matrix(1,0,0,-1,2.5,2.5)" fill="rgb(255,255,255)" stroke="rgb(0,0,0)" stroke-width="0.0010cm" stroke-linecap="round" stroke-linejoin="round" shaper:cutDepth="0.3cm" /><path d="M-2.05294,1.90841 a0.16,0.16 0 1,1 0.32,0 a0.16,0.16 0 1,1 -0.32,0z" transform="matrix(1,0,0,-1,2.5,2.5)" fill="rgb(255,255,255)" stroke="rgb(0,0,0)" stroke-width="0.0010cm" stroke-linecap="round" stroke-linejoin="round" shaper:cutDepth="0.3cm" /></svg>