<?xml version="1.0" encoding="utf-8"?>
<!-- Generator: Fusion 360, Shaper Origin Export Add-In, Version 1.9.0  -->
<svg xmlns="http://www.w3.org/2000/svg" xmlns:xlink="http://www.w3.org/1999/xlink" xmlns:shaper="http://www.shapertools.com/namespaces/shaper" shaper:fusionaddin="version:1.9.0" width="10.0260342cm" height="6.4685842cm" version="1.1" x="0cm" y="0cm" viewBox="0 0 10.0260342 6.4685842" enable-background="new 0 0 10.0260342 6.4685842" xml:space="preserve"><path d="M3.4906271,-4.06075 L3.4906271,-4.96819 A0.1,0.1 180 0,1 3.5906271,-5.06819 L4.5130171,-5.06819 A0.5,0.5 269.9999963 0,1 5.0130171,-4.56819 L4.9876271,0.89975 A0.5,0.5 0 0,1 4.4876271,1.39975 L1.3156271,1.39975 A0.1,0.1 90 0,1 1.2156271,1.29975 L1.2156271,0.15025 A0.1,0.1 0 0,0 1.1156271,0.05025 L-1.1703729,0.05025 A0.1,0.1 270 0,0 -1.2703729,0.15025 L-1.2703729,1.29975 A0.1,0.1 0 0,1 -1.3703729,1.39975 L-4.4869829,1.39975 A0.5006443,0.5006443 87.0930259 0,1 -5.0130171,0.89975 L-4.9869829,-4.56819 A0.5,0.5 179.9999964 0,1 -4.4869829,-5.06819 L-3.4613729,-5.06819 A0.1,0.1 270 0,1 -3.3613729,-4.96819 L-3.3613729,-4.06075 A0.1,0.1 180 0,0 -3.2613729,-3.96075 L-0.9753729,-3.96075 A0.1,0.1 90 0,0 -0.8753729,-4.06075 L-0.8753729,-4.96819 A0.1,0.1 180 0,1 -0.7753729,-5.06819 L0.9046271,-5.06819 A0.1,0.1 270 0,1 1.0046271,-4.96819 L1.0046271,-4.06075 A0.1,0.1 180 0,0 1.1046271,-3.96075 L3.3906271,-3.96075 A0.1,0.1 90 0,0 3.4906271,-4.06075z" transform="matrix(1,0,0,-1,5.0130171,1.4003942)" fill="rgb(0,0,0)" shaper:cutDepth="0.3cm" stroke-linecap="round" stroke-linejoin="round" /><path d="M-3.4333729,0.56962 a0.275,0.275 0 1,1 0.55,0 a0.275,0.275 0 1,1 -0.55,0z" transform="matrix(1,0,0,-1,5.0130171,1.4003942)" fill="rgb(255,255,255)" stroke="rgb(0,0,0)" stroke-width="0.0010cm" stroke-linecap="round" stroke-linejoin="round" shaper:cutDepth="0.3cm" /><path d="M4.2276271,0.79975 a0.16,0.16 0 1,1 0.32,0 a0.16,0.16 0 1,1 -0.32,0z" transform="matrix(1,0,0,-1,5.0130171,1.4003942)" fill="rgb(255,255,255)" stroke="rgb(0,0,0)" stroke-width="0.0010cm" stroke-linecap="round" stroke-linejoin="round" shaper:cutDepth="0.3cm" /><path d="M-4.5723729,-4.50025 a0.16,0.16 0 1,1 0.32,0 a0.16,0.16 0 1,1 -0.32,0z" transform="matrix(1,0,0,-1,5.0130171,1.4003942)" fill="rgb(255,255,255)" stroke="rgb(0,0,0)" stroke-width="0.0010cm" stroke-linecap="round" stroke-linejoin="round" shaper:cutDepth="0.3cm" /><path d="M4.2276271,-4.50025 a0.16,0.16 0 1,1 0.32,0 a0.16,0.16 0 1,1 -0.32,0z" transform="matrix(1,0,0,-1,5.0130171,1.4003942)" fill="rgb(255,255,255)" stroke="rgb(0,0,0)" stroke-width="0.0010cm" stroke-linecap="round" stroke-linejoin="round" shaper:cutDepth="0.3cm" /><path d="M-4.5723729,0.79975 a0.16,0.16 0 1,1 0.32,0 a0.16,0.16 0 1,1 -0.32,0z" transform="matrix(1,0,0,-1,5.0130171,1.4003942)" fill="rgb(255,255,255)" stroke="rgb(0,0,0)" stroke-width="0.0010cm" stroke-linecap="round" stroke-linejoin="round" shaper:cutDepth="0.3cm" /><path d="M4.0976271,-3.75025 A0.1,0.1 0 0,0 3.9976271,-3.85025 L-4.0023729,-3.85025 A0.1,0.1 270 0,0 -4.1023729,-3.75025 L-4.1023729,-0.15025 A0.1,0.1 180 0,0 -4.0023729,-0.05025 L3.9976271,-0.05025 A0.1,0.1 90 0,0 4.0976271,-0.15025 L4.0976271,-3.75025z" transform="matrix(1,0,0,-1,5.0130171,1.4003942)" fill="rgb(255,255,255)" stroke="rgb(0,0,0)" stroke-width="0.0010cm" stroke-linecap="round" stroke-linejoin="round" shaper:cutDepth="0.3cm" /></svg>