<?xml version="1.0" encoding="utf-8"?>
<!-- Generator: Fusion 360, Shaper Origin Export Add-In, Version 1.8.0  -->
<svg xmlns="http://www.w3.org/2000/svg" xmlns:xlink="http://www.w3.org/1999/xlink" xmlns:shaper="http://www.shapertools.com/namespaces/shaper" shaper:fusionaddin="version:1.8.0" width="10cm" height="10cm" version="1.1" x="0cm" y="0cm" viewBox="0 0 10 10" enable-background="new 0 0 10 10" xml:space="preserve"><path d="M5,-2.17264 A0.1,0.1 0 0,1 4.9,-2.07264 L3.53239,-2.07264 A0.1,0.1 270 0,0 3.43239,-1.97264 L3.43239,3.97336 A0.1,0.1 180 0,0 3.53239,4.07336 L4.9,4.07336 A0.1,0.1 270 0,1 5,4.17336 L5,4.5 A0.5,0.5 0 0,1 4.5,5 L-4.5,5 A0.5,0.5 89.9999963 0,1 -5,4.5 L-5,3.76736 A0.1,0.1 180 0,1 -4.9,3.66736 L-4.32911,3.66736 A0.1,0.1 90 0,0 -4.22911,3.56736 L-4.22911,1.83996 A0.1,0.1 180 0,1 -4.12911,1.73996 L-2.37211,1.73996 A0.1,0.1 90 0,0 -2.27211,1.63996 L-2.27211,-3.48924 A0.1,0.1 0 0,0 -2.37211,-3.58924 L-4.9,-3.58924 A0.1,0.1 90 0,1 -5,-3.68924 L-5,-4.5 A0.5,0.5 179.9999964 0,1 -4.5,-5 L4.5,-5 A0.5,0.5 269.9999963 0,1 5,-4.5 L5,-2.17264z" transform="matrix(1,0,0,-1,5,5)" fill="rgb(0,0,0)" stroke-linecap="round" stroke-linejoin="round" /><path d="M-1.11361,-2.83264 L-0.50561,-2.83264 A0.05,0.05 90 0,0 -0.45561,-2.88264 L-0.45561,-3.23664 A0.05,0.05 0 0,0 -0.50561,-3.28664 L-1.11361,-3.28664 A0.05,0.05 270 0,0 -1.16361,-3.23664 L-1.16361,-2.88264 A0.05,0.05 180 0,0 -1.11361,-2.83264z" transform="matrix(1,0,0,-1,5,5)" fill="rgb(255,255,255)" stroke="rgb(0,0,0)" stroke-width="0.0010cm" stroke-linecap="round" stroke-linejoin="round" /><path d="M-1.62761,4.43036 a0.125,0.125 0 1,1 0.25,0 a0.125,0.125 0 1,1 -0.25,0z" transform="matrix(1,0,0,-1,5,5)" fill="rgb(255,255,255)" stroke="rgb(0,0,0)" stroke-width="0.0010cm" stroke-linecap="round" stroke-linejoin="round" /><path d="M-4.56011,-4.39964 a0.16,0.16 0 1,1 0.32,0 a0.16,0.16 0 1,1 -0.32,0z" transform="matrix(1,0,0,-1,5,5)" fill="rgb(255,255,255)" stroke="rgb(0,0,0)" stroke-width="0.0010cm" stroke-linecap="round" stroke-linejoin="round" /><path d="M4.23989,4.40036 a0.16,0.16 0 1,1 0.32,0 a0.16,0.16 0 1,1 -0.32,0z" transform="matrix(1,0,0,-1,5,5)" fill="rgb(255,255,255)" stroke="rgb(0,0,0)" stroke-width="0.0010cm" stroke-linecap="round" stroke-linejoin="round" /><path d="M-4.56011,4.40036 a0.16,0.16 0 1,1 0.32,0 a0.16,0.16 0 1,1 -0.32,0z" transform="matrix(1,0,0,-1,5,5)" fill="rgb(255,255,255)" stroke="rgb(0,0,0)" stroke-width="0.0010cm" stroke-linecap="round" stroke-linejoin="round" /><path d="M4.40989,-3.58464 L3.73489,-3.58464 A0.05,0.05 270 0,0 3.68489,-3.53464 L3.68489,-2.69464 A0.05,0.05 180 0,0 3.73489,-2.64464 L4.40989,-2.64464 A0.05,0.05 90 0,0 4.45989,-2.69464 L4.45989,-3.53464 A0.05,0.05 0 0,0 4.40989,-3.58464z" transform="matrix(1,0,0,-1,5,5)" fill="rgb(255,255,255)" stroke="rgb(0,0,0)" stroke-width="0.0010cm" stroke-linecap="round" stroke-linejoin="round" /><path d="M-3.54691,-3.98684 L-2.70691,-3.98684 A0.05,0.05 90 0,0 -2.65691,-4.03684 L-2.65691,-4.71184 A0.05,0.05 0 0,0 -2.70691,-4.76184 L-3.54691,-4.76184 A0.05,0.05 270 0,0 -3.59691,-4.71184 L-3.59691,-4.03684 A0.05,0.05 180 0,0 -3.54691,-3.98684z" transform="matrix(1,0,0,-1,5,5)" fill="rgb(255,255,255)" stroke="rgb(0,0,0)" stroke-width="0.0010cm" stroke-linecap="round" stroke-linejoin="round" /><path d="M2.11253,3.97056 L3.14725,3.97056 A0.1,0.1 90 0,0 3.24725,3.87056 L3.24725,-1.96984 A0.1,0.1 0 0,0 3.14725,-2.06984 L2.11253,-2.06984 A0.1,0.1 270 0,0 2.01253,-1.96984 L2.01253,3.87056 A0.1,0.1 180 0,0 2.11253,3.97056z" transform="matrix(1,0,0,-1,5,5)" fill="rgb(255,255,255)" stroke="rgb(0,0,0)" stroke-width="0.0010cm" stroke-linecap="round" stroke-linejoin="round" /><path d="M0.99089,-3.37264 L2.36089,-3.37264 A0.05,0.05 90 0,0 2.41089,-3.42264 L2.41089,-4.03064 A0.05,0.05 0 0,0 2.36089,-4.08064 L0.99089,-4.08064 A0.05,0.05 270 0,0 0.94089,-4.03064 L0.94089,-3.42264 A0.05,0.05 180 0,0 0.99089,-3.37264z" transform="matrix(1,0,0,-1,5,5)" fill="rgb(255,255,255)" stroke="rgb(0,0,0)" stroke-width="0.0010cm" stroke-linecap="round" stroke-linejoin="round" /><path d="M0.36289,-3.37264 L0.71689,-3.37264 A0.05,0.05 90 0,0 0.76689,-3.42264 L0.76689,-4.03064 A0.05,0.05 0 0,0 0.71689,-4.08064 L0.36289,-4.08064 A0.05,0.05 270 0,0 0.31289,-4.03064 L0.31289,-3.42264 A0.05,0.05 180 0,0 0.36289,-3.37264z" transform="matrix(1,0,0,-1,5,5)" fill="rgb(255,255,255)" stroke="rgb(0,0,0)" stroke-width="0.0010cm" stroke-linecap="round" stroke-linejoin="round" /><path d="M-0.27011,4.80786 L0.56989,4.80786 A0.05,0.05 90 0,0 0.61989,4.75786 L0.61989,4.08286 A0.05,0.05 0 0,0 0.56989,4.03286 L-0.27011,4.03286 A0.05,0.05 270 0,0 -0.32011,4.08286 L-0.32011,4.75786 A0.05,0.05 180 0,0 -0.27011,4.80786z" transform="matrix(1,0,0,-1,5,5)" fill="rgb(255,255,255)" stroke="rgb(0,0,0)" stroke-width="0.0010cm" stroke-linecap="round" stroke-linejoin="round" /><path d="M4.23989,-4.39964 a0.16,0.16 0 1,1 0.32,0 a0.16,0.16 0 1,1 -0.32,0z" transform="matrix(1,0,0,-1,5,5)" fill="rgb(255,255,255)" stroke="rgb(0,0,0)" stroke-width="0.0010cm" stroke-linecap="round" stroke-linejoin="round" /></svg>