<?xml version="1.0" encoding="utf-8"?>
<!-- Generator: Fusion 360, Shaper Origin Export Add-In, Version 1.8.0  -->
<svg xmlns="http://www.w3.org/2000/svg" xmlns:xlink="http://www.w3.org/1999/xlink" xmlns:shaper="http://www.shapertools.com/namespaces/shaper" shaper:fusionaddin="version:1.8.0" width="10.0000001cm" height="10cm" version="1.1" x="0cm" y="0cm" viewBox="0 0 10.0000001 10" enable-background="new 0 0 10.0000001 10" xml:space="preserve"><path d="M4.8999586,1.9732699 A0.1,0.1 269.9999994 0,1 4.9999586,2.0732699 L4.9999586,4.4999999 A0.5,0.5 0 0,1 4.4999586,5 L2.1725986,5 A0.1,0.1 89.9999994 0,1 2.0725986,4.9 L2.0725986,3.53239 A0.1,0.1 0 0,0 1.9725986,3.43239 L-3.9734014,3.43239 A0.1,0.1 269.9999994 0,0 -4.0734014,3.53239 L-4.0734014,4.9 A0.1,0.1 0 0,1 -4.1734014,5 L-4.5000414,5 A0.5,0.5 89.9999957 0,1 -5.0000414,4.5000001 L-5.0000415,-4.4999999 A0.5,0.5 179.9999957 0,1 -4.5000415,-5 L4.4999585,-5 A0.4999997,0.4999997 269.9999713 0,1 4.9999584,-4.4998001 L4.9995985,-3.6000701 A0.0999999,0.0999999 0.0228827 0,1 4.8995985,-3.5001101 L4.1495985,-3.50011 A0.0999999,0.0999999 270.0000422 0,0 4.0495985,-3.40011 L4.0495986,-0.35011 A0.0999999,0.0999999 180.0000422 0,0 4.1495986,-0.25011 L4.8995986,-0.2501101 A0.0999999,0.0999999 269.9999566 0,1 4.9995986,-0.1501101 L4.9999586,-0.1501101 4.9999586,0.5725099 A0.1,0.1 0 0,1 4.8999586,0.6725099 L3.9141586,0.67251 A0.1,0.1 269.9999994 0,0 3.8141586,0.77251 L3.8141586,1.87327 A0.1,0.1 179.9999991 0,0 3.9141586,1.97327 L4.8999586,1.9732699z" transform="matrix(1,0,0,-1,5.0000415,5)" fill="rgb(0,0,0)" stroke-linecap="round" stroke-linejoin="round" /><path d="M2.4881986,1.96389 A0.1,0.1 89.9999994 0,1 2.3881986,1.86389 L2.3881986,0.10889 A0.1,0.1 0 0,0 2.2881986,0.00889 L-2.8410014,0.00889 A0.1,0.1 269.9999994 0,0 -2.9410014,0.10889 L-2.9410014,2.49489 A0.1,0.1 179.9999991 0,0 -2.8410014,2.59489 L3.2881986,2.59489 A0.1,0.1 89.9999994 0,0 3.3881986,2.49489 L3.3881986,2.06389 A0.1,0.1 0 0,0 3.2881986,1.96389 L2.4881986,1.96389z" transform="matrix(1,0,0,-1,5.0000415,5)" fill="rgb(255,255,255)" stroke="rgb(0,0,0)" stroke-width="0.0010cm" stroke-linecap="round" stroke-linejoin="round" /><path d="M2.5721986,-1.25586 A0.1,0.1 89.9999994 0,1 2.4721986,-1.35586 L2.4721985,-3.11086 A0.1,0.1 0 0,0 2.3721985,-3.21086 L-4.2810015,-3.21086 A0.1,0.1 269.9999994 0,0 -4.3810015,-3.11086 L-4.3810014,-0.72486 A0.1,0.1 179.9999991 0,0 -4.2810014,-0.62486 L-4.1214014,-0.62486 A0.05,0.05 269.9999994 0,1 -4.0714014,-0.57486 L-4.0714014,0.24589 A0.05,0.05 179.9999991 0,0 -4.0214014,0.29589 L-3.6674014,0.29589 A0.05,0.05 89.9999994 0,0 -3.6174014,0.24589 L-3.6174014,-0.57486 A0.05,0.05 179.9999991 0,1 -3.5674014,-0.62486 L3.2881986,-0.62486 A0.1,0.1 89.9999994 0,0 3.3881986,-0.72486 L3.3881986,-1.15586 A0.1,0.1 0 0,0 3.2881986,-1.25586 L2.5721986,-1.25586z" transform="matrix(1,0,0,-1,5.0000415,5)" fill="rgb(255,255,255)" stroke="rgb(0,0,0)" stroke-width="0.0010cm" stroke-linecap="round" stroke-linejoin="round" /><path d="M4.2395986,4.39989 a0.16,0.16 0 1,1 0.32,0 a0.16,0.16 0 1,1 -0.32,0z" transform="matrix(1,0,0,-1,5.0000415,5)" fill="rgb(255,255,255)" stroke="rgb(0,0,0)" stroke-width="0.0010cm" stroke-linecap="round" stroke-linejoin="round" /><path d="M4.2395985,-4.40011 a0.16,0.16 0 1,1 0.32,0 a0.16,0.16 0 1,1 -0.32,0z" transform="matrix(1,0,0,-1,5.0000415,5)" fill="rgb(255,255,255)" stroke="rgb(0,0,0)" stroke-width="0.0010cm" stroke-linecap="round" stroke-linejoin="round" /><path d="M-3.7874015,-4.28411 L-3.7874015,-3.67611 A0.05,0.05 179.9999991 0,0 -3.7374015,-3.62611 L-1.6054015,-3.62611 A0.05,0.05 89.9999994 0,0 -1.5554015,-3.67611 L-1.5554015,-4.28411 A0.05,0.05 0 0,0 -1.6054015,-4.33411 L-3.7374015,-4.33411 A0.05,0.05 269.9999994 0,0 -3.7874015,-4.28411z" transform="matrix(1,0,0,-1,5.0000415,5)" fill="rgb(255,255,255)" stroke="rgb(0,0,0)" stroke-width="0.0010cm" stroke-linecap="round" stroke-linejoin="round" /><path d="M2.6835986,3.71289 L2.6835986,4.38789 A0.05,0.05 179.9999991 0,0 2.7335986,4.43789 L3.5735986,4.43789 A0.05,0.05 89.9999994 0,0 3.6235986,4.38789 L3.6235986,3.71289 A0.05,0.05 0 0,0 3.5735986,3.66289 L2.7335986,3.66289 A0.05,0.05 269.9999994 0,0 2.6835986,3.71289z" transform="matrix(1,0,0,-1,5.0000415,5)" fill="rgb(255,255,255)" stroke="rgb(0,0,0)" stroke-width="0.0010cm" stroke-linecap="round" stroke-linejoin="round" /><path d="M-4.5604015,-4.40011 a0.16,0.16 0 1,1 0.32,0 a0.16,0.16 0 1,1 -0.32,0z" transform="matrix(1,0,0,-1,5.0000415,5)" fill="rgb(255,255,255)" stroke="rgb(0,0,0)" stroke-width="0.0010cm" stroke-linecap="round" stroke-linejoin="round" /><path d="M-4.5604014,4.39989 a0.16,0.16 0 1,1 0.32,0 a0.16,0.16 0 1,1 -0.32,0z" transform="matrix(1,0,0,-1,5.0000415,5)" fill="rgb(255,255,255)" stroke="rgb(0,0,0)" stroke-width="0.0010cm" stroke-linecap="round" stroke-linejoin="round" /></svg>