<?xml version="1.0" encoding="utf-8"?>
<!-- Generator: Fusion 360, Shaper Origin Export Add-In, Version 1.8.0  -->
<svg xmlns="http://www.w3.org/2000/svg" xmlns:xlink="http://www.w3.org/1999/xlink" xmlns:shaper="http://www.shapertools.com/namespaces/shaper" shaper:fusionaddin="version:1.8.0" width="10.4cm" height="5.4cm" version="1.1" x="0cm" y="0cm" viewBox="0 0 10.4 5.4" enable-background="new 0 0 10.4 5.4" xml:space="preserve"><path d="M-2.83672,-2.7 A0.1,0.1 270 0,1 -2.73672,-2.6 L-2.73672,-1.16658 A0.1,0.1 180 0,0 -2.63672,-1.06658 L2.57328,-1.06658 A0.1,0.1 90 0,0 2.67328,-1.16658 L2.67328,-2.6 A0.1,0.1 180 0,1 2.77328,-2.7 L4.5,-2.7 A0.7,0.7 269.9999974 0,1 5.2,-2 L5.2,2 A0.7,0.7 0 0,1 4.5,2.7 L3.52439,2.7 A0.1,0.1 90 0,1 3.42439,2.6 L3.42439,1.46756 A0.1,0.1 0 0,0 3.32439,1.36756 L0.93839,1.36756 A0.1,0.1 270 0,0 0.83839,1.46756 L0.83839,2.6 A0.1,0.1 0 0,1 0.73839,2.7 L-0.84161,2.7 A0.1,0.1 90 0,1 -0.94161,2.6 L-0.94161,1.46756 A0.1,0.1 0 0,0 -1.04161,1.36756 L-3.42761,1.36756 A0.1,0.1 270 0,0 -3.52761,1.46756 L-3.52761,2.6 A0.1,0.1 0 0,1 -3.62761,2.7 L-4.5,2.7 A0.7,0.7 89.9999974 0,1 -5.2,2 L-5.2,-2 A0.7,0.7 179.9999973 0,1 -4.5,-2.7 L-2.83672,-2.7z" transform="matrix(1,0,0,-1,5.2,2.7)" fill="rgb(0,0,0)" stroke-linecap="round" stroke-linejoin="round" /><path d="M4.26539,1.93206 a0.16,0.16 0 1,1 0.32,0 a0.16,0.16 0 1,1 -0.32,0z" transform="matrix(1,0,0,-1,5.2,2.7)" fill="rgb(255,255,255)" stroke="rgb(0,0,0)" stroke-width="0.0010cm" stroke-linecap="round" stroke-linejoin="round" /><path d="M-4.53461,1.93206 a0.16,0.16 0 1,1 0.32,0 a0.16,0.16 0 1,1 -0.32,0z" transform="matrix(1,0,0,-1,5.2,2.7)" fill="rgb(255,255,255)" stroke="rgb(0,0,0)" stroke-width="0.0010cm" stroke-linecap="round" stroke-linejoin="round" /></svg>