<?xml version="1.0" encoding="utf-8"?>
<!-- Generator: Fusion 360, Shaper Origin Export Add-In, Version 1.8.0  -->
<svg xmlns="http://www.w3.org/2000/svg" xmlns:xlink="http://www.w3.org/1999/xlink" xmlns:shaper="http://www.shapertools.com/namespaces/shaper" shaper:fusionaddin="version:1.8.0" width="30cm" height="12.5cm" version="1.1" x="0cm" y="0cm" viewBox="0 0 30 12.5" enable-background="new 0 0 30 12.5" xml:space="preserve"><path d="M14.5,-6.25 A0.5,0.5 270 0,1 15,-5.75 L15,5.75 A0.5,0.5 0 0,1 14.5,6.25 L-14.5,6.25 A0.5,0.5 90 0,1 -15,5.75 L-15,-5.75 A0.5,0.5 180 0,1 -14.5,-6.25 L14.5,-6.25z" transform="matrix(1,0,0,-1,15,6.25)" fill="rgb(0,0,0)" stroke-linecap="round" stroke-linejoin="round" /><path d="M11.73,4.4 a0.17,0.17 0 1,1 0.34,0 a0.17,0.17 0 1,1 -0.34,0z" transform="matrix(1,0,0,-1,15,6.25)" fill="rgb(255,255,255)" stroke="rgb(0,0,0)" stroke-width="0.0010cm" stroke-linecap="round" stroke-linejoin="round" /><path d="M2.93,-4.4 a0.17,0.17 0 1,1 0.34,0 a0.17,0.17 0 1,1 -0.34,0z" transform="matrix(1,0,0,-1,15,6.25)" fill="rgb(255,255,255)" stroke="rgb(0,0,0)" stroke-width="0.0010cm" stroke-linecap="round" stroke-linejoin="round" /><path d="M-3.27,-4.4 a0.17,0.17 0 1,1 0.34,0 a0.17,0.17 0 1,1 -0.34,0z" transform="matrix(1,0,0,-1,15,6.25)" fill="rgb(255,255,255)" stroke="rgb(0,0,0)" stroke-width="0.0010cm" stroke-linecap="round" stroke-linejoin="round" /><path d="M-12.07,-4.4 a0.17,0.17 0 1,1 0.34,0 a0.17,0.17 0 1,1 -0.34,0z" transform="matrix(1,0,0,-1,15,6.25)" fill="rgb(255,255,255)" stroke="rgb(0,0,0)" stroke-width="0.0010cm" stroke-linecap="round" stroke-linejoin="round" /><path d="M-12.07,4.4 a0.17,0.17 0 1,1 0.34,0 a0.17,0.17 0 1,1 -0.34,0z" transform="matrix(1,0,0,-1,15,6.25)" fill="rgb(255,255,255)" stroke="rgb(0,0,0)" stroke-width="0.0010cm" stroke-linecap="round" stroke-linejoin="round" /><path d="M-3.27,4.4 a0.17,0.17 0 1,1 0.34,0 a0.17,0.17 0 1,1 -0.34,0z" transform="matrix(1,0,0,-1,15,6.25)" fill="rgb(255,255,255)" stroke="rgb(0,0,0)" stroke-width="0.0010cm" stroke-linecap="round" stroke-linejoin="round" /><path d="M2.93,4.4 a0.17,0.17 0 1,1 0.34,0 a0.17,0.17 0 1,1 -0.34,0z" transform="matrix(1,0,0,-1,15,6.25)" fill="rgb(255,255,255)" stroke="rgb(0,0,0)" stroke-width="0.0010cm" stroke-linecap="round" stroke-linejoin="round" /><path d="M11.73,-4.4 a0.17,0.17 0 1,1 0.34,0 a0.17,0.17 0 1,1 -0.34,0z" transform="matrix(1,0,0,-1,15,6.25)" fill="rgb(255,255,255)" stroke="rgb(0,0,0)" stroke-width="0.0010cm" stroke-linecap="round" stroke-linejoin="round" /></svg>