<?xml version="1.0" encoding="utf-8"?>
<!-- Generator: Fusion 360, Shaper Origin Export Add-In, Version 1.8.0  -->
<svg xmlns="http://www.w3.org/2000/svg" xmlns:xlink="http://www.w3.org/1999/xlink" xmlns:shaper="http://www.shapertools.com/namespaces/shaper" shaper:fusionaddin="version:1.8.0" width="5.4cm" height="10.4cm" version="1.1" x="0cm" y="0cm" viewBox="0 0 5.4 10.4" enable-background="new 0 0 5.4 10.4" xml:space="preserve"><path d="M-2.7,3.19472 A0.1,0.1 180 0,1 -2.6,3.09472 L-1.08158,3.09472 A0.1,0.1 90 0,0 -0.98158,2.99472 L-0.98158,1.49472 A0.1,0.1 0 0,0 -1.08158,1.39472 L-2.6,1.39472 A0.1,0.1 90 0,1 -2.7,1.29472 L-2.7,-0.71928 A0.1,0.1 180 0,1 -2.6,-0.81928 L-1.45908,-0.81928 A0.1,0.1 90 0,0 -1.35908,-0.91928 L-1.35908,-3.30528 A0.1,0.1 0 0,0 -1.45908,-3.40528 L-2.6,-3.40528 A0.1,0.1 90 0,1 -2.7,-3.50528 L-2.7,-4.5 A0.7,0.7 179.9999973 0,1 -2,-5.2 L2,-5.2 A0.7,0.7 269.9999974 0,1 2.7,-4.5 L2.7,-3.52439 A0.1,0.1 0 0,1 2.6,-3.42439 L1.46756,-3.42439 A0.1,0.1 270 0,0 1.36756,-3.32439 L1.36756,-0.93839 A0.1,0.1 180 0,0 1.46756,-0.83839 L2.6,-0.83839 A0.1,0.1 270 0,1 2.7,-0.73839 L2.7,0.84161 A0.1,0.1 0 0,1 2.6,0.94161 L1.46756,0.94161 A0.1,0.1 270 0,0 1.36756,1.04161 L1.36756,3.42761 A0.1,0.1 180 0,0 1.46756,3.52761 L2.6,3.52761 A0.1,0.1 270 0,1 2.7,3.62761 L2.7,4.5 A0.7,0.7 0 0,1 2,5.2 L-2,5.2 A0.7,0.7 89.9999974 0,1 -2.7,4.5 L-2.7,3.19472z" transform="matrix(1,0,0,-1,2.7,5.2)" fill="rgb(0,0,0)" stroke-linecap="round" stroke-linejoin="round" /><path d="M1.77206,-4.42539 a0.16,0.16 0 1,1 0.32,0 a0.16,0.16 0 1,1 -0.32,0z" transform="matrix(1,0,0,-1,2.7,5.2)" fill="rgb(255,255,255)" stroke="rgb(0,0,0)" stroke-width="0.0010cm" stroke-linecap="round" stroke-linejoin="round" /><path d="M-1.32658,0.84672 A0.28,0.28 90 0,0 -1.32658,0.28672 L-1.92658,0.28672 A0.28,0.28 270 0,0 -1.92658,0.84672 L-1.32658,0.84672z" transform="matrix(1,0,0,-1,2.7,5.2)" fill="rgb(255,255,255)" stroke="rgb(0,0,0)" stroke-width="0.0010cm" stroke-linecap="round" stroke-linejoin="round" /><path d="M1.77206,4.37461 a0.16,0.16 0 1,1 0.32,0 a0.16,0.16 0 1,1 -0.32,0z" transform="matrix(1,0,0,-1,2.7,5.2)" fill="rgb(255,255,255)" stroke="rgb(0,0,0)" stroke-width="0.0010cm" stroke-linecap="round" stroke-linejoin="round" /><path d="M-2.12794,-4.42539 a0.16,0.16 0 1,1 0.32,0 a0.16,0.16 0 1,1 -0.32,0z" transform="matrix(1,0,0,-1,2.7,5.2)" fill="rgb(255,255,255)" stroke="rgb(0,0,0)" stroke-width="0.0010cm" stroke-linecap="round" stroke-linejoin="round" /><path d="M-2.12794,4.37461 a0.16,0.16 0 1,1 0.32,0 a0.16,0.16 0 1,1 -0.32,0z" transform="matrix(1,0,0,-1,2.7,5.2)" fill="rgb(255,255,255)" stroke="rgb(0,0,0)" stroke-width="0.0010cm" stroke-linecap="round" stroke-linejoin="round" /></svg>