G04 #@! TF.GenerationSoftware,KiCad,Pcbnew,(5.1.9-0-10_14)*
G04 #@! TF.CreationDate,2021-05-05T16:14:37-05:00*
G04 #@! TF.ProjectId,Prototype Card,50726f74-6f74-4797-9065-20436172642e,1.1*
G04 #@! TF.SameCoordinates,Original*
G04 #@! TF.FileFunction,Soldermask,Top*
G04 #@! TF.FilePolarity,Negative*
%FSLAX46Y46*%
G04 Gerber Fmt 4.6, Leading zero omitted, Abs format (unit mm)*
G04 Created by KiCad (PCBNEW (5.1.9-0-10_14)) date 2021-05-05 16:14:37*
%MOMM*%
%LPD*%
G01*
G04 APERTURE LIST*
%ADD10R,1.700000X1.700000*%
%ADD11O,1.700000X1.700000*%
G04 APERTURE END LIST*
G36*
G01*
X164185000Y-132591600D02*
X162915000Y-132591600D01*
G75*
G02*
X162813400Y-132490000I0J101600D01*
G01*
X162813400Y-127410000D01*
G75*
G02*
X162915000Y-127308400I101600J0D01*
G01*
X164185000Y-127308400D01*
G75*
G02*
X164286600Y-127410000I0J-101600D01*
G01*
X164286600Y-132490000D01*
G75*
G02*
X164185000Y-132591600I-101600J0D01*
G01*
G37*
G36*
G01*
X161645000Y-132591600D02*
X160375000Y-132591600D01*
G75*
G02*
X160273400Y-132490000I0J101600D01*
G01*
X160273400Y-127410000D01*
G75*
G02*
X160375000Y-127308400I101600J0D01*
G01*
X161645000Y-127308400D01*
G75*
G02*
X161746600Y-127410000I0J-101600D01*
G01*
X161746600Y-132490000D01*
G75*
G02*
X161645000Y-132591600I-101600J0D01*
G01*
G37*
G36*
G01*
X159105000Y-132591600D02*
X157835000Y-132591600D01*
G75*
G02*
X157733400Y-132490000I0J101600D01*
G01*
X157733400Y-127410000D01*
G75*
G02*
X157835000Y-127308400I101600J0D01*
G01*
X159105000Y-127308400D01*
G75*
G02*
X159206600Y-127410000I0J-101600D01*
G01*
X159206600Y-132490000D01*
G75*
G02*
X159105000Y-132591600I-101600J0D01*
G01*
G37*
G36*
G01*
X156565000Y-132591600D02*
X155295000Y-132591600D01*
G75*
G02*
X155193400Y-132490000I0J101600D01*
G01*
X155193400Y-127410000D01*
G75*
G02*
X155295000Y-127308400I101600J0D01*
G01*
X156565000Y-127308400D01*
G75*
G02*
X156666600Y-127410000I0J-101600D01*
G01*
X156666600Y-132490000D01*
G75*
G02*
X156565000Y-132591600I-101600J0D01*
G01*
G37*
G36*
G01*
X154025000Y-132591600D02*
X152755000Y-132591600D01*
G75*
G02*
X152653400Y-132490000I0J101600D01*
G01*
X152653400Y-127410000D01*
G75*
G02*
X152755000Y-127308400I101600J0D01*
G01*
X154025000Y-127308400D01*
G75*
G02*
X154126600Y-127410000I0J-101600D01*
G01*
X154126600Y-132490000D01*
G75*
G02*
X154025000Y-132591600I-101600J0D01*
G01*
G37*
G36*
G01*
X151485000Y-132591600D02*
X150215000Y-132591600D01*
G75*
G02*
X150113400Y-132490000I0J101600D01*
G01*
X150113400Y-127410000D01*
G75*
G02*
X150215000Y-127308400I101600J0D01*
G01*
X151485000Y-127308400D01*
G75*
G02*
X151586600Y-127410000I0J-101600D01*
G01*
X151586600Y-132490000D01*
G75*
G02*
X151485000Y-132591600I-101600J0D01*
G01*
G37*
G36*
G01*
X148945000Y-132591600D02*
X147675000Y-132591600D01*
G75*
G02*
X147573400Y-132490000I0J101600D01*
G01*
X147573400Y-127410000D01*
G75*
G02*
X147675000Y-127308400I101600J0D01*
G01*
X148945000Y-127308400D01*
G75*
G02*
X149046600Y-127410000I0J-101600D01*
G01*
X149046600Y-132490000D01*
G75*
G02*
X148945000Y-132591600I-101600J0D01*
G01*
G37*
G36*
G01*
X146405000Y-132591600D02*
X145135000Y-132591600D01*
G75*
G02*
X145033400Y-132490000I0J101600D01*
G01*
X145033400Y-127410000D01*
G75*
G02*
X145135000Y-127308400I101600J0D01*
G01*
X146405000Y-127308400D01*
G75*
G02*
X146506600Y-127410000I0J-101600D01*
G01*
X146506600Y-132490000D01*
G75*
G02*
X146405000Y-132591600I-101600J0D01*
G01*
G37*
G36*
G01*
X143865000Y-132591600D02*
X142595000Y-132591600D01*
G75*
G02*
X142493400Y-132490000I0J101600D01*
G01*
X142493400Y-127410000D01*
G75*
G02*
X142595000Y-127308400I101600J0D01*
G01*
X143865000Y-127308400D01*
G75*
G02*
X143966600Y-127410000I0J-101600D01*
G01*
X143966600Y-132490000D01*
G75*
G02*
X143865000Y-132591600I-101600J0D01*
G01*
G37*
G36*
G01*
X141325000Y-132591600D02*
X140055000Y-132591600D01*
G75*
G02*
X139953400Y-132490000I0J101600D01*
G01*
X139953400Y-127410000D01*
G75*
G02*
X140055000Y-127308400I101600J0D01*
G01*
X141325000Y-127308400D01*
G75*
G02*
X141426600Y-127410000I0J-101600D01*
G01*
X141426600Y-132490000D01*
G75*
G02*
X141325000Y-132591600I-101600J0D01*
G01*
G37*
G36*
G01*
X138785000Y-132591600D02*
X137515000Y-132591600D01*
G75*
G02*
X137413400Y-132490000I0J101600D01*
G01*
X137413400Y-127410000D01*
G75*
G02*
X137515000Y-127308400I101600J0D01*
G01*
X138785000Y-127308400D01*
G75*
G02*
X138886600Y-127410000I0J-101600D01*
G01*
X138886600Y-132490000D01*
G75*
G02*
X138785000Y-132591600I-101600J0D01*
G01*
G37*
G36*
G01*
X136245000Y-132591600D02*
X134975000Y-132591600D01*
G75*
G02*
X134873400Y-132490000I0J101600D01*
G01*
X134873400Y-127410000D01*
G75*
G02*
X134975000Y-127308400I101600J0D01*
G01*
X136245000Y-127308400D01*
G75*
G02*
X136346600Y-127410000I0J-101600D01*
G01*
X136346600Y-132490000D01*
G75*
G02*
X136245000Y-132591600I-101600J0D01*
G01*
G37*
G36*
G01*
X133705000Y-132591600D02*
X132435000Y-132591600D01*
G75*
G02*
X132333400Y-132490000I0J101600D01*
G01*
X132333400Y-127410000D01*
G75*
G02*
X132435000Y-127308400I101600J0D01*
G01*
X133705000Y-127308400D01*
G75*
G02*
X133806600Y-127410000I0J-101600D01*
G01*
X133806600Y-132490000D01*
G75*
G02*
X133705000Y-132591600I-101600J0D01*
G01*
G37*
G36*
G01*
X131165000Y-132591600D02*
X129895000Y-132591600D01*
G75*
G02*
X129793400Y-132490000I0J101600D01*
G01*
X129793400Y-127410000D01*
G75*
G02*
X129895000Y-127308400I101600J0D01*
G01*
X131165000Y-127308400D01*
G75*
G02*
X131266600Y-127410000I0J-101600D01*
G01*
X131266600Y-132490000D01*
G75*
G02*
X131165000Y-132591600I-101600J0D01*
G01*
G37*
G36*
G01*
X128625000Y-132591600D02*
X127355000Y-132591600D01*
G75*
G02*
X127253400Y-132490000I0J101600D01*
G01*
X127253400Y-127410000D01*
G75*
G02*
X127355000Y-127308400I101600J0D01*
G01*
X128625000Y-127308400D01*
G75*
G02*
X128726600Y-127410000I0J-101600D01*
G01*
X128726600Y-132490000D01*
G75*
G02*
X128625000Y-132591600I-101600J0D01*
G01*
G37*
G36*
G01*
X126085000Y-132591600D02*
X124815000Y-132591600D01*
G75*
G02*
X124713400Y-132490000I0J101600D01*
G01*
X124713400Y-127410000D01*
G75*
G02*
X124815000Y-127308400I101600J0D01*
G01*
X126085000Y-127308400D01*
G75*
G02*
X126186600Y-127410000I0J-101600D01*
G01*
X126186600Y-132490000D01*
G75*
G02*
X126085000Y-132591600I-101600J0D01*
G01*
G37*
G36*
G01*
X123545000Y-132591600D02*
X122275000Y-132591600D01*
G75*
G02*
X122173400Y-132490000I0J101600D01*
G01*
X122173400Y-127410000D01*
G75*
G02*
X122275000Y-127308400I101600J0D01*
G01*
X123545000Y-127308400D01*
G75*
G02*
X123646600Y-127410000I0J-101600D01*
G01*
X123646600Y-132490000D01*
G75*
G02*
X123545000Y-132591600I-101600J0D01*
G01*
G37*
G36*
G01*
X121005000Y-132591600D02*
X119735000Y-132591600D01*
G75*
G02*
X119633400Y-132490000I0J101600D01*
G01*
X119633400Y-127410000D01*
G75*
G02*
X119735000Y-127308400I101600J0D01*
G01*
X121005000Y-127308400D01*
G75*
G02*
X121106600Y-127410000I0J-101600D01*
G01*
X121106600Y-132490000D01*
G75*
G02*
X121005000Y-132591600I-101600J0D01*
G01*
G37*
G36*
G01*
X118465000Y-132591600D02*
X117195000Y-132591600D01*
G75*
G02*
X117093400Y-132490000I0J101600D01*
G01*
X117093400Y-127410000D01*
G75*
G02*
X117195000Y-127308400I101600J0D01*
G01*
X118465000Y-127308400D01*
G75*
G02*
X118566600Y-127410000I0J-101600D01*
G01*
X118566600Y-132490000D01*
G75*
G02*
X118465000Y-132591600I-101600J0D01*
G01*
G37*
G36*
G01*
X115925000Y-132591600D02*
X114655000Y-132591600D01*
G75*
G02*
X114553400Y-132490000I0J101600D01*
G01*
X114553400Y-127410000D01*
G75*
G02*
X114655000Y-127308400I101600J0D01*
G01*
X115925000Y-127308400D01*
G75*
G02*
X116026600Y-127410000I0J-101600D01*
G01*
X116026600Y-132490000D01*
G75*
G02*
X115925000Y-132591600I-101600J0D01*
G01*
G37*
G36*
G01*
X194851000Y-115600000D02*
X195801000Y-115600000D01*
G75*
G02*
X196051000Y-115850000I0J-250000D01*
G01*
X196051000Y-116350000D01*
G75*
G02*
X195801000Y-116600000I-250000J0D01*
G01*
X194851000Y-116600000D01*
G75*
G02*
X194601000Y-116350000I0J250000D01*
G01*
X194601000Y-115850000D01*
G75*
G02*
X194851000Y-115600000I250000J0D01*
G01*
G37*
G36*
G01*
X194851000Y-117500000D02*
X195801000Y-117500000D01*
G75*
G02*
X196051000Y-117750000I0J-250000D01*
G01*
X196051000Y-118250000D01*
G75*
G02*
X195801000Y-118500000I-250000J0D01*
G01*
X194851000Y-118500000D01*
G75*
G02*
X194601000Y-118250000I0J250000D01*
G01*
X194601000Y-117750000D01*
G75*
G02*
X194851000Y-117500000I250000J0D01*
G01*
G37*
G36*
G01*
X131539000Y-119500000D02*
X130589000Y-119500000D01*
G75*
G02*
X130339000Y-119250000I0J250000D01*
G01*
X130339000Y-118750000D01*
G75*
G02*
X130589000Y-118500000I250000J0D01*
G01*
X131539000Y-118500000D01*
G75*
G02*
X131789000Y-118750000I0J-250000D01*
G01*
X131789000Y-119250000D01*
G75*
G02*
X131539000Y-119500000I-250000J0D01*
G01*
G37*
G36*
G01*
X131539000Y-117600000D02*
X130589000Y-117600000D01*
G75*
G02*
X130339000Y-117350000I0J250000D01*
G01*
X130339000Y-116850000D01*
G75*
G02*
X130589000Y-116600000I250000J0D01*
G01*
X131539000Y-116600000D01*
G75*
G02*
X131789000Y-116850000I0J-250000D01*
G01*
X131789000Y-117350000D01*
G75*
G02*
X131539000Y-117600000I-250000J0D01*
G01*
G37*
G36*
G01*
X135923000Y-117610000D02*
X136873000Y-117610000D01*
G75*
G02*
X137123000Y-117860000I0J-250000D01*
G01*
X137123000Y-118360000D01*
G75*
G02*
X136873000Y-118610000I-250000J0D01*
G01*
X135923000Y-118610000D01*
G75*
G02*
X135673000Y-118360000I0J250000D01*
G01*
X135673000Y-117860000D01*
G75*
G02*
X135923000Y-117610000I250000J0D01*
G01*
G37*
G36*
G01*
X135923000Y-115710000D02*
X136873000Y-115710000D01*
G75*
G02*
X137123000Y-115960000I0J-250000D01*
G01*
X137123000Y-116460000D01*
G75*
G02*
X136873000Y-116710000I-250000J0D01*
G01*
X135923000Y-116710000D01*
G75*
G02*
X135673000Y-116460000I0J250000D01*
G01*
X135673000Y-115960000D01*
G75*
G02*
X135923000Y-115710000I250000J0D01*
G01*
G37*
D10*
X142000000Y-118500000D03*
D11*
X142000000Y-115960000D03*
X144540000Y-118500000D03*
X144540000Y-115960000D03*
X147080000Y-118500000D03*
X147080000Y-115960000D03*
X149620000Y-118500000D03*
X149620000Y-115960000D03*
X152160000Y-118500000D03*
X152160000Y-115960000D03*
X154700000Y-118500000D03*
X154700000Y-115960000D03*
X157240000Y-118500000D03*
X157240000Y-115960000D03*
X159780000Y-118500000D03*
X159780000Y-115960000D03*
X162320000Y-118500000D03*
X162320000Y-115960000D03*
X164860000Y-118500000D03*
X164860000Y-115960000D03*
X167400000Y-118500000D03*
X167400000Y-115960000D03*
X169940000Y-118500000D03*
X169940000Y-115960000D03*
X172480000Y-118500000D03*
X172480000Y-115960000D03*
X175020000Y-118500000D03*
X175020000Y-115960000D03*
X177560000Y-118500000D03*
X177560000Y-115960000D03*
X180100000Y-118500000D03*
X180100000Y-115960000D03*
X182640000Y-118500000D03*
X182640000Y-115960000D03*
X185180000Y-118500000D03*
X185180000Y-115960000D03*
X187720000Y-118500000D03*
X187720000Y-115960000D03*
X190260000Y-118500000D03*
X190260000Y-115960000D03*
D10*
X104500000Y-118500000D03*
D11*
X104500000Y-115960000D03*
X107040000Y-118500000D03*
X107040000Y-115960000D03*
X109580000Y-118500000D03*
X109580000Y-115960000D03*
X112120000Y-118500000D03*
X112120000Y-115960000D03*
G36*
G01*
X126740000Y-114575000D02*
X127040000Y-114575000D01*
G75*
G02*
X127190000Y-114725000I0J-150000D01*
G01*
X127190000Y-116375000D01*
G75*
G02*
X127040000Y-116525000I-150000J0D01*
G01*
X126740000Y-116525000D01*
G75*
G02*
X126590000Y-116375000I0J150000D01*
G01*
X126590000Y-114725000D01*
G75*
G02*
X126740000Y-114575000I150000J0D01*
G01*
G37*
G36*
G01*
X125470000Y-114575000D02*
X125770000Y-114575000D01*
G75*
G02*
X125920000Y-114725000I0J-150000D01*
G01*
X125920000Y-116375000D01*
G75*
G02*
X125770000Y-116525000I-150000J0D01*
G01*
X125470000Y-116525000D01*
G75*
G02*
X125320000Y-116375000I0J150000D01*
G01*
X125320000Y-114725000D01*
G75*
G02*
X125470000Y-114575000I150000J0D01*
G01*
G37*
G36*
G01*
X124200000Y-114575000D02*
X124500000Y-114575000D01*
G75*
G02*
X124650000Y-114725000I0J-150000D01*
G01*
X124650000Y-116375000D01*
G75*
G02*
X124500000Y-116525000I-150000J0D01*
G01*
X124200000Y-116525000D01*
G75*
G02*
X124050000Y-116375000I0J150000D01*
G01*
X124050000Y-114725000D01*
G75*
G02*
X124200000Y-114575000I150000J0D01*
G01*
G37*
G36*
G01*
X122930000Y-114575000D02*
X123230000Y-114575000D01*
G75*
G02*
X123380000Y-114725000I0J-150000D01*
G01*
X123380000Y-116375000D01*
G75*
G02*
X123230000Y-116525000I-150000J0D01*
G01*
X122930000Y-116525000D01*
G75*
G02*
X122780000Y-116375000I0J150000D01*
G01*
X122780000Y-114725000D01*
G75*
G02*
X122930000Y-114575000I150000J0D01*
G01*
G37*
G36*
G01*
X121660000Y-114575000D02*
X121960000Y-114575000D01*
G75*
G02*
X122110000Y-114725000I0J-150000D01*
G01*
X122110000Y-116375000D01*
G75*
G02*
X121960000Y-116525000I-150000J0D01*
G01*
X121660000Y-116525000D01*
G75*
G02*
X121510000Y-116375000I0J150000D01*
G01*
X121510000Y-114725000D01*
G75*
G02*
X121660000Y-114575000I150000J0D01*
G01*
G37*
G36*
G01*
X120390000Y-114575000D02*
X120690000Y-114575000D01*
G75*
G02*
X120840000Y-114725000I0J-150000D01*
G01*
X120840000Y-116375000D01*
G75*
G02*
X120690000Y-116525000I-150000J0D01*
G01*
X120390000Y-116525000D01*
G75*
G02*
X120240000Y-116375000I0J150000D01*
G01*
X120240000Y-114725000D01*
G75*
G02*
X120390000Y-114575000I150000J0D01*
G01*
G37*
G36*
G01*
X119120000Y-114575000D02*
X119420000Y-114575000D01*
G75*
G02*
X119570000Y-114725000I0J-150000D01*
G01*
X119570000Y-116375000D01*
G75*
G02*
X119420000Y-116525000I-150000J0D01*
G01*
X119120000Y-116525000D01*
G75*
G02*
X118970000Y-116375000I0J150000D01*
G01*
X118970000Y-114725000D01*
G75*
G02*
X119120000Y-114575000I150000J0D01*
G01*
G37*
G36*
G01*
X117850000Y-114575000D02*
X118150000Y-114575000D01*
G75*
G02*
X118300000Y-114725000I0J-150000D01*
G01*
X118300000Y-116375000D01*
G75*
G02*
X118150000Y-116525000I-150000J0D01*
G01*
X117850000Y-116525000D01*
G75*
G02*
X117700000Y-116375000I0J150000D01*
G01*
X117700000Y-114725000D01*
G75*
G02*
X117850000Y-114575000I150000J0D01*
G01*
G37*
G36*
G01*
X117850000Y-119525000D02*
X118150000Y-119525000D01*
G75*
G02*
X118300000Y-119675000I0J-150000D01*
G01*
X118300000Y-121325000D01*
G75*
G02*
X118150000Y-121475000I-150000J0D01*
G01*
X117850000Y-121475000D01*
G75*
G02*
X117700000Y-121325000I0J150000D01*
G01*
X117700000Y-119675000D01*
G75*
G02*
X117850000Y-119525000I150000J0D01*
G01*
G37*
G36*
G01*
X119120000Y-119525000D02*
X119420000Y-119525000D01*
G75*
G02*
X119570000Y-119675000I0J-150000D01*
G01*
X119570000Y-121325000D01*
G75*
G02*
X119420000Y-121475000I-150000J0D01*
G01*
X119120000Y-121475000D01*
G75*
G02*
X118970000Y-121325000I0J150000D01*
G01*
X118970000Y-119675000D01*
G75*
G02*
X119120000Y-119525000I150000J0D01*
G01*
G37*
G36*
G01*
X120390000Y-119525000D02*
X120690000Y-119525000D01*
G75*
G02*
X120840000Y-119675000I0J-150000D01*
G01*
X120840000Y-121325000D01*
G75*
G02*
X120690000Y-121475000I-150000J0D01*
G01*
X120390000Y-121475000D01*
G75*
G02*
X120240000Y-121325000I0J150000D01*
G01*
X120240000Y-119675000D01*
G75*
G02*
X120390000Y-119525000I150000J0D01*
G01*
G37*
G36*
G01*
X121660000Y-119525000D02*
X121960000Y-119525000D01*
G75*
G02*
X122110000Y-119675000I0J-150000D01*
G01*
X122110000Y-121325000D01*
G75*
G02*
X121960000Y-121475000I-150000J0D01*
G01*
X121660000Y-121475000D01*
G75*
G02*
X121510000Y-121325000I0J150000D01*
G01*
X121510000Y-119675000D01*
G75*
G02*
X121660000Y-119525000I150000J0D01*
G01*
G37*
G36*
G01*
X122930000Y-119525000D02*
X123230000Y-119525000D01*
G75*
G02*
X123380000Y-119675000I0J-150000D01*
G01*
X123380000Y-121325000D01*
G75*
G02*
X123230000Y-121475000I-150000J0D01*
G01*
X122930000Y-121475000D01*
G75*
G02*
X122780000Y-121325000I0J150000D01*
G01*
X122780000Y-119675000D01*
G75*
G02*
X122930000Y-119525000I150000J0D01*
G01*
G37*
G36*
G01*
X124200000Y-119525000D02*
X124500000Y-119525000D01*
G75*
G02*
X124650000Y-119675000I0J-150000D01*
G01*
X124650000Y-121325000D01*
G75*
G02*
X124500000Y-121475000I-150000J0D01*
G01*
X124200000Y-121475000D01*
G75*
G02*
X124050000Y-121325000I0J150000D01*
G01*
X124050000Y-119675000D01*
G75*
G02*
X124200000Y-119525000I150000J0D01*
G01*
G37*
G36*
G01*
X125470000Y-119525000D02*
X125770000Y-119525000D01*
G75*
G02*
X125920000Y-119675000I0J-150000D01*
G01*
X125920000Y-121325000D01*
G75*
G02*
X125770000Y-121475000I-150000J0D01*
G01*
X125470000Y-121475000D01*
G75*
G02*
X125320000Y-121325000I0J150000D01*
G01*
X125320000Y-119675000D01*
G75*
G02*
X125470000Y-119525000I150000J0D01*
G01*
G37*
G36*
G01*
X126740000Y-119525000D02*
X127040000Y-119525000D01*
G75*
G02*
X127190000Y-119675000I0J-150000D01*
G01*
X127190000Y-121325000D01*
G75*
G02*
X127040000Y-121475000I-150000J0D01*
G01*
X126740000Y-121475000D01*
G75*
G02*
X126590000Y-121325000I0J150000D01*
G01*
X126590000Y-119675000D01*
G75*
G02*
X126740000Y-119525000I150000J0D01*
G01*
G37*
M02*
