G04 #@! TF.GenerationSoftware,KiCad,Pcbnew,(5.1.9-0-10_14)*
G04 #@! TF.CreationDate,2021-05-05T16:14:37-05:00*
G04 #@! TF.ProjectId,Prototype Card,50726f74-6f74-4797-9065-20436172642e,1.1*
G04 #@! TF.SameCoordinates,Original*
G04 #@! TF.FileFunction,Copper,L1,Top*
G04 #@! TF.FilePolarity,Positive*
%FSLAX46Y46*%
G04 Gerber Fmt 4.6, Leading zero omitted, Abs format (unit mm)*
G04 Created by KiCad (PCBNEW (5.1.9-0-10_14)) date 2021-05-05 16:14:37*
%MOMM*%
%LPD*%
G01*
G04 APERTURE LIST*
G04 #@! TA.AperFunction,SMDPad,CuDef*
%ADD10R,1.270000X5.080000*%
G04 #@! TD*
G04 #@! TA.AperFunction,ComponentPad*
%ADD11R,1.700000X1.700000*%
G04 #@! TD*
G04 #@! TA.AperFunction,ComponentPad*
%ADD12O,1.700000X1.700000*%
G04 #@! TD*
G04 #@! TA.AperFunction,ViaPad*
%ADD13C,0.800000*%
G04 #@! TD*
G04 #@! TA.AperFunction,Conductor*
%ADD14C,0.250000*%
G04 #@! TD*
G04 #@! TA.AperFunction,Conductor*
%ADD15C,0.254000*%
G04 #@! TD*
G04 #@! TA.AperFunction,Conductor*
%ADD16C,0.100000*%
G04 #@! TD*
G04 APERTURE END LIST*
D10*
X163550000Y-129950000D03*
X161010000Y-129950000D03*
X158470000Y-129950000D03*
X155930000Y-129950000D03*
X153390000Y-129950000D03*
X150850000Y-129950000D03*
X148310000Y-129950000D03*
X145770000Y-129950000D03*
X143230000Y-129950000D03*
X140690000Y-129950000D03*
X138150000Y-129950000D03*
X135610000Y-129950000D03*
X133070000Y-129950000D03*
X130530000Y-129950000D03*
X127990000Y-129950000D03*
X125450000Y-129950000D03*
X122910000Y-129950000D03*
X120370000Y-129950000D03*
X117830000Y-129950000D03*
X115290000Y-129950000D03*
G04 #@! TA.AperFunction,SMDPad,CuDef*
G36*
G01*
X194851000Y-115600000D02*
X195801000Y-115600000D01*
G75*
G02*
X196051000Y-115850000I0J-250000D01*
G01*
X196051000Y-116350000D01*
G75*
G02*
X195801000Y-116600000I-250000J0D01*
G01*
X194851000Y-116600000D01*
G75*
G02*
X194601000Y-116350000I0J250000D01*
G01*
X194601000Y-115850000D01*
G75*
G02*
X194851000Y-115600000I250000J0D01*
G01*
G37*
G04 #@! TD.AperFunction*
G04 #@! TA.AperFunction,SMDPad,CuDef*
G36*
G01*
X194851000Y-117500000D02*
X195801000Y-117500000D01*
G75*
G02*
X196051000Y-117750000I0J-250000D01*
G01*
X196051000Y-118250000D01*
G75*
G02*
X195801000Y-118500000I-250000J0D01*
G01*
X194851000Y-118500000D01*
G75*
G02*
X194601000Y-118250000I0J250000D01*
G01*
X194601000Y-117750000D01*
G75*
G02*
X194851000Y-117500000I250000J0D01*
G01*
G37*
G04 #@! TD.AperFunction*
G04 #@! TA.AperFunction,SMDPad,CuDef*
G36*
G01*
X131539000Y-119500000D02*
X130589000Y-119500000D01*
G75*
G02*
X130339000Y-119250000I0J250000D01*
G01*
X130339000Y-118750000D01*
G75*
G02*
X130589000Y-118500000I250000J0D01*
G01*
X131539000Y-118500000D01*
G75*
G02*
X131789000Y-118750000I0J-250000D01*
G01*
X131789000Y-119250000D01*
G75*
G02*
X131539000Y-119500000I-250000J0D01*
G01*
G37*
G04 #@! TD.AperFunction*
G04 #@! TA.AperFunction,SMDPad,CuDef*
G36*
G01*
X131539000Y-117600000D02*
X130589000Y-117600000D01*
G75*
G02*
X130339000Y-117350000I0J250000D01*
G01*
X130339000Y-116850000D01*
G75*
G02*
X130589000Y-116600000I250000J0D01*
G01*
X131539000Y-116600000D01*
G75*
G02*
X131789000Y-116850000I0J-250000D01*
G01*
X131789000Y-117350000D01*
G75*
G02*
X131539000Y-117600000I-250000J0D01*
G01*
G37*
G04 #@! TD.AperFunction*
G04 #@! TA.AperFunction,SMDPad,CuDef*
G36*
G01*
X135923000Y-117610000D02*
X136873000Y-117610000D01*
G75*
G02*
X137123000Y-117860000I0J-250000D01*
G01*
X137123000Y-118360000D01*
G75*
G02*
X136873000Y-118610000I-250000J0D01*
G01*
X135923000Y-118610000D01*
G75*
G02*
X135673000Y-118360000I0J250000D01*
G01*
X135673000Y-117860000D01*
G75*
G02*
X135923000Y-117610000I250000J0D01*
G01*
G37*
G04 #@! TD.AperFunction*
G04 #@! TA.AperFunction,SMDPad,CuDef*
G36*
G01*
X135923000Y-115710000D02*
X136873000Y-115710000D01*
G75*
G02*
X137123000Y-115960000I0J-250000D01*
G01*
X137123000Y-116460000D01*
G75*
G02*
X136873000Y-116710000I-250000J0D01*
G01*
X135923000Y-116710000D01*
G75*
G02*
X135673000Y-116460000I0J250000D01*
G01*
X135673000Y-115960000D01*
G75*
G02*
X135923000Y-115710000I250000J0D01*
G01*
G37*
G04 #@! TD.AperFunction*
D11*
X142000000Y-118500000D03*
D12*
X142000000Y-115960000D03*
X144540000Y-118500000D03*
X144540000Y-115960000D03*
X147080000Y-118500000D03*
X147080000Y-115960000D03*
X149620000Y-118500000D03*
X149620000Y-115960000D03*
X152160000Y-118500000D03*
X152160000Y-115960000D03*
X154700000Y-118500000D03*
X154700000Y-115960000D03*
X157240000Y-118500000D03*
X157240000Y-115960000D03*
X159780000Y-118500000D03*
X159780000Y-115960000D03*
X162320000Y-118500000D03*
X162320000Y-115960000D03*
X164860000Y-118500000D03*
X164860000Y-115960000D03*
X167400000Y-118500000D03*
X167400000Y-115960000D03*
X169940000Y-118500000D03*
X169940000Y-115960000D03*
X172480000Y-118500000D03*
X172480000Y-115960000D03*
X175020000Y-118500000D03*
X175020000Y-115960000D03*
X177560000Y-118500000D03*
X177560000Y-115960000D03*
X180100000Y-118500000D03*
X180100000Y-115960000D03*
X182640000Y-118500000D03*
X182640000Y-115960000D03*
X185180000Y-118500000D03*
X185180000Y-115960000D03*
X187720000Y-118500000D03*
X187720000Y-115960000D03*
X190260000Y-118500000D03*
X190260000Y-115960000D03*
D11*
X104500000Y-118500000D03*
D12*
X104500000Y-115960000D03*
X107040000Y-118500000D03*
X107040000Y-115960000D03*
X109580000Y-118500000D03*
X109580000Y-115960000D03*
X112120000Y-118500000D03*
X112120000Y-115960000D03*
G04 #@! TA.AperFunction,SMDPad,CuDef*
G36*
G01*
X126740000Y-114575000D02*
X127040000Y-114575000D01*
G75*
G02*
X127190000Y-114725000I0J-150000D01*
G01*
X127190000Y-116375000D01*
G75*
G02*
X127040000Y-116525000I-150000J0D01*
G01*
X126740000Y-116525000D01*
G75*
G02*
X126590000Y-116375000I0J150000D01*
G01*
X126590000Y-114725000D01*
G75*
G02*
X126740000Y-114575000I150000J0D01*
G01*
G37*
G04 #@! TD.AperFunction*
G04 #@! TA.AperFunction,SMDPad,CuDef*
G36*
G01*
X125470000Y-114575000D02*
X125770000Y-114575000D01*
G75*
G02*
X125920000Y-114725000I0J-150000D01*
G01*
X125920000Y-116375000D01*
G75*
G02*
X125770000Y-116525000I-150000J0D01*
G01*
X125470000Y-116525000D01*
G75*
G02*
X125320000Y-116375000I0J150000D01*
G01*
X125320000Y-114725000D01*
G75*
G02*
X125470000Y-114575000I150000J0D01*
G01*
G37*
G04 #@! TD.AperFunction*
G04 #@! TA.AperFunction,SMDPad,CuDef*
G36*
G01*
X124200000Y-114575000D02*
X124500000Y-114575000D01*
G75*
G02*
X124650000Y-114725000I0J-150000D01*
G01*
X124650000Y-116375000D01*
G75*
G02*
X124500000Y-116525000I-150000J0D01*
G01*
X124200000Y-116525000D01*
G75*
G02*
X124050000Y-116375000I0J150000D01*
G01*
X124050000Y-114725000D01*
G75*
G02*
X124200000Y-114575000I150000J0D01*
G01*
G37*
G04 #@! TD.AperFunction*
G04 #@! TA.AperFunction,SMDPad,CuDef*
G36*
G01*
X122930000Y-114575000D02*
X123230000Y-114575000D01*
G75*
G02*
X123380000Y-114725000I0J-150000D01*
G01*
X123380000Y-116375000D01*
G75*
G02*
X123230000Y-116525000I-150000J0D01*
G01*
X122930000Y-116525000D01*
G75*
G02*
X122780000Y-116375000I0J150000D01*
G01*
X122780000Y-114725000D01*
G75*
G02*
X122930000Y-114575000I150000J0D01*
G01*
G37*
G04 #@! TD.AperFunction*
G04 #@! TA.AperFunction,SMDPad,CuDef*
G36*
G01*
X121660000Y-114575000D02*
X121960000Y-114575000D01*
G75*
G02*
X122110000Y-114725000I0J-150000D01*
G01*
X122110000Y-116375000D01*
G75*
G02*
X121960000Y-116525000I-150000J0D01*
G01*
X121660000Y-116525000D01*
G75*
G02*
X121510000Y-116375000I0J150000D01*
G01*
X121510000Y-114725000D01*
G75*
G02*
X121660000Y-114575000I150000J0D01*
G01*
G37*
G04 #@! TD.AperFunction*
G04 #@! TA.AperFunction,SMDPad,CuDef*
G36*
G01*
X120390000Y-114575000D02*
X120690000Y-114575000D01*
G75*
G02*
X120840000Y-114725000I0J-150000D01*
G01*
X120840000Y-116375000D01*
G75*
G02*
X120690000Y-116525000I-150000J0D01*
G01*
X120390000Y-116525000D01*
G75*
G02*
X120240000Y-116375000I0J150000D01*
G01*
X120240000Y-114725000D01*
G75*
G02*
X120390000Y-114575000I150000J0D01*
G01*
G37*
G04 #@! TD.AperFunction*
G04 #@! TA.AperFunction,SMDPad,CuDef*
G36*
G01*
X119120000Y-114575000D02*
X119420000Y-114575000D01*
G75*
G02*
X119570000Y-114725000I0J-150000D01*
G01*
X119570000Y-116375000D01*
G75*
G02*
X119420000Y-116525000I-150000J0D01*
G01*
X119120000Y-116525000D01*
G75*
G02*
X118970000Y-116375000I0J150000D01*
G01*
X118970000Y-114725000D01*
G75*
G02*
X119120000Y-114575000I150000J0D01*
G01*
G37*
G04 #@! TD.AperFunction*
G04 #@! TA.AperFunction,SMDPad,CuDef*
G36*
G01*
X117850000Y-114575000D02*
X118150000Y-114575000D01*
G75*
G02*
X118300000Y-114725000I0J-150000D01*
G01*
X118300000Y-116375000D01*
G75*
G02*
X118150000Y-116525000I-150000J0D01*
G01*
X117850000Y-116525000D01*
G75*
G02*
X117700000Y-116375000I0J150000D01*
G01*
X117700000Y-114725000D01*
G75*
G02*
X117850000Y-114575000I150000J0D01*
G01*
G37*
G04 #@! TD.AperFunction*
G04 #@! TA.AperFunction,SMDPad,CuDef*
G36*
G01*
X117850000Y-119525000D02*
X118150000Y-119525000D01*
G75*
G02*
X118300000Y-119675000I0J-150000D01*
G01*
X118300000Y-121325000D01*
G75*
G02*
X118150000Y-121475000I-150000J0D01*
G01*
X117850000Y-121475000D01*
G75*
G02*
X117700000Y-121325000I0J150000D01*
G01*
X117700000Y-119675000D01*
G75*
G02*
X117850000Y-119525000I150000J0D01*
G01*
G37*
G04 #@! TD.AperFunction*
G04 #@! TA.AperFunction,SMDPad,CuDef*
G36*
G01*
X119120000Y-119525000D02*
X119420000Y-119525000D01*
G75*
G02*
X119570000Y-119675000I0J-150000D01*
G01*
X119570000Y-121325000D01*
G75*
G02*
X119420000Y-121475000I-150000J0D01*
G01*
X119120000Y-121475000D01*
G75*
G02*
X118970000Y-121325000I0J150000D01*
G01*
X118970000Y-119675000D01*
G75*
G02*
X119120000Y-119525000I150000J0D01*
G01*
G37*
G04 #@! TD.AperFunction*
G04 #@! TA.AperFunction,SMDPad,CuDef*
G36*
G01*
X120390000Y-119525000D02*
X120690000Y-119525000D01*
G75*
G02*
X120840000Y-119675000I0J-150000D01*
G01*
X120840000Y-121325000D01*
G75*
G02*
X120690000Y-121475000I-150000J0D01*
G01*
X120390000Y-121475000D01*
G75*
G02*
X120240000Y-121325000I0J150000D01*
G01*
X120240000Y-119675000D01*
G75*
G02*
X120390000Y-119525000I150000J0D01*
G01*
G37*
G04 #@! TD.AperFunction*
G04 #@! TA.AperFunction,SMDPad,CuDef*
G36*
G01*
X121660000Y-119525000D02*
X121960000Y-119525000D01*
G75*
G02*
X122110000Y-119675000I0J-150000D01*
G01*
X122110000Y-121325000D01*
G75*
G02*
X121960000Y-121475000I-150000J0D01*
G01*
X121660000Y-121475000D01*
G75*
G02*
X121510000Y-121325000I0J150000D01*
G01*
X121510000Y-119675000D01*
G75*
G02*
X121660000Y-119525000I150000J0D01*
G01*
G37*
G04 #@! TD.AperFunction*
G04 #@! TA.AperFunction,SMDPad,CuDef*
G36*
G01*
X122930000Y-119525000D02*
X123230000Y-119525000D01*
G75*
G02*
X123380000Y-119675000I0J-150000D01*
G01*
X123380000Y-121325000D01*
G75*
G02*
X123230000Y-121475000I-150000J0D01*
G01*
X122930000Y-121475000D01*
G75*
G02*
X122780000Y-121325000I0J150000D01*
G01*
X122780000Y-119675000D01*
G75*
G02*
X122930000Y-119525000I150000J0D01*
G01*
G37*
G04 #@! TD.AperFunction*
G04 #@! TA.AperFunction,SMDPad,CuDef*
G36*
G01*
X124200000Y-119525000D02*
X124500000Y-119525000D01*
G75*
G02*
X124650000Y-119675000I0J-150000D01*
G01*
X124650000Y-121325000D01*
G75*
G02*
X124500000Y-121475000I-150000J0D01*
G01*
X124200000Y-121475000D01*
G75*
G02*
X124050000Y-121325000I0J150000D01*
G01*
X124050000Y-119675000D01*
G75*
G02*
X124200000Y-119525000I150000J0D01*
G01*
G37*
G04 #@! TD.AperFunction*
G04 #@! TA.AperFunction,SMDPad,CuDef*
G36*
G01*
X125470000Y-119525000D02*
X125770000Y-119525000D01*
G75*
G02*
X125920000Y-119675000I0J-150000D01*
G01*
X125920000Y-121325000D01*
G75*
G02*
X125770000Y-121475000I-150000J0D01*
G01*
X125470000Y-121475000D01*
G75*
G02*
X125320000Y-121325000I0J150000D01*
G01*
X125320000Y-119675000D01*
G75*
G02*
X125470000Y-119525000I150000J0D01*
G01*
G37*
G04 #@! TD.AperFunction*
G04 #@! TA.AperFunction,SMDPad,CuDef*
G36*
G01*
X126740000Y-119525000D02*
X127040000Y-119525000D01*
G75*
G02*
X127190000Y-119675000I0J-150000D01*
G01*
X127190000Y-121325000D01*
G75*
G02*
X127040000Y-121475000I-150000J0D01*
G01*
X126740000Y-121475000D01*
G75*
G02*
X126590000Y-121325000I0J150000D01*
G01*
X126590000Y-119675000D01*
G75*
G02*
X126740000Y-119525000I150000J0D01*
G01*
G37*
G04 #@! TD.AperFunction*
D13*
X115570000Y-114871500D03*
X116078000Y-95377000D03*
X136144000Y-95250000D03*
X160528000Y-95123000D03*
X183007000Y-95250000D03*
X191770000Y-121158000D03*
X133096000Y-114554000D03*
X102997000Y-121285000D03*
X116586000Y-124714000D03*
X120650000Y-109220000D03*
X149606000Y-109220000D03*
X121919998Y-109982000D03*
X152146000Y-109982000D03*
X123190000Y-110744000D03*
X154686000Y-110744000D03*
X124460000Y-111506000D03*
X157226000Y-111506000D03*
X125730000Y-112268000D03*
X159766000Y-112268000D03*
X127000000Y-113030000D03*
X162306000Y-113030000D03*
X108330999Y-117221001D03*
X116386995Y-119579005D03*
D14*
X115290000Y-129950000D02*
X115290000Y-125248000D01*
X117980000Y-115570000D02*
X118000000Y-115550000D01*
X116268500Y-115570000D02*
X117980000Y-115570000D01*
X115570000Y-114871500D02*
X116268500Y-115570000D01*
X136648000Y-115960000D02*
X136398000Y-116210000D01*
X142000000Y-115960000D02*
X136648000Y-115960000D01*
X135504000Y-116210000D02*
X136398000Y-116210000D01*
X132714000Y-119000000D02*
X135504000Y-116210000D01*
X131064000Y-119000000D02*
X132714000Y-119000000D01*
X129564000Y-120500000D02*
X131064000Y-119000000D01*
X126890000Y-120500000D02*
X129564000Y-120500000D01*
X190650000Y-118110000D02*
X190260000Y-118500000D01*
X195216000Y-118110000D02*
X190650000Y-118110000D01*
X195326000Y-118000000D02*
X195216000Y-118110000D01*
X188854000Y-117094000D02*
X190260000Y-118500000D01*
X143134000Y-117094000D02*
X188854000Y-117094000D01*
X142000000Y-115960000D02*
X143134000Y-117094000D01*
X190260000Y-118604000D02*
X190260000Y-118500000D01*
X183642000Y-125222000D02*
X190260000Y-118604000D01*
X163550000Y-126264000D02*
X164592000Y-125222000D01*
X164592000Y-125222000D02*
X183642000Y-125222000D01*
X163550000Y-129950000D02*
X163550000Y-126264000D01*
X124085764Y-123571000D02*
X117729000Y-123571000D01*
X125929754Y-121727010D02*
X124085764Y-123571000D01*
X125936518Y-121727010D02*
X125929754Y-121727010D01*
X126172010Y-121491518D02*
X125936518Y-121727010D01*
X126172010Y-121484754D02*
X126172010Y-121491518D01*
X126890000Y-120766764D02*
X126172010Y-121484754D01*
X117729000Y-123571000D02*
X116586000Y-124714000D01*
X126890000Y-120500000D02*
X126890000Y-120766764D01*
X117830000Y-126264000D02*
X117830000Y-129950000D01*
X126268720Y-121927982D02*
X123998682Y-124198020D01*
X123998682Y-124198020D02*
X119895980Y-124198020D01*
X139625608Y-120523000D02*
X138220628Y-121927980D01*
X119895980Y-124198020D02*
X117830000Y-126264000D01*
X142517000Y-120523000D02*
X139625608Y-120523000D01*
X138220628Y-121927980D02*
X126268720Y-121927982D01*
X144540000Y-118500000D02*
X142517000Y-120523000D01*
X120370000Y-126264000D02*
X120370000Y-129950000D01*
X122058969Y-124575031D02*
X120370000Y-126264000D01*
X124154845Y-124575031D02*
X122058969Y-124575031D01*
X139777782Y-120904000D02*
X138376791Y-122304991D01*
X144676000Y-120904000D02*
X139777782Y-120904000D01*
X147080000Y-118500000D02*
X144676000Y-120904000D01*
X126424884Y-122304992D02*
X124154845Y-124575031D01*
X138376791Y-122304991D02*
X126424884Y-122304992D01*
X122910000Y-126391000D02*
X122910000Y-129950000D01*
X138532954Y-122682002D02*
X126618998Y-122682002D01*
X126618998Y-122682002D02*
X122910000Y-126391000D01*
X139929956Y-121285000D02*
X138532954Y-122682002D01*
X146835000Y-121285000D02*
X139929956Y-121285000D01*
X149620000Y-118500000D02*
X146835000Y-121285000D01*
X125450000Y-126264000D02*
X125450000Y-129950000D01*
X148994000Y-121666000D02*
X140082130Y-121666000D01*
X138689119Y-123059011D02*
X128654989Y-123059011D01*
X140082130Y-121666000D02*
X138689119Y-123059011D01*
X128654989Y-123059011D02*
X125450000Y-126264000D01*
X152160000Y-118500000D02*
X148994000Y-121666000D01*
X127990000Y-126264000D02*
X127990000Y-129950000D01*
X130817978Y-123436022D02*
X127990000Y-126264000D01*
X138845282Y-123436022D02*
X130817978Y-123436022D01*
X140234304Y-122047000D02*
X138845282Y-123436022D01*
X151153000Y-122047000D02*
X140234304Y-122047000D01*
X154700000Y-118500000D02*
X151153000Y-122047000D01*
X130530000Y-126264000D02*
X130530000Y-129950000D01*
X132980967Y-123813033D02*
X130530000Y-126264000D01*
X152427436Y-122428000D02*
X140386478Y-122428000D01*
X154542546Y-120312890D02*
X152427436Y-122428000D01*
X155404110Y-120312890D02*
X154542546Y-120312890D01*
X157217000Y-118500000D02*
X155404110Y-120312890D01*
X139001445Y-123813033D02*
X132980967Y-123813033D01*
X140386478Y-122428000D02*
X139001445Y-123813033D01*
X157240000Y-118500000D02*
X157217000Y-118500000D01*
X133070000Y-126264000D02*
X133070000Y-129950000D01*
X135143956Y-124190044D02*
X133070000Y-126264000D01*
X139157608Y-124190044D02*
X135143956Y-124190044D01*
X152579610Y-122809000D02*
X140538652Y-122809000D01*
X159780000Y-118500000D02*
X157590100Y-120689900D01*
X154698710Y-120689900D02*
X152579610Y-122809000D01*
X157590100Y-120689900D02*
X154698710Y-120689900D01*
X140538652Y-122809000D02*
X139157608Y-124190044D01*
X137306945Y-124567055D02*
X135610000Y-126264000D01*
X139313771Y-124567055D02*
X137306945Y-124567055D01*
X135610000Y-126264000D02*
X135610000Y-129950000D01*
X140674867Y-123205959D02*
X139313771Y-124567055D01*
X154854874Y-121066910D02*
X152715825Y-123205959D01*
X152715825Y-123205959D02*
X140674867Y-123205959D01*
X159753090Y-121066910D02*
X154854874Y-121066910D01*
X162320000Y-118500000D02*
X159753090Y-121066910D01*
X140831030Y-123582970D02*
X138150000Y-126264000D01*
X152871988Y-123582970D02*
X140831030Y-123582970D01*
X155011038Y-121443920D02*
X152871988Y-123582970D01*
X138150000Y-126264000D02*
X138150000Y-129950000D01*
X161916081Y-121443919D02*
X155011038Y-121443920D01*
X164860000Y-118500000D02*
X161916081Y-121443919D01*
X155167202Y-121820930D02*
X153028151Y-123959981D01*
X167400000Y-118500000D02*
X164079070Y-121820930D01*
X142994019Y-123959981D02*
X140690000Y-126264000D01*
X153028151Y-123959981D02*
X142994019Y-123959981D01*
X140690000Y-126264000D02*
X140690000Y-127160000D01*
X164079070Y-121820930D02*
X155167202Y-121820930D01*
X140690000Y-127160000D02*
X140690000Y-129950000D01*
X143230000Y-126264000D02*
X143230000Y-129950000D01*
X153184314Y-124336990D02*
X145157010Y-124336990D01*
X166242062Y-122197938D02*
X155323365Y-122197939D01*
X145157010Y-124336990D02*
X143230000Y-126264000D01*
X155323365Y-122197939D02*
X153184314Y-124336990D01*
X169940000Y-118500000D02*
X166242062Y-122197938D01*
X145770000Y-126264000D02*
X145770000Y-129950000D01*
X168405051Y-122574949D02*
X155479529Y-122574949D01*
X147319999Y-124714001D02*
X145770000Y-126264000D01*
X153340477Y-124714001D02*
X147319999Y-124714001D01*
X172480000Y-118500000D02*
X168405051Y-122574949D01*
X155479529Y-122574949D02*
X153340477Y-124714001D01*
X148310000Y-126264000D02*
X148310000Y-129950000D01*
X149482989Y-125091011D02*
X148310000Y-126264000D01*
X155635692Y-122951960D02*
X153496641Y-125091011D01*
X153496641Y-125091011D02*
X149482989Y-125091011D01*
X170568040Y-122951960D02*
X155635692Y-122951960D01*
X175020000Y-118500000D02*
X170568040Y-122951960D01*
X151638000Y-125476000D02*
X150850000Y-126264000D01*
X155791857Y-123328969D02*
X153644826Y-125476000D01*
X153644826Y-125476000D02*
X151638000Y-125476000D01*
X172731032Y-123328968D02*
X155791857Y-123328969D01*
X150850000Y-126264000D02*
X150850000Y-129950000D01*
X177560000Y-118500000D02*
X172731032Y-123328968D01*
X155948021Y-123705979D02*
X153390000Y-126264000D01*
X174894021Y-123705979D02*
X155948021Y-123705979D01*
X180100000Y-118500000D02*
X174894021Y-123705979D01*
X153390000Y-126264000D02*
X153390000Y-129950000D01*
X158111010Y-124082990D02*
X155930000Y-126264000D01*
X177057010Y-124082990D02*
X158111010Y-124082990D01*
X182640000Y-118500000D02*
X177057010Y-124082990D01*
X155930000Y-126264000D02*
X155930000Y-129950000D01*
X158470000Y-126264000D02*
X158470000Y-129950000D01*
X160274000Y-124460000D02*
X158470000Y-126264000D01*
X179220000Y-124460000D02*
X160274000Y-124460000D01*
X185180000Y-118500000D02*
X179220000Y-124460000D01*
X161010000Y-126264000D02*
X161010000Y-129950000D01*
X162429010Y-124844990D02*
X161010000Y-126264000D01*
X181375010Y-124844990D02*
X162429010Y-124844990D01*
X187720000Y-118500000D02*
X181375010Y-124844990D01*
X120540000Y-115550000D02*
X120540000Y-109330000D01*
X120540000Y-109330000D02*
X120650000Y-109220000D01*
X149620000Y-109234000D02*
X149606000Y-109220000D01*
X149620000Y-115960000D02*
X149620000Y-109234000D01*
X121810000Y-115550000D02*
X121810000Y-110091998D01*
X121810000Y-110091998D02*
X121919998Y-109982000D01*
X152160000Y-109996000D02*
X152146000Y-109982000D01*
X152160000Y-115960000D02*
X152160000Y-109996000D01*
X123080000Y-110854000D02*
X123190000Y-110744000D01*
X123080000Y-115550000D02*
X123080000Y-110854000D01*
X154700000Y-110758000D02*
X154686000Y-110744000D01*
X154700000Y-115960000D02*
X154700000Y-110758000D01*
X124350000Y-111870000D02*
X124460000Y-111760000D01*
X124350000Y-115550000D02*
X124350000Y-111870000D01*
X157240000Y-111520000D02*
X157226000Y-111506000D01*
X157240000Y-115960000D02*
X157240000Y-111520000D01*
X125620000Y-112378000D02*
X125730000Y-112268000D01*
X125620000Y-115550000D02*
X125620000Y-112378000D01*
X159766000Y-115946000D02*
X159780000Y-115960000D01*
X159766000Y-112268000D02*
X159766000Y-115946000D01*
X126890000Y-113140000D02*
X127000000Y-113030000D01*
X126890000Y-115550000D02*
X126890000Y-113140000D01*
X162320000Y-113044000D02*
X162306000Y-113030000D01*
X162320000Y-115960000D02*
X162320000Y-113044000D01*
X104500000Y-122534004D02*
X104500000Y-118500000D01*
X105155996Y-123190000D02*
X104500000Y-122534004D01*
X123851304Y-123190000D02*
X105155996Y-123190000D01*
X125620000Y-121421304D02*
X123851304Y-123190000D01*
X125620000Y-120500000D02*
X125620000Y-121421304D01*
X119270000Y-114575000D02*
X119270000Y-115550000D01*
X106922000Y-113538000D02*
X118233000Y-113538000D01*
X118233000Y-113538000D02*
X119270000Y-114575000D01*
X104500000Y-115960000D02*
X106922000Y-113538000D01*
X107040000Y-122280000D02*
X107040000Y-118500000D01*
X107569000Y-122809000D02*
X107040000Y-122280000D01*
X124350000Y-121475000D02*
X123016000Y-122809000D01*
X123016000Y-122809000D02*
X107569000Y-122809000D01*
X124350000Y-120500000D02*
X124350000Y-121475000D01*
X108301001Y-117221001D02*
X108330999Y-117221001D01*
X107040000Y-115960000D02*
X108301001Y-117221001D01*
X117307990Y-120500000D02*
X116386995Y-119579005D01*
X118000000Y-120500000D02*
X117307990Y-120500000D01*
X109580000Y-122026000D02*
X109580000Y-118500000D01*
X109982000Y-122428000D02*
X109580000Y-122026000D01*
X122127000Y-122428000D02*
X109982000Y-122428000D01*
X123080000Y-121475000D02*
X122127000Y-122428000D01*
X123080000Y-120500000D02*
X123080000Y-121475000D01*
X119270000Y-119270000D02*
X119270000Y-120500000D01*
X117221000Y-117221000D02*
X119270000Y-119270000D01*
X110841000Y-117221000D02*
X117221000Y-117221000D01*
X109580000Y-115960000D02*
X110841000Y-117221000D01*
X112120000Y-118500000D02*
X112120000Y-121772002D01*
X112120000Y-121772002D02*
X112267998Y-121920000D01*
X112394998Y-122047000D02*
X112120000Y-121772002D01*
X121238000Y-122047000D02*
X112394998Y-122047000D01*
X121810000Y-121475000D02*
X121238000Y-122047000D01*
X121810000Y-120500000D02*
X121810000Y-121475000D01*
X118364000Y-116840000D02*
X120540000Y-119016000D01*
X120540000Y-119016000D02*
X120540000Y-120500000D01*
X113000000Y-116840000D02*
X118364000Y-116840000D01*
X112120000Y-115960000D02*
X113000000Y-116840000D01*
D15*
X194314346Y-76673794D02*
X195101873Y-76889238D01*
X195838816Y-77240741D01*
X196501860Y-77717187D01*
X197070056Y-78303519D01*
X197525438Y-78981200D01*
X197853619Y-79728816D01*
X198044970Y-80525851D01*
X198095101Y-81208506D01*
X198095100Y-121175515D01*
X198020906Y-122006846D01*
X197805462Y-122794374D01*
X197453959Y-123531316D01*
X196977513Y-124194360D01*
X196391181Y-124762556D01*
X195713500Y-125217938D01*
X194965884Y-125546119D01*
X194168849Y-125737470D01*
X193486208Y-125787600D01*
X166281159Y-125787600D01*
X166263511Y-125789338D01*
X166257321Y-125789295D01*
X166251679Y-125789848D01*
X166057582Y-125810249D01*
X166021496Y-125817656D01*
X165985392Y-125824544D01*
X165979967Y-125826181D01*
X165979961Y-125826183D01*
X165793527Y-125883894D01*
X165759600Y-125898155D01*
X165725487Y-125911938D01*
X165720481Y-125914599D01*
X165548804Y-126007424D01*
X165518237Y-126028042D01*
X165487506Y-126048152D01*
X165483112Y-126051734D01*
X165332734Y-126176138D01*
X165306764Y-126202289D01*
X165280516Y-126227994D01*
X165276907Y-126232356D01*
X165276901Y-126232362D01*
X165276897Y-126232369D01*
X165153552Y-126383604D01*
X165133178Y-126414269D01*
X165112399Y-126444616D01*
X165109705Y-126449598D01*
X165109702Y-126449602D01*
X165109702Y-126449603D01*
X165018077Y-126621925D01*
X165004049Y-126655960D01*
X164989559Y-126689768D01*
X164987882Y-126695183D01*
X164972539Y-126746000D01*
X164056000Y-126746000D01*
X164056000Y-126473591D01*
X164801592Y-125728000D01*
X183617154Y-125728000D01*
X183642000Y-125730447D01*
X183666846Y-125728000D01*
X183666854Y-125728000D01*
X183741193Y-125720678D01*
X183836575Y-125691745D01*
X183924479Y-125644759D01*
X184001527Y-125581527D01*
X184017376Y-125562215D01*
X189897373Y-119682219D01*
X189900931Y-119683693D01*
X190138757Y-119731000D01*
X190381243Y-119731000D01*
X190619069Y-119683693D01*
X190843097Y-119590898D01*
X191044717Y-119456180D01*
X191216180Y-119284717D01*
X191350898Y-119083097D01*
X191443693Y-118859069D01*
X191491000Y-118621243D01*
X191491000Y-118616000D01*
X194336637Y-118616000D01*
X194403512Y-118697488D01*
X194499411Y-118776190D01*
X194608821Y-118834671D01*
X194727538Y-118870683D01*
X194851000Y-118882843D01*
X195801000Y-118882843D01*
X195924462Y-118870683D01*
X196043179Y-118834671D01*
X196152589Y-118776190D01*
X196248488Y-118697488D01*
X196327190Y-118601589D01*
X196385671Y-118492179D01*
X196421683Y-118373462D01*
X196433843Y-118250000D01*
X196433843Y-117750000D01*
X196421683Y-117626538D01*
X196385671Y-117507821D01*
X196327190Y-117398411D01*
X196248488Y-117302512D01*
X196157220Y-117227611D01*
X196175482Y-117225812D01*
X196295180Y-117189502D01*
X196405494Y-117130537D01*
X196502185Y-117051185D01*
X196581537Y-116954494D01*
X196640502Y-116844180D01*
X196676812Y-116724482D01*
X196689072Y-116600000D01*
X196686000Y-116385750D01*
X196527250Y-116227000D01*
X195453000Y-116227000D01*
X195453000Y-116247000D01*
X195199000Y-116247000D01*
X195199000Y-116227000D01*
X194124750Y-116227000D01*
X193966000Y-116385750D01*
X193962928Y-116600000D01*
X193975188Y-116724482D01*
X194011498Y-116844180D01*
X194070463Y-116954494D01*
X194149815Y-117051185D01*
X194246506Y-117130537D01*
X194356820Y-117189502D01*
X194476518Y-117225812D01*
X194494780Y-117227611D01*
X194403512Y-117302512D01*
X194324810Y-117398411D01*
X194266329Y-117507821D01*
X194237154Y-117604000D01*
X191104897Y-117604000D01*
X191044717Y-117543820D01*
X190843097Y-117409102D01*
X190736846Y-117365091D01*
X190764099Y-117356825D01*
X191026920Y-117231641D01*
X191260269Y-117057588D01*
X191455178Y-116841355D01*
X191604157Y-116591252D01*
X191701481Y-116316891D01*
X191580814Y-116087000D01*
X190387000Y-116087000D01*
X190387000Y-116107000D01*
X190133000Y-116107000D01*
X190133000Y-116087000D01*
X190113000Y-116087000D01*
X190113000Y-115833000D01*
X190133000Y-115833000D01*
X190133000Y-114639845D01*
X190387000Y-114639845D01*
X190387000Y-115833000D01*
X191580814Y-115833000D01*
X191701481Y-115603109D01*
X191700379Y-115600000D01*
X193962928Y-115600000D01*
X193966000Y-115814250D01*
X194124750Y-115973000D01*
X195199000Y-115973000D01*
X195199000Y-115123750D01*
X195453000Y-115123750D01*
X195453000Y-115973000D01*
X196527250Y-115973000D01*
X196686000Y-115814250D01*
X196689072Y-115600000D01*
X196676812Y-115475518D01*
X196640502Y-115355820D01*
X196581537Y-115245506D01*
X196502185Y-115148815D01*
X196405494Y-115069463D01*
X196295180Y-115010498D01*
X196175482Y-114974188D01*
X196051000Y-114961928D01*
X195611750Y-114965000D01*
X195453000Y-115123750D01*
X195199000Y-115123750D01*
X195040250Y-114965000D01*
X194601000Y-114961928D01*
X194476518Y-114974188D01*
X194356820Y-115010498D01*
X194246506Y-115069463D01*
X194149815Y-115148815D01*
X194070463Y-115245506D01*
X194011498Y-115355820D01*
X193975188Y-115475518D01*
X193962928Y-115600000D01*
X191700379Y-115600000D01*
X191604157Y-115328748D01*
X191455178Y-115078645D01*
X191260269Y-114862412D01*
X191026920Y-114688359D01*
X190764099Y-114563175D01*
X190616890Y-114518524D01*
X190387000Y-114639845D01*
X190133000Y-114639845D01*
X189903110Y-114518524D01*
X189755901Y-114563175D01*
X189493080Y-114688359D01*
X189259731Y-114862412D01*
X189064822Y-115078645D01*
X188915843Y-115328748D01*
X188858228Y-115491168D01*
X188810898Y-115376903D01*
X188676180Y-115175283D01*
X188504717Y-115003820D01*
X188303097Y-114869102D01*
X188079069Y-114776307D01*
X187841243Y-114729000D01*
X187598757Y-114729000D01*
X187360931Y-114776307D01*
X187136903Y-114869102D01*
X186935283Y-115003820D01*
X186763820Y-115175283D01*
X186629102Y-115376903D01*
X186536307Y-115600931D01*
X186489000Y-115838757D01*
X186489000Y-116081243D01*
X186536307Y-116319069D01*
X186629102Y-116543097D01*
X186659105Y-116588000D01*
X186240895Y-116588000D01*
X186270898Y-116543097D01*
X186363693Y-116319069D01*
X186411000Y-116081243D01*
X186411000Y-115838757D01*
X186363693Y-115600931D01*
X186270898Y-115376903D01*
X186136180Y-115175283D01*
X185964717Y-115003820D01*
X185763097Y-114869102D01*
X185539069Y-114776307D01*
X185301243Y-114729000D01*
X185058757Y-114729000D01*
X184820931Y-114776307D01*
X184596903Y-114869102D01*
X184395283Y-115003820D01*
X184223820Y-115175283D01*
X184089102Y-115376903D01*
X183996307Y-115600931D01*
X183949000Y-115838757D01*
X183949000Y-116081243D01*
X183996307Y-116319069D01*
X184089102Y-116543097D01*
X184119105Y-116588000D01*
X183700895Y-116588000D01*
X183730898Y-116543097D01*
X183823693Y-116319069D01*
X183871000Y-116081243D01*
X183871000Y-115838757D01*
X183823693Y-115600931D01*
X183730898Y-115376903D01*
X183596180Y-115175283D01*
X183424717Y-115003820D01*
X183223097Y-114869102D01*
X182999069Y-114776307D01*
X182761243Y-114729000D01*
X182518757Y-114729000D01*
X182280931Y-114776307D01*
X182056903Y-114869102D01*
X181855283Y-115003820D01*
X181683820Y-115175283D01*
X181549102Y-115376903D01*
X181456307Y-115600931D01*
X181409000Y-115838757D01*
X181409000Y-116081243D01*
X181456307Y-116319069D01*
X181549102Y-116543097D01*
X181579105Y-116588000D01*
X181160895Y-116588000D01*
X181190898Y-116543097D01*
X181283693Y-116319069D01*
X181331000Y-116081243D01*
X181331000Y-115838757D01*
X181283693Y-115600931D01*
X181190898Y-115376903D01*
X181056180Y-115175283D01*
X180884717Y-115003820D01*
X180683097Y-114869102D01*
X180459069Y-114776307D01*
X180221243Y-114729000D01*
X179978757Y-114729000D01*
X179740931Y-114776307D01*
X179516903Y-114869102D01*
X179315283Y-115003820D01*
X179143820Y-115175283D01*
X179009102Y-115376903D01*
X178916307Y-115600931D01*
X178869000Y-115838757D01*
X178869000Y-116081243D01*
X178916307Y-116319069D01*
X179009102Y-116543097D01*
X179039105Y-116588000D01*
X178620895Y-116588000D01*
X178650898Y-116543097D01*
X178743693Y-116319069D01*
X178791000Y-116081243D01*
X178791000Y-115838757D01*
X178743693Y-115600931D01*
X178650898Y-115376903D01*
X178516180Y-115175283D01*
X178344717Y-115003820D01*
X178143097Y-114869102D01*
X177919069Y-114776307D01*
X177681243Y-114729000D01*
X177438757Y-114729000D01*
X177200931Y-114776307D01*
X176976903Y-114869102D01*
X176775283Y-115003820D01*
X176603820Y-115175283D01*
X176469102Y-115376903D01*
X176376307Y-115600931D01*
X176329000Y-115838757D01*
X176329000Y-116081243D01*
X176376307Y-116319069D01*
X176469102Y-116543097D01*
X176499105Y-116588000D01*
X176080895Y-116588000D01*
X176110898Y-116543097D01*
X176203693Y-116319069D01*
X176251000Y-116081243D01*
X176251000Y-115838757D01*
X176203693Y-115600931D01*
X176110898Y-115376903D01*
X175976180Y-115175283D01*
X175804717Y-115003820D01*
X175603097Y-114869102D01*
X175379069Y-114776307D01*
X175141243Y-114729000D01*
X174898757Y-114729000D01*
X174660931Y-114776307D01*
X174436903Y-114869102D01*
X174235283Y-115003820D01*
X174063820Y-115175283D01*
X173929102Y-115376903D01*
X173836307Y-115600931D01*
X173789000Y-115838757D01*
X173789000Y-116081243D01*
X173836307Y-116319069D01*
X173929102Y-116543097D01*
X173959105Y-116588000D01*
X173540895Y-116588000D01*
X173570898Y-116543097D01*
X173663693Y-116319069D01*
X173711000Y-116081243D01*
X173711000Y-115838757D01*
X173663693Y-115600931D01*
X173570898Y-115376903D01*
X173436180Y-115175283D01*
X173264717Y-115003820D01*
X173063097Y-114869102D01*
X172839069Y-114776307D01*
X172601243Y-114729000D01*
X172358757Y-114729000D01*
X172120931Y-114776307D01*
X171896903Y-114869102D01*
X171695283Y-115003820D01*
X171523820Y-115175283D01*
X171389102Y-115376903D01*
X171296307Y-115600931D01*
X171249000Y-115838757D01*
X171249000Y-116081243D01*
X171296307Y-116319069D01*
X171389102Y-116543097D01*
X171419105Y-116588000D01*
X171000895Y-116588000D01*
X171030898Y-116543097D01*
X171123693Y-116319069D01*
X171171000Y-116081243D01*
X171171000Y-115838757D01*
X171123693Y-115600931D01*
X171030898Y-115376903D01*
X170896180Y-115175283D01*
X170724717Y-115003820D01*
X170523097Y-114869102D01*
X170299069Y-114776307D01*
X170061243Y-114729000D01*
X169818757Y-114729000D01*
X169580931Y-114776307D01*
X169356903Y-114869102D01*
X169155283Y-115003820D01*
X168983820Y-115175283D01*
X168849102Y-115376903D01*
X168756307Y-115600931D01*
X168709000Y-115838757D01*
X168709000Y-116081243D01*
X168756307Y-116319069D01*
X168849102Y-116543097D01*
X168879105Y-116588000D01*
X168460895Y-116588000D01*
X168490898Y-116543097D01*
X168583693Y-116319069D01*
X168631000Y-116081243D01*
X168631000Y-115838757D01*
X168583693Y-115600931D01*
X168490898Y-115376903D01*
X168356180Y-115175283D01*
X168184717Y-115003820D01*
X167983097Y-114869102D01*
X167759069Y-114776307D01*
X167521243Y-114729000D01*
X167278757Y-114729000D01*
X167040931Y-114776307D01*
X166816903Y-114869102D01*
X166615283Y-115003820D01*
X166443820Y-115175283D01*
X166309102Y-115376903D01*
X166216307Y-115600931D01*
X166169000Y-115838757D01*
X166169000Y-116081243D01*
X166216307Y-116319069D01*
X166309102Y-116543097D01*
X166339105Y-116588000D01*
X165920895Y-116588000D01*
X165950898Y-116543097D01*
X166043693Y-116319069D01*
X166091000Y-116081243D01*
X166091000Y-115838757D01*
X166043693Y-115600931D01*
X165950898Y-115376903D01*
X165816180Y-115175283D01*
X165644717Y-115003820D01*
X165443097Y-114869102D01*
X165219069Y-114776307D01*
X164981243Y-114729000D01*
X164738757Y-114729000D01*
X164500931Y-114776307D01*
X164276903Y-114869102D01*
X164075283Y-115003820D01*
X163903820Y-115175283D01*
X163769102Y-115376903D01*
X163676307Y-115600931D01*
X163629000Y-115838757D01*
X163629000Y-116081243D01*
X163676307Y-116319069D01*
X163769102Y-116543097D01*
X163799105Y-116588000D01*
X163380895Y-116588000D01*
X163410898Y-116543097D01*
X163503693Y-116319069D01*
X163551000Y-116081243D01*
X163551000Y-115838757D01*
X163503693Y-115600931D01*
X163410898Y-115376903D01*
X163276180Y-115175283D01*
X163104717Y-115003820D01*
X162903097Y-114869102D01*
X162826000Y-114837168D01*
X162826000Y-113614501D01*
X162912642Y-113527859D01*
X162998113Y-113399942D01*
X163056987Y-113257809D01*
X163087000Y-113106922D01*
X163087000Y-112953078D01*
X163056987Y-112802191D01*
X162998113Y-112660058D01*
X162912642Y-112532141D01*
X162803859Y-112423358D01*
X162675942Y-112337887D01*
X162533809Y-112279013D01*
X162382922Y-112249000D01*
X162229078Y-112249000D01*
X162078191Y-112279013D01*
X161936058Y-112337887D01*
X161808141Y-112423358D01*
X161699358Y-112532141D01*
X161613887Y-112660058D01*
X161555013Y-112802191D01*
X161525000Y-112953078D01*
X161525000Y-113106922D01*
X161555013Y-113257809D01*
X161613887Y-113399942D01*
X161699358Y-113527859D01*
X161808141Y-113636642D01*
X161814001Y-113640557D01*
X161814000Y-114837167D01*
X161736903Y-114869102D01*
X161535283Y-115003820D01*
X161363820Y-115175283D01*
X161229102Y-115376903D01*
X161136307Y-115600931D01*
X161089000Y-115838757D01*
X161089000Y-116081243D01*
X161136307Y-116319069D01*
X161229102Y-116543097D01*
X161259105Y-116588000D01*
X160840895Y-116588000D01*
X160870898Y-116543097D01*
X160963693Y-116319069D01*
X161011000Y-116081243D01*
X161011000Y-115838757D01*
X160963693Y-115600931D01*
X160870898Y-115376903D01*
X160736180Y-115175283D01*
X160564717Y-115003820D01*
X160363097Y-114869102D01*
X160272000Y-114831369D01*
X160272000Y-112866501D01*
X160372642Y-112765859D01*
X160458113Y-112637942D01*
X160516987Y-112495809D01*
X160547000Y-112344922D01*
X160547000Y-112191078D01*
X160516987Y-112040191D01*
X160458113Y-111898058D01*
X160372642Y-111770141D01*
X160263859Y-111661358D01*
X160135942Y-111575887D01*
X159993809Y-111517013D01*
X159842922Y-111487000D01*
X159689078Y-111487000D01*
X159538191Y-111517013D01*
X159396058Y-111575887D01*
X159268141Y-111661358D01*
X159159358Y-111770141D01*
X159073887Y-111898058D01*
X159015013Y-112040191D01*
X158985000Y-112191078D01*
X158985000Y-112344922D01*
X159015013Y-112495809D01*
X159073887Y-112637942D01*
X159159358Y-112765859D01*
X159260000Y-112866501D01*
X159260001Y-114842966D01*
X159196903Y-114869102D01*
X158995283Y-115003820D01*
X158823820Y-115175283D01*
X158689102Y-115376903D01*
X158596307Y-115600931D01*
X158549000Y-115838757D01*
X158549000Y-116081243D01*
X158596307Y-116319069D01*
X158689102Y-116543097D01*
X158719105Y-116588000D01*
X158300895Y-116588000D01*
X158330898Y-116543097D01*
X158423693Y-116319069D01*
X158471000Y-116081243D01*
X158471000Y-115838757D01*
X158423693Y-115600931D01*
X158330898Y-115376903D01*
X158196180Y-115175283D01*
X158024717Y-115003820D01*
X157823097Y-114869102D01*
X157746000Y-114837168D01*
X157746000Y-112090501D01*
X157832642Y-112003859D01*
X157918113Y-111875942D01*
X157976987Y-111733809D01*
X158007000Y-111582922D01*
X158007000Y-111429078D01*
X157976987Y-111278191D01*
X157918113Y-111136058D01*
X157832642Y-111008141D01*
X157723859Y-110899358D01*
X157595942Y-110813887D01*
X157453809Y-110755013D01*
X157302922Y-110725000D01*
X157149078Y-110725000D01*
X156998191Y-110755013D01*
X156856058Y-110813887D01*
X156728141Y-110899358D01*
X156619358Y-111008141D01*
X156533887Y-111136058D01*
X156475013Y-111278191D01*
X156445000Y-111429078D01*
X156445000Y-111582922D01*
X156475013Y-111733809D01*
X156533887Y-111875942D01*
X156619358Y-112003859D01*
X156728141Y-112112642D01*
X156734001Y-112116557D01*
X156734000Y-114837167D01*
X156656903Y-114869102D01*
X156455283Y-115003820D01*
X156283820Y-115175283D01*
X156149102Y-115376903D01*
X156056307Y-115600931D01*
X156009000Y-115838757D01*
X156009000Y-116081243D01*
X156056307Y-116319069D01*
X156149102Y-116543097D01*
X156179105Y-116588000D01*
X155760895Y-116588000D01*
X155790898Y-116543097D01*
X155883693Y-116319069D01*
X155931000Y-116081243D01*
X155931000Y-115838757D01*
X155883693Y-115600931D01*
X155790898Y-115376903D01*
X155656180Y-115175283D01*
X155484717Y-115003820D01*
X155283097Y-114869102D01*
X155206000Y-114837168D01*
X155206000Y-111328501D01*
X155292642Y-111241859D01*
X155378113Y-111113942D01*
X155436987Y-110971809D01*
X155467000Y-110820922D01*
X155467000Y-110667078D01*
X155436987Y-110516191D01*
X155378113Y-110374058D01*
X155292642Y-110246141D01*
X155183859Y-110137358D01*
X155055942Y-110051887D01*
X154913809Y-109993013D01*
X154762922Y-109963000D01*
X154609078Y-109963000D01*
X154458191Y-109993013D01*
X154316058Y-110051887D01*
X154188141Y-110137358D01*
X154079358Y-110246141D01*
X153993887Y-110374058D01*
X153935013Y-110516191D01*
X153905000Y-110667078D01*
X153905000Y-110820922D01*
X153935013Y-110971809D01*
X153993887Y-111113942D01*
X154079358Y-111241859D01*
X154188141Y-111350642D01*
X154194001Y-111354557D01*
X154194000Y-114837167D01*
X154116903Y-114869102D01*
X153915283Y-115003820D01*
X153743820Y-115175283D01*
X153609102Y-115376903D01*
X153516307Y-115600931D01*
X153469000Y-115838757D01*
X153469000Y-116081243D01*
X153516307Y-116319069D01*
X153609102Y-116543097D01*
X153639105Y-116588000D01*
X153220895Y-116588000D01*
X153250898Y-116543097D01*
X153343693Y-116319069D01*
X153391000Y-116081243D01*
X153391000Y-115838757D01*
X153343693Y-115600931D01*
X153250898Y-115376903D01*
X153116180Y-115175283D01*
X152944717Y-115003820D01*
X152743097Y-114869102D01*
X152666000Y-114837168D01*
X152666000Y-110566501D01*
X152752642Y-110479859D01*
X152838113Y-110351942D01*
X152896987Y-110209809D01*
X152927000Y-110058922D01*
X152927000Y-109905078D01*
X152896987Y-109754191D01*
X152838113Y-109612058D01*
X152752642Y-109484141D01*
X152643859Y-109375358D01*
X152515942Y-109289887D01*
X152373809Y-109231013D01*
X152222922Y-109201000D01*
X152069078Y-109201000D01*
X151918191Y-109231013D01*
X151776058Y-109289887D01*
X151648141Y-109375358D01*
X151539358Y-109484141D01*
X151453887Y-109612058D01*
X151395013Y-109754191D01*
X151365000Y-109905078D01*
X151365000Y-110058922D01*
X151395013Y-110209809D01*
X151453887Y-110351942D01*
X151539358Y-110479859D01*
X151648141Y-110588642D01*
X151654001Y-110592557D01*
X151654000Y-114837167D01*
X151576903Y-114869102D01*
X151375283Y-115003820D01*
X151203820Y-115175283D01*
X151069102Y-115376903D01*
X150976307Y-115600931D01*
X150929000Y-115838757D01*
X150929000Y-116081243D01*
X150976307Y-116319069D01*
X151069102Y-116543097D01*
X151099105Y-116588000D01*
X150680895Y-116588000D01*
X150710898Y-116543097D01*
X150803693Y-116319069D01*
X150851000Y-116081243D01*
X150851000Y-115838757D01*
X150803693Y-115600931D01*
X150710898Y-115376903D01*
X150576180Y-115175283D01*
X150404717Y-115003820D01*
X150203097Y-114869102D01*
X150126000Y-114837168D01*
X150126000Y-109804501D01*
X150212642Y-109717859D01*
X150298113Y-109589942D01*
X150356987Y-109447809D01*
X150387000Y-109296922D01*
X150387000Y-109143078D01*
X150356987Y-108992191D01*
X150298113Y-108850058D01*
X150212642Y-108722141D01*
X150103859Y-108613358D01*
X149975942Y-108527887D01*
X149833809Y-108469013D01*
X149682922Y-108439000D01*
X149529078Y-108439000D01*
X149378191Y-108469013D01*
X149236058Y-108527887D01*
X149108141Y-108613358D01*
X148999358Y-108722141D01*
X148913887Y-108850058D01*
X148855013Y-108992191D01*
X148825000Y-109143078D01*
X148825000Y-109296922D01*
X148855013Y-109447809D01*
X148913887Y-109589942D01*
X148999358Y-109717859D01*
X149108141Y-109826642D01*
X149114001Y-109830557D01*
X149114000Y-114837167D01*
X149036903Y-114869102D01*
X148835283Y-115003820D01*
X148663820Y-115175283D01*
X148529102Y-115376903D01*
X148436307Y-115600931D01*
X148389000Y-115838757D01*
X148389000Y-116081243D01*
X148436307Y-116319069D01*
X148529102Y-116543097D01*
X148559105Y-116588000D01*
X148140895Y-116588000D01*
X148170898Y-116543097D01*
X148263693Y-116319069D01*
X148311000Y-116081243D01*
X148311000Y-115838757D01*
X148263693Y-115600931D01*
X148170898Y-115376903D01*
X148036180Y-115175283D01*
X147864717Y-115003820D01*
X147663097Y-114869102D01*
X147439069Y-114776307D01*
X147201243Y-114729000D01*
X146958757Y-114729000D01*
X146720931Y-114776307D01*
X146496903Y-114869102D01*
X146295283Y-115003820D01*
X146123820Y-115175283D01*
X145989102Y-115376903D01*
X145896307Y-115600931D01*
X145849000Y-115838757D01*
X145849000Y-116081243D01*
X145896307Y-116319069D01*
X145989102Y-116543097D01*
X146019105Y-116588000D01*
X145600895Y-116588000D01*
X145630898Y-116543097D01*
X145723693Y-116319069D01*
X145771000Y-116081243D01*
X145771000Y-115838757D01*
X145723693Y-115600931D01*
X145630898Y-115376903D01*
X145496180Y-115175283D01*
X145324717Y-115003820D01*
X145123097Y-114869102D01*
X144899069Y-114776307D01*
X144661243Y-114729000D01*
X144418757Y-114729000D01*
X144180931Y-114776307D01*
X143956903Y-114869102D01*
X143755283Y-115003820D01*
X143583820Y-115175283D01*
X143449102Y-115376903D01*
X143356307Y-115600931D01*
X143309000Y-115838757D01*
X143309000Y-116081243D01*
X143356307Y-116319069D01*
X143449102Y-116543097D01*
X143479105Y-116588000D01*
X143343592Y-116588000D01*
X143151758Y-116396167D01*
X143183693Y-116319069D01*
X143231000Y-116081243D01*
X143231000Y-115838757D01*
X143183693Y-115600931D01*
X143090898Y-115376903D01*
X142956180Y-115175283D01*
X142784717Y-115003820D01*
X142583097Y-114869102D01*
X142359069Y-114776307D01*
X142121243Y-114729000D01*
X141878757Y-114729000D01*
X141640931Y-114776307D01*
X141416903Y-114869102D01*
X141215283Y-115003820D01*
X141043820Y-115175283D01*
X140909102Y-115376903D01*
X140877168Y-115454000D01*
X137249191Y-115454000D01*
X137224589Y-115433810D01*
X137115179Y-115375329D01*
X136996462Y-115339317D01*
X136873000Y-115327157D01*
X135923000Y-115327157D01*
X135799538Y-115339317D01*
X135680821Y-115375329D01*
X135571411Y-115433810D01*
X135475512Y-115512512D01*
X135396810Y-115608411D01*
X135338329Y-115717821D01*
X135333763Y-115732872D01*
X135309425Y-115740255D01*
X135221521Y-115787241D01*
X135144473Y-115850473D01*
X135128629Y-115869779D01*
X132504409Y-118494000D01*
X132116284Y-118494000D01*
X132065190Y-118398411D01*
X131986488Y-118302512D01*
X131895220Y-118227611D01*
X131913482Y-118225812D01*
X132033180Y-118189502D01*
X132143494Y-118130537D01*
X132240185Y-118051185D01*
X132319537Y-117954494D01*
X132378502Y-117844180D01*
X132414812Y-117724482D01*
X132427072Y-117600000D01*
X132424000Y-117385750D01*
X132265250Y-117227000D01*
X131191000Y-117227000D01*
X131191000Y-117247000D01*
X130937000Y-117247000D01*
X130937000Y-117227000D01*
X129862750Y-117227000D01*
X129704000Y-117385750D01*
X129700928Y-117600000D01*
X129713188Y-117724482D01*
X129749498Y-117844180D01*
X129808463Y-117954494D01*
X129887815Y-118051185D01*
X129984506Y-118130537D01*
X130094820Y-118189502D01*
X130214518Y-118225812D01*
X130232780Y-118227611D01*
X130141512Y-118302512D01*
X130062810Y-118398411D01*
X130004329Y-118507821D01*
X129968317Y-118626538D01*
X129956157Y-118750000D01*
X129956157Y-119250000D01*
X129968317Y-119373462D01*
X129969860Y-119378549D01*
X129354409Y-119994000D01*
X127572843Y-119994000D01*
X127572843Y-119675000D01*
X127562605Y-119571047D01*
X127532283Y-119471090D01*
X127483043Y-119378968D01*
X127416777Y-119298223D01*
X127336032Y-119231957D01*
X127243910Y-119182717D01*
X127143953Y-119152395D01*
X127040000Y-119142157D01*
X126740000Y-119142157D01*
X126636047Y-119152395D01*
X126536090Y-119182717D01*
X126443968Y-119231957D01*
X126363223Y-119298223D01*
X126296957Y-119378968D01*
X126255000Y-119457464D01*
X126213043Y-119378968D01*
X126146777Y-119298223D01*
X126066032Y-119231957D01*
X125973910Y-119182717D01*
X125873953Y-119152395D01*
X125770000Y-119142157D01*
X125470000Y-119142157D01*
X125366047Y-119152395D01*
X125266090Y-119182717D01*
X125173968Y-119231957D01*
X125093223Y-119298223D01*
X125026957Y-119378968D01*
X124985000Y-119457464D01*
X124943043Y-119378968D01*
X124876777Y-119298223D01*
X124796032Y-119231957D01*
X124703910Y-119182717D01*
X124603953Y-119152395D01*
X124500000Y-119142157D01*
X124200000Y-119142157D01*
X124096047Y-119152395D01*
X123996090Y-119182717D01*
X123903968Y-119231957D01*
X123823223Y-119298223D01*
X123756957Y-119378968D01*
X123715000Y-119457464D01*
X123673043Y-119378968D01*
X123606777Y-119298223D01*
X123526032Y-119231957D01*
X123433910Y-119182717D01*
X123333953Y-119152395D01*
X123230000Y-119142157D01*
X122930000Y-119142157D01*
X122826047Y-119152395D01*
X122726090Y-119182717D01*
X122633968Y-119231957D01*
X122553223Y-119298223D01*
X122486957Y-119378968D01*
X122445000Y-119457464D01*
X122403043Y-119378968D01*
X122336777Y-119298223D01*
X122256032Y-119231957D01*
X122163910Y-119182717D01*
X122063953Y-119152395D01*
X121960000Y-119142157D01*
X121660000Y-119142157D01*
X121556047Y-119152395D01*
X121456090Y-119182717D01*
X121363968Y-119231957D01*
X121283223Y-119298223D01*
X121216957Y-119378968D01*
X121175000Y-119457464D01*
X121133043Y-119378968D01*
X121066777Y-119298223D01*
X121046000Y-119281172D01*
X121046000Y-119040854D01*
X121048448Y-119016000D01*
X121038678Y-118916807D01*
X121009745Y-118821425D01*
X120997531Y-118798574D01*
X120962759Y-118733521D01*
X120899527Y-118656473D01*
X120880220Y-118640628D01*
X119147434Y-116907843D01*
X119420000Y-116907843D01*
X119523953Y-116897605D01*
X119623910Y-116867283D01*
X119716032Y-116818043D01*
X119796777Y-116751777D01*
X119863043Y-116671032D01*
X119905000Y-116592536D01*
X119946957Y-116671032D01*
X120013223Y-116751777D01*
X120093968Y-116818043D01*
X120186090Y-116867283D01*
X120286047Y-116897605D01*
X120390000Y-116907843D01*
X120690000Y-116907843D01*
X120793953Y-116897605D01*
X120893910Y-116867283D01*
X120986032Y-116818043D01*
X121066777Y-116751777D01*
X121133043Y-116671032D01*
X121175000Y-116592536D01*
X121216957Y-116671032D01*
X121283223Y-116751777D01*
X121363968Y-116818043D01*
X121456090Y-116867283D01*
X121556047Y-116897605D01*
X121660000Y-116907843D01*
X121960000Y-116907843D01*
X122063953Y-116897605D01*
X122163910Y-116867283D01*
X122256032Y-116818043D01*
X122336777Y-116751777D01*
X122403043Y-116671032D01*
X122445000Y-116592536D01*
X122486957Y-116671032D01*
X122553223Y-116751777D01*
X122633968Y-116818043D01*
X122726090Y-116867283D01*
X122826047Y-116897605D01*
X122930000Y-116907843D01*
X123230000Y-116907843D01*
X123333953Y-116897605D01*
X123433910Y-116867283D01*
X123526032Y-116818043D01*
X123606777Y-116751777D01*
X123673043Y-116671032D01*
X123715000Y-116592536D01*
X123756957Y-116671032D01*
X123823223Y-116751777D01*
X123903968Y-116818043D01*
X123996090Y-116867283D01*
X124096047Y-116897605D01*
X124200000Y-116907843D01*
X124500000Y-116907843D01*
X124603953Y-116897605D01*
X124703910Y-116867283D01*
X124796032Y-116818043D01*
X124876777Y-116751777D01*
X124943043Y-116671032D01*
X124985000Y-116592536D01*
X125026957Y-116671032D01*
X125093223Y-116751777D01*
X125173968Y-116818043D01*
X125266090Y-116867283D01*
X125366047Y-116897605D01*
X125470000Y-116907843D01*
X125770000Y-116907843D01*
X125873953Y-116897605D01*
X125973910Y-116867283D01*
X126066032Y-116818043D01*
X126146777Y-116751777D01*
X126213043Y-116671032D01*
X126255000Y-116592536D01*
X126296957Y-116671032D01*
X126363223Y-116751777D01*
X126443968Y-116818043D01*
X126536090Y-116867283D01*
X126636047Y-116897605D01*
X126740000Y-116907843D01*
X127040000Y-116907843D01*
X127143953Y-116897605D01*
X127243910Y-116867283D01*
X127336032Y-116818043D01*
X127416777Y-116751777D01*
X127483043Y-116671032D01*
X127521010Y-116600000D01*
X129700928Y-116600000D01*
X129704000Y-116814250D01*
X129862750Y-116973000D01*
X130937000Y-116973000D01*
X130937000Y-116123750D01*
X131191000Y-116123750D01*
X131191000Y-116973000D01*
X132265250Y-116973000D01*
X132424000Y-116814250D01*
X132427072Y-116600000D01*
X132414812Y-116475518D01*
X132378502Y-116355820D01*
X132319537Y-116245506D01*
X132240185Y-116148815D01*
X132143494Y-116069463D01*
X132033180Y-116010498D01*
X131913482Y-115974188D01*
X131789000Y-115961928D01*
X131349750Y-115965000D01*
X131191000Y-116123750D01*
X130937000Y-116123750D01*
X130778250Y-115965000D01*
X130339000Y-115961928D01*
X130214518Y-115974188D01*
X130094820Y-116010498D01*
X129984506Y-116069463D01*
X129887815Y-116148815D01*
X129808463Y-116245506D01*
X129749498Y-116355820D01*
X129713188Y-116475518D01*
X129700928Y-116600000D01*
X127521010Y-116600000D01*
X127532283Y-116578910D01*
X127562605Y-116478953D01*
X127572843Y-116375000D01*
X127572843Y-114725000D01*
X127562605Y-114621047D01*
X127532283Y-114521090D01*
X127483043Y-114428968D01*
X127416777Y-114348223D01*
X127396000Y-114331172D01*
X127396000Y-113704702D01*
X127497859Y-113636642D01*
X127606642Y-113527859D01*
X127692113Y-113399942D01*
X127750987Y-113257809D01*
X127781000Y-113106922D01*
X127781000Y-112953078D01*
X127750987Y-112802191D01*
X127692113Y-112660058D01*
X127606642Y-112532141D01*
X127497859Y-112423358D01*
X127369942Y-112337887D01*
X127227809Y-112279013D01*
X127076922Y-112249000D01*
X126923078Y-112249000D01*
X126772191Y-112279013D01*
X126630058Y-112337887D01*
X126502141Y-112423358D01*
X126493724Y-112431775D01*
X126511000Y-112344922D01*
X126511000Y-112191078D01*
X126480987Y-112040191D01*
X126422113Y-111898058D01*
X126336642Y-111770141D01*
X126227859Y-111661358D01*
X126099942Y-111575887D01*
X125957809Y-111517013D01*
X125806922Y-111487000D01*
X125653078Y-111487000D01*
X125502191Y-111517013D01*
X125360058Y-111575887D01*
X125232141Y-111661358D01*
X125223724Y-111669775D01*
X125241000Y-111582922D01*
X125241000Y-111429078D01*
X125210987Y-111278191D01*
X125152113Y-111136058D01*
X125066642Y-111008141D01*
X124957859Y-110899358D01*
X124829942Y-110813887D01*
X124687809Y-110755013D01*
X124536922Y-110725000D01*
X124383078Y-110725000D01*
X124232191Y-110755013D01*
X124090058Y-110813887D01*
X123962141Y-110899358D01*
X123953724Y-110907775D01*
X123971000Y-110820922D01*
X123971000Y-110667078D01*
X123940987Y-110516191D01*
X123882113Y-110374058D01*
X123796642Y-110246141D01*
X123687859Y-110137358D01*
X123559942Y-110051887D01*
X123417809Y-109993013D01*
X123266922Y-109963000D01*
X123113078Y-109963000D01*
X122962191Y-109993013D01*
X122820058Y-110051887D01*
X122692141Y-110137358D01*
X122683722Y-110145777D01*
X122700998Y-110058922D01*
X122700998Y-109905078D01*
X122670985Y-109754191D01*
X122612111Y-109612058D01*
X122526640Y-109484141D01*
X122417857Y-109375358D01*
X122289940Y-109289887D01*
X122147807Y-109231013D01*
X121996920Y-109201000D01*
X121843076Y-109201000D01*
X121692189Y-109231013D01*
X121550056Y-109289887D01*
X121422139Y-109375358D01*
X121413725Y-109383772D01*
X121431000Y-109296922D01*
X121431000Y-109143078D01*
X121400987Y-108992191D01*
X121342113Y-108850058D01*
X121256642Y-108722141D01*
X121147859Y-108613358D01*
X121019942Y-108527887D01*
X120877809Y-108469013D01*
X120726922Y-108439000D01*
X120573078Y-108439000D01*
X120422191Y-108469013D01*
X120280058Y-108527887D01*
X120152141Y-108613358D01*
X120043358Y-108722141D01*
X119957887Y-108850058D01*
X119899013Y-108992191D01*
X119869000Y-109143078D01*
X119869000Y-109296922D01*
X119899013Y-109447809D01*
X119957887Y-109589942D01*
X120034001Y-109703855D01*
X120034000Y-114331172D01*
X120013223Y-114348223D01*
X119946957Y-114428968D01*
X119905000Y-114507464D01*
X119863043Y-114428968D01*
X119796777Y-114348223D01*
X119716032Y-114281957D01*
X119659127Y-114251541D01*
X119629527Y-114215473D01*
X119610220Y-114199628D01*
X118608376Y-113197785D01*
X118592527Y-113178473D01*
X118515479Y-113115241D01*
X118427575Y-113068255D01*
X118332193Y-113039322D01*
X118257854Y-113032000D01*
X118257846Y-113032000D01*
X118233000Y-113029553D01*
X118208154Y-113032000D01*
X106946845Y-113032000D01*
X106921999Y-113029553D01*
X106897153Y-113032000D01*
X106897146Y-113032000D01*
X106832694Y-113038348D01*
X106822806Y-113039322D01*
X106727425Y-113068255D01*
X106639521Y-113115241D01*
X106562473Y-113178473D01*
X106546628Y-113197780D01*
X104936167Y-114808242D01*
X104859069Y-114776307D01*
X104621243Y-114729000D01*
X104378757Y-114729000D01*
X104140931Y-114776307D01*
X103916903Y-114869102D01*
X103715283Y-115003820D01*
X103543820Y-115175283D01*
X103409102Y-115376903D01*
X103316307Y-115600931D01*
X103269000Y-115838757D01*
X103269000Y-116081243D01*
X103316307Y-116319069D01*
X103409102Y-116543097D01*
X103543820Y-116744717D01*
X103715283Y-116916180D01*
X103916903Y-117050898D01*
X104140931Y-117143693D01*
X104378757Y-117191000D01*
X104621243Y-117191000D01*
X104859069Y-117143693D01*
X105083097Y-117050898D01*
X105284717Y-116916180D01*
X105456180Y-116744717D01*
X105590898Y-116543097D01*
X105683693Y-116319069D01*
X105731000Y-116081243D01*
X105731000Y-115838757D01*
X105683693Y-115600931D01*
X105651758Y-115523833D01*
X107131592Y-114044000D01*
X117346372Y-114044000D01*
X117345506Y-114044463D01*
X117248815Y-114123815D01*
X117169463Y-114220506D01*
X117110498Y-114330820D01*
X117074188Y-114450518D01*
X117061928Y-114575000D01*
X117065000Y-115264250D01*
X117223750Y-115423000D01*
X117873000Y-115423000D01*
X117873000Y-115403000D01*
X118127000Y-115403000D01*
X118127000Y-115423000D01*
X118147000Y-115423000D01*
X118147000Y-115677000D01*
X118127000Y-115677000D01*
X118127000Y-115697000D01*
X117873000Y-115697000D01*
X117873000Y-115677000D01*
X117223750Y-115677000D01*
X117065000Y-115835750D01*
X117062779Y-116334000D01*
X113297508Y-116334000D01*
X113303693Y-116319069D01*
X113351000Y-116081243D01*
X113351000Y-115838757D01*
X113303693Y-115600931D01*
X113210898Y-115376903D01*
X113076180Y-115175283D01*
X112904717Y-115003820D01*
X112703097Y-114869102D01*
X112479069Y-114776307D01*
X112241243Y-114729000D01*
X111998757Y-114729000D01*
X111760931Y-114776307D01*
X111536903Y-114869102D01*
X111335283Y-115003820D01*
X111163820Y-115175283D01*
X111029102Y-115376903D01*
X110936307Y-115600931D01*
X110889000Y-115838757D01*
X110889000Y-116081243D01*
X110936307Y-116319069D01*
X111029102Y-116543097D01*
X111143964Y-116715000D01*
X111050592Y-116715000D01*
X110731758Y-116396167D01*
X110763693Y-116319069D01*
X110811000Y-116081243D01*
X110811000Y-115838757D01*
X110763693Y-115600931D01*
X110670898Y-115376903D01*
X110536180Y-115175283D01*
X110364717Y-115003820D01*
X110163097Y-114869102D01*
X109939069Y-114776307D01*
X109701243Y-114729000D01*
X109458757Y-114729000D01*
X109220931Y-114776307D01*
X108996903Y-114869102D01*
X108795283Y-115003820D01*
X108623820Y-115175283D01*
X108489102Y-115376903D01*
X108396307Y-115600931D01*
X108349000Y-115838757D01*
X108349000Y-116081243D01*
X108396307Y-116319069D01*
X108449853Y-116448342D01*
X108407921Y-116440001D01*
X108254077Y-116440001D01*
X108238659Y-116443068D01*
X108191758Y-116396167D01*
X108223693Y-116319069D01*
X108271000Y-116081243D01*
X108271000Y-115838757D01*
X108223693Y-115600931D01*
X108130898Y-115376903D01*
X107996180Y-115175283D01*
X107824717Y-115003820D01*
X107623097Y-114869102D01*
X107399069Y-114776307D01*
X107161243Y-114729000D01*
X106918757Y-114729000D01*
X106680931Y-114776307D01*
X106456903Y-114869102D01*
X106255283Y-115003820D01*
X106083820Y-115175283D01*
X105949102Y-115376903D01*
X105856307Y-115600931D01*
X105809000Y-115838757D01*
X105809000Y-116081243D01*
X105856307Y-116319069D01*
X105949102Y-116543097D01*
X106083820Y-116744717D01*
X106255283Y-116916180D01*
X106456903Y-117050898D01*
X106680931Y-117143693D01*
X106918757Y-117191000D01*
X107161243Y-117191000D01*
X107399069Y-117143693D01*
X107476167Y-117111758D01*
X107549999Y-117185591D01*
X107549999Y-117297923D01*
X107567536Y-117386088D01*
X107399069Y-117316307D01*
X107161243Y-117269000D01*
X106918757Y-117269000D01*
X106680931Y-117316307D01*
X106456903Y-117409102D01*
X106255283Y-117543820D01*
X106083820Y-117715283D01*
X105949102Y-117916903D01*
X105856307Y-118140931D01*
X105809000Y-118378757D01*
X105809000Y-118621243D01*
X105856307Y-118859069D01*
X105949102Y-119083097D01*
X106083820Y-119284717D01*
X106255283Y-119456180D01*
X106456903Y-119590898D01*
X106534001Y-119622833D01*
X106534000Y-122255154D01*
X106531553Y-122280000D01*
X106534000Y-122304846D01*
X106534000Y-122304853D01*
X106541322Y-122379192D01*
X106570255Y-122474574D01*
X106617241Y-122562479D01*
X106680473Y-122639527D01*
X106699785Y-122655376D01*
X106728409Y-122684000D01*
X105365588Y-122684000D01*
X105006000Y-122324413D01*
X105006000Y-119732843D01*
X105350000Y-119732843D01*
X105424689Y-119725487D01*
X105496508Y-119703701D01*
X105562696Y-119668322D01*
X105620711Y-119620711D01*
X105668322Y-119562696D01*
X105703701Y-119496508D01*
X105725487Y-119424689D01*
X105732843Y-119350000D01*
X105732843Y-117650000D01*
X105725487Y-117575311D01*
X105703701Y-117503492D01*
X105668322Y-117437304D01*
X105620711Y-117379289D01*
X105562696Y-117331678D01*
X105496508Y-117296299D01*
X105424689Y-117274513D01*
X105350000Y-117267157D01*
X103650000Y-117267157D01*
X103575311Y-117274513D01*
X103503492Y-117296299D01*
X103437304Y-117331678D01*
X103379289Y-117379289D01*
X103331678Y-117437304D01*
X103296299Y-117503492D01*
X103274513Y-117575311D01*
X103267157Y-117650000D01*
X103267157Y-119350000D01*
X103274513Y-119424689D01*
X103296299Y-119496508D01*
X103331678Y-119562696D01*
X103379289Y-119620711D01*
X103437304Y-119668322D01*
X103503492Y-119703701D01*
X103575311Y-119725487D01*
X103650000Y-119732843D01*
X103994001Y-119732843D01*
X103994000Y-122509158D01*
X103991553Y-122534004D01*
X103994000Y-122558850D01*
X103994000Y-122558857D01*
X104001322Y-122633196D01*
X104030255Y-122728578D01*
X104077241Y-122816483D01*
X104140473Y-122893531D01*
X104159785Y-122909380D01*
X104780624Y-123530220D01*
X104796469Y-123549527D01*
X104873517Y-123612759D01*
X104961421Y-123659745D01*
X105033456Y-123681596D01*
X105056802Y-123688678D01*
X105065880Y-123689572D01*
X105131142Y-123696000D01*
X105131149Y-123696000D01*
X105155995Y-123698447D01*
X105180841Y-123696000D01*
X116888408Y-123696000D01*
X116651409Y-123933000D01*
X116509078Y-123933000D01*
X116358191Y-123963013D01*
X116216058Y-124021887D01*
X116088141Y-124107358D01*
X115979358Y-124216141D01*
X115893887Y-124344058D01*
X115835013Y-124486191D01*
X115805000Y-124637078D01*
X115805000Y-124790922D01*
X115835013Y-124941809D01*
X115893887Y-125083942D01*
X115979358Y-125211859D01*
X116088141Y-125320642D01*
X116216058Y-125406113D01*
X116358191Y-125464987D01*
X116509078Y-125495000D01*
X116662922Y-125495000D01*
X116813809Y-125464987D01*
X116955942Y-125406113D01*
X117083859Y-125320642D01*
X117192642Y-125211859D01*
X117278113Y-125083942D01*
X117336987Y-124941809D01*
X117367000Y-124790922D01*
X117367000Y-124648591D01*
X117938592Y-124077000D01*
X119301408Y-124077000D01*
X117489785Y-125888624D01*
X117470473Y-125904473D01*
X117407241Y-125981521D01*
X117360255Y-126069426D01*
X117331322Y-126164808D01*
X117324000Y-126239147D01*
X117324000Y-126239154D01*
X117321553Y-126264000D01*
X117324000Y-126288846D01*
X117324000Y-126746000D01*
X113829371Y-126746000D01*
X113810806Y-126686027D01*
X113796545Y-126652100D01*
X113782762Y-126617987D01*
X113780101Y-126612981D01*
X113687276Y-126441304D01*
X113666658Y-126410737D01*
X113646548Y-126380006D01*
X113642966Y-126375612D01*
X113518562Y-126225234D01*
X113492411Y-126199264D01*
X113466706Y-126173016D01*
X113462344Y-126169407D01*
X113462338Y-126169401D01*
X113462331Y-126169397D01*
X113311096Y-126046052D01*
X113280431Y-126025678D01*
X113250084Y-126004899D01*
X113245102Y-126002205D01*
X113245098Y-126002202D01*
X113245094Y-126002200D01*
X113072775Y-125910577D01*
X113038740Y-125896549D01*
X113004932Y-125882059D01*
X112999517Y-125880382D01*
X112812681Y-125823973D01*
X112776511Y-125816811D01*
X112740591Y-125809176D01*
X112734964Y-125808584D01*
X112734953Y-125808582D01*
X112734943Y-125808582D01*
X112540719Y-125789538D01*
X112540718Y-125789538D01*
X112521041Y-125787600D01*
X103519185Y-125787600D01*
X102687854Y-125713406D01*
X101900326Y-125497962D01*
X101163384Y-125146459D01*
X100500340Y-124670013D01*
X99932144Y-124083681D01*
X99476762Y-123406000D01*
X99148581Y-122658384D01*
X98957230Y-121861349D01*
X98907100Y-121178708D01*
X98907100Y-81211685D01*
X98981294Y-80380354D01*
X99196738Y-79592827D01*
X99548241Y-78855884D01*
X100024687Y-78192840D01*
X100611019Y-77624644D01*
X101288700Y-77169262D01*
X102036316Y-76841081D01*
X102833351Y-76649730D01*
X103515992Y-76599600D01*
X193483015Y-76599600D01*
X194314346Y-76673794D01*
G04 #@! TA.AperFunction,Conductor*
D16*
G36*
X194314346Y-76673794D02*
G01*
X195101873Y-76889238D01*
X195838816Y-77240741D01*
X196501860Y-77717187D01*
X197070056Y-78303519D01*
X197525438Y-78981200D01*
X197853619Y-79728816D01*
X198044970Y-80525851D01*
X198095101Y-81208506D01*
X198095100Y-121175515D01*
X198020906Y-122006846D01*
X197805462Y-122794374D01*
X197453959Y-123531316D01*
X196977513Y-124194360D01*
X196391181Y-124762556D01*
X195713500Y-125217938D01*
X194965884Y-125546119D01*
X194168849Y-125737470D01*
X193486208Y-125787600D01*
X166281159Y-125787600D01*
X166263511Y-125789338D01*
X166257321Y-125789295D01*
X166251679Y-125789848D01*
X166057582Y-125810249D01*
X166021496Y-125817656D01*
X165985392Y-125824544D01*
X165979967Y-125826181D01*
X165979961Y-125826183D01*
X165793527Y-125883894D01*
X165759600Y-125898155D01*
X165725487Y-125911938D01*
X165720481Y-125914599D01*
X165548804Y-126007424D01*
X165518237Y-126028042D01*
X165487506Y-126048152D01*
X165483112Y-126051734D01*
X165332734Y-126176138D01*
X165306764Y-126202289D01*
X165280516Y-126227994D01*
X165276907Y-126232356D01*
X165276901Y-126232362D01*
X165276897Y-126232369D01*
X165153552Y-126383604D01*
X165133178Y-126414269D01*
X165112399Y-126444616D01*
X165109705Y-126449598D01*
X165109702Y-126449602D01*
X165109702Y-126449603D01*
X165018077Y-126621925D01*
X165004049Y-126655960D01*
X164989559Y-126689768D01*
X164987882Y-126695183D01*
X164972539Y-126746000D01*
X164056000Y-126746000D01*
X164056000Y-126473591D01*
X164801592Y-125728000D01*
X183617154Y-125728000D01*
X183642000Y-125730447D01*
X183666846Y-125728000D01*
X183666854Y-125728000D01*
X183741193Y-125720678D01*
X183836575Y-125691745D01*
X183924479Y-125644759D01*
X184001527Y-125581527D01*
X184017376Y-125562215D01*
X189897373Y-119682219D01*
X189900931Y-119683693D01*
X190138757Y-119731000D01*
X190381243Y-119731000D01*
X190619069Y-119683693D01*
X190843097Y-119590898D01*
X191044717Y-119456180D01*
X191216180Y-119284717D01*
X191350898Y-119083097D01*
X191443693Y-118859069D01*
X191491000Y-118621243D01*
X191491000Y-118616000D01*
X194336637Y-118616000D01*
X194403512Y-118697488D01*
X194499411Y-118776190D01*
X194608821Y-118834671D01*
X194727538Y-118870683D01*
X194851000Y-118882843D01*
X195801000Y-118882843D01*
X195924462Y-118870683D01*
X196043179Y-118834671D01*
X196152589Y-118776190D01*
X196248488Y-118697488D01*
X196327190Y-118601589D01*
X196385671Y-118492179D01*
X196421683Y-118373462D01*
X196433843Y-118250000D01*
X196433843Y-117750000D01*
X196421683Y-117626538D01*
X196385671Y-117507821D01*
X196327190Y-117398411D01*
X196248488Y-117302512D01*
X196157220Y-117227611D01*
X196175482Y-117225812D01*
X196295180Y-117189502D01*
X196405494Y-117130537D01*
X196502185Y-117051185D01*
X196581537Y-116954494D01*
X196640502Y-116844180D01*
X196676812Y-116724482D01*
X196689072Y-116600000D01*
X196686000Y-116385750D01*
X196527250Y-116227000D01*
X195453000Y-116227000D01*
X195453000Y-116247000D01*
X195199000Y-116247000D01*
X195199000Y-116227000D01*
X194124750Y-116227000D01*
X193966000Y-116385750D01*
X193962928Y-116600000D01*
X193975188Y-116724482D01*
X194011498Y-116844180D01*
X194070463Y-116954494D01*
X194149815Y-117051185D01*
X194246506Y-117130537D01*
X194356820Y-117189502D01*
X194476518Y-117225812D01*
X194494780Y-117227611D01*
X194403512Y-117302512D01*
X194324810Y-117398411D01*
X194266329Y-117507821D01*
X194237154Y-117604000D01*
X191104897Y-117604000D01*
X191044717Y-117543820D01*
X190843097Y-117409102D01*
X190736846Y-117365091D01*
X190764099Y-117356825D01*
X191026920Y-117231641D01*
X191260269Y-117057588D01*
X191455178Y-116841355D01*
X191604157Y-116591252D01*
X191701481Y-116316891D01*
X191580814Y-116087000D01*
X190387000Y-116087000D01*
X190387000Y-116107000D01*
X190133000Y-116107000D01*
X190133000Y-116087000D01*
X190113000Y-116087000D01*
X190113000Y-115833000D01*
X190133000Y-115833000D01*
X190133000Y-114639845D01*
X190387000Y-114639845D01*
X190387000Y-115833000D01*
X191580814Y-115833000D01*
X191701481Y-115603109D01*
X191700379Y-115600000D01*
X193962928Y-115600000D01*
X193966000Y-115814250D01*
X194124750Y-115973000D01*
X195199000Y-115973000D01*
X195199000Y-115123750D01*
X195453000Y-115123750D01*
X195453000Y-115973000D01*
X196527250Y-115973000D01*
X196686000Y-115814250D01*
X196689072Y-115600000D01*
X196676812Y-115475518D01*
X196640502Y-115355820D01*
X196581537Y-115245506D01*
X196502185Y-115148815D01*
X196405494Y-115069463D01*
X196295180Y-115010498D01*
X196175482Y-114974188D01*
X196051000Y-114961928D01*
X195611750Y-114965000D01*
X195453000Y-115123750D01*
X195199000Y-115123750D01*
X195040250Y-114965000D01*
X194601000Y-114961928D01*
X194476518Y-114974188D01*
X194356820Y-115010498D01*
X194246506Y-115069463D01*
X194149815Y-115148815D01*
X194070463Y-115245506D01*
X194011498Y-115355820D01*
X193975188Y-115475518D01*
X193962928Y-115600000D01*
X191700379Y-115600000D01*
X191604157Y-115328748D01*
X191455178Y-115078645D01*
X191260269Y-114862412D01*
X191026920Y-114688359D01*
X190764099Y-114563175D01*
X190616890Y-114518524D01*
X190387000Y-114639845D01*
X190133000Y-114639845D01*
X189903110Y-114518524D01*
X189755901Y-114563175D01*
X189493080Y-114688359D01*
X189259731Y-114862412D01*
X189064822Y-115078645D01*
X188915843Y-115328748D01*
X188858228Y-115491168D01*
X188810898Y-115376903D01*
X188676180Y-115175283D01*
X188504717Y-115003820D01*
X188303097Y-114869102D01*
X188079069Y-114776307D01*
X187841243Y-114729000D01*
X187598757Y-114729000D01*
X187360931Y-114776307D01*
X187136903Y-114869102D01*
X186935283Y-115003820D01*
X186763820Y-115175283D01*
X186629102Y-115376903D01*
X186536307Y-115600931D01*
X186489000Y-115838757D01*
X186489000Y-116081243D01*
X186536307Y-116319069D01*
X186629102Y-116543097D01*
X186659105Y-116588000D01*
X186240895Y-116588000D01*
X186270898Y-116543097D01*
X186363693Y-116319069D01*
X186411000Y-116081243D01*
X186411000Y-115838757D01*
X186363693Y-115600931D01*
X186270898Y-115376903D01*
X186136180Y-115175283D01*
X185964717Y-115003820D01*
X185763097Y-114869102D01*
X185539069Y-114776307D01*
X185301243Y-114729000D01*
X185058757Y-114729000D01*
X184820931Y-114776307D01*
X184596903Y-114869102D01*
X184395283Y-115003820D01*
X184223820Y-115175283D01*
X184089102Y-115376903D01*
X183996307Y-115600931D01*
X183949000Y-115838757D01*
X183949000Y-116081243D01*
X183996307Y-116319069D01*
X184089102Y-116543097D01*
X184119105Y-116588000D01*
X183700895Y-116588000D01*
X183730898Y-116543097D01*
X183823693Y-116319069D01*
X183871000Y-116081243D01*
X183871000Y-115838757D01*
X183823693Y-115600931D01*
X183730898Y-115376903D01*
X183596180Y-115175283D01*
X183424717Y-115003820D01*
X183223097Y-114869102D01*
X182999069Y-114776307D01*
X182761243Y-114729000D01*
X182518757Y-114729000D01*
X182280931Y-114776307D01*
X182056903Y-114869102D01*
X181855283Y-115003820D01*
X181683820Y-115175283D01*
X181549102Y-115376903D01*
X181456307Y-115600931D01*
X181409000Y-115838757D01*
X181409000Y-116081243D01*
X181456307Y-116319069D01*
X181549102Y-116543097D01*
X181579105Y-116588000D01*
X181160895Y-116588000D01*
X181190898Y-116543097D01*
X181283693Y-116319069D01*
X181331000Y-116081243D01*
X181331000Y-115838757D01*
X181283693Y-115600931D01*
X181190898Y-115376903D01*
X181056180Y-115175283D01*
X180884717Y-115003820D01*
X180683097Y-114869102D01*
X180459069Y-114776307D01*
X180221243Y-114729000D01*
X179978757Y-114729000D01*
X179740931Y-114776307D01*
X179516903Y-114869102D01*
X179315283Y-115003820D01*
X179143820Y-115175283D01*
X179009102Y-115376903D01*
X178916307Y-115600931D01*
X178869000Y-115838757D01*
X178869000Y-116081243D01*
X178916307Y-116319069D01*
X179009102Y-116543097D01*
X179039105Y-116588000D01*
X178620895Y-116588000D01*
X178650898Y-116543097D01*
X178743693Y-116319069D01*
X178791000Y-116081243D01*
X178791000Y-115838757D01*
X178743693Y-115600931D01*
X178650898Y-115376903D01*
X178516180Y-115175283D01*
X178344717Y-115003820D01*
X178143097Y-114869102D01*
X177919069Y-114776307D01*
X177681243Y-114729000D01*
X177438757Y-114729000D01*
X177200931Y-114776307D01*
X176976903Y-114869102D01*
X176775283Y-115003820D01*
X176603820Y-115175283D01*
X176469102Y-115376903D01*
X176376307Y-115600931D01*
X176329000Y-115838757D01*
X176329000Y-116081243D01*
X176376307Y-116319069D01*
X176469102Y-116543097D01*
X176499105Y-116588000D01*
X176080895Y-116588000D01*
X176110898Y-116543097D01*
X176203693Y-116319069D01*
X176251000Y-116081243D01*
X176251000Y-115838757D01*
X176203693Y-115600931D01*
X176110898Y-115376903D01*
X175976180Y-115175283D01*
X175804717Y-115003820D01*
X175603097Y-114869102D01*
X175379069Y-114776307D01*
X175141243Y-114729000D01*
X174898757Y-114729000D01*
X174660931Y-114776307D01*
X174436903Y-114869102D01*
X174235283Y-115003820D01*
X174063820Y-115175283D01*
X173929102Y-115376903D01*
X173836307Y-115600931D01*
X173789000Y-115838757D01*
X173789000Y-116081243D01*
X173836307Y-116319069D01*
X173929102Y-116543097D01*
X173959105Y-116588000D01*
X173540895Y-116588000D01*
X173570898Y-116543097D01*
X173663693Y-116319069D01*
X173711000Y-116081243D01*
X173711000Y-115838757D01*
X173663693Y-115600931D01*
X173570898Y-115376903D01*
X173436180Y-115175283D01*
X173264717Y-115003820D01*
X173063097Y-114869102D01*
X172839069Y-114776307D01*
X172601243Y-114729000D01*
X172358757Y-114729000D01*
X172120931Y-114776307D01*
X171896903Y-114869102D01*
X171695283Y-115003820D01*
X171523820Y-115175283D01*
X171389102Y-115376903D01*
X171296307Y-115600931D01*
X171249000Y-115838757D01*
X171249000Y-116081243D01*
X171296307Y-116319069D01*
X171389102Y-116543097D01*
X171419105Y-116588000D01*
X171000895Y-116588000D01*
X171030898Y-116543097D01*
X171123693Y-116319069D01*
X171171000Y-116081243D01*
X171171000Y-115838757D01*
X171123693Y-115600931D01*
X171030898Y-115376903D01*
X170896180Y-115175283D01*
X170724717Y-115003820D01*
X170523097Y-114869102D01*
X170299069Y-114776307D01*
X170061243Y-114729000D01*
X169818757Y-114729000D01*
X169580931Y-114776307D01*
X169356903Y-114869102D01*
X169155283Y-115003820D01*
X168983820Y-115175283D01*
X168849102Y-115376903D01*
X168756307Y-115600931D01*
X168709000Y-115838757D01*
X168709000Y-116081243D01*
X168756307Y-116319069D01*
X168849102Y-116543097D01*
X168879105Y-116588000D01*
X168460895Y-116588000D01*
X168490898Y-116543097D01*
X168583693Y-116319069D01*
X168631000Y-116081243D01*
X168631000Y-115838757D01*
X168583693Y-115600931D01*
X168490898Y-115376903D01*
X168356180Y-115175283D01*
X168184717Y-115003820D01*
X167983097Y-114869102D01*
X167759069Y-114776307D01*
X167521243Y-114729000D01*
X167278757Y-114729000D01*
X167040931Y-114776307D01*
X166816903Y-114869102D01*
X166615283Y-115003820D01*
X166443820Y-115175283D01*
X166309102Y-115376903D01*
X166216307Y-115600931D01*
X166169000Y-115838757D01*
X166169000Y-116081243D01*
X166216307Y-116319069D01*
X166309102Y-116543097D01*
X166339105Y-116588000D01*
X165920895Y-116588000D01*
X165950898Y-116543097D01*
X166043693Y-116319069D01*
X166091000Y-116081243D01*
X166091000Y-115838757D01*
X166043693Y-115600931D01*
X165950898Y-115376903D01*
X165816180Y-115175283D01*
X165644717Y-115003820D01*
X165443097Y-114869102D01*
X165219069Y-114776307D01*
X164981243Y-114729000D01*
X164738757Y-114729000D01*
X164500931Y-114776307D01*
X164276903Y-114869102D01*
X164075283Y-115003820D01*
X163903820Y-115175283D01*
X163769102Y-115376903D01*
X163676307Y-115600931D01*
X163629000Y-115838757D01*
X163629000Y-116081243D01*
X163676307Y-116319069D01*
X163769102Y-116543097D01*
X163799105Y-116588000D01*
X163380895Y-116588000D01*
X163410898Y-116543097D01*
X163503693Y-116319069D01*
X163551000Y-116081243D01*
X163551000Y-115838757D01*
X163503693Y-115600931D01*
X163410898Y-115376903D01*
X163276180Y-115175283D01*
X163104717Y-115003820D01*
X162903097Y-114869102D01*
X162826000Y-114837168D01*
X162826000Y-113614501D01*
X162912642Y-113527859D01*
X162998113Y-113399942D01*
X163056987Y-113257809D01*
X163087000Y-113106922D01*
X163087000Y-112953078D01*
X163056987Y-112802191D01*
X162998113Y-112660058D01*
X162912642Y-112532141D01*
X162803859Y-112423358D01*
X162675942Y-112337887D01*
X162533809Y-112279013D01*
X162382922Y-112249000D01*
X162229078Y-112249000D01*
X162078191Y-112279013D01*
X161936058Y-112337887D01*
X161808141Y-112423358D01*
X161699358Y-112532141D01*
X161613887Y-112660058D01*
X161555013Y-112802191D01*
X161525000Y-112953078D01*
X161525000Y-113106922D01*
X161555013Y-113257809D01*
X161613887Y-113399942D01*
X161699358Y-113527859D01*
X161808141Y-113636642D01*
X161814001Y-113640557D01*
X161814000Y-114837167D01*
X161736903Y-114869102D01*
X161535283Y-115003820D01*
X161363820Y-115175283D01*
X161229102Y-115376903D01*
X161136307Y-115600931D01*
X161089000Y-115838757D01*
X161089000Y-116081243D01*
X161136307Y-116319069D01*
X161229102Y-116543097D01*
X161259105Y-116588000D01*
X160840895Y-116588000D01*
X160870898Y-116543097D01*
X160963693Y-116319069D01*
X161011000Y-116081243D01*
X161011000Y-115838757D01*
X160963693Y-115600931D01*
X160870898Y-115376903D01*
X160736180Y-115175283D01*
X160564717Y-115003820D01*
X160363097Y-114869102D01*
X160272000Y-114831369D01*
X160272000Y-112866501D01*
X160372642Y-112765859D01*
X160458113Y-112637942D01*
X160516987Y-112495809D01*
X160547000Y-112344922D01*
X160547000Y-112191078D01*
X160516987Y-112040191D01*
X160458113Y-111898058D01*
X160372642Y-111770141D01*
X160263859Y-111661358D01*
X160135942Y-111575887D01*
X159993809Y-111517013D01*
X159842922Y-111487000D01*
X159689078Y-111487000D01*
X159538191Y-111517013D01*
X159396058Y-111575887D01*
X159268141Y-111661358D01*
X159159358Y-111770141D01*
X159073887Y-111898058D01*
X159015013Y-112040191D01*
X158985000Y-112191078D01*
X158985000Y-112344922D01*
X159015013Y-112495809D01*
X159073887Y-112637942D01*
X159159358Y-112765859D01*
X159260000Y-112866501D01*
X159260001Y-114842966D01*
X159196903Y-114869102D01*
X158995283Y-115003820D01*
X158823820Y-115175283D01*
X158689102Y-115376903D01*
X158596307Y-115600931D01*
X158549000Y-115838757D01*
X158549000Y-116081243D01*
X158596307Y-116319069D01*
X158689102Y-116543097D01*
X158719105Y-116588000D01*
X158300895Y-116588000D01*
X158330898Y-116543097D01*
X158423693Y-116319069D01*
X158471000Y-116081243D01*
X158471000Y-115838757D01*
X158423693Y-115600931D01*
X158330898Y-115376903D01*
X158196180Y-115175283D01*
X158024717Y-115003820D01*
X157823097Y-114869102D01*
X157746000Y-114837168D01*
X157746000Y-112090501D01*
X157832642Y-112003859D01*
X157918113Y-111875942D01*
X157976987Y-111733809D01*
X158007000Y-111582922D01*
X158007000Y-111429078D01*
X157976987Y-111278191D01*
X157918113Y-111136058D01*
X157832642Y-111008141D01*
X157723859Y-110899358D01*
X157595942Y-110813887D01*
X157453809Y-110755013D01*
X157302922Y-110725000D01*
X157149078Y-110725000D01*
X156998191Y-110755013D01*
X156856058Y-110813887D01*
X156728141Y-110899358D01*
X156619358Y-111008141D01*
X156533887Y-111136058D01*
X156475013Y-111278191D01*
X156445000Y-111429078D01*
X156445000Y-111582922D01*
X156475013Y-111733809D01*
X156533887Y-111875942D01*
X156619358Y-112003859D01*
X156728141Y-112112642D01*
X156734001Y-112116557D01*
X156734000Y-114837167D01*
X156656903Y-114869102D01*
X156455283Y-115003820D01*
X156283820Y-115175283D01*
X156149102Y-115376903D01*
X156056307Y-115600931D01*
X156009000Y-115838757D01*
X156009000Y-116081243D01*
X156056307Y-116319069D01*
X156149102Y-116543097D01*
X156179105Y-116588000D01*
X155760895Y-116588000D01*
X155790898Y-116543097D01*
X155883693Y-116319069D01*
X155931000Y-116081243D01*
X155931000Y-115838757D01*
X155883693Y-115600931D01*
X155790898Y-115376903D01*
X155656180Y-115175283D01*
X155484717Y-115003820D01*
X155283097Y-114869102D01*
X155206000Y-114837168D01*
X155206000Y-111328501D01*
X155292642Y-111241859D01*
X155378113Y-111113942D01*
X155436987Y-110971809D01*
X155467000Y-110820922D01*
X155467000Y-110667078D01*
X155436987Y-110516191D01*
X155378113Y-110374058D01*
X155292642Y-110246141D01*
X155183859Y-110137358D01*
X155055942Y-110051887D01*
X154913809Y-109993013D01*
X154762922Y-109963000D01*
X154609078Y-109963000D01*
X154458191Y-109993013D01*
X154316058Y-110051887D01*
X154188141Y-110137358D01*
X154079358Y-110246141D01*
X153993887Y-110374058D01*
X153935013Y-110516191D01*
X153905000Y-110667078D01*
X153905000Y-110820922D01*
X153935013Y-110971809D01*
X153993887Y-111113942D01*
X154079358Y-111241859D01*
X154188141Y-111350642D01*
X154194001Y-111354557D01*
X154194000Y-114837167D01*
X154116903Y-114869102D01*
X153915283Y-115003820D01*
X153743820Y-115175283D01*
X153609102Y-115376903D01*
X153516307Y-115600931D01*
X153469000Y-115838757D01*
X153469000Y-116081243D01*
X153516307Y-116319069D01*
X153609102Y-116543097D01*
X153639105Y-116588000D01*
X153220895Y-116588000D01*
X153250898Y-116543097D01*
X153343693Y-116319069D01*
X153391000Y-116081243D01*
X153391000Y-115838757D01*
X153343693Y-115600931D01*
X153250898Y-115376903D01*
X153116180Y-115175283D01*
X152944717Y-115003820D01*
X152743097Y-114869102D01*
X152666000Y-114837168D01*
X152666000Y-110566501D01*
X152752642Y-110479859D01*
X152838113Y-110351942D01*
X152896987Y-110209809D01*
X152927000Y-110058922D01*
X152927000Y-109905078D01*
X152896987Y-109754191D01*
X152838113Y-109612058D01*
X152752642Y-109484141D01*
X152643859Y-109375358D01*
X152515942Y-109289887D01*
X152373809Y-109231013D01*
X152222922Y-109201000D01*
X152069078Y-109201000D01*
X151918191Y-109231013D01*
X151776058Y-109289887D01*
X151648141Y-109375358D01*
X151539358Y-109484141D01*
X151453887Y-109612058D01*
X151395013Y-109754191D01*
X151365000Y-109905078D01*
X151365000Y-110058922D01*
X151395013Y-110209809D01*
X151453887Y-110351942D01*
X151539358Y-110479859D01*
X151648141Y-110588642D01*
X151654001Y-110592557D01*
X151654000Y-114837167D01*
X151576903Y-114869102D01*
X151375283Y-115003820D01*
X151203820Y-115175283D01*
X151069102Y-115376903D01*
X150976307Y-115600931D01*
X150929000Y-115838757D01*
X150929000Y-116081243D01*
X150976307Y-116319069D01*
X151069102Y-116543097D01*
X151099105Y-116588000D01*
X150680895Y-116588000D01*
X150710898Y-116543097D01*
X150803693Y-116319069D01*
X150851000Y-116081243D01*
X150851000Y-115838757D01*
X150803693Y-115600931D01*
X150710898Y-115376903D01*
X150576180Y-115175283D01*
X150404717Y-115003820D01*
X150203097Y-114869102D01*
X150126000Y-114837168D01*
X150126000Y-109804501D01*
X150212642Y-109717859D01*
X150298113Y-109589942D01*
X150356987Y-109447809D01*
X150387000Y-109296922D01*
X150387000Y-109143078D01*
X150356987Y-108992191D01*
X150298113Y-108850058D01*
X150212642Y-108722141D01*
X150103859Y-108613358D01*
X149975942Y-108527887D01*
X149833809Y-108469013D01*
X149682922Y-108439000D01*
X149529078Y-108439000D01*
X149378191Y-108469013D01*
X149236058Y-108527887D01*
X149108141Y-108613358D01*
X148999358Y-108722141D01*
X148913887Y-108850058D01*
X148855013Y-108992191D01*
X148825000Y-109143078D01*
X148825000Y-109296922D01*
X148855013Y-109447809D01*
X148913887Y-109589942D01*
X148999358Y-109717859D01*
X149108141Y-109826642D01*
X149114001Y-109830557D01*
X149114000Y-114837167D01*
X149036903Y-114869102D01*
X148835283Y-115003820D01*
X148663820Y-115175283D01*
X148529102Y-115376903D01*
X148436307Y-115600931D01*
X148389000Y-115838757D01*
X148389000Y-116081243D01*
X148436307Y-116319069D01*
X148529102Y-116543097D01*
X148559105Y-116588000D01*
X148140895Y-116588000D01*
X148170898Y-116543097D01*
X148263693Y-116319069D01*
X148311000Y-116081243D01*
X148311000Y-115838757D01*
X148263693Y-115600931D01*
X148170898Y-115376903D01*
X148036180Y-115175283D01*
X147864717Y-115003820D01*
X147663097Y-114869102D01*
X147439069Y-114776307D01*
X147201243Y-114729000D01*
X146958757Y-114729000D01*
X146720931Y-114776307D01*
X146496903Y-114869102D01*
X146295283Y-115003820D01*
X146123820Y-115175283D01*
X145989102Y-115376903D01*
X145896307Y-115600931D01*
X145849000Y-115838757D01*
X145849000Y-116081243D01*
X145896307Y-116319069D01*
X145989102Y-116543097D01*
X146019105Y-116588000D01*
X145600895Y-116588000D01*
X145630898Y-116543097D01*
X145723693Y-116319069D01*
X145771000Y-116081243D01*
X145771000Y-115838757D01*
X145723693Y-115600931D01*
X145630898Y-115376903D01*
X145496180Y-115175283D01*
X145324717Y-115003820D01*
X145123097Y-114869102D01*
X144899069Y-114776307D01*
X144661243Y-114729000D01*
X144418757Y-114729000D01*
X144180931Y-114776307D01*
X143956903Y-114869102D01*
X143755283Y-115003820D01*
X143583820Y-115175283D01*
X143449102Y-115376903D01*
X143356307Y-115600931D01*
X143309000Y-115838757D01*
X143309000Y-116081243D01*
X143356307Y-116319069D01*
X143449102Y-116543097D01*
X143479105Y-116588000D01*
X143343592Y-116588000D01*
X143151758Y-116396167D01*
X143183693Y-116319069D01*
X143231000Y-116081243D01*
X143231000Y-115838757D01*
X143183693Y-115600931D01*
X143090898Y-115376903D01*
X142956180Y-115175283D01*
X142784717Y-115003820D01*
X142583097Y-114869102D01*
X142359069Y-114776307D01*
X142121243Y-114729000D01*
X141878757Y-114729000D01*
X141640931Y-114776307D01*
X141416903Y-114869102D01*
X141215283Y-115003820D01*
X141043820Y-115175283D01*
X140909102Y-115376903D01*
X140877168Y-115454000D01*
X137249191Y-115454000D01*
X137224589Y-115433810D01*
X137115179Y-115375329D01*
X136996462Y-115339317D01*
X136873000Y-115327157D01*
X135923000Y-115327157D01*
X135799538Y-115339317D01*
X135680821Y-115375329D01*
X135571411Y-115433810D01*
X135475512Y-115512512D01*
X135396810Y-115608411D01*
X135338329Y-115717821D01*
X135333763Y-115732872D01*
X135309425Y-115740255D01*
X135221521Y-115787241D01*
X135144473Y-115850473D01*
X135128629Y-115869779D01*
X132504409Y-118494000D01*
X132116284Y-118494000D01*
X132065190Y-118398411D01*
X131986488Y-118302512D01*
X131895220Y-118227611D01*
X131913482Y-118225812D01*
X132033180Y-118189502D01*
X132143494Y-118130537D01*
X132240185Y-118051185D01*
X132319537Y-117954494D01*
X132378502Y-117844180D01*
X132414812Y-117724482D01*
X132427072Y-117600000D01*
X132424000Y-117385750D01*
X132265250Y-117227000D01*
X131191000Y-117227000D01*
X131191000Y-117247000D01*
X130937000Y-117247000D01*
X130937000Y-117227000D01*
X129862750Y-117227000D01*
X129704000Y-117385750D01*
X129700928Y-117600000D01*
X129713188Y-117724482D01*
X129749498Y-117844180D01*
X129808463Y-117954494D01*
X129887815Y-118051185D01*
X129984506Y-118130537D01*
X130094820Y-118189502D01*
X130214518Y-118225812D01*
X130232780Y-118227611D01*
X130141512Y-118302512D01*
X130062810Y-118398411D01*
X130004329Y-118507821D01*
X129968317Y-118626538D01*
X129956157Y-118750000D01*
X129956157Y-119250000D01*
X129968317Y-119373462D01*
X129969860Y-119378549D01*
X129354409Y-119994000D01*
X127572843Y-119994000D01*
X127572843Y-119675000D01*
X127562605Y-119571047D01*
X127532283Y-119471090D01*
X127483043Y-119378968D01*
X127416777Y-119298223D01*
X127336032Y-119231957D01*
X127243910Y-119182717D01*
X127143953Y-119152395D01*
X127040000Y-119142157D01*
X126740000Y-119142157D01*
X126636047Y-119152395D01*
X126536090Y-119182717D01*
X126443968Y-119231957D01*
X126363223Y-119298223D01*
X126296957Y-119378968D01*
X126255000Y-119457464D01*
X126213043Y-119378968D01*
X126146777Y-119298223D01*
X126066032Y-119231957D01*
X125973910Y-119182717D01*
X125873953Y-119152395D01*
X125770000Y-119142157D01*
X125470000Y-119142157D01*
X125366047Y-119152395D01*
X125266090Y-119182717D01*
X125173968Y-119231957D01*
X125093223Y-119298223D01*
X125026957Y-119378968D01*
X124985000Y-119457464D01*
X124943043Y-119378968D01*
X124876777Y-119298223D01*
X124796032Y-119231957D01*
X124703910Y-119182717D01*
X124603953Y-119152395D01*
X124500000Y-119142157D01*
X124200000Y-119142157D01*
X124096047Y-119152395D01*
X123996090Y-119182717D01*
X123903968Y-119231957D01*
X123823223Y-119298223D01*
X123756957Y-119378968D01*
X123715000Y-119457464D01*
X123673043Y-119378968D01*
X123606777Y-119298223D01*
X123526032Y-119231957D01*
X123433910Y-119182717D01*
X123333953Y-119152395D01*
X123230000Y-119142157D01*
X122930000Y-119142157D01*
X122826047Y-119152395D01*
X122726090Y-119182717D01*
X122633968Y-119231957D01*
X122553223Y-119298223D01*
X122486957Y-119378968D01*
X122445000Y-119457464D01*
X122403043Y-119378968D01*
X122336777Y-119298223D01*
X122256032Y-119231957D01*
X122163910Y-119182717D01*
X122063953Y-119152395D01*
X121960000Y-119142157D01*
X121660000Y-119142157D01*
X121556047Y-119152395D01*
X121456090Y-119182717D01*
X121363968Y-119231957D01*
X121283223Y-119298223D01*
X121216957Y-119378968D01*
X121175000Y-119457464D01*
X121133043Y-119378968D01*
X121066777Y-119298223D01*
X121046000Y-119281172D01*
X121046000Y-119040854D01*
X121048448Y-119016000D01*
X121038678Y-118916807D01*
X121009745Y-118821425D01*
X120997531Y-118798574D01*
X120962759Y-118733521D01*
X120899527Y-118656473D01*
X120880220Y-118640628D01*
X119147434Y-116907843D01*
X119420000Y-116907843D01*
X119523953Y-116897605D01*
X119623910Y-116867283D01*
X119716032Y-116818043D01*
X119796777Y-116751777D01*
X119863043Y-116671032D01*
X119905000Y-116592536D01*
X119946957Y-116671032D01*
X120013223Y-116751777D01*
X120093968Y-116818043D01*
X120186090Y-116867283D01*
X120286047Y-116897605D01*
X120390000Y-116907843D01*
X120690000Y-116907843D01*
X120793953Y-116897605D01*
X120893910Y-116867283D01*
X120986032Y-116818043D01*
X121066777Y-116751777D01*
X121133043Y-116671032D01*
X121175000Y-116592536D01*
X121216957Y-116671032D01*
X121283223Y-116751777D01*
X121363968Y-116818043D01*
X121456090Y-116867283D01*
X121556047Y-116897605D01*
X121660000Y-116907843D01*
X121960000Y-116907843D01*
X122063953Y-116897605D01*
X122163910Y-116867283D01*
X122256032Y-116818043D01*
X122336777Y-116751777D01*
X122403043Y-116671032D01*
X122445000Y-116592536D01*
X122486957Y-116671032D01*
X122553223Y-116751777D01*
X122633968Y-116818043D01*
X122726090Y-116867283D01*
X122826047Y-116897605D01*
X122930000Y-116907843D01*
X123230000Y-116907843D01*
X123333953Y-116897605D01*
X123433910Y-116867283D01*
X123526032Y-116818043D01*
X123606777Y-116751777D01*
X123673043Y-116671032D01*
X123715000Y-116592536D01*
X123756957Y-116671032D01*
X123823223Y-116751777D01*
X123903968Y-116818043D01*
X123996090Y-116867283D01*
X124096047Y-116897605D01*
X124200000Y-116907843D01*
X124500000Y-116907843D01*
X124603953Y-116897605D01*
X124703910Y-116867283D01*
X124796032Y-116818043D01*
X124876777Y-116751777D01*
X124943043Y-116671032D01*
X124985000Y-116592536D01*
X125026957Y-116671032D01*
X125093223Y-116751777D01*
X125173968Y-116818043D01*
X125266090Y-116867283D01*
X125366047Y-116897605D01*
X125470000Y-116907843D01*
X125770000Y-116907843D01*
X125873953Y-116897605D01*
X125973910Y-116867283D01*
X126066032Y-116818043D01*
X126146777Y-116751777D01*
X126213043Y-116671032D01*
X126255000Y-116592536D01*
X126296957Y-116671032D01*
X126363223Y-116751777D01*
X126443968Y-116818043D01*
X126536090Y-116867283D01*
X126636047Y-116897605D01*
X126740000Y-116907843D01*
X127040000Y-116907843D01*
X127143953Y-116897605D01*
X127243910Y-116867283D01*
X127336032Y-116818043D01*
X127416777Y-116751777D01*
X127483043Y-116671032D01*
X127521010Y-116600000D01*
X129700928Y-116600000D01*
X129704000Y-116814250D01*
X129862750Y-116973000D01*
X130937000Y-116973000D01*
X130937000Y-116123750D01*
X131191000Y-116123750D01*
X131191000Y-116973000D01*
X132265250Y-116973000D01*
X132424000Y-116814250D01*
X132427072Y-116600000D01*
X132414812Y-116475518D01*
X132378502Y-116355820D01*
X132319537Y-116245506D01*
X132240185Y-116148815D01*
X132143494Y-116069463D01*
X132033180Y-116010498D01*
X131913482Y-115974188D01*
X131789000Y-115961928D01*
X131349750Y-115965000D01*
X131191000Y-116123750D01*
X130937000Y-116123750D01*
X130778250Y-115965000D01*
X130339000Y-115961928D01*
X130214518Y-115974188D01*
X130094820Y-116010498D01*
X129984506Y-116069463D01*
X129887815Y-116148815D01*
X129808463Y-116245506D01*
X129749498Y-116355820D01*
X129713188Y-116475518D01*
X129700928Y-116600000D01*
X127521010Y-116600000D01*
X127532283Y-116578910D01*
X127562605Y-116478953D01*
X127572843Y-116375000D01*
X127572843Y-114725000D01*
X127562605Y-114621047D01*
X127532283Y-114521090D01*
X127483043Y-114428968D01*
X127416777Y-114348223D01*
X127396000Y-114331172D01*
X127396000Y-113704702D01*
X127497859Y-113636642D01*
X127606642Y-113527859D01*
X127692113Y-113399942D01*
X127750987Y-113257809D01*
X127781000Y-113106922D01*
X127781000Y-112953078D01*
X127750987Y-112802191D01*
X127692113Y-112660058D01*
X127606642Y-112532141D01*
X127497859Y-112423358D01*
X127369942Y-112337887D01*
X127227809Y-112279013D01*
X127076922Y-112249000D01*
X126923078Y-112249000D01*
X126772191Y-112279013D01*
X126630058Y-112337887D01*
X126502141Y-112423358D01*
X126493724Y-112431775D01*
X126511000Y-112344922D01*
X126511000Y-112191078D01*
X126480987Y-112040191D01*
X126422113Y-111898058D01*
X126336642Y-111770141D01*
X126227859Y-111661358D01*
X126099942Y-111575887D01*
X125957809Y-111517013D01*
X125806922Y-111487000D01*
X125653078Y-111487000D01*
X125502191Y-111517013D01*
X125360058Y-111575887D01*
X125232141Y-111661358D01*
X125223724Y-111669775D01*
X125241000Y-111582922D01*
X125241000Y-111429078D01*
X125210987Y-111278191D01*
X125152113Y-111136058D01*
X125066642Y-111008141D01*
X124957859Y-110899358D01*
X124829942Y-110813887D01*
X124687809Y-110755013D01*
X124536922Y-110725000D01*
X124383078Y-110725000D01*
X124232191Y-110755013D01*
X124090058Y-110813887D01*
X123962141Y-110899358D01*
X123953724Y-110907775D01*
X123971000Y-110820922D01*
X123971000Y-110667078D01*
X123940987Y-110516191D01*
X123882113Y-110374058D01*
X123796642Y-110246141D01*
X123687859Y-110137358D01*
X123559942Y-110051887D01*
X123417809Y-109993013D01*
X123266922Y-109963000D01*
X123113078Y-109963000D01*
X122962191Y-109993013D01*
X122820058Y-110051887D01*
X122692141Y-110137358D01*
X122683722Y-110145777D01*
X122700998Y-110058922D01*
X122700998Y-109905078D01*
X122670985Y-109754191D01*
X122612111Y-109612058D01*
X122526640Y-109484141D01*
X122417857Y-109375358D01*
X122289940Y-109289887D01*
X122147807Y-109231013D01*
X121996920Y-109201000D01*
X121843076Y-109201000D01*
X121692189Y-109231013D01*
X121550056Y-109289887D01*
X121422139Y-109375358D01*
X121413725Y-109383772D01*
X121431000Y-109296922D01*
X121431000Y-109143078D01*
X121400987Y-108992191D01*
X121342113Y-108850058D01*
X121256642Y-108722141D01*
X121147859Y-108613358D01*
X121019942Y-108527887D01*
X120877809Y-108469013D01*
X120726922Y-108439000D01*
X120573078Y-108439000D01*
X120422191Y-108469013D01*
X120280058Y-108527887D01*
X120152141Y-108613358D01*
X120043358Y-108722141D01*
X119957887Y-108850058D01*
X119899013Y-108992191D01*
X119869000Y-109143078D01*
X119869000Y-109296922D01*
X119899013Y-109447809D01*
X119957887Y-109589942D01*
X120034001Y-109703855D01*
X120034000Y-114331172D01*
X120013223Y-114348223D01*
X119946957Y-114428968D01*
X119905000Y-114507464D01*
X119863043Y-114428968D01*
X119796777Y-114348223D01*
X119716032Y-114281957D01*
X119659127Y-114251541D01*
X119629527Y-114215473D01*
X119610220Y-114199628D01*
X118608376Y-113197785D01*
X118592527Y-113178473D01*
X118515479Y-113115241D01*
X118427575Y-113068255D01*
X118332193Y-113039322D01*
X118257854Y-113032000D01*
X118257846Y-113032000D01*
X118233000Y-113029553D01*
X118208154Y-113032000D01*
X106946845Y-113032000D01*
X106921999Y-113029553D01*
X106897153Y-113032000D01*
X106897146Y-113032000D01*
X106832694Y-113038348D01*
X106822806Y-113039322D01*
X106727425Y-113068255D01*
X106639521Y-113115241D01*
X106562473Y-113178473D01*
X106546628Y-113197780D01*
X104936167Y-114808242D01*
X104859069Y-114776307D01*
X104621243Y-114729000D01*
X104378757Y-114729000D01*
X104140931Y-114776307D01*
X103916903Y-114869102D01*
X103715283Y-115003820D01*
X103543820Y-115175283D01*
X103409102Y-115376903D01*
X103316307Y-115600931D01*
X103269000Y-115838757D01*
X103269000Y-116081243D01*
X103316307Y-116319069D01*
X103409102Y-116543097D01*
X103543820Y-116744717D01*
X103715283Y-116916180D01*
X103916903Y-117050898D01*
X104140931Y-117143693D01*
X104378757Y-117191000D01*
X104621243Y-117191000D01*
X104859069Y-117143693D01*
X105083097Y-117050898D01*
X105284717Y-116916180D01*
X105456180Y-116744717D01*
X105590898Y-116543097D01*
X105683693Y-116319069D01*
X105731000Y-116081243D01*
X105731000Y-115838757D01*
X105683693Y-115600931D01*
X105651758Y-115523833D01*
X107131592Y-114044000D01*
X117346372Y-114044000D01*
X117345506Y-114044463D01*
X117248815Y-114123815D01*
X117169463Y-114220506D01*
X117110498Y-114330820D01*
X117074188Y-114450518D01*
X117061928Y-114575000D01*
X117065000Y-115264250D01*
X117223750Y-115423000D01*
X117873000Y-115423000D01*
X117873000Y-115403000D01*
X118127000Y-115403000D01*
X118127000Y-115423000D01*
X118147000Y-115423000D01*
X118147000Y-115677000D01*
X118127000Y-115677000D01*
X118127000Y-115697000D01*
X117873000Y-115697000D01*
X117873000Y-115677000D01*
X117223750Y-115677000D01*
X117065000Y-115835750D01*
X117062779Y-116334000D01*
X113297508Y-116334000D01*
X113303693Y-116319069D01*
X113351000Y-116081243D01*
X113351000Y-115838757D01*
X113303693Y-115600931D01*
X113210898Y-115376903D01*
X113076180Y-115175283D01*
X112904717Y-115003820D01*
X112703097Y-114869102D01*
X112479069Y-114776307D01*
X112241243Y-114729000D01*
X111998757Y-114729000D01*
X111760931Y-114776307D01*
X111536903Y-114869102D01*
X111335283Y-115003820D01*
X111163820Y-115175283D01*
X111029102Y-115376903D01*
X110936307Y-115600931D01*
X110889000Y-115838757D01*
X110889000Y-116081243D01*
X110936307Y-116319069D01*
X111029102Y-116543097D01*
X111143964Y-116715000D01*
X111050592Y-116715000D01*
X110731758Y-116396167D01*
X110763693Y-116319069D01*
X110811000Y-116081243D01*
X110811000Y-115838757D01*
X110763693Y-115600931D01*
X110670898Y-115376903D01*
X110536180Y-115175283D01*
X110364717Y-115003820D01*
X110163097Y-114869102D01*
X109939069Y-114776307D01*
X109701243Y-114729000D01*
X109458757Y-114729000D01*
X109220931Y-114776307D01*
X108996903Y-114869102D01*
X108795283Y-115003820D01*
X108623820Y-115175283D01*
X108489102Y-115376903D01*
X108396307Y-115600931D01*
X108349000Y-115838757D01*
X108349000Y-116081243D01*
X108396307Y-116319069D01*
X108449853Y-116448342D01*
X108407921Y-116440001D01*
X108254077Y-116440001D01*
X108238659Y-116443068D01*
X108191758Y-116396167D01*
X108223693Y-116319069D01*
X108271000Y-116081243D01*
X108271000Y-115838757D01*
X108223693Y-115600931D01*
X108130898Y-115376903D01*
X107996180Y-115175283D01*
X107824717Y-115003820D01*
X107623097Y-114869102D01*
X107399069Y-114776307D01*
X107161243Y-114729000D01*
X106918757Y-114729000D01*
X106680931Y-114776307D01*
X106456903Y-114869102D01*
X106255283Y-115003820D01*
X106083820Y-115175283D01*
X105949102Y-115376903D01*
X105856307Y-115600931D01*
X105809000Y-115838757D01*
X105809000Y-116081243D01*
X105856307Y-116319069D01*
X105949102Y-116543097D01*
X106083820Y-116744717D01*
X106255283Y-116916180D01*
X106456903Y-117050898D01*
X106680931Y-117143693D01*
X106918757Y-117191000D01*
X107161243Y-117191000D01*
X107399069Y-117143693D01*
X107476167Y-117111758D01*
X107549999Y-117185591D01*
X107549999Y-117297923D01*
X107567536Y-117386088D01*
X107399069Y-117316307D01*
X107161243Y-117269000D01*
X106918757Y-117269000D01*
X106680931Y-117316307D01*
X106456903Y-117409102D01*
X106255283Y-117543820D01*
X106083820Y-117715283D01*
X105949102Y-117916903D01*
X105856307Y-118140931D01*
X105809000Y-118378757D01*
X105809000Y-118621243D01*
X105856307Y-118859069D01*
X105949102Y-119083097D01*
X106083820Y-119284717D01*
X106255283Y-119456180D01*
X106456903Y-119590898D01*
X106534001Y-119622833D01*
X106534000Y-122255154D01*
X106531553Y-122280000D01*
X106534000Y-122304846D01*
X106534000Y-122304853D01*
X106541322Y-122379192D01*
X106570255Y-122474574D01*
X106617241Y-122562479D01*
X106680473Y-122639527D01*
X106699785Y-122655376D01*
X106728409Y-122684000D01*
X105365588Y-122684000D01*
X105006000Y-122324413D01*
X105006000Y-119732843D01*
X105350000Y-119732843D01*
X105424689Y-119725487D01*
X105496508Y-119703701D01*
X105562696Y-119668322D01*
X105620711Y-119620711D01*
X105668322Y-119562696D01*
X105703701Y-119496508D01*
X105725487Y-119424689D01*
X105732843Y-119350000D01*
X105732843Y-117650000D01*
X105725487Y-117575311D01*
X105703701Y-117503492D01*
X105668322Y-117437304D01*
X105620711Y-117379289D01*
X105562696Y-117331678D01*
X105496508Y-117296299D01*
X105424689Y-117274513D01*
X105350000Y-117267157D01*
X103650000Y-117267157D01*
X103575311Y-117274513D01*
X103503492Y-117296299D01*
X103437304Y-117331678D01*
X103379289Y-117379289D01*
X103331678Y-117437304D01*
X103296299Y-117503492D01*
X103274513Y-117575311D01*
X103267157Y-117650000D01*
X103267157Y-119350000D01*
X103274513Y-119424689D01*
X103296299Y-119496508D01*
X103331678Y-119562696D01*
X103379289Y-119620711D01*
X103437304Y-119668322D01*
X103503492Y-119703701D01*
X103575311Y-119725487D01*
X103650000Y-119732843D01*
X103994001Y-119732843D01*
X103994000Y-122509158D01*
X103991553Y-122534004D01*
X103994000Y-122558850D01*
X103994000Y-122558857D01*
X104001322Y-122633196D01*
X104030255Y-122728578D01*
X104077241Y-122816483D01*
X104140473Y-122893531D01*
X104159785Y-122909380D01*
X104780624Y-123530220D01*
X104796469Y-123549527D01*
X104873517Y-123612759D01*
X104961421Y-123659745D01*
X105033456Y-123681596D01*
X105056802Y-123688678D01*
X105065880Y-123689572D01*
X105131142Y-123696000D01*
X105131149Y-123696000D01*
X105155995Y-123698447D01*
X105180841Y-123696000D01*
X116888408Y-123696000D01*
X116651409Y-123933000D01*
X116509078Y-123933000D01*
X116358191Y-123963013D01*
X116216058Y-124021887D01*
X116088141Y-124107358D01*
X115979358Y-124216141D01*
X115893887Y-124344058D01*
X115835013Y-124486191D01*
X115805000Y-124637078D01*
X115805000Y-124790922D01*
X115835013Y-124941809D01*
X115893887Y-125083942D01*
X115979358Y-125211859D01*
X116088141Y-125320642D01*
X116216058Y-125406113D01*
X116358191Y-125464987D01*
X116509078Y-125495000D01*
X116662922Y-125495000D01*
X116813809Y-125464987D01*
X116955942Y-125406113D01*
X117083859Y-125320642D01*
X117192642Y-125211859D01*
X117278113Y-125083942D01*
X117336987Y-124941809D01*
X117367000Y-124790922D01*
X117367000Y-124648591D01*
X117938592Y-124077000D01*
X119301408Y-124077000D01*
X117489785Y-125888624D01*
X117470473Y-125904473D01*
X117407241Y-125981521D01*
X117360255Y-126069426D01*
X117331322Y-126164808D01*
X117324000Y-126239147D01*
X117324000Y-126239154D01*
X117321553Y-126264000D01*
X117324000Y-126288846D01*
X117324000Y-126746000D01*
X113829371Y-126746000D01*
X113810806Y-126686027D01*
X113796545Y-126652100D01*
X113782762Y-126617987D01*
X113780101Y-126612981D01*
X113687276Y-126441304D01*
X113666658Y-126410737D01*
X113646548Y-126380006D01*
X113642966Y-126375612D01*
X113518562Y-126225234D01*
X113492411Y-126199264D01*
X113466706Y-126173016D01*
X113462344Y-126169407D01*
X113462338Y-126169401D01*
X113462331Y-126169397D01*
X113311096Y-126046052D01*
X113280431Y-126025678D01*
X113250084Y-126004899D01*
X113245102Y-126002205D01*
X113245098Y-126002202D01*
X113245094Y-126002200D01*
X113072775Y-125910577D01*
X113038740Y-125896549D01*
X113004932Y-125882059D01*
X112999517Y-125880382D01*
X112812681Y-125823973D01*
X112776511Y-125816811D01*
X112740591Y-125809176D01*
X112734964Y-125808584D01*
X112734953Y-125808582D01*
X112734943Y-125808582D01*
X112540719Y-125789538D01*
X112540718Y-125789538D01*
X112521041Y-125787600D01*
X103519185Y-125787600D01*
X102687854Y-125713406D01*
X101900326Y-125497962D01*
X101163384Y-125146459D01*
X100500340Y-124670013D01*
X99932144Y-124083681D01*
X99476762Y-123406000D01*
X99148581Y-122658384D01*
X98957230Y-121861349D01*
X98907100Y-121178708D01*
X98907100Y-81211685D01*
X98981294Y-80380354D01*
X99196738Y-79592827D01*
X99548241Y-78855884D01*
X100024687Y-78192840D01*
X100611019Y-77624644D01*
X101288700Y-77169262D01*
X102036316Y-76841081D01*
X102833351Y-76649730D01*
X103515992Y-76599600D01*
X193483015Y-76599600D01*
X194314346Y-76673794D01*
G37*
G04 #@! TD.AperFunction*
D15*
X140909102Y-116543097D02*
X141043820Y-116744717D01*
X141215283Y-116916180D01*
X141360294Y-117013073D01*
X141150000Y-117011928D01*
X141025518Y-117024188D01*
X140905820Y-117060498D01*
X140795506Y-117119463D01*
X140698815Y-117198815D01*
X140619463Y-117295506D01*
X140560498Y-117405820D01*
X140524188Y-117525518D01*
X140511928Y-117650000D01*
X140515000Y-118214250D01*
X140673750Y-118373000D01*
X141873000Y-118373000D01*
X141873000Y-118353000D01*
X142127000Y-118353000D01*
X142127000Y-118373000D01*
X142147000Y-118373000D01*
X142147000Y-118627000D01*
X142127000Y-118627000D01*
X142127000Y-119826250D01*
X142285750Y-119985000D01*
X142339118Y-119985291D01*
X142307409Y-120017000D01*
X139650462Y-120017000D01*
X139625608Y-120014552D01*
X139600754Y-120017000D01*
X139526415Y-120024322D01*
X139431033Y-120053255D01*
X139343129Y-120100241D01*
X139266081Y-120163473D01*
X139250237Y-120182779D01*
X138011037Y-121421980D01*
X127563291Y-121421983D01*
X127572843Y-121325000D01*
X127572843Y-121006000D01*
X129539154Y-121006000D01*
X129564000Y-121008447D01*
X129588846Y-121006000D01*
X129588854Y-121006000D01*
X129663193Y-120998678D01*
X129758575Y-120969745D01*
X129846479Y-120922759D01*
X129923527Y-120859527D01*
X129939376Y-120840215D01*
X130896749Y-119882843D01*
X131539000Y-119882843D01*
X131662462Y-119870683D01*
X131781179Y-119834671D01*
X131890589Y-119776190D01*
X131986488Y-119697488D01*
X132065190Y-119601589D01*
X132116284Y-119506000D01*
X132689154Y-119506000D01*
X132714000Y-119508447D01*
X132738846Y-119506000D01*
X132738854Y-119506000D01*
X132813193Y-119498678D01*
X132908575Y-119469745D01*
X132996479Y-119422759D01*
X133073527Y-119359527D01*
X133081345Y-119350000D01*
X140511928Y-119350000D01*
X140524188Y-119474482D01*
X140560498Y-119594180D01*
X140619463Y-119704494D01*
X140698815Y-119801185D01*
X140795506Y-119880537D01*
X140905820Y-119939502D01*
X141025518Y-119975812D01*
X141150000Y-119988072D01*
X141714250Y-119985000D01*
X141873000Y-119826250D01*
X141873000Y-118627000D01*
X140673750Y-118627000D01*
X140515000Y-118785750D01*
X140511928Y-119350000D01*
X133081345Y-119350000D01*
X133089376Y-119340215D01*
X133819591Y-118610000D01*
X135034928Y-118610000D01*
X135047188Y-118734482D01*
X135083498Y-118854180D01*
X135142463Y-118964494D01*
X135221815Y-119061185D01*
X135318506Y-119140537D01*
X135428820Y-119199502D01*
X135548518Y-119235812D01*
X135673000Y-119248072D01*
X136112250Y-119245000D01*
X136271000Y-119086250D01*
X136271000Y-118237000D01*
X136525000Y-118237000D01*
X136525000Y-119086250D01*
X136683750Y-119245000D01*
X137123000Y-119248072D01*
X137247482Y-119235812D01*
X137367180Y-119199502D01*
X137477494Y-119140537D01*
X137574185Y-119061185D01*
X137653537Y-118964494D01*
X137712502Y-118854180D01*
X137748812Y-118734482D01*
X137761072Y-118610000D01*
X137758000Y-118395750D01*
X137599250Y-118237000D01*
X136525000Y-118237000D01*
X136271000Y-118237000D01*
X135196750Y-118237000D01*
X135038000Y-118395750D01*
X135034928Y-118610000D01*
X133819591Y-118610000D01*
X135106150Y-117323442D01*
X135083498Y-117365820D01*
X135047188Y-117485518D01*
X135034928Y-117610000D01*
X135038000Y-117824250D01*
X135196750Y-117983000D01*
X136271000Y-117983000D01*
X136271000Y-117963000D01*
X136525000Y-117963000D01*
X136525000Y-117983000D01*
X137599250Y-117983000D01*
X137758000Y-117824250D01*
X137761072Y-117610000D01*
X137748812Y-117485518D01*
X137712502Y-117365820D01*
X137653537Y-117255506D01*
X137574185Y-117158815D01*
X137477494Y-117079463D01*
X137367180Y-117020498D01*
X137247482Y-116984188D01*
X137229220Y-116982389D01*
X137320488Y-116907488D01*
X137399190Y-116811589D01*
X137457671Y-116702179D01*
X137493683Y-116583462D01*
X137505252Y-116466000D01*
X140877168Y-116466000D01*
X140909102Y-116543097D01*
G04 #@! TA.AperFunction,Conductor*
D16*
G36*
X140909102Y-116543097D02*
G01*
X141043820Y-116744717D01*
X141215283Y-116916180D01*
X141360294Y-117013073D01*
X141150000Y-117011928D01*
X141025518Y-117024188D01*
X140905820Y-117060498D01*
X140795506Y-117119463D01*
X140698815Y-117198815D01*
X140619463Y-117295506D01*
X140560498Y-117405820D01*
X140524188Y-117525518D01*
X140511928Y-117650000D01*
X140515000Y-118214250D01*
X140673750Y-118373000D01*
X141873000Y-118373000D01*
X141873000Y-118353000D01*
X142127000Y-118353000D01*
X142127000Y-118373000D01*
X142147000Y-118373000D01*
X142147000Y-118627000D01*
X142127000Y-118627000D01*
X142127000Y-119826250D01*
X142285750Y-119985000D01*
X142339118Y-119985291D01*
X142307409Y-120017000D01*
X139650462Y-120017000D01*
X139625608Y-120014552D01*
X139600754Y-120017000D01*
X139526415Y-120024322D01*
X139431033Y-120053255D01*
X139343129Y-120100241D01*
X139266081Y-120163473D01*
X139250237Y-120182779D01*
X138011037Y-121421980D01*
X127563291Y-121421983D01*
X127572843Y-121325000D01*
X127572843Y-121006000D01*
X129539154Y-121006000D01*
X129564000Y-121008447D01*
X129588846Y-121006000D01*
X129588854Y-121006000D01*
X129663193Y-120998678D01*
X129758575Y-120969745D01*
X129846479Y-120922759D01*
X129923527Y-120859527D01*
X129939376Y-120840215D01*
X130896749Y-119882843D01*
X131539000Y-119882843D01*
X131662462Y-119870683D01*
X131781179Y-119834671D01*
X131890589Y-119776190D01*
X131986488Y-119697488D01*
X132065190Y-119601589D01*
X132116284Y-119506000D01*
X132689154Y-119506000D01*
X132714000Y-119508447D01*
X132738846Y-119506000D01*
X132738854Y-119506000D01*
X132813193Y-119498678D01*
X132908575Y-119469745D01*
X132996479Y-119422759D01*
X133073527Y-119359527D01*
X133081345Y-119350000D01*
X140511928Y-119350000D01*
X140524188Y-119474482D01*
X140560498Y-119594180D01*
X140619463Y-119704494D01*
X140698815Y-119801185D01*
X140795506Y-119880537D01*
X140905820Y-119939502D01*
X141025518Y-119975812D01*
X141150000Y-119988072D01*
X141714250Y-119985000D01*
X141873000Y-119826250D01*
X141873000Y-118627000D01*
X140673750Y-118627000D01*
X140515000Y-118785750D01*
X140511928Y-119350000D01*
X133081345Y-119350000D01*
X133089376Y-119340215D01*
X133819591Y-118610000D01*
X135034928Y-118610000D01*
X135047188Y-118734482D01*
X135083498Y-118854180D01*
X135142463Y-118964494D01*
X135221815Y-119061185D01*
X135318506Y-119140537D01*
X135428820Y-119199502D01*
X135548518Y-119235812D01*
X135673000Y-119248072D01*
X136112250Y-119245000D01*
X136271000Y-119086250D01*
X136271000Y-118237000D01*
X136525000Y-118237000D01*
X136525000Y-119086250D01*
X136683750Y-119245000D01*
X137123000Y-119248072D01*
X137247482Y-119235812D01*
X137367180Y-119199502D01*
X137477494Y-119140537D01*
X137574185Y-119061185D01*
X137653537Y-118964494D01*
X137712502Y-118854180D01*
X137748812Y-118734482D01*
X137761072Y-118610000D01*
X137758000Y-118395750D01*
X137599250Y-118237000D01*
X136525000Y-118237000D01*
X136271000Y-118237000D01*
X135196750Y-118237000D01*
X135038000Y-118395750D01*
X135034928Y-118610000D01*
X133819591Y-118610000D01*
X135106150Y-117323442D01*
X135083498Y-117365820D01*
X135047188Y-117485518D01*
X135034928Y-117610000D01*
X135038000Y-117824250D01*
X135196750Y-117983000D01*
X136271000Y-117983000D01*
X136271000Y-117963000D01*
X136525000Y-117963000D01*
X136525000Y-117983000D01*
X137599250Y-117983000D01*
X137758000Y-117824250D01*
X137761072Y-117610000D01*
X137748812Y-117485518D01*
X137712502Y-117365820D01*
X137653537Y-117255506D01*
X137574185Y-117158815D01*
X137477494Y-117079463D01*
X137367180Y-117020498D01*
X137247482Y-116984188D01*
X137229220Y-116982389D01*
X137320488Y-116907488D01*
X137399190Y-116811589D01*
X137457671Y-116702179D01*
X137493683Y-116583462D01*
X137505252Y-116466000D01*
X140877168Y-116466000D01*
X140909102Y-116543097D01*
G37*
G04 #@! TD.AperFunction*
M02*
