M48
; DRILL file {KiCad (5.1.9-0-10_14)} date Wednesday, May 05, 2021 at 03:59:15 PM
; FORMAT={-:-/ absolute / inch / decimal}
; #@! TF.CreationDate,2021-05-05T15:59:15-05:00
; #@! TF.GenerationSoftware,Kicad,Pcbnew,(5.1.9-0-10_14)
; #@! TF.FileFunction,Plated,1,2,PTH
FMAT,2
INCH
T1C0.0157
T2C0.0315
T3C0.0394
%
G90
G05
T1
X4.54Y-3.345
X4.54Y-4.895
X4.635Y-4.355
X4.735Y-3.555
X4.8Y-4.165
X4.81Y-4.46
X4.81Y-4.935
X4.85Y-3.525
X4.9Y-4.935
X4.9Y-4.135
X4.9Y-4.395
X4.9Y-4.5
X4.955Y-3.495
X4.995Y-4.935
X5.0Y-4.105
X5.04Y-4.5
X5.04Y-4.55
X5.095Y-4.5
X5.1Y-4.075
X5.135Y-4.395
X5.15Y-3.58
X5.185Y-4.935
X5.2Y-4.045
X5.2Y-4.46
X5.25Y-4.165
X5.285Y-4.935
X5.3Y-4.015
X5.3Y-4.46
X5.335Y-4.39
X5.35Y-4.135
X5.385Y-4.935
X5.4Y-3.985
X5.415Y-4.625
X5.4154Y-4.7564
X5.45Y-4.105
X5.49Y-4.935
X5.5Y-3.955
X5.5Y-4.425
X5.504Y-4.7919
X5.55Y-4.075
X5.585Y-4.72
X5.59Y-4.935
X5.6Y-3.925
X5.605Y-4.46
X5.65Y-4.045
X5.69Y-4.935
X5.7Y-3.895
X5.7Y-4.46
X5.7Y-4.63
X5.75Y-4.015
X5.785Y-4.935
X5.8Y-3.86
X5.8Y-4.3293
X5.8Y-4.425
X5.85Y-3.985
X5.885Y-4.935
X5.9Y-3.82
X5.9Y-4.425
X5.9Y-4.72
X5.95Y-3.9507
X5.985Y-4.935
X5.995Y-4.46
X6.0Y-3.347
X6.0Y-3.725
X6.0Y-4.155
X6.045Y-3.925
X6.0707Y-4.3293
X6.085Y-4.935
X6.1Y-4.5
X6.1024Y-3.7604
X6.15Y-3.895
X6.185Y-4.935
X6.2Y-4.425
X6.2Y-3.525
X6.25Y-3.86
X6.29Y-4.935
X6.3Y-3.5788
X6.3Y-4.55
X6.335Y-4.89
X6.345Y-3.82
X6.345Y-3.985
X6.39Y-4.63
X6.39Y-4.935
X6.3996Y-4.1167
X6.4Y-4.39
X6.4019Y-3.5531
X6.45Y-3.725
X6.55Y-4.155
X6.55Y-4.4
X6.6Y-3.495
X6.7Y-4.36
X6.7008Y-4.0281
X6.77Y-4.4
X6.77Y-4.89
X6.813Y-3.7328
X6.813Y-3.91
X6.815Y-3.985
X6.815Y-4.63
X6.8918Y-4.0281
X7.1871Y-4.7564
X7.2894Y-4.7939
X7.5414Y-3.7623
T2
X4.8Y-3.65
X4.8Y-4.25
X4.9Y-3.65
X4.9Y-4.25
X5.0Y-3.65
X5.0Y-4.25
X5.1Y-3.65
X5.1Y-4.25
X5.2Y-3.65
X5.2Y-4.25
X5.3Y-3.65
X5.3Y-4.25
X5.4Y-3.65
X5.4Y-4.25
X5.5Y-3.65
X5.5Y-4.25
X5.6Y-3.65
X5.6Y-4.25
X5.7Y-3.65
X5.7Y-4.25
X5.8Y-3.65
X5.8Y-4.25
X5.9Y-3.65
X5.9Y-4.25
X6.0Y-3.65
X6.0Y-4.25
X6.1Y-3.65
X6.1Y-4.25
X6.2Y-3.65
X6.2Y-4.25
X6.3Y-3.65
X6.3Y-4.25
X6.4Y-3.65
X6.4Y-4.25
X6.5Y-3.65
X6.5Y-4.25
X6.6Y-3.65
X6.6Y-4.25
X6.7Y-3.65
X6.7Y-4.25
X7.0937Y-3.31
X7.0937Y-3.91
X7.3937Y-3.31
X7.3937Y-3.91
T3
X7.1855Y-4.1364
X7.1894Y-4.5201
X7.1894Y-4.6201
X7.2855Y-4.1364
X7.2894Y-4.5201
X7.2894Y-4.6201
T0
M30
