G04 #@! TF.GenerationSoftware,KiCad,Pcbnew,(5.1.9-0-10_14)*
G04 #@! TF.CreationDate,2021-04-09T13:13:05-05:00*
G04 #@! TF.ProjectId,Prototype Card,50726f74-6f74-4797-9065-20436172642e,rev?*
G04 #@! TF.SameCoordinates,Original*
G04 #@! TF.FileFunction,Soldermask,Bot*
G04 #@! TF.FilePolarity,Negative*
%FSLAX46Y46*%
G04 Gerber Fmt 4.6, Leading zero omitted, Abs format (unit mm)*
G04 Created by KiCad (PCBNEW (5.1.9-0-10_14)) date 2021-04-09 13:13:05*
%MOMM*%
%LPD*%
G01*
G04 APERTURE LIST*
%ADD10R,1.700000X1.700000*%
%ADD11O,1.700000X1.700000*%
G04 APERTURE END LIST*
G36*
G01*
X115925000Y-132591600D02*
X114655000Y-132591600D01*
G75*
G02*
X114553400Y-132490000I0J101600D01*
G01*
X114553400Y-127410000D01*
G75*
G02*
X114655000Y-127308400I101600J0D01*
G01*
X115925000Y-127308400D01*
G75*
G02*
X116026600Y-127410000I0J-101600D01*
G01*
X116026600Y-132490000D01*
G75*
G02*
X115925000Y-132591600I-101600J0D01*
G01*
G37*
G36*
G01*
X118465000Y-132591600D02*
X117195000Y-132591600D01*
G75*
G02*
X117093400Y-132490000I0J101600D01*
G01*
X117093400Y-127410000D01*
G75*
G02*
X117195000Y-127308400I101600J0D01*
G01*
X118465000Y-127308400D01*
G75*
G02*
X118566600Y-127410000I0J-101600D01*
G01*
X118566600Y-132490000D01*
G75*
G02*
X118465000Y-132591600I-101600J0D01*
G01*
G37*
G36*
G01*
X121005000Y-132591600D02*
X119735000Y-132591600D01*
G75*
G02*
X119633400Y-132490000I0J101600D01*
G01*
X119633400Y-127410000D01*
G75*
G02*
X119735000Y-127308400I101600J0D01*
G01*
X121005000Y-127308400D01*
G75*
G02*
X121106600Y-127410000I0J-101600D01*
G01*
X121106600Y-132490000D01*
G75*
G02*
X121005000Y-132591600I-101600J0D01*
G01*
G37*
G36*
G01*
X123545000Y-132591600D02*
X122275000Y-132591600D01*
G75*
G02*
X122173400Y-132490000I0J101600D01*
G01*
X122173400Y-127410000D01*
G75*
G02*
X122275000Y-127308400I101600J0D01*
G01*
X123545000Y-127308400D01*
G75*
G02*
X123646600Y-127410000I0J-101600D01*
G01*
X123646600Y-132490000D01*
G75*
G02*
X123545000Y-132591600I-101600J0D01*
G01*
G37*
G36*
G01*
X126085000Y-132591600D02*
X124815000Y-132591600D01*
G75*
G02*
X124713400Y-132490000I0J101600D01*
G01*
X124713400Y-127410000D01*
G75*
G02*
X124815000Y-127308400I101600J0D01*
G01*
X126085000Y-127308400D01*
G75*
G02*
X126186600Y-127410000I0J-101600D01*
G01*
X126186600Y-132490000D01*
G75*
G02*
X126085000Y-132591600I-101600J0D01*
G01*
G37*
G36*
G01*
X128625000Y-132591600D02*
X127355000Y-132591600D01*
G75*
G02*
X127253400Y-132490000I0J101600D01*
G01*
X127253400Y-127410000D01*
G75*
G02*
X127355000Y-127308400I101600J0D01*
G01*
X128625000Y-127308400D01*
G75*
G02*
X128726600Y-127410000I0J-101600D01*
G01*
X128726600Y-132490000D01*
G75*
G02*
X128625000Y-132591600I-101600J0D01*
G01*
G37*
G36*
G01*
X131165000Y-132591600D02*
X129895000Y-132591600D01*
G75*
G02*
X129793400Y-132490000I0J101600D01*
G01*
X129793400Y-127410000D01*
G75*
G02*
X129895000Y-127308400I101600J0D01*
G01*
X131165000Y-127308400D01*
G75*
G02*
X131266600Y-127410000I0J-101600D01*
G01*
X131266600Y-132490000D01*
G75*
G02*
X131165000Y-132591600I-101600J0D01*
G01*
G37*
G36*
G01*
X133705000Y-132591600D02*
X132435000Y-132591600D01*
G75*
G02*
X132333400Y-132490000I0J101600D01*
G01*
X132333400Y-127410000D01*
G75*
G02*
X132435000Y-127308400I101600J0D01*
G01*
X133705000Y-127308400D01*
G75*
G02*
X133806600Y-127410000I0J-101600D01*
G01*
X133806600Y-132490000D01*
G75*
G02*
X133705000Y-132591600I-101600J0D01*
G01*
G37*
G36*
G01*
X136245000Y-132591600D02*
X134975000Y-132591600D01*
G75*
G02*
X134873400Y-132490000I0J101600D01*
G01*
X134873400Y-127410000D01*
G75*
G02*
X134975000Y-127308400I101600J0D01*
G01*
X136245000Y-127308400D01*
G75*
G02*
X136346600Y-127410000I0J-101600D01*
G01*
X136346600Y-132490000D01*
G75*
G02*
X136245000Y-132591600I-101600J0D01*
G01*
G37*
G36*
G01*
X138785000Y-132591600D02*
X137515000Y-132591600D01*
G75*
G02*
X137413400Y-132490000I0J101600D01*
G01*
X137413400Y-127410000D01*
G75*
G02*
X137515000Y-127308400I101600J0D01*
G01*
X138785000Y-127308400D01*
G75*
G02*
X138886600Y-127410000I0J-101600D01*
G01*
X138886600Y-132490000D01*
G75*
G02*
X138785000Y-132591600I-101600J0D01*
G01*
G37*
G36*
G01*
X141325000Y-132591600D02*
X140055000Y-132591600D01*
G75*
G02*
X139953400Y-132490000I0J101600D01*
G01*
X139953400Y-127410000D01*
G75*
G02*
X140055000Y-127308400I101600J0D01*
G01*
X141325000Y-127308400D01*
G75*
G02*
X141426600Y-127410000I0J-101600D01*
G01*
X141426600Y-132490000D01*
G75*
G02*
X141325000Y-132591600I-101600J0D01*
G01*
G37*
G36*
G01*
X143865000Y-132591600D02*
X142595000Y-132591600D01*
G75*
G02*
X142493400Y-132490000I0J101600D01*
G01*
X142493400Y-127410000D01*
G75*
G02*
X142595000Y-127308400I101600J0D01*
G01*
X143865000Y-127308400D01*
G75*
G02*
X143966600Y-127410000I0J-101600D01*
G01*
X143966600Y-132490000D01*
G75*
G02*
X143865000Y-132591600I-101600J0D01*
G01*
G37*
G36*
G01*
X146405000Y-132591600D02*
X145135000Y-132591600D01*
G75*
G02*
X145033400Y-132490000I0J101600D01*
G01*
X145033400Y-127410000D01*
G75*
G02*
X145135000Y-127308400I101600J0D01*
G01*
X146405000Y-127308400D01*
G75*
G02*
X146506600Y-127410000I0J-101600D01*
G01*
X146506600Y-132490000D01*
G75*
G02*
X146405000Y-132591600I-101600J0D01*
G01*
G37*
G36*
G01*
X148945000Y-132591600D02*
X147675000Y-132591600D01*
G75*
G02*
X147573400Y-132490000I0J101600D01*
G01*
X147573400Y-127410000D01*
G75*
G02*
X147675000Y-127308400I101600J0D01*
G01*
X148945000Y-127308400D01*
G75*
G02*
X149046600Y-127410000I0J-101600D01*
G01*
X149046600Y-132490000D01*
G75*
G02*
X148945000Y-132591600I-101600J0D01*
G01*
G37*
G36*
G01*
X151485000Y-132591600D02*
X150215000Y-132591600D01*
G75*
G02*
X150113400Y-132490000I0J101600D01*
G01*
X150113400Y-127410000D01*
G75*
G02*
X150215000Y-127308400I101600J0D01*
G01*
X151485000Y-127308400D01*
G75*
G02*
X151586600Y-127410000I0J-101600D01*
G01*
X151586600Y-132490000D01*
G75*
G02*
X151485000Y-132591600I-101600J0D01*
G01*
G37*
G36*
G01*
X154025000Y-132591600D02*
X152755000Y-132591600D01*
G75*
G02*
X152653400Y-132490000I0J101600D01*
G01*
X152653400Y-127410000D01*
G75*
G02*
X152755000Y-127308400I101600J0D01*
G01*
X154025000Y-127308400D01*
G75*
G02*
X154126600Y-127410000I0J-101600D01*
G01*
X154126600Y-132490000D01*
G75*
G02*
X154025000Y-132591600I-101600J0D01*
G01*
G37*
G36*
G01*
X156565000Y-132591600D02*
X155295000Y-132591600D01*
G75*
G02*
X155193400Y-132490000I0J101600D01*
G01*
X155193400Y-127410000D01*
G75*
G02*
X155295000Y-127308400I101600J0D01*
G01*
X156565000Y-127308400D01*
G75*
G02*
X156666600Y-127410000I0J-101600D01*
G01*
X156666600Y-132490000D01*
G75*
G02*
X156565000Y-132591600I-101600J0D01*
G01*
G37*
G36*
G01*
X159105000Y-132591600D02*
X157835000Y-132591600D01*
G75*
G02*
X157733400Y-132490000I0J101600D01*
G01*
X157733400Y-127410000D01*
G75*
G02*
X157835000Y-127308400I101600J0D01*
G01*
X159105000Y-127308400D01*
G75*
G02*
X159206600Y-127410000I0J-101600D01*
G01*
X159206600Y-132490000D01*
G75*
G02*
X159105000Y-132591600I-101600J0D01*
G01*
G37*
G36*
G01*
X161645000Y-132591600D02*
X160375000Y-132591600D01*
G75*
G02*
X160273400Y-132490000I0J101600D01*
G01*
X160273400Y-127410000D01*
G75*
G02*
X160375000Y-127308400I101600J0D01*
G01*
X161645000Y-127308400D01*
G75*
G02*
X161746600Y-127410000I0J-101600D01*
G01*
X161746600Y-132490000D01*
G75*
G02*
X161645000Y-132591600I-101600J0D01*
G01*
G37*
G36*
G01*
X164185000Y-132591600D02*
X162915000Y-132591600D01*
G75*
G02*
X162813400Y-132490000I0J101600D01*
G01*
X162813400Y-127410000D01*
G75*
G02*
X162915000Y-127308400I101600J0D01*
G01*
X164185000Y-127308400D01*
G75*
G02*
X164286600Y-127410000I0J-101600D01*
G01*
X164286600Y-132490000D01*
G75*
G02*
X164185000Y-132591600I-101600J0D01*
G01*
G37*
D10*
X142000000Y-118500000D03*
D11*
X142000000Y-115960000D03*
X144540000Y-118500000D03*
X144540000Y-115960000D03*
X147080000Y-118500000D03*
X147080000Y-115960000D03*
X149620000Y-118500000D03*
X149620000Y-115960000D03*
X152160000Y-118500000D03*
X152160000Y-115960000D03*
X154700000Y-118500000D03*
X154700000Y-115960000D03*
X157240000Y-118500000D03*
X157240000Y-115960000D03*
X159780000Y-118500000D03*
X159780000Y-115960000D03*
X162320000Y-118500000D03*
X162320000Y-115960000D03*
X164860000Y-118500000D03*
X164860000Y-115960000D03*
X167400000Y-118500000D03*
X167400000Y-115960000D03*
X169940000Y-118500000D03*
X169940000Y-115960000D03*
X172480000Y-118500000D03*
X172480000Y-115960000D03*
X175020000Y-118500000D03*
X175020000Y-115960000D03*
X177560000Y-118500000D03*
X177560000Y-115960000D03*
X180100000Y-118500000D03*
X180100000Y-115960000D03*
X182640000Y-118500000D03*
X182640000Y-115960000D03*
X185180000Y-118500000D03*
X185180000Y-115960000D03*
X187720000Y-118500000D03*
X187720000Y-115960000D03*
X190260000Y-118500000D03*
X190260000Y-115960000D03*
D10*
X104500000Y-118500000D03*
D11*
X104500000Y-115960000D03*
X107040000Y-118500000D03*
X107040000Y-115960000D03*
X109580000Y-118500000D03*
X109580000Y-115960000D03*
X112120000Y-118500000D03*
X112120000Y-115960000D03*
M02*
