M48
; DRILL file {KiCad (5.1.9-0-10_14)} date Friday, April 09, 2021 at 01:13:08 PM
; FORMAT={-:-/ absolute / inch / decimal}
; #@! TF.CreationDate,2021-04-09T13:13:08-05:00
; #@! TF.GenerationSoftware,Kicad,Pcbnew,(5.1.9-0-10_14)
; #@! TF.FileFunction,Plated,1,2,PTH
FMAT,2
INCH
T1C0.0157
T2C0.0394
%
G90
G05
T1
X4.055Y-4.775
X4.265Y-4.615
X4.55Y-4.5225
X4.57Y-3.755
X4.5822Y-4.7078
X4.59Y-4.91
X4.75Y-4.3
X4.8Y-4.33
X4.85Y-4.36
X4.9Y-4.39
X4.95Y-4.42
X5.0Y-4.45
X5.24Y-4.51
X5.36Y-3.75
X5.89Y-4.3
X5.99Y-4.33
X6.09Y-4.36
X6.19Y-4.39
X6.29Y-4.42
X6.32Y-3.745
X6.39Y-4.45
X7.205Y-3.75
X7.55Y-4.77
T2
X4.1142Y-4.5654
X4.1142Y-4.6654
X4.2142Y-4.5654
X4.2142Y-4.6654
X4.3142Y-4.5654
X4.3142Y-4.6654
X4.4142Y-4.5654
X4.4142Y-4.6654
X5.5906Y-4.5654
X5.5906Y-4.6654
X5.6906Y-4.5654
X5.6906Y-4.6654
X5.7906Y-4.5654
X5.7906Y-4.6654
X5.8906Y-4.5654
X5.8906Y-4.6654
X5.9906Y-4.5654
X5.9906Y-4.6654
X6.0906Y-4.5654
X6.0906Y-4.6654
X6.1906Y-4.5654
X6.1906Y-4.6654
X6.2906Y-4.5654
X6.2906Y-4.6654
X6.3906Y-4.5654
X6.3906Y-4.6654
X6.4906Y-4.5654
X6.4906Y-4.6654
X6.5906Y-4.5654
X6.5906Y-4.6654
X6.6906Y-4.5654
X6.6906Y-4.6654
X6.7906Y-4.5654
X6.7906Y-4.6654
X6.8906Y-4.5654
X6.8906Y-4.6654
X6.9906Y-4.5654
X6.9906Y-4.6654
X7.0906Y-4.5654
X7.0906Y-4.6654
X7.1906Y-4.5654
X7.1906Y-4.6654
X7.2906Y-4.5654
X7.2906Y-4.6654
X7.3906Y-4.5654
X7.3906Y-4.6654
X7.4906Y-4.5654
X7.4906Y-4.6654
T0
M30
