<?xml version="1.0" encoding="utf-8"?>
<!-- Generator: Fusion 360, Shaper Origin Export Add-In, Version 1.9.0  -->
<svg xmlns="http://www.w3.org/2000/svg" xmlns:xlink="http://www.w3.org/1999/xlink" xmlns:shaper="http://www.shapertools.com/namespaces/shaper" shaper:fusionaddin="version:1.9.0" width="15cm" height="10cm" version="1.1" x="0cm" y="0cm" viewBox="0 0 15 10" enable-background="new 0 0 15 10" xml:space="preserve"><path d="M-6.15,5 A0.5,0.5 89.9999963 0,1 -6.65,4.5 L-6.65,1.358 A0.1,0.1 180 0,1 -6.55,1.258 L-5.4815,1.258 A0.1,0.1 90 0,0 -5.3815,1.158 L-5.3815,-1.128 A0.1,0.1 0 0,0 -5.4815,-1.228 L-6.55,-1.228 A0.1,0.1 90 0,1 -6.65,-1.328 L-6.65,-4.5 A0.5,0.5 179.9999964 0,1 -6.15,-5 L7.85,-5 A0.5,0.5 269.9999963 0,1 8.35,-4.5 L8.35,4.5 A0.5,0.5 0 0,1 7.85,5 L-6.15,5z" transform="matrix(1,0,0,-1,6.65,5)" fill="rgb(0,0,0)" shaper:cutDepth="0.3cm" stroke-linecap="round" stroke-linejoin="round" /><path d="M-6.21,4.4 a0.16,0.16 0 1,1 0.32,0 a0.16,0.16 0 1,1 -0.32,0z" transform="matrix(1,0,0,-1,6.65,5)" fill="rgb(255,255,255)" stroke="rgb(0,0,0)" stroke-width="0.0010cm" stroke-linecap="round" stroke-linejoin="round" shaper:cutDepth="0.3cm" /><path d="M7.75,3.9 A0.1,0.1 90 0,0 7.85,3.8 L7.85,-3.8 A0.1,0.1 0 0,0 7.75,-3.9 L0.2,-3.9 A0.1,0.1 270 0,0 0.1,-3.8 L0.1,3.8 A0.1,0.1 180 0,0 0.2,3.9 L7.75,3.9z" transform="matrix(1,0,0,-1,6.65,5)" fill="rgb(255,255,255)" stroke="rgb(0,0,0)" stroke-width="0.0010cm" stroke-linecap="round" stroke-linejoin="round" shaper:cutDepth="0.3cm" /><path d="M7.59,-4.4 a0.16,0.16 0 1,1 0.32,0 a0.16,0.16 0 1,1 -0.32,0z" transform="matrix(1,0,0,-1,6.65,5)" fill="rgb(255,255,255)" stroke="rgb(0,0,0)" stroke-width="0.0010cm" stroke-linecap="round" stroke-linejoin="round" shaper:cutDepth="0.3cm" /><path d="M-0.1,-3.8 A0.1,0.1 0 0,0 -0.2,-3.9 L-4.05,-3.9 A0.1,0.1 270 0,0 -4.15,-3.8 L-4.15,3.8 A0.1,0.1 180 0,0 -4.05,3.9 L-0.2,3.9 A0.1,0.1 90 0,0 -0.1,3.8 L-0.1,-3.8z" transform="matrix(1,0,0,-1,6.65,5)" fill="rgb(255,255,255)" stroke="rgb(0,0,0)" stroke-width="0.0010cm" stroke-linecap="round" stroke-linejoin="round" shaper:cutDepth="0.3cm" /><path d="M-6.21,-4.4 a0.16,0.16 0 1,1 0.32,0 a0.16,0.16 0 1,1 -0.32,0z" transform="matrix(1,0,0,-1,6.65,5)" fill="rgb(255,255,255)" stroke="rgb(0,0,0)" stroke-width="0.0010cm" stroke-linecap="round" stroke-linejoin="round" shaper:cutDepth="0.3cm" /><path d="M7.59,4.4 a0.16,0.16 0 1,1 0.32,0 a0.16,0.16 0 1,1 -0.32,0z" transform="matrix(1,0,0,-1,6.65,5)" fill="rgb(255,255,255)" stroke="rgb(0,0,0)" stroke-width="0.0010cm" stroke-linecap="round" stroke-linejoin="round" shaper:cutDepth="0.3cm" /></svg>