G04 #@! TF.GenerationSoftware,KiCad,Pcbnew,(5.1.9-0-10_14)*
G04 #@! TF.CreationDate,2021-05-05T15:59:09-05:00*
G04 #@! TF.ProjectId,CPU Card,43505520-4361-4726-942e-6b696361645f,v1.0*
G04 #@! TF.SameCoordinates,Original*
G04 #@! TF.FileFunction,Paste,Top*
G04 #@! TF.FilePolarity,Positive*
%FSLAX46Y46*%
G04 Gerber Fmt 4.6, Leading zero omitted, Abs format (unit mm)*
G04 Created by KiCad (PCBNEW (5.1.9-0-10_14)) date 2021-05-05 15:59:09*
%MOMM*%
%LPD*%
G01*
G04 APERTURE LIST*
%ADD10R,1.270000X5.080000*%
G04 APERTURE END LIST*
D10*
X163510000Y-129900000D03*
X160970000Y-129900000D03*
X158430000Y-129900000D03*
X155890000Y-129900000D03*
X153350000Y-129900000D03*
X150810000Y-129900000D03*
X148270000Y-129900000D03*
X145730000Y-129900000D03*
X143190000Y-129900000D03*
X140650000Y-129900000D03*
X138110000Y-129900000D03*
X135570000Y-129900000D03*
X133030000Y-129900000D03*
X130490000Y-129900000D03*
X127950000Y-129900000D03*
X125410000Y-129900000D03*
X122870000Y-129900000D03*
X120330000Y-129900000D03*
X117790000Y-129900000D03*
X115250000Y-129900000D03*
G36*
G01*
X152895000Y-86901000D02*
X152895000Y-87851000D01*
G75*
G02*
X152645000Y-88101000I-250000J0D01*
G01*
X152145000Y-88101000D01*
G75*
G02*
X151895000Y-87851000I0J250000D01*
G01*
X151895000Y-86901000D01*
G75*
G02*
X152145000Y-86651000I250000J0D01*
G01*
X152645000Y-86651000D01*
G75*
G02*
X152895000Y-86901000I0J-250000D01*
G01*
G37*
G36*
G01*
X150995000Y-86901000D02*
X150995000Y-87851000D01*
G75*
G02*
X150745000Y-88101000I-250000J0D01*
G01*
X150245000Y-88101000D01*
G75*
G02*
X149995000Y-87851000I0J250000D01*
G01*
X149995000Y-86901000D01*
G75*
G02*
X150245000Y-86651000I250000J0D01*
G01*
X150745000Y-86651000D01*
G75*
G02*
X150995000Y-86901000I0J-250000D01*
G01*
G37*
G36*
G01*
X170692500Y-113087998D02*
X170692500Y-113988002D01*
G75*
G02*
X170442502Y-114238000I-249998J0D01*
G01*
X169917498Y-114238000D01*
G75*
G02*
X169667500Y-113988002I0J249998D01*
G01*
X169667500Y-113087998D01*
G75*
G02*
X169917498Y-112838000I249998J0D01*
G01*
X170442502Y-112838000D01*
G75*
G02*
X170692500Y-113087998I0J-249998D01*
G01*
G37*
G36*
G01*
X168867500Y-113087998D02*
X168867500Y-113988002D01*
G75*
G02*
X168617502Y-114238000I-249998J0D01*
G01*
X168092498Y-114238000D01*
G75*
G02*
X167842500Y-113988002I0J249998D01*
G01*
X167842500Y-113087998D01*
G75*
G02*
X168092498Y-112838000I249998J0D01*
G01*
X168617502Y-112838000D01*
G75*
G02*
X168867500Y-113087998I0J-249998D01*
G01*
G37*
G36*
G01*
X166327500Y-86925998D02*
X166327500Y-87826002D01*
G75*
G02*
X166077502Y-88076000I-249998J0D01*
G01*
X165552498Y-88076000D01*
G75*
G02*
X165302500Y-87826002I0J249998D01*
G01*
X165302500Y-86925998D01*
G75*
G02*
X165552498Y-86676000I249998J0D01*
G01*
X166077502Y-86676000D01*
G75*
G02*
X166327500Y-86925998I0J-249998D01*
G01*
G37*
G36*
G01*
X168152500Y-86925998D02*
X168152500Y-87826002D01*
G75*
G02*
X167902502Y-88076000I-249998J0D01*
G01*
X167377498Y-88076000D01*
G75*
G02*
X167127500Y-87826002I0J249998D01*
G01*
X167127500Y-86925998D01*
G75*
G02*
X167377498Y-86676000I249998J0D01*
G01*
X167902502Y-86676000D01*
G75*
G02*
X168152500Y-86925998I0J-249998D01*
G01*
G37*
G36*
G01*
X163119500Y-86925998D02*
X163119500Y-87826002D01*
G75*
G02*
X162869502Y-88076000I-249998J0D01*
G01*
X162344498Y-88076000D01*
G75*
G02*
X162094500Y-87826002I0J249998D01*
G01*
X162094500Y-86925998D01*
G75*
G02*
X162344498Y-86676000I249998J0D01*
G01*
X162869502Y-86676000D01*
G75*
G02*
X163119500Y-86925998I0J-249998D01*
G01*
G37*
G36*
G01*
X161294500Y-86925998D02*
X161294500Y-87826002D01*
G75*
G02*
X161044502Y-88076000I-249998J0D01*
G01*
X160519498Y-88076000D01*
G75*
G02*
X160269500Y-87826002I0J249998D01*
G01*
X160269500Y-86925998D01*
G75*
G02*
X160519498Y-86676000I249998J0D01*
G01*
X161044502Y-86676000D01*
G75*
G02*
X161294500Y-86925998I0J-249998D01*
G01*
G37*
G36*
G01*
X156167500Y-86925998D02*
X156167500Y-87826002D01*
G75*
G02*
X155917502Y-88076000I-249998J0D01*
G01*
X155392498Y-88076000D01*
G75*
G02*
X155142500Y-87826002I0J249998D01*
G01*
X155142500Y-86925998D01*
G75*
G02*
X155392498Y-86676000I249998J0D01*
G01*
X155917502Y-86676000D01*
G75*
G02*
X156167500Y-86925998I0J-249998D01*
G01*
G37*
G36*
G01*
X157992500Y-86925998D02*
X157992500Y-87826002D01*
G75*
G02*
X157742502Y-88076000I-249998J0D01*
G01*
X157217498Y-88076000D01*
G75*
G02*
X156967500Y-87826002I0J249998D01*
G01*
X156967500Y-86925998D01*
G75*
G02*
X157217498Y-86676000I249998J0D01*
G01*
X157742502Y-86676000D01*
G75*
G02*
X157992500Y-86925998I0J-249998D01*
G01*
G37*
G36*
G01*
X159507500Y-113988002D02*
X159507500Y-113087998D01*
G75*
G02*
X159757498Y-112838000I249998J0D01*
G01*
X160282502Y-112838000D01*
G75*
G02*
X160532500Y-113087998I0J-249998D01*
G01*
X160532500Y-113988002D01*
G75*
G02*
X160282502Y-114238000I-249998J0D01*
G01*
X159757498Y-114238000D01*
G75*
G02*
X159507500Y-113988002I0J249998D01*
G01*
G37*
G36*
G01*
X161332500Y-113988002D02*
X161332500Y-113087998D01*
G75*
G02*
X161582498Y-112838000I249998J0D01*
G01*
X162107502Y-112838000D01*
G75*
G02*
X162357500Y-113087998I0J-249998D01*
G01*
X162357500Y-113988002D01*
G75*
G02*
X162107502Y-114238000I-249998J0D01*
G01*
X161582498Y-114238000D01*
G75*
G02*
X161332500Y-113988002I0J249998D01*
G01*
G37*
G36*
G01*
X175526100Y-99813600D02*
X174576100Y-99813600D01*
G75*
G02*
X174326100Y-99563600I0J250000D01*
G01*
X174326100Y-99063600D01*
G75*
G02*
X174576100Y-98813600I250000J0D01*
G01*
X175526100Y-98813600D01*
G75*
G02*
X175776100Y-99063600I0J-250000D01*
G01*
X175776100Y-99563600D01*
G75*
G02*
X175526100Y-99813600I-250000J0D01*
G01*
G37*
G36*
G01*
X175526100Y-97913600D02*
X174576100Y-97913600D01*
G75*
G02*
X174326100Y-97663600I0J250000D01*
G01*
X174326100Y-97163600D01*
G75*
G02*
X174576100Y-96913600I250000J0D01*
G01*
X175526100Y-96913600D01*
G75*
G02*
X175776100Y-97163600I0J-250000D01*
G01*
X175776100Y-97663600D01*
G75*
G02*
X175526100Y-97913600I-250000J0D01*
G01*
G37*
M02*
