M48
; DRILL file {KiCad (5.1.9-0-10_14)} date Friday, April 09, 2021 at 01:06:00 PM
; FORMAT={-:-/ absolute / inch / decimal}
; #@! TF.CreationDate,2021-04-09T13:06:00-05:00
; #@! TF.GenerationSoftware,Kicad,Pcbnew,(5.1.9-0-10_14)
; #@! TF.FileFunction,Plated,1,2,PTH
FMAT,2
INCH
T1C0.0157
T2C0.0315
T3C0.0394
%
G90
G05
T1
X4.275Y-3.31
X4.34Y-4.325
X4.44Y-3.95
X4.44Y-4.36
X4.49Y-3.31
X4.54Y-3.9243
X4.54Y-4.39
X4.64Y-3.9043
X4.64Y-4.1
X4.64Y-4.795
X4.64Y-4.9
X4.695Y-4.9
X4.74Y-3.88
X4.74Y-4.07
X4.765Y-4.655
X4.765Y-4.845
X4.79Y-3.49
X4.8Y-3.09
X4.84Y-4.9
X4.8407Y-3.8543
X4.85Y-3.255
X4.89Y-4.9
X4.9Y-3.455
X4.94Y-3.825
X4.94Y-3.9807
X4.94Y-4.42
X4.95Y-3.12
X4.95Y-3.525
X4.99Y-3.455
X4.99Y-4.945
X5.04Y-3.8
X5.04Y-4.51
X5.04Y-4.68
X5.04Y-4.945
X5.05Y-3.455
X5.09Y-4.54
X5.09Y-4.945
X5.14Y-3.775
X5.14Y-4.4507
X5.19Y-4.48
X5.19Y-4.785
X5.2393Y-4.4507
X5.24Y-3.75
X5.24Y-4.04
X5.24Y-4.13
X5.24Y-4.945
X5.29Y-3.525
X5.34Y-3.725
X5.34Y-4.13
X5.34Y-4.42
X5.34Y-4.895
X5.39Y-4.75
X5.44Y-4.13
X5.44Y-3.535
X5.44Y-4.68
X5.49Y-4.68
X5.49Y-3.455
X5.54Y-3.565
X5.54Y-4.62
X5.59Y-4.715
X5.64Y-3.9807
X5.64Y-4.16
X5.64Y-4.68
X5.64Y-4.935
X5.685Y-3.09
X5.685Y-3.31
X5.695Y-4.68
X5.735Y-3.31
X5.735Y-3.505
X5.74Y-4.75
X5.74Y-4.935
X5.79Y-4.71
X5.835Y-3.275
X5.89Y-4.54
X5.89Y-4.875
X5.935Y-3.275
X5.94Y-4.16
X5.94Y-4.65
X5.94Y-4.745
X5.9914Y-4.36
X6.0394Y-4.3293
X6.055Y-3.275
X6.055Y-3.47
X6.13Y-3.96
X6.13Y-4.36
X6.23Y-3.9313
X6.23Y-4.39
X6.23Y-4.745
X6.33Y-3.9057
X6.33Y-4.1
X6.33Y-4.71
X6.4057Y-4.68
X6.415Y-4.1
X6.43Y-3.88
X6.44Y-4.65
X6.48Y-3.235
X6.49Y-4.92
X6.53Y-3.855
X6.555Y-3.09
X6.555Y-3.505
X6.58Y-4.8907
X6.63Y-3.8277
X6.63Y-4.42
X6.655Y-3.275
X6.68Y-4.865
X6.705Y-3.315
X6.73Y-3.802
X6.73Y-4.51
X6.775Y-4.8363
X6.78Y-4.13
X6.83Y-3.7763
X6.83Y-4.45
X6.93Y-3.7507
X6.93Y-4.48
X6.96Y-3.28
X6.98Y-4.8107
X7.03Y-4.785
X7.03Y-3.725
X7.03Y-4.04
X7.13Y-3.535
X7.13Y-4.13
X7.23Y-3.565
X7.28Y-3.09
X7.33Y-3.505
X7.33Y-4.16
X7.525Y-4.44
T2
X4.34Y-3.65
X4.34Y-4.25
X4.44Y-3.65
X4.44Y-4.25
X4.54Y-3.65
X4.54Y-4.25
X4.64Y-3.65
X4.64Y-4.25
X4.74Y-3.65
X4.74Y-4.25
X4.84Y-3.65
X4.84Y-4.25
X4.94Y-3.65
X4.94Y-4.25
X5.04Y-3.65
X5.04Y-4.25
X5.14Y-3.65
X5.14Y-4.25
X5.24Y-3.65
X5.24Y-4.25
X5.34Y-3.65
X5.34Y-4.25
X5.44Y-3.65
X5.44Y-4.25
X5.54Y-3.65
X5.54Y-4.25
X5.64Y-3.65
X5.64Y-4.25
X6.03Y-3.65
X6.03Y-4.25
X6.13Y-3.65
X6.13Y-4.25
X6.23Y-3.65
X6.23Y-4.25
X6.33Y-3.65
X6.33Y-4.25
X6.43Y-3.65
X6.43Y-4.25
X6.53Y-3.65
X6.53Y-4.25
X6.63Y-3.65
X6.63Y-4.25
X6.73Y-3.65
X6.73Y-4.25
X6.83Y-3.65
X6.83Y-4.25
X6.93Y-3.65
X6.93Y-4.25
X7.03Y-3.65
X7.03Y-4.25
X7.13Y-3.65
X7.13Y-4.25
X7.23Y-3.65
X7.23Y-4.25
X7.33Y-3.65
X7.33Y-4.25
T3
X4.35Y-4.58
X4.35Y-4.68
X4.45Y-4.58
X4.45Y-4.68
X7.195Y-4.62
X7.295Y-4.62
T0
M30
